solid AssimpScene
 facet normal 0 0 0
  outer loop
  vertex 0.0333870873 -0.00435544271 0.00439659739
  vertex 0.0358205996 0.00132397283 0.00637267111
  vertex 0.00389592815 0.00216892501 0.00715612061
  endloop
 endfacet

 facet normal 0 0 0
  outer loop
  vertex 0.0333870873 -0.00435544271 0.00439659739
  vertex 0.00389592815 0.00216892501 0.00715612061
  vertex 0.00409115059 -0.00201250031 0.00578025822
  endloop
 endfacet

 facet normal 0 0 0
  outer loop
  vertex 0.0428561196 0.00179160212 -0.00136570772
  vertex 0.0435808562 -0.00086120615 -8.79425716e-06
  vertex 0.0423519835 -0.000266995368 -0.00390175404
  endloop
 endfacet

 facet normal 0 0 0
  outer loop
  vertex 0.0333870873 -0.00435544271 0.00439659739
  vertex 0.0410032049 -0.00256864727 0.00405249931
  vertex 0.0358205996 0.00132397283 0.00637267111
  endloop
 endfacet

 facet normal 0 0 0
  outer loop
  vertex 0.0333882309 -0.00436318479 -0.00441500871
  vertex 0.0346040875 6.45198525e-05 -0.00643780502
  vertex 0.0407057703 -0.00410148688 -0.00300937635
  endloop
 endfacet

 facet normal 0 0 0
  outer loop
  vertex 0.00365964789 0.00722979708 0.00704486482
  vertex 0.0358205996 0.00132397283 0.00637267111
  vertex 0.036871843 0.0027187753 0.00567121524
  endloop
 endfacet

 facet normal 0 0 0
  outer loop
  vertex 0.00365964789 0.00722979708 0.00704486482
  vertex 0.036871843 0.0027187753 0.00567121524
  vertex 0.00347771565 0.0111265797 0.00557335559
  endloop
 endfacet

 facet normal 0 0 0
  outer loop
  vertex 0.00347771565 0.0111265797 0.00557335559
  vertex 0.00579750817 0.0120230773 0.00425979961
  vertex 0.00336516998 0.013537203 0.000613322423
  endloop
 endfacet

 facet normal 0 0 0
  outer loop
  vertex -0.00416184962 -0.00140001217 -0.00350000453
  vertex -0.00178247981 -0.00368719781 -0.003499988
  vertex -0.00326508796 -0.00261782692 0.00350000267
  endloop
 endfacet

 facet normal 0 0 0
  outer loop
  vertex -0.00416184962 -0.00140001217 -0.00350000453
  vertex -0.00326508796 -0.00261782692 0.00350000267
  vertex -0.00626685889 0.00613756897 0.00350001385
  endloop
 endfacet

 facet normal 0 0 0
  outer loop
  vertex -0.00416184962 -0.00140001217 -0.00350000453
  vertex -0.00626685889 0.00613756897 0.00350001385
  vertex -0.00626685796 0.00613756897 -0.00350001245
  endloop
 endfacet

 facet normal 0 0 0
  outer loop
  vertex -0.00416184962 -0.00140001217 -0.00350000453
  vertex -0.00626685796 0.00613756897 -0.00350001245
  vertex 0.00389608112 0.00216568774 -0.00716546318
  endloop
 endfacet

 facet normal 0 0 0
  outer loop
  vertex 0.0214607827 0.00936105195 -7.14314592e-06
  vertex 0.0416520424 0.00204884587 0.00318015739
  vertex 0.0428561196 0.00179160212 -0.00136570772
  endloop
 endfacet

 facet normal 0 0 0
  outer loop
  vertex 0.0214607827 0.00936105195 -7.14314592e-06
  vertex 0.0428561196 0.00179160212 -0.00136570772
  vertex 0.0392325856 0.00265378272 -0.00453481218
  endloop
 endfacet

 facet normal 0 0 0
  outer loop
  vertex 0.0214607827 0.00936105195 -7.14314592e-06
  vertex 0.00336516998 0.013537203 0.000613322423
  vertex 0.00579750817 0.0120230773 0.00425979961
  endloop
 endfacet

 facet normal 0 0 0
  outer loop
  vertex 0.0405749269 0.000770132756 0.00517514115
  vertex 0.0358205996 0.00132397283 0.00637267111
  vertex 0.0410032049 -0.00256864727 0.00405249931
  endloop
 endfacet

 facet normal 0 0 0
  outer loop
  vertex 0.00578222936 0.0123514421 -0.00372648262
  vertex 0.00339442119 0.0129106818 -0.00334570929
  vertex 0.00336516998 0.013537203 0.000613322423
  endloop
 endfacet

 facet normal 0 0 0
  outer loop
  vertex 0.00578222936 0.0123514421 -0.00372648262
  vertex 0.00336516998 0.013537203 0.000613322423
  vertex 0.0214607827 0.00936105195 -7.14314592e-06
  endloop
 endfacet

 facet normal 0 0 0
  outer loop
  vertex 0.00578222936 0.0123514421 -0.00372648262
  vertex 0.0214607827 0.00936105195 -7.14314592e-06
  vertex 0.0392325856 0.00265378272 -0.00453481218
  endloop
 endfacet

 facet normal 0 0 0
  outer loop
  vertex 0.00578222936 0.0123514421 -0.00372648262
  vertex 0.0392325856 0.00265378272 -0.00453481218
  vertex 0.0295884255 0.00357980304 -0.00659387186
  endloop
 endfacet

 facet normal 0 0 0
  outer loop
  vertex 0.00578222936 0.0123514421 -0.00372648262
  vertex 0.0295884255 0.00357980304 -0.00659387186
  vertex 0.00348335202 0.0110058542 -0.00567616709
  endloop
 endfacet

 facet normal 0 0 0
  outer loop
  vertex 0.042895861 -0.000587548362 0.00304129627
  vertex 0.0435808562 -0.00086120615 -8.79425716e-06
  vertex 0.0428561196 0.00179160212 -0.00136570772
  endloop
 endfacet

 facet normal 0 0 0
  outer loop
  vertex 0.042895861 -0.000587548362 0.00304129627
  vertex 0.0428561196 0.00179160212 -0.00136570772
  vertex 0.0416520424 0.00204884587 0.00318015739
  endloop
 endfacet

 facet normal 0 0 0
  outer loop
  vertex 0.042895861 -0.000587548362 0.00304129627
  vertex 0.0416520424 0.00204884587 0.00318015739
  vertex 0.0405749269 0.000770132756 0.00517514115
  endloop
 endfacet

 facet normal 0 0 0
  outer loop
  vertex 0.042895861 -0.000587548362 0.00304129627
  vertex 0.0405749269 0.000770132756 0.00517514115
  vertex 0.0410032049 -0.00256864727 0.00405249931
  endloop
 endfacet

 facet normal 0 0 0
  outer loop
  vertex 0.042895861 -0.000587548362 0.00304129627
  vertex 0.0410032049 -0.00256864727 0.00405249931
  vertex 0.0421624742 -0.00424667308 0.000705649552
  endloop
 endfacet

 facet normal 0 0 0
  outer loop
  vertex 0.042895861 -0.000587548362 0.00304129627
  vertex 0.0421624742 -0.00424667308 0.000705649552
  vertex 0.0435808562 -0.00086120615 -8.79425716e-06
  endloop
 endfacet

 facet normal 0 0 0
  outer loop
  vertex -0.00137607951 -0.00373502751 0.00350000826
  vertex 0.0365887173 -0.00611730153 0.000900641899
  vertex 0.0333870873 -0.00435544271 0.00439659739
  endloop
 endfacet

 facet normal 0 0 0
  outer loop
  vertex -0.00137607951 -0.00373502751 0.00350000826
  vertex 0.0333870873 -0.00435544271 0.00439659739
  vertex 0.00409115059 -0.00201250031 0.00578025822
  endloop
 endfacet

 facet normal 0 0 0
  outer loop
  vertex -0.00137607951 -0.00373502751 0.00350000826
  vertex 0.00409115059 -0.00201250031 0.00578025822
  vertex -0.00326508796 -0.00261782692 0.00350000267
  endloop
 endfacet

 facet normal 0 0 0
  outer loop
  vertex -0.00137607951 -0.00373502751 0.00350000826
  vertex -0.00326508796 -0.00261782692 0.00350000267
  vertex -0.00178247981 -0.00368719781 -0.003499988
  endloop
 endfacet

 facet normal 0 0 0
  outer loop
  vertex -0.00137607951 -0.00373502751 0.00350000826
  vertex -0.00178247981 -0.00368719781 -0.003499988
  vertex 0.0365887173 -0.00611730153 0.000900641899
  endloop
 endfacet

 facet normal 0 0 0
  outer loop
  vertex 0.00406088773 -0.00136434648 -0.00618359121
  vertex 0.00389608112 0.00216568774 -0.00716546318
  vertex 0.0346040875 6.45198525e-05 -0.00643780502
  endloop
 endfacet

 facet normal 0 0 0
  outer loop
  vertex 0.00406088773 -0.00136434648 -0.00618359121
  vertex 0.0346040875 6.45198525e-05 -0.00643780502
  vertex 0.0333882309 -0.00436318479 -0.00441500871
  endloop
 endfacet

 facet normal 0 0 0
  outer loop
  vertex 0.00406088773 -0.00136434648 -0.00618359121
  vertex 0.0333882309 -0.00436318479 -0.00441500871
  vertex -0.00178247981 -0.00368719781 -0.003499988
  endloop
 endfacet

 facet normal 0 0 0
  outer loop
  vertex 0.00406088773 -0.00136434648 -0.00618359121
  vertex -0.00178247981 -0.00368719781 -0.003499988
  vertex -0.00416184962 -0.00140001217 -0.00350000453
  endloop
 endfacet

 facet normal 0 0 0
  outer loop
  vertex 0.00406088773 -0.00136434648 -0.00618359121
  vertex -0.00416184962 -0.00140001217 -0.00350000453
  vertex 0.00389608112 0.00216568774 -0.00716546318
  endloop
 endfacet

 facet normal 0 0 0
  outer loop
  vertex 0.036871843 0.0027187753 0.00567121524
  vertex 0.0358205996 0.00132397283 0.00637267111
  vertex 0.0405749269 0.000770132756 0.00517514115
  endloop
 endfacet

 facet normal 0 0 0
  outer loop
  vertex 0.036871843 0.0027187753 0.00567121524
  vertex 0.0405749269 0.000770132756 0.00517514115
  vertex 0.0416520424 0.00204884587 0.00318015739
  endloop
 endfacet

 facet normal 0 0 0
  outer loop
  vertex 0.036871843 0.0027187753 0.00567121524
  vertex 0.0416520424 0.00204884587 0.00318015739
  vertex 0.0214607827 0.00936105195 -7.14314592e-06
  endloop
 endfacet

 facet normal 0 0 0
  outer loop
  vertex 0.036871843 0.0027187753 0.00567121524
  vertex 0.0214607827 0.00936105195 -7.14314592e-06
  vertex 0.00579750817 0.0120230773 0.00425979961
  endloop
 endfacet

 facet normal 0 0 0
  outer loop
  vertex 0.036871843 0.0027187753 0.00567121524
  vertex 0.00579750817 0.0120230773 0.00425979961
  vertex 0.00347771565 0.0111265797 0.00557335559
  endloop
 endfacet

 facet normal 0 0 0
  outer loop
  vertex 0.00339442119 0.0129106818 -0.00334570929
  vertex 0.00578222936 0.0123514421 -0.00372648262
  vertex 0.00348335202 0.0110058542 -0.00567616709
  endloop
 endfacet

 facet normal 0 0 0
  outer loop
  vertex 0.00339442119 0.0129106818 -0.00334570929
  vertex 0.00348335202 0.0110058542 -0.00567616709
  vertex -0.00467206817 0.00822736416 -0.00349999103
  endloop
 endfacet

 facet normal 0 0 0
  outer loop
  vertex 0.00339442119 0.0129106818 -0.00334570929
  vertex -0.00467206817 0.00822736416 -0.00349999103
  vertex 0.00336516998 0.013537203 0.000613322423
  endloop
 endfacet

 facet normal 0 0 0
  outer loop
  vertex 0.0399491154 0.00107862242 -0.00544721121
  vertex 0.0392325856 0.00265378272 -0.00453481218
  vertex 0.0428561196 0.00179160212 -0.00136570772
  endloop
 endfacet

 facet normal 0 0 0
  outer loop
  vertex 0.0399491154 0.00107862242 -0.00544721121
  vertex 0.0428561196 0.00179160212 -0.00136570772
  vertex 0.0423519835 -0.000266995368 -0.00390175404
  endloop
 endfacet

 facet normal 0 0 0
  outer loop
  vertex 0.0399491154 0.00107862242 -0.00544721121
  vertex 0.0423519835 -0.000266995368 -0.00390175404
  vertex 0.0407057703 -0.00410148688 -0.00300937635
  endloop
 endfacet

 facet normal 0 0 0
  outer loop
  vertex 0.0399491154 0.00107862242 -0.00544721121
  vertex 0.0407057703 -0.00410148688 -0.00300937635
  vertex 0.0346040875 6.45198525e-05 -0.00643780502
  endloop
 endfacet

 facet normal 0 0 0
  outer loop
  vertex 0.0399491154 0.00107862242 -0.00544721121
  vertex 0.0346040875 6.45198525e-05 -0.00643780502
  vertex 0.0295884255 0.00357980304 -0.00659387186
  endloop
 endfacet

 facet normal 0 0 0
  outer loop
  vertex 0.0399491154 0.00107862242 -0.00544721121
  vertex 0.0295884255 0.00357980304 -0.00659387186
  vertex 0.0392325856 0.00265378272 -0.00453481218
  endloop
 endfacet

 facet normal 0 0 0
  outer loop
  vertex -0.00545428041 0.00774792442 0.00349999312
  vertex -0.00626685889 0.00613756897 0.00350001385
  vertex 0.00365964789 0.00722979708 0.00704486482
  endloop
 endfacet

 facet normal 0 0 0
  outer loop
  vertex -0.00545428041 0.00774792442 0.00349999312
  vertex 0.00365964789 0.00722979708 0.00704486482
  vertex 0.00347771565 0.0111265797 0.00557335559
  endloop
 endfacet

 facet normal 0 0 0
  outer loop
  vertex -0.00545428041 0.00774792442 0.00349999312
  vertex 0.00347771565 0.0111265797 0.00557335559
  vertex 0.00336516998 0.013537203 0.000613322423
  endloop
 endfacet

 facet normal 0 0 0
  outer loop
  vertex -0.00545428041 0.00774792442 0.00349999312
  vertex 0.00336516998 0.013537203 0.000613322423
  vertex -0.00467206817 0.00822736416 -0.00349999103
  endloop
 endfacet

 facet normal 0 0 0
  outer loop
  vertex -0.00545428041 0.00774792442 0.00349999312
  vertex -0.00467206817 0.00822736416 -0.00349999103
  vertex -0.00626685796 0.00613756897 -0.00350001245
  endloop
 endfacet

 facet normal 0 0 0
  outer loop
  vertex -0.00545428041 0.00774792442 0.00349999312
  vertex -0.00626685796 0.00613756897 -0.00350001245
  vertex -0.00626685889 0.00613756897 0.00350001385
  endloop
 endfacet

 facet normal 0 0 0
  outer loop
  vertex 0.0429413617 -0.0027782328 -0.00178672781
  vertex 0.0423519835 -0.000266995368 -0.00390175404
  vertex 0.0435808562 -0.00086120615 -8.79425716e-06
  endloop
 endfacet

 facet normal 0 0 0
  outer loop
  vertex 0.0429413617 -0.0027782328 -0.00178672781
  vertex 0.0435808562 -0.00086120615 -8.79425716e-06
  vertex 0.0421624742 -0.00424667308 0.000705649552
  endloop
 endfacet

 facet normal 0 0 0
  outer loop
  vertex 0.0429413617 -0.0027782328 -0.00178672781
  vertex 0.0421624742 -0.00424667308 0.000705649552
  vertex 0.0407057703 -0.00410148688 -0.00300937635
  endloop
 endfacet

 facet normal 0 0 0
  outer loop
  vertex 0.0429413617 -0.0027782328 -0.00178672781
  vertex 0.0407057703 -0.00410148688 -0.00300937635
  vertex 0.0423519835 -0.000266995368 -0.00390175404
  endloop
 endfacet

 facet normal 0 0 0
  outer loop
  vertex 0.0372981578 -0.0058730063 -0.0017699973
  vertex 0.0365887173 -0.00611730153 0.000900641899
  vertex -0.00178247981 -0.00368719781 -0.003499988
  endloop
 endfacet

 facet normal 0 0 0
  outer loop
  vertex 0.0372981578 -0.0058730063 -0.0017699973
  vertex -0.00178247981 -0.00368719781 -0.003499988
  vertex 0.0333882309 -0.00436318479 -0.00441500871
  endloop
 endfacet

 facet normal 0 0 0
  outer loop
  vertex 0.0372981578 -0.0058730063 -0.0017699973
  vertex 0.0333882309 -0.00436318479 -0.00441500871
  vertex 0.0407057703 -0.00410148688 -0.00300937635
  endloop
 endfacet

 facet normal 0 0 0
  outer loop
  vertex 0.0372981578 -0.0058730063 -0.0017699973
  vertex 0.0407057703 -0.00410148688 -0.00300937635
  vertex 0.0421624742 -0.00424667308 0.000705649552
  endloop
 endfacet

 facet normal 0 0 0
  outer loop
  vertex 0.0372981578 -0.0058730063 -0.0017699973
  vertex 0.0421624742 -0.00424667308 0.000705649552
  vertex 0.0394271314 -0.00510337064 0.0024353927
  endloop
 endfacet

 facet normal 0 0 0
  outer loop
  vertex 0.0372981578 -0.0058730063 -0.0017699973
  vertex 0.0394271314 -0.00510337064 0.0024353927
  vertex 0.0365887173 -0.00611730153 0.000900641899
  endloop
 endfacet

 facet normal 0 0 0
  outer loop
  vertex 0.00389592815 0.00216892501 0.00715612061
  vertex 0.0358205996 0.00132397283 0.00637267111
  vertex 0.00365964789 0.00722979708 0.00704486482
  endloop
 endfacet

 facet normal 0 0 0
  outer loop
  vertex 0.00389592815 0.00216892501 0.00715612061
  vertex 0.00365964789 0.00722979708 0.00704486482
  vertex -0.00626685889 0.00613756897 0.00350001385
  endloop
 endfacet

 facet normal 0 0 0
  outer loop
  vertex 0.00389592815 0.00216892501 0.00715612061
  vertex -0.00626685889 0.00613756897 0.00350001385
  vertex -0.00326508796 -0.00261782692 0.00350000267
  endloop
 endfacet

 facet normal 0 0 0
  outer loop
  vertex 0.00389592815 0.00216892501 0.00715612061
  vertex -0.00326508796 -0.00261782692 0.00350000267
  vertex 0.00409115059 -0.00201250031 0.00578025822
  endloop
 endfacet

 facet normal 0 0 0
  outer loop
  vertex 0.0394271314 -0.00510337064 0.0024353927
  vertex 0.0421624742 -0.00424667308 0.000705649552
  vertex 0.0410032049 -0.00256864727 0.00405249931
  endloop
 endfacet

 facet normal 0 0 0
  outer loop
  vertex 0.0394271314 -0.00510337064 0.0024353927
  vertex 0.0410032049 -0.00256864727 0.00405249931
  vertex 0.0333870873 -0.00435544271 0.00439659739
  endloop
 endfacet

 facet normal 0 0 0
  outer loop
  vertex 0.0394271314 -0.00510337064 0.0024353927
  vertex 0.0333870873 -0.00435544271 0.00439659739
  vertex 0.0365887173 -0.00611730153 0.000900641899
  endloop
 endfacet

 facet normal 0 0 0
  outer loop
  vertex 0.00363958278 0.00765959918 -0.00699747493
  vertex 0.00348335202 0.0110058542 -0.00567616709
  vertex 0.0295884255 0.00357980304 -0.00659387186
  endloop
 endfacet

 facet normal 0 0 0
  outer loop
  vertex 0.00363958278 0.00765959918 -0.00699747493
  vertex 0.0295884255 0.00357980304 -0.00659387186
  vertex 0.0346040875 6.45198525e-05 -0.00643780502
  endloop
 endfacet

 facet normal 0 0 0
  outer loop
  vertex 0.00363958278 0.00765959918 -0.00699747493
  vertex 0.0346040875 6.45198525e-05 -0.00643780502
  vertex 0.00389608112 0.00216568774 -0.00716546318
  endloop
 endfacet

 facet normal 0 0 0
  outer loop
  vertex 0.00363958278 0.00765959918 -0.00699747493
  vertex 0.00389608112 0.00216568774 -0.00716546318
  vertex -0.00626685796 0.00613756897 -0.00350001245
  endloop
 endfacet

 facet normal 0 0 0
  outer loop
  vertex 0.00363958278 0.00765959918 -0.00699747493
  vertex -0.00626685796 0.00613756897 -0.00350001245
  vertex -0.00467206817 0.00822736416 -0.00349999103
  endloop
 endfacet

 facet normal 0 0 0
  outer loop
  vertex 0.00363958278 0.00765959918 -0.00699747493
  vertex -0.00467206817 0.00822736416 -0.00349999103
  vertex 0.00348335202 0.0110058542 -0.00567616709
  endloop
 endfacet

endsolid AssimpScene
