solid AssimpScene
 facet normal 0 0 0
  outer loop
  vertex 0.0352409035 0.00333535997 -0.00631553959
  vertex 0.0353463106 0.00602512294 -0.00383029459
  vertex 0.035379976 0.00692652678 5.81560107e-06
  endloop
 endfacet

 facet normal 0 0 0
  outer loop
  vertex 0.0352409035 0.00333535997 -0.00631553959
  vertex 0.035379976 0.00692652678 5.81560107e-06
  vertex 0.0353089012 0.00504474808 0.00509819807
  endloop
 endfacet

 facet normal 0 0 0
  outer loop
  vertex 0.0352409035 0.00333535997 -0.00631553959
  vertex 0.0353089012 0.00504474808 0.00509819807
  vertex 0.0350660868 -0.000447209604 0.00717088999
  endloop
 endfacet

 facet normal 0 0 0
  outer loop
  vertex 0.0352409035 0.00333535997 -0.00631553959
  vertex 0.0350660868 -0.000447209604 0.00717088999
  vertex 0.0344063081 -0.00612559542 -0.00688133668
  endloop
 endfacet

 facet normal 0 0 0
  outer loop
  vertex 0.0336251892 -0.0076617985 0.00638845935
  vertex 0.0344063081 -0.00612559542 -0.00688133668
  vertex 0.0350660868 -0.000447209604 0.00717088999
  endloop
 endfacet

 facet normal 0 0 0
  outer loop
  vertex 0.0352409035 0.00333535997 -0.00631553959
  vertex 0.0344063081 -0.00612559542 -0.00688133668
  vertex -0.00710133556 0.0033155519 -0.00837994739
  endloop
 endfacet

 facet normal 0 0 0
  outer loop
  vertex -0.0170000009 0.00200000009 0.00350000011
  vertex -0.0154999997 -0.00400000019 0.00499999989
  vertex -0.00719873095 0.00618020725 0.00792502239
  endloop
 endfacet

 facet normal 0 0 0
  outer loop
  vertex -0.0170000009 0.00200000009 0.00350000011
  vertex -0.00719873095 0.00618020725 0.00792502239
  vertex -0.0055094487 0.0124252513 0.00409049215
  endloop
 endfacet

 facet normal 0 0 0
  outer loop
  vertex 0.0353089012 0.00504474808 0.00509819807
  vertex 0.035379976 0.00692652678 5.81560107e-06
  vertex -0.00505318679 0.0133619811 0.00112241926
  endloop
 endfacet

 facet normal 0 0 0
  outer loop
  vertex 0.0353089012 0.00504474808 0.00509819807
  vertex -0.00505318679 0.0133619811 0.00112241926
  vertex -0.0055094487 0.0124252513 0.00409049215
  endloop
 endfacet

 facet normal 0 0 0
  outer loop
  vertex 0.0353089012 0.00504474808 0.00509819807
  vertex -0.0055094487 0.0124252513 0.00409049215
  vertex -0.00719873095 0.00618020725 0.00792502239
  endloop
 endfacet

 facet normal 0 0 0
  outer loop
  vertex 0.0353089012 0.00504474808 0.00509819807
  vertex -0.00719873095 0.00618020725 0.00792502239
  vertex 0.0350660868 -0.000447209604 0.00717088999
  endloop
 endfacet

 facet normal 0 0 0
  outer loop
  vertex -0.00411317451 -0.00848581456 0.00374999968
  vertex -0.00411317451 -0.00848581456 -0.00374999968
  vertex 0.0257961471 -0.0101696355 -0.00406927941
  endloop
 endfacet

 facet normal 0 0 0
  outer loop
  vertex -0.00411317451 -0.00848581456 0.00374999968
  vertex 0.0257961471 -0.0101696355 -0.00406927941
  vertex 0.0254807007 -0.0104477983 0.00321661355
  endloop
 endfacet

 facet normal 0 0 0
  outer loop
  vertex -0.00507837534 -0.00168868655 0.00821270421
  vertex -0.0154999997 -0.00400000019 0.00499999989
  vertex -0.00411317451 -0.00848581456 0.00374999968
  endloop
 endfacet

 facet normal 0 0 0
  outer loop
  vertex -0.00507837534 -0.00168868655 0.00821270421
  vertex 0.0336251892 -0.0076617985 0.00638845935
  vertex 0.0350660868 -0.000447209604 0.00717088999
  endloop
 endfacet

 facet normal 0 0 0
  outer loop
  vertex -0.00507837534 -0.00168868655 0.00821270421
  vertex 0.0350660868 -0.000447209604 0.00717088999
  vertex -0.00719873095 0.00618020725 0.00792502239
  endloop
 endfacet

 facet normal 0 0 0
  outer loop
  vertex -0.00507837534 -0.00168868655 0.00821270421
  vertex -0.00719873095 0.00618020725 0.00792502239
  vertex -0.0154999997 -0.00400000019 0.00499999989
  endloop
 endfacet

 facet normal 0 0 0
  outer loop
  vertex -0.00354382303 -0.00330105983 -0.00775728654
  vertex -0.00710133556 0.0033155519 -0.00837994739
  vertex 0.0344063081 -0.00612559542 -0.00688133668
  endloop
 endfacet

 facet normal 0 0 0
  outer loop
  vertex -0.00672428682 0.00905020162 -0.0068974155
  vertex 0.0352409035 0.00333535997 -0.00631553959
  vertex -0.00710133556 0.0033155519 -0.00837994739
  endloop
 endfacet

 facet normal 0 0 0
  outer loop
  vertex -0.00672428682 0.00905020162 -0.0068974155
  vertex -0.00710133556 0.0033155519 -0.00837994739
  vertex -0.0170000009 0.00200000009 -0.00350000011
  endloop
 endfacet

 facet normal 0 0 0
  outer loop
  vertex -0.00672428682 0.00905020162 -0.0068974155
  vertex -0.0170000009 0.00200000009 -0.00350000011
  vertex -0.00526565313 0.0129386308 -0.0030121163
  endloop
 endfacet

 facet normal 0 0 0
  outer loop
  vertex 0.0323250629 -0.0086064199 -0.00587835489
  vertex 0.0336251892 -0.0076617985 0.00638845935
  vertex 0.0254807007 -0.0104477983 0.00321661355
  endloop
 endfacet

 facet normal 0 0 0
  outer loop
  vertex 0.0323250629 -0.0086064199 -0.00587835489
  vertex 0.0254807007 -0.0104477983 0.00321661355
  vertex 0.0257961471 -0.0101696355 -0.00406927941
  endloop
 endfacet

 facet normal 0 0 0
  outer loop
  vertex 0.0323250629 -0.0086064199 -0.00587835489
  vertex 0.0257961471 -0.0101696355 -0.00406927941
  vertex -0.00411317451 -0.00848581456 -0.00374999968
  endloop
 endfacet

 facet normal 0 0 0
  outer loop
  vertex 0.0323250629 -0.0086064199 -0.00587835489
  vertex -0.00411317451 -0.00848581456 -0.00374999968
  vertex -0.00354382303 -0.00330105983 -0.00775728654
  endloop
 endfacet

 facet normal 0 0 0
  outer loop
  vertex 0.0323250629 -0.0086064199 -0.00587835489
  vertex -0.00354382303 -0.00330105983 -0.00775728654
  vertex 0.0344063081 -0.00612559542 -0.00688133668
  endloop
 endfacet

 facet normal 0 0 0
  outer loop
  vertex 0.0323250629 -0.0086064199 -0.00587835489
  vertex 0.0344063081 -0.00612559542 -0.00688133668
  vertex 0.0336251892 -0.0076617985 0.00638845935
  endloop
 endfacet

 facet normal 0 0 0
  outer loop
  vertex -0.0170000009 -0.00400000019 0.00350000011
  vertex -0.0154999997 -0.00400000019 0.00499999989
  vertex -0.0170000009 0.00200000009 0.00350000011
  endloop
 endfacet

 facet normal 0 0 0
  outer loop
  vertex -0.0170000009 -0.00400000019 0.00350000011
  vertex -0.0170000009 0.00200000009 0.00350000011
  vertex -0.0170000009 0.00200000009 -0.00350000011
  endloop
 endfacet

 facet normal 0 0 0
  outer loop
  vertex -0.0170000009 -0.00400000019 0.00350000011
  vertex -0.0170000009 0.00200000009 -0.00350000011
  vertex -0.0170000009 -0.00400000019 -0.00350000011
  endloop
 endfacet

 facet normal 0 0 0
  outer loop
  vertex -0.0170000009 -0.00400000019 0.00350000011
  vertex -0.0170000009 -0.00400000019 -0.00350000011
  vertex -0.00411317451 -0.00848581456 -0.00374999968
  endloop
 endfacet

 facet normal 0 0 0
  outer loop
  vertex -0.0170000009 -0.00400000019 0.00350000011
  vertex -0.00411317451 -0.00848581456 -0.00374999968
  vertex -0.00411317451 -0.00848581456 0.00374999968
  endloop
 endfacet

 facet normal 0 0 0
  outer loop
  vertex -0.0170000009 -0.00400000019 0.00350000011
  vertex -0.00411317451 -0.00848581456 0.00374999968
  vertex -0.0154999997 -0.00400000019 0.00499999989
  endloop
 endfacet

 facet normal 0 0 0
  outer loop
  vertex 0.0353463106 0.00602512294 -0.00383029459
  vertex 0.0352409035 0.00333535997 -0.00631553959
  vertex -0.00672428682 0.00905020162 -0.0068974155
  endloop
 endfacet

 facet normal 0 0 0
  outer loop
  vertex 0.0353463106 0.00602512294 -0.00383029459
  vertex -0.00672428682 0.00905020162 -0.0068974155
  vertex -0.00526565313 0.0129386308 -0.0030121163
  endloop
 endfacet

 facet normal 0 0 0
  outer loop
  vertex 0.0353463106 0.00602512294 -0.00383029459
  vertex -0.00526565313 0.0129386308 -0.0030121163
  vertex 0.035379976 0.00692652678 5.81560107e-06
  endloop
 endfacet

 facet normal 0 0 0
  outer loop
  vertex -0.0154999997 -0.00400000019 -0.00499999989
  vertex -0.00710133556 0.0033155519 -0.00837994739
  vertex -0.00354382303 -0.00330105983 -0.00775728654
  endloop
 endfacet

 facet normal 0 0 0
  outer loop
  vertex -0.0154999997 -0.00400000019 -0.00499999989
  vertex -0.00354382303 -0.00330105983 -0.00775728654
  vertex -0.00411317451 -0.00848581456 -0.00374999968
  endloop
 endfacet

 facet normal 0 0 0
  outer loop
  vertex -0.0154999997 -0.00400000019 -0.00499999989
  vertex -0.00411317451 -0.00848581456 -0.00374999968
  vertex -0.0170000009 -0.00400000019 -0.00350000011
  endloop
 endfacet

 facet normal 0 0 0
  outer loop
  vertex -0.0154999997 -0.00400000019 -0.00499999989
  vertex -0.0170000009 -0.00400000019 -0.00350000011
  vertex -0.0170000009 0.00200000009 -0.00350000011
  endloop
 endfacet

 facet normal 0 0 0
  outer loop
  vertex -0.0154999997 -0.00400000019 -0.00499999989
  vertex -0.0170000009 0.00200000009 -0.00350000011
  vertex -0.00710133556 0.0033155519 -0.00837994739
  endloop
 endfacet

 facet normal 0 0 0
  outer loop
  vertex 0.0205666404 -0.00898995344 0.00557068177
  vertex 0.0336251892 -0.0076617985 0.00638845935
  vertex -0.00507837534 -0.00168868655 0.00821270421
  endloop
 endfacet

 facet normal 0 0 0
  outer loop
  vertex 0.0205666404 -0.00898995344 0.00557068177
  vertex -0.00507837534 -0.00168868655 0.00821270421
  vertex -0.00411317451 -0.00848581456 0.00374999968
  endloop
 endfacet

 facet normal 0 0 0
  outer loop
  vertex 0.0205666404 -0.00898995344 0.00557068177
  vertex -0.00411317451 -0.00848581456 0.00374999968
  vertex 0.0254807007 -0.0104477983 0.00321661355
  endloop
 endfacet

 facet normal 0 0 0
  outer loop
  vertex 0.0205666404 -0.00898995344 0.00557068177
  vertex 0.0254807007 -0.0104477983 0.00321661355
  vertex 0.0336251892 -0.0076617985 0.00638845935
  endloop
 endfacet

 facet normal 0 0 0
  outer loop
  vertex -0.00505318679 0.0133619811 0.00112241926
  vertex -0.00526565313 0.0129386308 -0.0030121163
  vertex -0.0170000009 0.00200000009 -0.00350000011
  endloop
 endfacet

 facet normal 0 0 0
  outer loop
  vertex -0.00505318679 0.0133619811 0.00112241926
  vertex -0.0170000009 0.00200000009 -0.00350000011
  vertex -0.0170000009 0.00200000009 0.00350000011
  endloop
 endfacet

 facet normal 0 0 0
  outer loop
  vertex -0.00505318679 0.0133619811 0.00112241926
  vertex -0.0170000009 0.00200000009 0.00350000011
  vertex -0.0055094487 0.0124252513 0.00409049215
  endloop
 endfacet

 facet normal 0 0 0
  outer loop
  vertex -0.00505318679 0.0133619811 0.00112241926
  vertex 0.035379976 0.00692652678 5.81560107e-06
  vertex -0.00526565313 0.0129386308 -0.0030121163
  endloop
 endfacet

endsolid AssimpScene
