solid AssimpScene
 facet normal 0 0 0
  outer loop
  vertex 0.0563783124 -0.011131878 0.00989498198
  vertex 0.0644613355 0.00784754008 0.0105708381
  vertex 0.00357437297 0.00770705054 0.0104969405
  endloop
 endfacet

 facet normal 0 0 0
  outer loop
  vertex 0.0563783124 -0.011131878 0.00989498198
  vertex 0.00357437297 0.00770705054 0.0104969405
  vertex -0.00162205426 0.00548982574 0.0104205385
  endloop
 endfacet

 facet normal 0 0 0
  outer loop
  vertex 0.0563783124 -0.011131878 0.00989498198
  vertex -0.00162205426 0.00548982574 0.0104205385
  vertex -0.00264841132 0.0018004342 0.01044067
  endloop
 endfacet

 facet normal 0 0 0
  outer loop
  vertex 0.0563783124 -0.011131878 0.00989498198
  vertex -0.00264841132 0.0018004342 0.01044067
  vertex 0.00232869387 -0.00810381677 0.0104468577
  endloop
 endfacet

 facet normal 0 0 0
  outer loop
  vertex 0.0644613355 0.00784754008 0.0105708381
  vertex 0.0563783124 -0.011131878 0.00989498198
  vertex 0.066465117 -0.0042317179 0.00970918592
  endloop
 endfacet

 facet normal 0 0 0
  outer loop
  vertex 0.0644613355 0.00784754008 0.0105708381
  vertex 0.0617354773 0.0116730211 -0.0100804614
  vertex 0.0603836626 0.0127957594 0.00949660968
  endloop
 endfacet

 facet normal 0 0 0
  outer loop
  vertex -0.00272674276 0.0101128351 0.00800000038
  vertex 0.0151279885 0.0151954005 0.00770685682
  vertex 0.016655894 0.0156155247 -0.00644860929
  endloop
 endfacet

 facet normal 0 0 0
  outer loop
  vertex -0.00272674276 0.0101128351 0.00800000038
  vertex 0.016655894 0.0156155247 -0.00644860929
  vertex -0.00272674276 0.0101128351 -0.00800000038
  endloop
 endfacet

 facet normal 0 0 0
  outer loop
  vertex -0.00272674276 0.0101128351 -0.00800000038
  vertex 0.00336168054 0.00818767212 -0.0104718143
  vertex -0.00236465735 0.00336534251 -0.0104356753
  endloop
 endfacet

 facet normal 0 0 0
  outer loop
  vertex 0.0565106459 -0.0144376308 0.00501989806
  vertex 0.051309254 -0.0154777085 -0.000171953157
  vertex 0.057855811 -0.0137601877 -0.00534089794
  endloop
 endfacet

 facet normal 0 0 0
  outer loop
  vertex 0.0565106459 -0.0144376308 0.00501989806
  vertex 0.057855811 -0.0137601877 -0.00534089794
  vertex 0.0678941086 -0.0071672597 -0.000118305259
  endloop
 endfacet

 facet normal 0 0 0
  outer loop
  vertex 0.0149137387 0.0134666814 -0.00979067478
  vertex 0.0617354773 0.0116730211 -0.0100804614
  vertex 0.0644211844 0.00799295306 -0.0105649875
  endloop
 endfacet

 facet normal 0 0 0
  outer loop
  vertex 0.0149137387 0.0134666814 -0.00979067478
  vertex 0.0644211844 0.00799295306 -0.0105649875
  vertex 0.00336168054 0.00818767212 -0.0104718143
  endloop
 endfacet

 facet normal 0 0 0
  outer loop
  vertex 0.0149137387 0.0134666814 -0.00979067478
  vertex 0.00336168054 0.00818767212 -0.0104718143
  vertex -0.00272674276 0.0101128351 -0.00800000038
  endloop
 endfacet

 facet normal 0 0 0
  outer loop
  vertex 0.0512631163 -0.0141876005 -0.0078285234
  vertex 0.0564641505 -0.0134857139 -0.00785687659
  vertex 0.057855811 -0.0137601877 -0.00534089794
  endloop
 endfacet

 facet normal 0 0 0
  outer loop
  vertex 0.0512631163 -0.0141876005 -0.0078285234
  vertex 0.057855811 -0.0137601877 -0.00534089794
  vertex 0.051309254 -0.0154777085 -0.000171953157
  endloop
 endfacet

 facet normal 0 0 0
  outer loop
  vertex 0.0512631163 -0.0141876005 -0.0078285234
  vertex -0.00223459443 -0.0119973384 -0.00927003939
  vertex 0.0563751422 -0.0109147467 -0.0099762911
  endloop
 endfacet

 facet normal 0 0 0
  outer loop
  vertex 0.0644211844 0.00799295306 -0.0105649875
  vertex 0.0617354773 0.0116730211 -0.0100804614
  vertex 0.0644613355 0.00784754008 0.0105708381
  endloop
 endfacet

 facet normal 0 0 0
  outer loop
  vertex 0.0644613355 0.00784754008 0.0105708381
  vertex 0.0674791858 -0.00631490629 0.00659634452
  vertex 0.0678941086 -0.0071672597 -0.000118305259
  endloop
 endfacet

 facet normal 0 0 0
  outer loop
  vertex 0.0644613355 0.00784754008 0.0105708381
  vertex 0.0678941086 -0.0071672597 -0.000118305259
  vertex 0.0675012916 -0.00636031106 -0.00644653803
  endloop
 endfacet

 facet normal 0 0 0
  outer loop
  vertex 0.0644613355 0.00784754008 0.0105708381
  vertex 0.0675012916 -0.00636031106 -0.00644653803
  vertex 0.0644211844 0.00799295306 -0.0105649875
  endloop
 endfacet

 facet normal 0 0 0
  outer loop
  vertex 0.0644211844 0.00799295306 -0.0105649875
  vertex 0.0665637702 -0.0044343737 -0.00956807006
  vertex 0.0563751422 -0.0109147467 -0.0099762911
  endloop
 endfacet

 facet normal 0 0 0
  outer loop
  vertex 0.0151687553 0.0127359089 0.0101276664
  vertex 0.00357437297 0.00770705054 0.0104969405
  vertex 0.0644613355 0.00784754008 0.0105708381
  endloop
 endfacet

 facet normal 0 0 0
  outer loop
  vertex 0.0151687553 0.0127359089 0.0101276664
  vertex 0.0644613355 0.00784754008 0.0105708381
  vertex 0.0603836626 0.0127957594 0.00949660968
  endloop
 endfacet

 facet normal 0 0 0
  outer loop
  vertex 0.0512381643 -0.0136668812 0.00859215762
  vertex 0.0563783124 -0.011131878 0.00989498198
  vertex -0.00194924092 -0.0124885812 0.00883360859
  endloop
 endfacet

 facet normal 0 0 0
  outer loop
  vertex 0.0561299697 0.0148670506 0.00547095248
  vertex 0.0151279885 0.0151954005 0.00770685682
  vertex 0.0603836626 0.0127957594 0.00949660968
  endloop
 endfacet

 facet normal 0 0 0
  outer loop
  vertex 0.0674791858 -0.00631490629 0.00659634452
  vertex 0.0578208938 -0.012949354 0.00768777588
  vertex 0.0565106459 -0.0144376308 0.00501989806
  endloop
 endfacet

 facet normal 0 0 0
  outer loop
  vertex 0.0674791858 -0.00631490629 0.00659634452
  vertex 0.0565106459 -0.0144376308 0.00501989806
  vertex 0.0678941086 -0.0071672597 -0.000118305259
  endloop
 endfacet

 facet normal 0 0 0
  outer loop
  vertex 0.0674791858 -0.00631490629 0.00659634452
  vertex 0.0644613355 0.00784754008 0.0105708381
  vertex 0.066465117 -0.0042317179 0.00970918592
  endloop
 endfacet

 facet normal 0 0 0
  outer loop
  vertex 0.0675012916 -0.00636031106 -0.00644653803
  vertex 0.0678941086 -0.0071672597 -0.000118305259
  vertex 0.057855811 -0.0137601877 -0.00534089794
  endloop
 endfacet

 facet normal 0 0 0
  outer loop
  vertex 0.0675012916 -0.00636031106 -0.00644653803
  vertex 0.0665637702 -0.0044343737 -0.00956807006
  vertex 0.0644211844 0.00799295306 -0.0105649875
  endloop
 endfacet

 facet normal 0 0 0
  outer loop
  vertex -0.0029018179 -0.00880724005 0.0102770207
  vertex -0.00194924092 -0.0124885812 0.00883360859
  vertex 0.0563783124 -0.011131878 0.00989498198
  endloop
 endfacet

 facet normal 0 0 0
  outer loop
  vertex -0.0029018179 -0.00880724005 0.0102770207
  vertex 0.0563783124 -0.011131878 0.00989498198
  vertex 0.00232869387 -0.00810381677 0.0104468577
  endloop
 endfacet

 facet normal 0 0 0
  outer loop
  vertex -0.0029018179 -0.00880724005 0.0102770207
  vertex 0.00232869387 -0.00810381677 0.0104468577
  vertex -0.00264841132 0.0018004342 0.01044067
  endloop
 endfacet

 facet normal 0 0 0
  outer loop
  vertex -0.0029018179 -0.00880724005 0.0102770207
  vertex -0.00264841132 0.0018004342 0.01044067
  vertex -0.00424368074 0.0073893466 0.00800000038
  endloop
 endfacet

 facet normal 0 0 0
  outer loop
  vertex -0.0029018179 -0.00880724005 0.0102770207
  vertex -0.00223459443 -0.0119973384 -0.00927003939
  vertex -0.00194924092 -0.0124885812 0.00883360859
  endloop
 endfacet

 facet normal 0 0 0
  outer loop
  vertex 0.058669392 0.0138562312 -0.00829838775
  vertex 0.016655894 0.0156155247 -0.00644860929
  vertex 0.0550390854 0.0151301166 -0.00389661384
  endloop
 endfacet

 facet normal 0 0 0
  outer loop
  vertex 0.058669392 0.0138562312 -0.00829838775
  vertex 0.0550390854 0.0151301166 -0.00389661384
  vertex 0.0561299697 0.0148670506 0.00547095248
  endloop
 endfacet

 facet normal 0 0 0
  outer loop
  vertex 0.058669392 0.0138562312 -0.00829838775
  vertex 0.0561299697 0.0148670506 0.00547095248
  vertex 0.0603836626 0.0127957594 0.00949660968
  endloop
 endfacet

 facet normal 0 0 0
  outer loop
  vertex 0.058669392 0.0138562312 -0.00829838775
  vertex 0.0603836626 0.0127957594 0.00949660968
  vertex 0.0617354773 0.0116730211 -0.0100804614
  endloop
 endfacet

 facet normal 0 0 0
  outer loop
  vertex 0.058669392 0.0138562312 -0.00829838775
  vertex 0.0617354773 0.0116730211 -0.0100804614
  vertex 0.0149137387 0.0134666814 -0.00979067478
  endloop
 endfacet

 facet normal 0 0 0
  outer loop
  vertex -0.00417764205 0.00849998929 -0.00800000038
  vertex -0.00424368074 0.0073893466 -0.00659999996
  vertex -0.00424368074 0.0073893466 0.00800000038
  endloop
 endfacet

 facet normal 0 0 0
  outer loop
  vertex -0.00417764205 0.00849998929 -0.00800000038
  vertex -0.00424368074 0.0073893466 0.00800000038
  vertex -0.00272674276 0.0101128351 0.00800000038
  endloop
 endfacet

 facet normal 0 0 0
  outer loop
  vertex -0.00417764205 0.00849998929 -0.00800000038
  vertex -0.00272674276 0.0101128351 0.00800000038
  vertex -0.00272674276 0.0101128351 -0.00800000038
  endloop
 endfacet

 facet normal 0 0 0
  outer loop
  vertex -0.00417764205 0.00849998929 -0.00800000038
  vertex -0.00272674276 0.0101128351 -0.00800000038
  vertex -0.00236465735 0.00336534251 -0.0104356753
  endloop
 endfacet

 facet normal 0 0 0
  outer loop
  vertex -0.00291770115 -0.00779988477 -0.0103611965
  vertex -0.00223459443 -0.0119973384 -0.00927003939
  vertex -0.0029018179 -0.00880724005 0.0102770207
  endloop
 endfacet

 facet normal 0 0 0
  outer loop
  vertex -0.00291770115 -0.00779988477 -0.0103611965
  vertex -0.0029018179 -0.00880724005 0.0102770207
  vertex -0.00424368074 0.0073893466 0.00800000038
  endloop
 endfacet

 facet normal 0 0 0
  outer loop
  vertex -0.00291770115 -0.00779988477 -0.0103611965
  vertex -0.00424368074 0.0073893466 0.00800000038
  vertex -0.00424368074 0.0073893466 -0.00659999996
  endloop
 endfacet

 facet normal 0 0 0
  outer loop
  vertex -0.00291770115 -0.00779988477 -0.0103611965
  vertex -0.00424368074 0.0073893466 -0.00659999996
  vertex -0.00417764205 0.00849998929 -0.00800000038
  endloop
 endfacet

 facet normal 0 0 0
  outer loop
  vertex -0.00291770115 -0.00779988477 -0.0103611965
  vertex -0.00417764205 0.00849998929 -0.00800000038
  vertex -0.00236465735 0.00336534251 -0.0104356753
  endloop
 endfacet

 facet normal 0 0 0
  outer loop
  vertex -0.00236465735 0.00336534251 -0.0104356753
  vertex 0.00336168054 0.00818767212 -0.0104718143
  vertex 0.0644211844 0.00799295306 -0.0105649875
  endloop
 endfacet

 facet normal 0 0 0
  outer loop
  vertex -0.00236465735 0.00336534251 -0.0104356753
  vertex 0.0644211844 0.00799295306 -0.0105649875
  vertex 0.0563751422 -0.0109147467 -0.0099762911
  endloop
 endfacet

 facet normal 0 0 0
  outer loop
  vertex -0.00236465735 0.00336534251 -0.0104356753
  vertex 0.0563751422 -0.0109147467 -0.0099762911
  vertex -0.00291770115 -0.00779988477 -0.0103611965
  endloop
 endfacet

 facet normal 0 0 0
  outer loop
  vertex -0.00291770115 -0.00779988477 -0.0103611965
  vertex 0.0563751422 -0.0109147467 -0.0099762911
  vertex -0.00223459443 -0.0119973384 -0.00927003939
  endloop
 endfacet

 facet normal 0 0 0
  outer loop
  vertex 0.0578208938 -0.012949354 0.00768777588
  vertex 0.0674791858 -0.00631490629 0.00659634452
  vertex 0.066465117 -0.0042317179 0.00970918592
  endloop
 endfacet

 facet normal 0 0 0
  outer loop
  vertex 0.0578208938 -0.012949354 0.00768777588
  vertex 0.066465117 -0.0042317179 0.00970918592
  vertex 0.0563783124 -0.011131878 0.00989498198
  endloop
 endfacet

 facet normal 0 0 0
  outer loop
  vertex 0.0578208938 -0.012949354 0.00768777588
  vertex 0.0563783124 -0.011131878 0.00989498198
  vertex 0.0512381643 -0.0136668812 0.00859215762
  endloop
 endfacet

 facet normal 0 0 0
  outer loop
  vertex 0.0578208938 -0.012949354 0.00768777588
  vertex 0.0512381643 -0.0136668812 0.00859215762
  vertex 0.0565106459 -0.0144376308 0.00501989806
  endloop
 endfacet

 facet normal 0 0 0
  outer loop
  vertex -0.000805513235 -0.0136392349 -0.00658721989
  vertex -0.00223459443 -0.0119973384 -0.00927003939
  vertex 0.0512631163 -0.0141876005 -0.0078285234
  endloop
 endfacet

 facet normal 0 0 0
  outer loop
  vertex 0.0512631163 -0.0141876005 -0.0078285234
  vertex 0.051309254 -0.0154777085 -0.000171953157
  vertex 0.000606675108 -0.014352411 -0.000902683765
  endloop
 endfacet

 facet normal 0 0 0
  outer loop
  vertex 0.0512631163 -0.0141876005 -0.0078285234
  vertex 0.000606675108 -0.014352411 -0.000902683765
  vertex -0.000805513235 -0.0136392349 -0.00658721989
  endloop
 endfacet

 facet normal 0 0 0
  outer loop
  vertex -0.000805513235 -0.0136392349 -0.00658721989
  vertex -0.00194924092 -0.0124885812 0.00883360859
  vertex -0.00223459443 -0.0119973384 -0.00927003939
  endloop
 endfacet

 facet normal 0 0 0
  outer loop
  vertex 0.0564641505 -0.0134857139 -0.00785687659
  vertex 0.0512631163 -0.0141876005 -0.0078285234
  vertex 0.0563751422 -0.0109147467 -0.0099762911
  endloop
 endfacet

 facet normal 0 0 0
  outer loop
  vertex 0.0564641505 -0.0134857139 -0.00785687659
  vertex 0.0563751422 -0.0109147467 -0.0099762911
  vertex 0.0665637702 -0.0044343737 -0.00956807006
  endloop
 endfacet

 facet normal 0 0 0
  outer loop
  vertex 0.0564641505 -0.0134857139 -0.00785687659
  vertex 0.0665637702 -0.0044343737 -0.00956807006
  vertex 0.0675012916 -0.00636031106 -0.00644653803
  endloop
 endfacet

 facet normal 0 0 0
  outer loop
  vertex 0.0564641505 -0.0134857139 -0.00785687659
  vertex 0.0675012916 -0.00636031106 -0.00644653803
  vertex 0.057855811 -0.0137601877 -0.00534089794
  endloop
 endfacet

 facet normal 0 0 0
  outer loop
  vertex 0.0200390257 0.0161186941 0.00264966744
  vertex 0.0151279885 0.0151954005 0.00770685682
  vertex 0.0561299697 0.0148670506 0.00547095248
  endloop
 endfacet

 facet normal 0 0 0
  outer loop
  vertex 0.0200390257 0.0161186941 0.00264966744
  vertex 0.0561299697 0.0148670506 0.00547095248
  vertex 0.0550390854 0.0151301166 -0.00389661384
  endloop
 endfacet

 facet normal 0 0 0
  outer loop
  vertex 0.0200390257 0.0161186941 0.00264966744
  vertex 0.0550390854 0.0151301166 -0.00389661384
  vertex 0.016655894 0.0156155247 -0.00644860929
  endloop
 endfacet

 facet normal 0 0 0
  outer loop
  vertex 0.0200390257 0.0161186941 0.00264966744
  vertex 0.016655894 0.0156155247 -0.00644860929
  vertex 0.0151279885 0.0151954005 0.00770685682
  endloop
 endfacet

 facet normal 0 0 0
  outer loop
  vertex 0.0405712724 -0.0149790756 0.00499120215
  vertex 0.051309254 -0.0154777085 -0.000171953157
  vertex 0.0565106459 -0.0144376308 0.00501989806
  endloop
 endfacet

 facet normal 0 0 0
  outer loop
  vertex 0.0405712724 -0.0149790756 0.00499120215
  vertex 0.0565106459 -0.0144376308 0.00501989806
  vertex 0.0512381643 -0.0136668812 0.00859215762
  endloop
 endfacet

 facet normal 0 0 0
  outer loop
  vertex 0.0512381643 -0.0136668812 0.00859215762
  vertex -0.00194924092 -0.0124885812 0.00883360859
  vertex -0.000318427046 -0.0139390621 0.00529825548
  endloop
 endfacet

 facet normal 0 0 0
  outer loop
  vertex 0.0512381643 -0.0136668812 0.00859215762
  vertex -0.000318427046 -0.0139390621 0.00529825548
  vertex 0.0405712724 -0.0149790756 0.00499120215
  endloop
 endfacet

 facet normal 0 0 0
  outer loop
  vertex 0.0405712724 -0.0149790756 0.00499120215
  vertex -0.000318427046 -0.0139390621 0.00529825548
  vertex 0.000606675108 -0.014352411 -0.000902683765
  endloop
 endfacet

 facet normal 0 0 0
  outer loop
  vertex 0.0405712724 -0.0149790756 0.00499120215
  vertex 0.000606675108 -0.014352411 -0.000902683765
  vertex 0.051309254 -0.0154777085 -0.000171953157
  endloop
 endfacet

 facet normal 0 0 0
  outer loop
  vertex 0.0134569146 0.0145865753 -0.00867365766
  vertex 0.016655894 0.0156155247 -0.00644860929
  vertex 0.058669392 0.0138562312 -0.00829838775
  endloop
 endfacet

 facet normal 0 0 0
  outer loop
  vertex 0.0134569146 0.0145865753 -0.00867365766
  vertex 0.058669392 0.0138562312 -0.00829838775
  vertex 0.0149137387 0.0134666814 -0.00979067478
  endloop
 endfacet

 facet normal 0 0 0
  outer loop
  vertex 0.0134569146 0.0145865753 -0.00867365766
  vertex 0.0149137387 0.0134666814 -0.00979067478
  vertex -0.00272674276 0.0101128351 -0.00800000038
  endloop
 endfacet

 facet normal 0 0 0
  outer loop
  vertex 0.0134569146 0.0145865753 -0.00867365766
  vertex -0.00272674276 0.0101128351 -0.00800000038
  vertex 0.016655894 0.0156155247 -0.00644860929
  endloop
 endfacet

 facet normal 0 0 0
  outer loop
  vertex 0.0129020922 0.0140173528 0.00932411384
  vertex -0.00272674276 0.0101128351 0.00800000038
  vertex -0.00162205426 0.00548982574 0.0104205385
  endloop
 endfacet

 facet normal 0 0 0
  outer loop
  vertex 0.0129020922 0.0140173528 0.00932411384
  vertex -0.00162205426 0.00548982574 0.0104205385
  vertex 0.00357437297 0.00770705054 0.0104969405
  endloop
 endfacet

 facet normal 0 0 0
  outer loop
  vertex 0.0129020922 0.0140173528 0.00932411384
  vertex 0.00357437297 0.00770705054 0.0104969405
  vertex 0.0151687553 0.0127359089 0.0101276664
  endloop
 endfacet

 facet normal 0 0 0
  outer loop
  vertex 0.0129020922 0.0140173528 0.00932411384
  vertex 0.0151687553 0.0127359089 0.0101276664
  vertex 0.0603836626 0.0127957594 0.00949660968
  endloop
 endfacet

 facet normal 0 0 0
  outer loop
  vertex 0.0129020922 0.0140173528 0.00932411384
  vertex 0.0603836626 0.0127957594 0.00949660968
  vertex 0.0151279885 0.0151954005 0.00770685682
  endloop
 endfacet

 facet normal 0 0 0
  outer loop
  vertex 0.0129020922 0.0140173528 0.00932411384
  vertex 0.0151279885 0.0151954005 0.00770685682
  vertex -0.00272674276 0.0101128351 0.00800000038
  endloop
 endfacet

 facet normal 0 0 0
  outer loop
  vertex -0.000318427046 -0.0139390621 0.00529825548
  vertex -0.00194924092 -0.0124885812 0.00883360859
  vertex -0.000805513235 -0.0136392349 -0.00658721989
  endloop
 endfacet

 facet normal 0 0 0
  outer loop
  vertex -0.000318427046 -0.0139390621 0.00529825548
  vertex -0.000805513235 -0.0136392349 -0.00658721989
  vertex 0.000606675108 -0.014352411 -0.000902683765
  endloop
 endfacet

 facet normal 0 0 0
  outer loop
  vertex -0.00162205426 0.00548982574 0.0104205385
  vertex -0.00272674276 0.0101128351 0.00800000038
  vertex -0.00424368074 0.0073893466 0.00800000038
  endloop
 endfacet

 facet normal 0 0 0
  outer loop
  vertex -0.00162205426 0.00548982574 0.0104205385
  vertex -0.00424368074 0.0073893466 0.00800000038
  vertex -0.00264841132 0.0018004342 0.01044067
  endloop
 endfacet

endsolid AssimpScene
