solid AssimpScene
 facet normal 0 0 0
  outer loop
  vertex 0.0162816122 -0.0163405649 -0.00219989265
  vertex 0.0209988039 -0.00955751352 -0.00219898415
  vertex 0.0228737667 6.37045378e-05 -0.00199971581
  endloop
 endfacet

 facet normal 0 0 0
  outer loop
  vertex 0.0162816122 -0.0163405649 -0.00219989265
  vertex 0.0228737667 6.37045378e-05 -0.00199971581
  vertex 0.0181812793 0.0142086316 -0.00219216384
  endloop
 endfacet

 facet normal 0 0 0
  outer loop
  vertex 0.0162816122 -0.0163405649 -0.00219989265
  vertex 0.0181812793 0.0142086316 -0.00219216384
  vertex 0.00308880513 0.0226594415 -0.00199841289
  endloop
 endfacet

 facet normal 0 0 0
  outer loop
  vertex 0.0162816122 -0.0163405649 -0.00219989265
  vertex 0.00308880513 0.0226594415 -0.00199841289
  vertex -0.00826048665 0.0215390343 -0.00219416106
  endloop
 endfacet

 facet normal 0 0 0
  outer loop
  vertex 0.0162816122 -0.0163405649 -0.00219989265
  vertex -0.00826048665 0.0215390343 -0.00219416106
  vertex -0.0150604257 0.0174785592 -0.00218853145
  endloop
 endfacet

 facet normal 0 0 0
  outer loop
  vertex 0.0162816122 -0.0163405649 -0.00219989265
  vertex -0.0150604257 0.0174785592 -0.00218853145
  vertex -0.0209964402 0.00955293234 -0.00219536689
  endloop
 endfacet

 facet normal 0 0 0
  outer loop
  vertex 0.0162816122 -0.0163405649 -0.00219989265
  vertex -0.0209964402 0.00955293234 -0.00219536689
  vertex -0.0228663627 -6.35468678e-05 -0.00200028298
  endloop
 endfacet

 facet normal 0 0 0
  outer loop
  vertex 0.0162816122 -0.0163405649 -0.00219989265
  vertex -0.0228663627 -6.35468678e-05 -0.00200028298
  vertex -0.0167079978 -0.0158971548 -0.00220005657
  endloop
 endfacet

 facet normal 0 0 0
  outer loop
  vertex 0.0162816122 -0.0163405649 -0.00219989265
  vertex -0.0167079978 -0.0158971548 -0.00220005657
  vertex 0.000363940489 -0.0228662658 -0.00200155796
  endloop
 endfacet

 facet normal 0 0 0
  outer loop
  vertex 0.0244974457 0.020666711 -0.0182691496
  vertex 0.0181812793 0.0142086316 -0.00219216384
  vertex 0.0309418645 0.0136941569 -0.0189720392
  endloop
 endfacet

 facet normal 0 0 0
  outer loop
  vertex 0.0357655846 -0.0101538068 -0.038003698
  vertex 0.035094589 -0.012871149 -0.0610513613
  vertex 0.0380415171 -0.00215729629 -0.0666726306
  endloop
 endfacet

 facet normal 0 0 0
  outer loop
  vertex -0.0356691219 -0.0100515001 -0.0368446149
  vertex -0.0380649902 -0.00366260973 -0.0652266145
  vertex -0.0350491144 -0.0130639588 -0.0594207942
  endloop
 endfacet

 facet normal 0 0 0
  outer loop
  vertex 0.0328118876 0.0170988906 -0.035026595
  vertex 0.0349905528 0.0184053909 -0.0834628269
  vertex 0.0267118253 0.0217816401 -0.0308952164
  endloop
 endfacet

 facet normal 0 0 0
  outer loop
  vertex 0.0328118876 0.0170988906 -0.035026595
  vertex 0.0267118253 0.0217816401 -0.0308952164
  vertex 0.0244974457 0.020666711 -0.0182691496
  endloop
 endfacet

 facet normal 0 0 0
  outer loop
  vertex 0.0328118876 0.0170988906 -0.035026595
  vertex 0.0244974457 0.020666711 -0.0182691496
  vertex 0.0309418645 0.0136941569 -0.0189720392
  endloop
 endfacet

 facet normal 0 0 0
  outer loop
  vertex -0.00849680137 -0.0214429889 -0.00220111012
  vertex -0.0239352901 -0.0203813426 -0.0320818126
  vertex 0.000363940489 -0.0228662658 -0.00200155796
  endloop
 endfacet

 facet normal 0 0 0
  outer loop
  vertex -0.00849680137 -0.0214429889 -0.00220111012
  vertex 0.000363940489 -0.0228662658 -0.00200155796
  vertex -0.0167079978 -0.0158971548 -0.00220005657
  endloop
 endfacet

 facet normal 0 0 0
  outer loop
  vertex 0.0286852699 0.0181703512 -0.0867389366
  vertex 0.0135504985 -0.00546865119 -0.100696787
  vertex -0.00110377895 -0.00529037975 -0.101515777
  endloop
 endfacet

 facet normal 0 0 0
  outer loop
  vertex 0.0286852699 0.0181703512 -0.0867389366
  vertex -0.00110377895 -0.00529037975 -0.101515777
  vertex -0.000203292962 0.0181179903 -0.0885221362
  endloop
 endfacet

 facet normal 0 0 0
  outer loop
  vertex -0.0252985787 0.0197847355 -0.0847953483
  vertex -0.0326257721 0.0192469489 -0.0841196105
  vertex -0.0232323669 0.0214389842 -0.0343123898
  endloop
 endfacet

 facet normal 0 0 0
  outer loop
  vertex -0.0252985787 0.0197847355 -0.0847953483
  vertex -0.0232323669 0.0214389842 -0.0343123898
  vertex -0.00247042417 0.022934258 -0.00219853991
  endloop
 endfacet

 facet normal 0 0 0
  outer loop
  vertex -0.0252985787 0.0197847355 -0.0847953483
  vertex -0.00247042417 0.022934258 -0.00219853991
  vertex 0.0164625086 0.0237601958 -0.0356795453
  endloop
 endfacet

 facet normal 0 0 0
  outer loop
  vertex 0.00874008983 -0.0213478468 -0.00220104237
  vertex 0.0162816122 -0.0163405649 -0.00219989265
  vertex 0.000363940489 -0.0228662658 -0.00200155796
  endloop
 endfacet

 facet normal 0 0 0
  outer loop
  vertex 0.000363940489 -0.0228662658 -0.00200155796
  vertex 0.0221506022 -0.0211683121 -0.037024159
  vertex 0.0260880198 -0.0195614621 -0.0281052683
  endloop
 endfacet

 facet normal 0 0 0
  outer loop
  vertex 0.000363940489 -0.0228662658 -0.00200155796
  vertex 0.0260880198 -0.0195614621 -0.0281052683
  vertex 0.00874008983 -0.0213478468 -0.00220104237
  endloop
 endfacet

 facet normal 0 0 0
  outer loop
  vertex -0.0209964402 0.00955293234 -0.00219536689
  vertex -0.0150604257 0.0174785592 -0.00218853145
  vertex -0.0316717029 0.0171218999 -0.0212730635
  endloop
 endfacet

 facet normal 0 0 0
  outer loop
  vertex 0.037836574 0.0102982298 -0.0712821931
  vertex 0.0361650772 0.00725434627 -0.0331791528
  vertex 0.0380415171 -0.00215729629 -0.0666726306
  endloop
 endfacet

 facet normal 0 0 0
  outer loop
  vertex 0.037836574 0.0102982298 -0.0712821931
  vertex 0.0380415171 -0.00215729629 -0.0666726306
  vertex 0.03801433 8.43957332e-06 -0.0833627656
  endloop
 endfacet

 facet normal 0 0 0
  outer loop
  vertex -0.00648648432 -0.0108664175 -0.0987408459
  vertex -0.0114895767 -0.0128525756 -0.093496412
  vertex -0.02406721 -0.0108369766 -0.0963300243
  endloop
 endfacet

 facet normal 0 0 0
  outer loop
  vertex 0.0153299142 -0.0162591767 -0.0799079761
  vertex -0.0114895767 -0.0128525756 -0.093496412
  vertex -0.00648648432 -0.0108664175 -0.0987408459
  endloop
 endfacet

 facet normal 0 0 0
  outer loop
  vertex 0.0153299142 -0.0162591767 -0.0799079761
  vertex -0.00648648432 -0.0108664175 -0.0987408459
  vertex 0.0177795272 -0.0101655815 -0.0976040885
  endloop
 endfacet

 facet normal 0 0 0
  outer loop
  vertex 0.010699939 0.0204506479 -0.00218737288
  vertex 0.0181812793 0.0142086316 -0.00219216384
  vertex 0.0244974457 0.020666711 -0.0182691496
  endloop
 endfacet

 facet normal 0 0 0
  outer loop
  vertex 0.010699939 0.0204506479 -0.00218737288
  vertex 0.00308880513 0.0226594415 -0.00199841289
  vertex 0.0181812793 0.0142086316 -0.00219216384
  endloop
 endfacet

 facet normal 0 0 0
  outer loop
  vertex -0.0367100984 -0.00757663371 -0.0798085853
  vertex -0.0350491144 -0.0130639588 -0.0594207942
  vertex -0.0380649902 -0.00366260973 -0.0652266145
  endloop
 endfacet

 facet normal 0 0 0
  outer loop
  vertex -0.0380649902 -0.00366260973 -0.0652266145
  vertex -0.0382653326 0.000330439623 -0.0833304003
  vertex -0.0366122909 -0.00586256804 -0.0860154927
  endloop
 endfacet

 facet normal 0 0 0
  outer loop
  vertex -0.0380649902 -0.00366260973 -0.0652266145
  vertex -0.0366122909 -0.00586256804 -0.0860154927
  vertex -0.0367100984 -0.00757663371 -0.0798085853
  endloop
 endfacet

 facet normal 0 0 0
  outer loop
  vertex 0.036630787 -0.00519061275 -0.0860847458
  vertex 0.03801433 8.43957332e-06 -0.0833627656
  vertex 0.0380415171 -0.00215729629 -0.0666726306
  endloop
 endfacet

 facet normal 0 0 0
  outer loop
  vertex 0.036630787 -0.00519061275 -0.0860847458
  vertex 0.0380415171 -0.00215729629 -0.0666726306
  vertex 0.035094589 -0.012871149 -0.0610513613
  endloop
 endfacet

 facet normal 0 0 0
  outer loop
  vertex 0.036630787 -0.00519061275 -0.0860847458
  vertex 0.0325136408 -0.00831393432 -0.0910698846
  vertex 0.0301701799 -0.00458221091 -0.0950552598
  endloop
 endfacet

 facet normal 0 0 0
  outer loop
  vertex -0.03808273 0.0115599921 -0.0832233354
  vertex -0.0382653326 0.000330439623 -0.0833304003
  vertex -0.0380649902 -0.00366260973 -0.0652266145
  endloop
 endfacet

 facet normal 0 0 0
  outer loop
  vertex -0.03808273 0.0115599921 -0.0832233354
  vertex -0.0380649902 -0.00366260973 -0.0652266145
  vertex -0.0365225598 0.0124934558 -0.0423524193
  endloop
 endfacet

 facet normal 0 0 0
  outer loop
  vertex -0.03808273 0.0115599921 -0.0832233354
  vertex -0.0365225598 0.0124934558 -0.0423524193
  vertex -0.0343096368 0.016670756 -0.0315846168
  endloop
 endfacet

 facet normal 0 0 0
  outer loop
  vertex -0.03808273 0.0115599921 -0.0832233354
  vertex -0.0343096368 0.016670756 -0.0315846168
  vertex -0.0355964117 0.0178806689 -0.0837319791
  endloop
 endfacet

 facet normal 0 0 0
  outer loop
  vertex 0.0209988039 -0.00955751352 -0.00219898415
  vertex 0.0162816122 -0.0163405649 -0.00219989265
  vertex 0.0307332668 -0.012759611 -0.0208446775
  endloop
 endfacet

 facet normal 0 0 0
  outer loop
  vertex 0.0209988039 -0.00955751352 -0.00219898415
  vertex 0.0307332668 -0.012759611 -0.0208446775
  vertex 0.0334415548 -0.00505898055 -0.020844521
  endloop
 endfacet

 facet normal 0 0 0
  outer loop
  vertex 0.0209988039 -0.00955751352 -0.00219898415
  vertex 0.0334415548 -0.00505898055 -0.020844521
  vertex 0.0228737667 6.37045378e-05 -0.00199971581
  endloop
 endfacet

 facet normal 0 0 0
  outer loop
  vertex -0.00977987424 -0.0220864993 -0.0415592305
  vertex 0.000363940489 -0.0228662658 -0.00200155796
  vertex -0.0239352901 -0.0203813426 -0.0320818126
  endloop
 endfacet

 facet normal 0 0 0
  outer loop
  vertex -0.0239352901 -0.0203813426 -0.0320818126
  vertex -0.0268335007 -0.0188419875 -0.053117726
  vertex -0.0199909639 -0.019186249 -0.0613694824
  endloop
 endfacet

 facet normal 0 0 0
  outer loop
  vertex -0.0239352901 -0.0203813426 -0.0320818126
  vertex -0.0199909639 -0.019186249 -0.0613694824
  vertex -0.00977987424 -0.0220864993 -0.0415592305
  endloop
 endfacet

 facet normal 0 0 0
  outer loop
  vertex 0.0364360772 0.0112202773 -0.0855816603
  vertex 0.03801433 8.43957332e-06 -0.0833627656
  vertex 0.036630787 -0.00519061275 -0.0860847458
  endloop
 endfacet

 facet normal 0 0 0
  outer loop
  vertex 0.0364360772 0.0112202773 -0.0855816603
  vertex 0.036630787 -0.00519061275 -0.0860847458
  vertex 0.0301701799 -0.00458221091 -0.0950552598
  endloop
 endfacet

 facet normal 0 0 0
  outer loop
  vertex 0.027387904 -0.0134293651 -0.0836427733
  vertex 0.0270537715 -0.0180189963 -0.062076401
  vertex 0.0153299142 -0.0162591767 -0.0799079761
  endloop
 endfacet

 facet normal 0 0 0
  outer loop
  vertex 0.027387904 -0.0134293651 -0.0836427733
  vertex 0.0153299142 -0.0162591767 -0.0799079761
  vertex 0.0177795272 -0.0101655815 -0.0976040885
  endloop
 endfacet

 facet normal 0 0 0
  outer loop
  vertex -0.0291010998 0.0194732994 -0.0205519013
  vertex -0.0320567116 0.019580204 -0.033756163
  vertex -0.0343096368 0.016670756 -0.0315846168
  endloop
 endfacet

 facet normal 0 0 0
  outer loop
  vertex -0.0291010998 0.0194732994 -0.0205519013
  vertex -0.0343096368 0.016670756 -0.0315846168
  vertex -0.0316717029 0.0171218999 -0.0212730635
  endloop
 endfacet

 facet normal 0 0 0
  outer loop
  vertex -0.0291010998 0.0194732994 -0.0205519013
  vertex -0.0316717029 0.0171218999 -0.0212730635
  vertex -0.0150604257 0.0174785592 -0.00218853145
  endloop
 endfacet

 facet normal 0 0 0
  outer loop
  vertex -0.0291010998 0.0194732994 -0.0205519013
  vertex -0.0150604257 0.0174785592 -0.00218853145
  vertex -0.00826048665 0.0215390343 -0.00219416106
  endloop
 endfacet

 facet normal 0 0 0
  outer loop
  vertex -0.0305265319 -0.0178207401 -0.041078411
  vertex -0.0268335007 -0.0188419875 -0.053117726
  vertex -0.0239352901 -0.0203813426 -0.0320818126
  endloop
 endfacet

 facet normal 0 0 0
  outer loop
  vertex 0.0280283093 0.0198455695 -0.084449634
  vertex 0.0286852699 0.0181703512 -0.0867389366
  vertex -0.000203292962 0.0181179903 -0.0885221362
  endloop
 endfacet

 facet normal 0 0 0
  outer loop
  vertex 0.0280283093 0.0198455695 -0.084449634
  vertex -0.000203292962 0.0181179903 -0.0885221362
  vertex -0.0252985787 0.0197847355 -0.0847953483
  endloop
 endfacet

 facet normal 0 0 0
  outer loop
  vertex 0.0280283093 0.0198455695 -0.084449634
  vertex -0.0252985787 0.0197847355 -0.0847953483
  vertex 0.0164625086 0.0237601958 -0.0356795453
  endloop
 endfacet

 facet normal 0 0 0
  outer loop
  vertex 0.0280283093 0.0198455695 -0.084449634
  vertex 0.0349905528 0.0184053909 -0.0834628269
  vertex 0.0286852699 0.0181703512 -0.0867389366
  endloop
 endfacet

 facet normal 0 0 0
  outer loop
  vertex -0.0228663627 -6.35468678e-05 -0.00200028298
  vertex -0.0338681825 -0.00322482409 -0.020835219
  vertex -0.0303255636 -0.0110807642 -0.0178890824
  endloop
 endfacet

 facet normal 0 0 0
  outer loop
  vertex -0.0228663627 -6.35468678e-05 -0.00200028298
  vertex -0.0303255636 -0.0110807642 -0.0178890824
  vertex -0.0214262847 -0.00853465684 -0.00219917134
  endloop
 endfacet

 facet normal 0 0 0
  outer loop
  vertex -0.0214262847 -0.00853465684 -0.00219917134
  vertex -0.0303255636 -0.0110807642 -0.0178890824
  vertex -0.0167079978 -0.0158971548 -0.00220005657
  endloop
 endfacet

 facet normal 0 0 0
  outer loop
  vertex -0.0214262847 -0.00853465684 -0.00219917134
  vertex -0.0167079978 -0.0158971548 -0.00220005657
  vertex -0.0228663627 -6.35468678e-05 -0.00200028298
  endloop
 endfacet

 facet normal 0 0 0
  outer loop
  vertex -0.0319819972 0.0175156016 -0.0862445459
  vertex -0.0252985787 0.0197847355 -0.0847953483
  vertex -0.000203292962 0.0181179903 -0.0885221362
  endloop
 endfacet

 facet normal 0 0 0
  outer loop
  vertex 0.0271009672 -0.00930774678 -0.0951675475
  vertex 0.0325136408 -0.00831393432 -0.0910698846
  vertex 0.027387904 -0.0134293651 -0.0836427733
  endloop
 endfacet

 facet normal 0 0 0
  outer loop
  vertex 0.0271009672 -0.00930774678 -0.0951675475
  vertex 0.027387904 -0.0134293651 -0.0836427733
  vertex 0.0177795272 -0.0101655815 -0.0976040885
  endloop
 endfacet

 facet normal 0 0 0
  outer loop
  vertex 0.0271009672 -0.00930774678 -0.0951675475
  vertex 0.0177795272 -0.0101655815 -0.0976040885
  vertex 0.0243425667 -0.00503995223 -0.098626934
  endloop
 endfacet

 facet normal 0 0 0
  outer loop
  vertex 0.0271009672 -0.00930774678 -0.0951675475
  vertex 0.0243425667 -0.00503995223 -0.098626934
  vertex 0.0301701799 -0.00458221091 -0.0950552598
  endloop
 endfacet

 facet normal 0 0 0
  outer loop
  vertex 0.0271009672 -0.00930774678 -0.0951675475
  vertex 0.0301701799 -0.00458221091 -0.0950552598
  vertex 0.0325136408 -0.00831393432 -0.0910698846
  endloop
 endfacet

 facet normal 0 0 0
  outer loop
  vertex 0.0314118415 -0.0176688302 -0.0479519032
  vertex 0.0221506022 -0.0211683121 -0.037024159
  vertex 0.0270537715 -0.0180189963 -0.062076401
  endloop
 endfacet

 facet normal 0 0 0
  outer loop
  vertex 0.0338617153 0.00589652266 -0.0212108474
  vertex 0.0228737667 6.37045378e-05 -0.00199971581
  vertex 0.0334415548 -0.00505898055 -0.020844521
  endloop
 endfacet

 facet normal 0 0 0
  outer loop
  vertex 0.0322131813 -0.0146097885 -0.069635354
  vertex 0.0270537715 -0.0180189963 -0.062076401
  vertex 0.027387904 -0.0134293651 -0.0836427733
  endloop
 endfacet

 facet normal 0 0 0
  outer loop
  vertex 0.0322131813 -0.0146097885 -0.069635354
  vertex 0.027387904 -0.0134293651 -0.0836427733
  vertex 0.0325136408 -0.00831393432 -0.0910698846
  endloop
 endfacet

 facet normal 0 0 0
  outer loop
  vertex 0.0322131813 -0.0146097885 -0.069635354
  vertex 0.0325136408 -0.00831393432 -0.0910698846
  vertex 0.036630787 -0.00519061275 -0.0860847458
  endloop
 endfacet

 facet normal 0 0 0
  outer loop
  vertex 0.0322131813 -0.0146097885 -0.069635354
  vertex 0.036630787 -0.00519061275 -0.0860847458
  vertex 0.035094589 -0.012871149 -0.0610513613
  endloop
 endfacet

 facet normal 0 0 0
  outer loop
  vertex 0.0322131813 -0.0146097885 -0.069635354
  vertex 0.035094589 -0.012871149 -0.0610513613
  vertex 0.0314118415 -0.0176688302 -0.0479519032
  endloop
 endfacet

 facet normal 0 0 0
  outer loop
  vertex 0.0322131813 -0.0146097885 -0.069635354
  vertex 0.0314118415 -0.0176688302 -0.0479519032
  vertex 0.0270537715 -0.0180189963 -0.062076401
  endloop
 endfacet

 facet normal 0 0 0
  outer loop
  vertex 0.0343320891 0.016710462 -0.0859593451
  vertex 0.0243425667 -0.00503995223 -0.098626934
  vertex 0.0286852699 0.0181703512 -0.0867389366
  endloop
 endfacet

 facet normal 0 0 0
  outer loop
  vertex 0.0343320891 0.016710462 -0.0859593451
  vertex 0.0286852699 0.0181703512 -0.0867389366
  vertex 0.0349905528 0.0184053909 -0.0834628269
  endloop
 endfacet

 facet normal 0 0 0
  outer loop
  vertex 0.0343320891 0.016710462 -0.0859593451
  vertex 0.0364360772 0.0112202773 -0.0855816603
  vertex 0.0301701799 -0.00458221091 -0.0950552598
  endloop
 endfacet

 facet normal 0 0 0
  outer loop
  vertex 0.0343320891 0.016710462 -0.0859593451
  vertex 0.0301701799 -0.00458221091 -0.0950552598
  vertex 0.0243425667 -0.00503995223 -0.098626934
  endloop
 endfacet

 facet normal 0 0 0
  outer loop
  vertex -0.0364611447 0.01405166 -0.0857173577
  vertex -0.03808273 0.0115599921 -0.0832233354
  vertex -0.0355964117 0.0178806689 -0.0837319791
  endloop
 endfacet

 facet normal 0 0 0
  outer loop
  vertex -0.0364611447 0.01405166 -0.0857173577
  vertex -0.0355964117 0.0178806689 -0.0837319791
  vertex -0.0319819972 0.0175156016 -0.0862445459
  endloop
 endfacet

 facet normal 0 0 0
  outer loop
  vertex -0.0364611447 0.01405166 -0.0857173577
  vertex -0.0319819972 0.0175156016 -0.0862445459
  vertex -0.0240538009 -0.00507504679 -0.0986704528
  endloop
 endfacet

 facet normal 0 0 0
  outer loop
  vertex -0.0364611447 0.01405166 -0.0857173577
  vertex -0.0240538009 -0.00507504679 -0.0986704528
  vertex -0.032852117 -0.00435650162 -0.0932023898
  endloop
 endfacet

 facet normal 0 0 0
  outer loop
  vertex 0.0188843813 0.0229698438 -0.0190296229
  vertex 0.00308880513 0.0226594415 -0.00199841289
  vertex 0.010699939 0.0204506479 -0.00218737288
  endloop
 endfacet

 facet normal 0 0 0
  outer loop
  vertex 0.0188843813 0.0229698438 -0.0190296229
  vertex 0.010699939 0.0204506479 -0.00218737288
  vertex 0.0244974457 0.020666711 -0.0182691496
  endloop
 endfacet

 facet normal 0 0 0
  outer loop
  vertex 0.0188843813 0.0229698438 -0.0190296229
  vertex 0.0244974457 0.020666711 -0.0182691496
  vertex 0.0267118253 0.0217816401 -0.0308952164
  endloop
 endfacet

 facet normal 0 0 0
  outer loop
  vertex -0.0326754116 -0.0138216233 -0.0730054826
  vertex -0.0279970076 -0.0148843993 -0.0783561096
  vertex -0.0268335007 -0.0188419875 -0.053117726
  endloop
 endfacet

 facet normal 0 0 0
  outer loop
  vertex -0.0326754116 -0.0138216233 -0.0730054826
  vertex -0.0268335007 -0.0188419875 -0.053117726
  vertex -0.0305265319 -0.0178207401 -0.041078411
  endloop
 endfacet

 facet normal 0 0 0
  outer loop
  vertex -0.0326754116 -0.0138216233 -0.0730054826
  vertex -0.0305265319 -0.0178207401 -0.041078411
  vertex -0.0350491144 -0.0130639588 -0.0594207942
  endloop
 endfacet

 facet normal 0 0 0
  outer loop
  vertex -0.0326754116 -0.0138216233 -0.0730054826
  vertex -0.0350491144 -0.0130639588 -0.0594207942
  vertex -0.0367100984 -0.00757663371 -0.0798085853
  endloop
 endfacet

 facet normal 0 0 0
  outer loop
  vertex -0.0326754116 -0.0138216233 -0.0730054826
  vertex -0.0367100984 -0.00757663371 -0.0798085853
  vertex -0.0329241827 -0.00916908216 -0.0906371921
  endloop
 endfacet

 facet normal 0 0 0
  outer loop
  vertex -0.0337732434 -0.00946661457 -0.0241939183
  vertex -0.0303255636 -0.0110807642 -0.0178890824
  vertex -0.0338681825 -0.00322482409 -0.020835219
  endloop
 endfacet

 facet normal 0 0 0
  outer loop
  vertex -0.0366122909 -0.00586256804 -0.0860154927
  vertex -0.0329241827 -0.00916908216 -0.0906371921
  vertex -0.0367100984 -0.00757663371 -0.0798085853
  endloop
 endfacet

 facet normal 0 0 0
  outer loop
  vertex 0.0260880198 -0.0195614621 -0.0281052683
  vertex 0.0221506022 -0.0211683121 -0.037024159
  vertex 0.0314118415 -0.0176688302 -0.0479519032
  endloop
 endfacet

 facet normal 0 0 0
  outer loop
  vertex 0.0260880198 -0.0195614621 -0.0281052683
  vertex 0.0314118415 -0.0176688302 -0.0479519032
  vertex 0.0313537568 -0.0170536935 -0.0324021839
  endloop
 endfacet

 facet normal 0 0 0
  outer loop
  vertex 0.0219175555 0.0072008241 -0.00219630008
  vertex 0.0309418645 0.0136941569 -0.0189720392
  vertex 0.0181812793 0.0142086316 -0.00219216384
  endloop
 endfacet

 facet normal 0 0 0
  outer loop
  vertex 0.0219175555 0.0072008241 -0.00219630008
  vertex 0.0181812793 0.0142086316 -0.00219216384
  vertex 0.0228737667 6.37045378e-05 -0.00199971581
  endloop
 endfacet

 facet normal 0 0 0
  outer loop
  vertex 0.0219175555 0.0072008241 -0.00219630008
  vertex 0.0228737667 6.37045378e-05 -0.00199971581
  vertex 0.0338617153 0.00589652266 -0.0212108474
  endloop
 endfacet

 facet normal 0 0 0
  outer loop
  vertex 0.0219175555 0.0072008241 -0.00219630008
  vertex 0.0338617153 0.00589652266 -0.0212108474
  vertex 0.0309418645 0.0136941569 -0.0189720392
  endloop
 endfacet

 facet normal 0 0 0
  outer loop
  vertex -0.0155406762 -0.00547861727 -0.100697622
  vertex -0.00110377895 -0.00529037975 -0.101515777
  vertex -0.00648648432 -0.0108664175 -0.0987408459
  endloop
 endfacet

 facet normal 0 0 0
  outer loop
  vertex -0.0155406762 -0.00547861727 -0.100697622
  vertex -0.00648648432 -0.0108664175 -0.0987408459
  vertex -0.02406721 -0.0108369766 -0.0963300243
  endloop
 endfacet

 facet normal 0 0 0
  outer loop
  vertex -0.0155406762 -0.00547861727 -0.100697622
  vertex -0.02406721 -0.0108369766 -0.0963300243
  vertex -0.0240538009 -0.00507504679 -0.0986704528
  endloop
 endfacet

 facet normal 0 0 0
  outer loop
  vertex -0.0155406762 -0.00547861727 -0.100697622
  vertex -0.0240538009 -0.00507504679 -0.0986704528
  vertex -0.0319819972 0.0175156016 -0.0862445459
  endloop
 endfacet

 facet normal 0 0 0
  outer loop
  vertex -0.0319819972 0.0175156016 -0.0862445459
  vertex -0.000203292962 0.0181179903 -0.0885221362
  vertex -0.00110377895 -0.00529037975 -0.101515777
  endloop
 endfacet

 facet normal 0 0 0
  outer loop
  vertex -0.0319819972 0.0175156016 -0.0862445459
  vertex -0.00110377895 -0.00529037975 -0.101515777
  vertex -0.0155406762 -0.00547861727 -0.100697622
  endloop
 endfacet

 facet normal 0 0 0
  outer loop
  vertex -0.0343096368 0.016670756 -0.0315846168
  vertex -0.0320567116 0.019580204 -0.033756163
  vertex -0.0355964117 0.0178806689 -0.0837319791
  endloop
 endfacet

 facet normal 0 0 0
  outer loop
  vertex -0.0343096368 0.016670756 -0.0315846168
  vertex -0.0365225598 0.0124934558 -0.0423524193
  vertex -0.0352354422 0.00948833302 -0.0275469031
  endloop
 endfacet

 facet normal 0 0 0
  outer loop
  vertex -0.0343096368 0.016670756 -0.0315846168
  vertex -0.0352354422 0.00948833302 -0.0275469031
  vertex -0.0316717029 0.0171218999 -0.0212730635
  endloop
 endfacet

 facet normal 0 0 0
  outer loop
  vertex -0.0319312289 0.00911375787 -0.0179774165
  vertex -0.0316717029 0.0171218999 -0.0212730635
  vertex -0.0352354422 0.00948833302 -0.0275469031
  endloop
 endfacet

 facet normal 0 0 0
  outer loop
  vertex -0.0319312289 0.00911375787 -0.0179774165
  vertex -0.0352354422 0.00948833302 -0.0275469031
  vertex -0.0338681825 -0.00322482409 -0.020835219
  endloop
 endfacet

 facet normal 0 0 0
  outer loop
  vertex -0.0319312289 0.00911375787 -0.0179774165
  vertex -0.0338681825 -0.00322482409 -0.020835219
  vertex -0.0228663627 -6.35468678e-05 -0.00200028298
  endloop
 endfacet

 facet normal 0 0 0
  outer loop
  vertex -0.0319312289 0.00911375787 -0.0179774165
  vertex -0.0228663627 -6.35468678e-05 -0.00200028298
  vertex -0.0209964402 0.00955293234 -0.00219536689
  endloop
 endfacet

 facet normal 0 0 0
  outer loop
  vertex -0.0319312289 0.00911375787 -0.0179774165
  vertex -0.0209964402 0.00955293234 -0.00219536689
  vertex -0.0316717029 0.0171218999 -0.0212730635
  endloop
 endfacet

 facet normal 0 0 0
  outer loop
  vertex 0.0370690934 0.013822102 -0.0829002336
  vertex 0.037836574 0.0102982298 -0.0712821931
  vertex 0.03801433 8.43957332e-06 -0.0833627656
  endloop
 endfacet

 facet normal 0 0 0
  outer loop
  vertex 0.0370690934 0.013822102 -0.0829002336
  vertex 0.03801433 8.43957332e-06 -0.0833627656
  vertex 0.0364360772 0.0112202773 -0.0855816603
  endloop
 endfacet

 facet normal 0 0 0
  outer loop
  vertex 0.0364360772 0.0112202773 -0.0855816603
  vertex 0.0343320891 0.016710462 -0.0859593451
  vertex 0.0349905528 0.0184053909 -0.0834628269
  endloop
 endfacet

 facet normal 0 0 0
  outer loop
  vertex 0.0364360772 0.0112202773 -0.0855816603
  vertex 0.0349905528 0.0184053909 -0.0834628269
  vertex 0.0370690934 0.013822102 -0.0829002336
  endloop
 endfacet

 facet normal 0 0 0
  outer loop
  vertex -0.0160576999 -0.0164382942 -0.0793621019
  vertex -0.0279970076 -0.0148843993 -0.0783561096
  vertex -0.02406721 -0.0108369766 -0.0963300243
  endloop
 endfacet

 facet normal 0 0 0
  outer loop
  vertex -0.0160576999 -0.0164382942 -0.0793621019
  vertex -0.02406721 -0.0108369766 -0.0963300243
  vertex -0.0114895767 -0.0128525756 -0.093496412
  endloop
 endfacet

 facet normal 0 0 0
  outer loop
  vertex -0.0160576999 -0.0164382942 -0.0793621019
  vertex -0.0114895767 -0.0128525756 -0.093496412
  vertex 0.0153299142 -0.0162591767 -0.0799079761
  endloop
 endfacet

 facet normal 0 0 0
  outer loop
  vertex -0.0160576999 -0.0164382942 -0.0793621019
  vertex 0.0153299142 -0.0162591767 -0.0799079761
  vertex -0.000126953324 -0.0201000161 -0.06192654
  endloop
 endfacet

 facet normal 0 0 0
  outer loop
  vertex 0.0341834947 -0.0149097396 -0.0422780849
  vertex 0.035094589 -0.012871149 -0.0610513613
  vertex 0.0357655846 -0.0101538068 -0.038003698
  endloop
 endfacet

 facet normal 0 0 0
  outer loop
  vertex 0.0341834947 -0.0149097396 -0.0422780849
  vertex 0.0313537568 -0.0170536935 -0.0324021839
  vertex 0.0314118415 -0.0176688302 -0.0479519032
  endloop
 endfacet

 facet normal 0 0 0
  outer loop
  vertex 0.0341834947 -0.0149097396 -0.0422780849
  vertex 0.0314118415 -0.0176688302 -0.0479519032
  vertex 0.035094589 -0.012871149 -0.0610513613
  endloop
 endfacet

 facet normal 0 0 0
  outer loop
  vertex 0.0150198443 -0.0207361951 -0.0543774404
  vertex 0.0270537715 -0.0180189963 -0.062076401
  vertex 0.0221506022 -0.0211683121 -0.037024159
  endloop
 endfacet

 facet normal 0 0 0
  outer loop
  vertex 0.0150198443 -0.0207361951 -0.0543774404
  vertex 0.00967007037 -0.0223201998 -0.0368791483
  vertex -0.00977987424 -0.0220864993 -0.0415592305
  endloop
 endfacet

 facet normal 0 0 0
  outer loop
  vertex 0.0150198443 -0.0207361951 -0.0543774404
  vertex -0.00977987424 -0.0220864993 -0.0415592305
  vertex -0.000126953324 -0.0201000161 -0.06192654
  endloop
 endfacet

 facet normal 0 0 0
  outer loop
  vertex 0.0150198443 -0.0207361951 -0.0543774404
  vertex -0.000126953324 -0.0201000161 -0.06192654
  vertex 0.0153299142 -0.0162591767 -0.0799079761
  endloop
 endfacet

 facet normal 0 0 0
  outer loop
  vertex 0.0150198443 -0.0207361951 -0.0543774404
  vertex 0.0153299142 -0.0162591767 -0.0799079761
  vertex 0.0270537715 -0.0180189963 -0.062076401
  endloop
 endfacet

 facet normal 0 0 0
  outer loop
  vertex 0.0275899153 -0.016535921 -0.0208447371
  vertex 0.0162816122 -0.0163405649 -0.00219989265
  vertex 0.00874008983 -0.0213478468 -0.00220104237
  endloop
 endfacet

 facet normal 0 0 0
  outer loop
  vertex 0.0275899153 -0.016535921 -0.0208447371
  vertex 0.00874008983 -0.0213478468 -0.00220104237
  vertex 0.0260880198 -0.0195614621 -0.0281052683
  endloop
 endfacet

 facet normal 0 0 0
  outer loop
  vertex 0.0275899153 -0.016535921 -0.0208447371
  vertex 0.0260880198 -0.0195614621 -0.0281052683
  vertex 0.0313537568 -0.0170536935 -0.0324021839
  endloop
 endfacet

 facet normal 0 0 0
  outer loop
  vertex 0.0275899153 -0.016535921 -0.0208447371
  vertex 0.0313537568 -0.0170536935 -0.0324021839
  vertex 0.0307332668 -0.012759611 -0.0208446775
  endloop
 endfacet

 facet normal 0 0 0
  outer loop
  vertex 0.0275899153 -0.016535921 -0.0208447371
  vertex 0.0307332668 -0.012759611 -0.0208446775
  vertex 0.0162816122 -0.0163405649 -0.00219989265
  endloop
 endfacet

 facet normal 0 0 0
  outer loop
  vertex -0.0339294188 -0.0143920155 -0.0395758487
  vertex -0.0350491144 -0.0130639588 -0.0594207942
  vertex -0.0305265319 -0.0178207401 -0.041078411
  endloop
 endfacet

 facet normal 0 0 0
  outer loop
  vertex -0.0339294188 -0.0143920155 -0.0395758487
  vertex -0.0305265319 -0.0178207401 -0.041078411
  vertex -0.0312470868 -0.0154556502 -0.0279328339
  endloop
 endfacet

 facet normal 0 0 0
  outer loop
  vertex -0.0312470868 -0.0154556502 -0.0279328339
  vertex -0.0337732434 -0.00946661457 -0.0241939183
  vertex -0.0356691219 -0.0100515001 -0.0368446149
  endloop
 endfacet

 facet normal 0 0 0
  outer loop
  vertex -0.0312470868 -0.0154556502 -0.0279328339
  vertex -0.0356691219 -0.0100515001 -0.0368446149
  vertex -0.0339294188 -0.0143920155 -0.0395758487
  endloop
 endfacet

 facet normal 0 0 0
  outer loop
  vertex -0.0339294188 -0.0143920155 -0.0395758487
  vertex -0.0356691219 -0.0100515001 -0.0368446149
  vertex -0.0350491144 -0.0130639588 -0.0594207942
  endloop
 endfacet

 facet normal 0 0 0
  outer loop
  vertex 0.0135504985 -0.00546865119 -0.100696787
  vertex 0.0243425667 -0.00503995223 -0.098626934
  vertex 0.0177795272 -0.0101655815 -0.0976040885
  endloop
 endfacet

 facet normal 0 0 0
  outer loop
  vertex 0.0177795272 -0.0101655815 -0.0976040885
  vertex -0.00648648432 -0.0108664175 -0.0987408459
  vertex -0.00110377895 -0.00529037975 -0.101515777
  endloop
 endfacet

 facet normal 0 0 0
  outer loop
  vertex 0.0177795272 -0.0101655815 -0.0976040885
  vertex -0.00110377895 -0.00529037975 -0.101515777
  vertex 0.0135504985 -0.00546865119 -0.100696787
  endloop
 endfacet

 facet normal 0 0 0
  outer loop
  vertex 0.0135504985 -0.00546865119 -0.100696787
  vertex 0.0286852699 0.0181703512 -0.0867389366
  vertex 0.0243425667 -0.00503995223 -0.098626934
  endloop
 endfacet

 facet normal 0 0 0
  outer loop
  vertex -0.0264064092 -0.0181859769 -0.024208134
  vertex -0.0239352901 -0.0203813426 -0.0320818126
  vertex -0.00849680137 -0.0214429889 -0.00220111012
  endloop
 endfacet

 facet normal 0 0 0
  outer loop
  vertex -0.00849680137 -0.0214429889 -0.00220111012
  vertex -0.0167079978 -0.0158971548 -0.00220005657
  vertex -0.0288615618 -0.0151306614 -0.0208377596
  endloop
 endfacet

 facet normal 0 0 0
  outer loop
  vertex -0.00849680137 -0.0214429889 -0.00220111012
  vertex -0.0288615618 -0.0151306614 -0.0208377596
  vertex -0.0264064092 -0.0181859769 -0.024208134
  endloop
 endfacet

 facet normal 0 0 0
  outer loop
  vertex -0.0264064092 -0.0181859769 -0.024208134
  vertex -0.0312470868 -0.0154556502 -0.0279328339
  vertex -0.0305265319 -0.0178207401 -0.041078411
  endloop
 endfacet

 facet normal 0 0 0
  outer loop
  vertex -0.0264064092 -0.0181859769 -0.024208134
  vertex -0.0305265319 -0.0178207401 -0.041078411
  vertex -0.0239352901 -0.0203813426 -0.0320818126
  endloop
 endfacet

 facet normal 0 0 0
  outer loop
  vertex 0.0356491394 -0.00223007239 -0.0281290468
  vertex 0.0357655846 -0.0101538068 -0.038003698
  vertex 0.0380415171 -0.00215729629 -0.0666726306
  endloop
 endfacet

 facet normal 0 0 0
  outer loop
  vertex 0.0356491394 -0.00223007239 -0.0281290468
  vertex 0.0380415171 -0.00215729629 -0.0666726306
  vertex 0.0361650772 0.00725434627 -0.0331791528
  endloop
 endfacet

 facet normal 0 0 0
  outer loop
  vertex 0.0356491394 -0.00223007239 -0.0281290468
  vertex 0.0361650772 0.00725434627 -0.0331791528
  vertex 0.0338617153 0.00589652266 -0.0212108474
  endloop
 endfacet

 facet normal 0 0 0
  outer loop
  vertex 0.0356491394 -0.00223007239 -0.0281290468
  vertex 0.0338617153 0.00589652266 -0.0212108474
  vertex 0.0334415548 -0.00505898055 -0.020844521
  endloop
 endfacet

 facet normal 0 0 0
  outer loop
  vertex 0.0341364481 -0.0107437829 -0.0281208102
  vertex 0.0334415548 -0.00505898055 -0.020844521
  vertex 0.0307332668 -0.012759611 -0.0208446775
  endloop
 endfacet

 facet normal 0 0 0
  outer loop
  vertex 0.0341364481 -0.0107437829 -0.0281208102
  vertex 0.0307332668 -0.012759611 -0.0208446775
  vertex 0.0313537568 -0.0170536935 -0.0324021839
  endloop
 endfacet

 facet normal 0 0 0
  outer loop
  vertex 0.0341364481 -0.0107437829 -0.0281208102
  vertex 0.0313537568 -0.0170536935 -0.0324021839
  vertex 0.0341834947 -0.0149097396 -0.0422780849
  endloop
 endfacet

 facet normal 0 0 0
  outer loop
  vertex 0.0341364481 -0.0107437829 -0.0281208102
  vertex 0.0341834947 -0.0149097396 -0.0422780849
  vertex 0.0357655846 -0.0101538068 -0.038003698
  endloop
 endfacet

 facet normal 0 0 0
  outer loop
  vertex 0.0341364481 -0.0107437829 -0.0281208102
  vertex 0.0357655846 -0.0101538068 -0.038003698
  vertex 0.0356491394 -0.00223007239 -0.0281290468
  endloop
 endfacet

 facet normal 0 0 0
  outer loop
  vertex 0.0341364481 -0.0107437829 -0.0281208102
  vertex 0.0356491394 -0.00223007239 -0.0281290468
  vertex 0.0334415548 -0.00505898055 -0.020844521
  endloop
 endfacet

 facet normal 0 0 0
  outer loop
  vertex -0.0367710069 0.000299710431 -0.0376854911
  vertex -0.0356691219 -0.0100515001 -0.0368446149
  vertex -0.0337732434 -0.00946661457 -0.0241939183
  endloop
 endfacet

 facet normal 0 0 0
  outer loop
  vertex -0.0367710069 0.000299710431 -0.0376854911
  vertex -0.0337732434 -0.00946661457 -0.0241939183
  vertex -0.0338681825 -0.00322482409 -0.020835219
  endloop
 endfacet

 facet normal 0 0 0
  outer loop
  vertex -0.0367710069 0.000299710431 -0.0376854911
  vertex -0.0338681825 -0.00322482409 -0.020835219
  vertex -0.0352354422 0.00948833302 -0.0275469031
  endloop
 endfacet

 facet normal 0 0 0
  outer loop
  vertex -0.0367710069 0.000299710431 -0.0376854911
  vertex -0.0352354422 0.00948833302 -0.0275469031
  vertex -0.0365225598 0.0124934558 -0.0423524193
  endloop
 endfacet

 facet normal 0 0 0
  outer loop
  vertex -0.0367710069 0.000299710431 -0.0376854911
  vertex -0.0365225598 0.0124934558 -0.0423524193
  vertex -0.0380649902 -0.00366260973 -0.0652266145
  endloop
 endfacet

 facet normal 0 0 0
  outer loop
  vertex -0.0367710069 0.000299710431 -0.0376854911
  vertex -0.0380649902 -0.00366260973 -0.0652266145
  vertex -0.0356691219 -0.0100515001 -0.0368446149
  endloop
 endfacet

 facet normal 0 0 0
  outer loop
  vertex -0.0295152273 -0.0101747364 -0.0937774181
  vertex -0.0329241827 -0.00916908216 -0.0906371921
  vertex -0.032852117 -0.00435650162 -0.0932023898
  endloop
 endfacet

 facet normal 0 0 0
  outer loop
  vertex -0.0295152273 -0.0101747364 -0.0937774181
  vertex -0.032852117 -0.00435650162 -0.0932023898
  vertex -0.0240538009 -0.00507504679 -0.0986704528
  endloop
 endfacet

 facet normal 0 0 0
  outer loop
  vertex -0.0295152273 -0.0101747364 -0.0937774181
  vertex -0.0240538009 -0.00507504679 -0.0986704528
  vertex -0.02406721 -0.0108369766 -0.0963300243
  endloop
 endfacet

 facet normal 0 0 0
  outer loop
  vertex -0.0295152273 -0.0101747364 -0.0937774181
  vertex -0.02406721 -0.0108369766 -0.0963300243
  vertex -0.0279970076 -0.0148843993 -0.0783561096
  endloop
 endfacet

 facet normal 0 0 0
  outer loop
  vertex -0.0279970076 -0.0148843993 -0.0783561096
  vertex -0.0326754116 -0.0138216233 -0.0730054826
  vertex -0.0329241827 -0.00916908216 -0.0906371921
  endloop
 endfacet

 facet normal 0 0 0
  outer loop
  vertex -0.0279970076 -0.0148843993 -0.0783561096
  vertex -0.0329241827 -0.00916908216 -0.0906371921
  vertex -0.0295152273 -0.0101747364 -0.0937774181
  endloop
 endfacet

 facet normal 0 0 0
  outer loop
  vertex -0.0359796397 -0.00272664684 -0.0892107934
  vertex -0.032852117 -0.00435650162 -0.0932023898
  vertex -0.0329241827 -0.00916908216 -0.0906371921
  endloop
 endfacet

 facet normal 0 0 0
  outer loop
  vertex -0.0359796397 -0.00272664684 -0.0892107934
  vertex -0.0329241827 -0.00916908216 -0.0906371921
  vertex -0.0366122909 -0.00586256804 -0.0860154927
  endloop
 endfacet

 facet normal 0 0 0
  outer loop
  vertex -0.0359796397 -0.00272664684 -0.0892107934
  vertex -0.0366122909 -0.00586256804 -0.0860154927
  vertex -0.0382653326 0.000330439623 -0.0833304003
  endloop
 endfacet

 facet normal 0 0 0
  outer loop
  vertex -0.0359796397 -0.00272664684 -0.0892107934
  vertex -0.0382653326 0.000330439623 -0.0833304003
  vertex -0.03808273 0.0115599921 -0.0832233354
  endloop
 endfacet

 facet normal 0 0 0
  outer loop
  vertex -0.0359796397 -0.00272664684 -0.0892107934
  vertex -0.03808273 0.0115599921 -0.0832233354
  vertex -0.0364611447 0.01405166 -0.0857173577
  endloop
 endfacet

 facet normal 0 0 0
  outer loop
  vertex -0.0359796397 -0.00272664684 -0.0892107934
  vertex -0.0364611447 0.01405166 -0.0857173577
  vertex -0.032852117 -0.00435650162 -0.0932023898
  endloop
 endfacet

 facet normal 0 0 0
  outer loop
  vertex 0.0347360075 0.0122360345 -0.0308792591
  vertex 0.0361650772 0.00725434627 -0.0331791528
  vertex 0.037836574 0.0102982298 -0.0712821931
  endloop
 endfacet

 facet normal 0 0 0
  outer loop
  vertex 0.0347360075 0.0122360345 -0.0308792591
  vertex 0.0328118876 0.0170988906 -0.035026595
  vertex 0.0309418645 0.0136941569 -0.0189720392
  endloop
 endfacet

 facet normal 0 0 0
  outer loop
  vertex 0.0347360075 0.0122360345 -0.0308792591
  vertex 0.0309418645 0.0136941569 -0.0189720392
  vertex 0.0338617153 0.00589652266 -0.0212108474
  endloop
 endfacet

 facet normal 0 0 0
  outer loop
  vertex 0.0347360075 0.0122360345 -0.0308792591
  vertex 0.0338617153 0.00589652266 -0.0212108474
  vertex 0.0361650772 0.00725434627 -0.0331791528
  endloop
 endfacet

 facet normal 0 0 0
  outer loop
  vertex -0.00247042417 0.022934258 -0.00219853991
  vertex -0.0232323669 0.0214389842 -0.0343123898
  vertex -0.0320567116 0.019580204 -0.033756163
  endloop
 endfacet

 facet normal 0 0 0
  outer loop
  vertex -0.00247042417 0.022934258 -0.00219853991
  vertex -0.0320567116 0.019580204 -0.033756163
  vertex -0.0291010998 0.0194732994 -0.0205519013
  endloop
 endfacet

 facet normal 0 0 0
  outer loop
  vertex -0.00247042417 0.022934258 -0.00219853991
  vertex -0.0291010998 0.0194732994 -0.0205519013
  vertex -0.00826048665 0.0215390343 -0.00219416106
  endloop
 endfacet

 facet normal 0 0 0
  outer loop
  vertex -0.00247042417 0.022934258 -0.00219853991
  vertex -0.00826048665 0.0215390343 -0.00219416106
  vertex 0.00308880513 0.0226594415 -0.00199841289
  endloop
 endfacet

 facet normal 0 0 0
  outer loop
  vertex -0.00247042417 0.022934258 -0.00219853991
  vertex 0.00308880513 0.0226594415 -0.00199841289
  vertex 0.0188843813 0.0229698438 -0.0190296229
  endloop
 endfacet

 facet normal 0 0 0
  outer loop
  vertex -0.00247042417 0.022934258 -0.00219853991
  vertex 0.0188843813 0.0229698438 -0.0190296229
  vertex 0.0164625086 0.0237601958 -0.0356795453
  endloop
 endfacet

 facet normal 0 0 0
  outer loop
  vertex -0.0326257721 0.0192469489 -0.0841196105
  vertex -0.0252985787 0.0197847355 -0.0847953483
  vertex -0.0319819972 0.0175156016 -0.0862445459
  endloop
 endfacet

 facet normal 0 0 0
  outer loop
  vertex -0.0326257721 0.0192469489 -0.0841196105
  vertex -0.0319819972 0.0175156016 -0.0862445459
  vertex -0.0355964117 0.0178806689 -0.0837319791
  endloop
 endfacet

 facet normal 0 0 0
  outer loop
  vertex -0.0326257721 0.0192469489 -0.0841196105
  vertex -0.0355964117 0.0178806689 -0.0837319791
  vertex -0.0320567116 0.019580204 -0.033756163
  endloop
 endfacet

 facet normal 0 0 0
  outer loop
  vertex -0.0326257721 0.0192469489 -0.0841196105
  vertex -0.0320567116 0.019580204 -0.033756163
  vertex -0.0232323669 0.0214389842 -0.0343123898
  endloop
 endfacet

 facet normal 0 0 0
  outer loop
  vertex -0.0199909639 -0.019186249 -0.0613694824
  vertex -0.0268335007 -0.0188419875 -0.053117726
  vertex -0.0279970076 -0.0148843993 -0.0783561096
  endloop
 endfacet

 facet normal 0 0 0
  outer loop
  vertex -0.0199909639 -0.019186249 -0.0613694824
  vertex -0.0279970076 -0.0148843993 -0.0783561096
  vertex -0.0160576999 -0.0164382942 -0.0793621019
  endloop
 endfacet

 facet normal 0 0 0
  outer loop
  vertex -0.0199909639 -0.019186249 -0.0613694824
  vertex -0.0160576999 -0.0164382942 -0.0793621019
  vertex -0.000126953324 -0.0201000161 -0.06192654
  endloop
 endfacet

 facet normal 0 0 0
  outer loop
  vertex -0.0199909639 -0.019186249 -0.0613694824
  vertex -0.000126953324 -0.0201000161 -0.06192654
  vertex -0.00977987424 -0.0220864993 -0.0415592305
  endloop
 endfacet

 facet normal 0 0 0
  outer loop
  vertex 0.00967007037 -0.0223201998 -0.0368791483
  vertex 0.000363940489 -0.0228662658 -0.00200155796
  vertex -0.00977987424 -0.0220864993 -0.0415592305
  endloop
 endfacet

 facet normal 0 0 0
  outer loop
  vertex 0.00967007037 -0.0223201998 -0.0368791483
  vertex 0.0150198443 -0.0207361951 -0.0543774404
  vertex 0.0221506022 -0.0211683121 -0.037024159
  endloop
 endfacet

 facet normal 0 0 0
  outer loop
  vertex 0.00967007037 -0.0223201998 -0.0368791483
  vertex 0.0221506022 -0.0211683121 -0.037024159
  vertex 0.000363940489 -0.0228662658 -0.00200155796
  endloop
 endfacet

 facet normal 0 0 0
  outer loop
  vertex -0.0288615618 -0.0151306614 -0.0208377596
  vertex -0.0312470868 -0.0154556502 -0.0279328339
  vertex -0.0264064092 -0.0181859769 -0.024208134
  endloop
 endfacet

 facet normal 0 0 0
  outer loop
  vertex -0.0288615618 -0.0151306614 -0.0208377596
  vertex -0.0167079978 -0.0158971548 -0.00220005657
  vertex -0.0303255636 -0.0110807642 -0.0178890824
  endloop
 endfacet

 facet normal 0 0 0
  outer loop
  vertex -0.0288615618 -0.0151306614 -0.0208377596
  vertex -0.0303255636 -0.0110807642 -0.0178890824
  vertex -0.0337732434 -0.00946661457 -0.0241939183
  endloop
 endfacet

 facet normal 0 0 0
  outer loop
  vertex -0.0288615618 -0.0151306614 -0.0208377596
  vertex -0.0337732434 -0.00946661457 -0.0241939183
  vertex -0.0312470868 -0.0154556502 -0.0279328339
  endloop
 endfacet

 facet normal 0 0 0
  outer loop
  vertex 0.023953842 0.022940727 -0.0356782041
  vertex 0.0267118253 0.0217816401 -0.0308952164
  vertex 0.0349905528 0.0184053909 -0.0834628269
  endloop
 endfacet

 facet normal 0 0 0
  outer loop
  vertex 0.023953842 0.022940727 -0.0356782041
  vertex 0.0349905528 0.0184053909 -0.0834628269
  vertex 0.0280283093 0.0198455695 -0.084449634
  endloop
 endfacet

 facet normal 0 0 0
  outer loop
  vertex 0.023953842 0.022940727 -0.0356782041
  vertex 0.0280283093 0.0198455695 -0.084449634
  vertex 0.0164625086 0.0237601958 -0.0356795453
  endloop
 endfacet

 facet normal 0 0 0
  outer loop
  vertex 0.023953842 0.022940727 -0.0356782041
  vertex 0.0164625086 0.0237601958 -0.0356795453
  vertex 0.0188843813 0.0229698438 -0.0190296229
  endloop
 endfacet

 facet normal 0 0 0
  outer loop
  vertex 0.023953842 0.022940727 -0.0356782041
  vertex 0.0188843813 0.0229698438 -0.0190296229
  vertex 0.0267118253 0.0217816401 -0.0308952164
  endloop
 endfacet

 facet normal 0 0 0
  outer loop
  vertex 0.0362953469 0.0156420488 -0.0703971386
  vertex 0.0328118876 0.0170988906 -0.035026595
  vertex 0.0347360075 0.0122360345 -0.0308792591
  endloop
 endfacet

 facet normal 0 0 0
  outer loop
  vertex 0.0347360075 0.0122360345 -0.0308792591
  vertex 0.037836574 0.0102982298 -0.0712821931
  vertex 0.0370690934 0.013822102 -0.0829002336
  endloop
 endfacet

 facet normal 0 0 0
  outer loop
  vertex 0.0347360075 0.0122360345 -0.0308792591
  vertex 0.0370690934 0.013822102 -0.0829002336
  vertex 0.0362953469 0.0156420488 -0.0703971386
  endloop
 endfacet

 facet normal 0 0 0
  outer loop
  vertex 0.0362953469 0.0156420488 -0.0703971386
  vertex 0.0370690934 0.013822102 -0.0829002336
  vertex 0.0349905528 0.0184053909 -0.0834628269
  endloop
 endfacet

 facet normal 0 0 0
  outer loop
  vertex 0.0362953469 0.0156420488 -0.0703971386
  vertex 0.0349905528 0.0184053909 -0.0834628269
  vertex 0.0328118876 0.0170988906 -0.035026595
  endloop
 endfacet

endsolid AssimpScene
