solid AssimpScene
 facet normal 0 0 0
  outer loop
  vertex 0.0333324336 -0.00475565996 0.00439659739
  vertex 0.0358339064 0.0008941532 0.00637267111
  vertex 0.00392166758 0.00212203129 0.00715612061
  endloop
 endfacet

 facet normal 0 0 0
  outer loop
  vertex 0.0333324336 -0.00475565996 0.00439659739
  vertex 0.00392166758 0.00212203129 0.00715612061
  vertex 0.00406671315 -0.00206143525 0.00578025822
  endloop
 endfacet

 facet normal 0 0 0
  outer loop
  vertex 0.04287453 0.00127734686 -0.00136570772
  vertex 0.0435673892 -0.00138396525 -8.79425806e-06
  vertex 0.0423457325 -0.000775054796 -0.00390175404
  endloop
 endfacet

 facet normal 0 0 0
  outer loop
  vertex 0.0333324336 -0.00475565996 0.00439659739
  vertex 0.0409694389 -0.00306036044 0.00405249931
  vertex 0.0358339064 0.0008941532 0.00637267111
  endloop
 endfacet

 facet normal 0 0 0
  outer loop
  vertex 0.0333334878 -0.00476341508 -0.00441500871
  vertex 0.0346023738 -0.000350615301 -0.00643780502
  vertex 0.0406536385 -0.00458952133 -0.00300937635
  endloop
 endfacet

 facet normal 0 0 0
  outer loop
  vertex 0.00374611723 0.00718537392 0.00704486482
  vertex 0.0358339064 0.0008941532 0.00637267111
  vertex 0.0369018055 0.00227624387 0.00567121524
  endloop
 endfacet

 facet normal 0 0 0
  outer loop
  vertex 0.00374611723 0.00718537392 0.00704486482
  vertex 0.0369018055 0.00227624387 0.00567121524
  vertex 0.00361094601 0.0110840583 0.00557335559
  endloop
 endfacet

 facet normal 0 0 0
  outer loop
  vertex 0.00361094601 0.0110840583 0.00557335559
  vertex 0.00594132673 0.0119526619 0.00425979961
  vertex 0.00352732744 0.0134958578 0.000613322423
  endloop
 endfacet

 facet normal 0 0 0
  outer loop
  vertex -0.0041783452 -0.0013499835 -0.00350000453
  vertex -0.00182658527 -0.00366554875 -0.003499988
  vertex -0.00329625839 -0.00257846853 0.00350000267
  endloop
 endfacet

 facet normal 0 0 0
  outer loop
  vertex -0.0041783452 -0.0013499835 -0.00350000453
  vertex -0.00329625839 -0.00257846853 0.00350000267
  vertex -0.00619277824 0.00621230807 0.00350001385
  endloop
 endfacet

 facet normal 0 0 0
  outer loop
  vertex -0.0041783452 -0.0013499835 -0.00350000453
  vertex -0.00619277824 0.00621230807 0.00350001385
  vertex -0.00619277731 0.00621230807 -0.00350001245
  endloop
 endfacet

 facet normal 0 0 0
  outer loop
  vertex -0.0041783452 -0.0013499835 -0.00350000453
  vertex -0.00619277731 0.00621230807 -0.00350001245
  vertex 0.00392178167 0.00211879215 -0.00716546318
  endloop
 endfacet

 facet normal 0 0 0
  outer loop
  vertex 0.0215715393 0.00910292286 -7.14314774e-06
  vertex 0.0416736268 0.00154901657 0.00318015739
  vertex 0.04287453 0.00127734686 -0.00136570772
  endloop
 endfacet

 facet normal 0 0 0
  outer loop
  vertex 0.0215715393 0.00910292286 -7.14314774e-06
  vertex 0.04287453 0.00127734686 -0.00136570772
  vertex 0.0392615981 0.00218293513 -0.00453481218
  endloop
 endfacet

 facet normal 0 0 0
  outer loop
  vertex 0.0215715393 0.00910292286 -7.14314774e-06
  vertex 0.00352732744 0.0134958578 0.000613322423
  vertex 0.00594132673 0.0119526619 0.00425979961
  endloop
 endfacet

 facet normal 0 0 0
  outer loop
  vertex 0.040581245 0.000283317262 0.00517514115
  vertex 0.0358339064 0.0008941532 0.00637267111
  vertex 0.0409694389 -0.00306036044 0.00405249931
  endloop
 endfacet

 facet normal 0 0 0
  outer loop
  vertex 0.00592998834 0.0122811869 -0.00372648262
  vertex 0.00354906102 0.0128690302 -0.00334570929
  vertex 0.00352732744 0.0134958578 0.000613322423
  endloop
 endfacet

 facet normal 0 0 0
  outer loop
  vertex 0.00592998834 0.0122811869 -0.00372648262
  vertex 0.00352732744 0.0134958578 0.000613322423
  vertex 0.0215715393 0.00910292286 -7.14314774e-06
  endloop
 endfacet

 facet normal 0 0 0
  outer loop
  vertex 0.00592998834 0.0122811869 -0.00372648262
  vertex 0.0215715393 0.00910292286 -7.14314774e-06
  vertex 0.0392615981 0.00218293513 -0.00453481218
  endloop
 endfacet

 facet normal 0 0 0
  outer loop
  vertex 0.00592998834 0.0122811869 -0.00372648262
  vertex 0.0392615981 0.00218293513 -0.00453481218
  vertex 0.0296292417 0.00322458567 -0.00659387186
  endloop
 endfacet

 facet normal 0 0 0
  outer loop
  vertex 0.00592998834 0.0122811869 -0.00372648262
  vertex 0.0296292417 0.00322458567 -0.00659387186
  vertex 0.00361513393 0.0109632751 -0.00567616709
  endloop
 endfacet

 facet normal 0 0 0
  outer loop
  vertex 0.0428857282 -0.00110210944 0.00304129627
  vertex 0.0435673892 -0.00138396525 -8.79425806e-06
  vertex 0.04287453 0.00127734686 -0.00136570772
  endloop
 endfacet

 facet normal 0 0 0
  outer loop
  vertex 0.0428857282 -0.00110210944 0.00304129627
  vertex 0.04287453 0.00127734686 -0.00136570772
  vertex 0.0416736268 0.00154901657 0.00318015739
  endloop
 endfacet

 facet normal 0 0 0
  outer loop
  vertex 0.0428857282 -0.00110210944 0.00304129627
  vertex 0.0416736268 0.00154901657 0.00318015739
  vertex 0.040581245 0.000283317262 0.00517514115
  endloop
 endfacet

 facet normal 0 0 0
  outer loop
  vertex 0.0428857282 -0.00110210944 0.00304129627
  vertex 0.040581245 0.000283317262 0.00517514115
  vertex 0.0409694389 -0.00306036044 0.00405249931
  endloop
 endfacet

 facet normal 0 0 0
  outer loop
  vertex 0.0428857282 -0.00110210944 0.00304129627
  vertex 0.0409694389 -0.00306036044 0.00405249931
  vertex 0.0421084948 -0.00475217262 0.000705649552
  endloop
 endfacet

 facet normal 0 0 0
  outer loop
  vertex 0.0428857282 -0.00110210944 0.00304129627
  vertex 0.0421084948 -0.00475217262 0.000705649552
  vertex 0.0435673892 -0.00138396525 -8.79425806e-06
  endloop
 endfacet

 facet normal 0 0 0
  outer loop
  vertex -0.001420788 -0.0037182509 0.00350000826
  vertex 0.0365126953 -0.00655580079 0.00090064184
  vertex 0.0333324336 -0.00475565996 0.00439659739
  endloop
 endfacet

 facet normal 0 0 0
  outer loop
  vertex -0.001420788 -0.0037182509 0.00350000826
  vertex 0.0333324336 -0.00475565996 0.00439659739
  vertex 0.00406671315 -0.00206143525 0.00578025822
  endloop
 endfacet

 facet normal 0 0 0
  outer loop
  vertex -0.001420788 -0.0037182509 0.00350000826
  vertex 0.00406671315 -0.00206143525 0.00578025822
  vertex -0.00329625839 -0.00257846853 0.00350000267
  endloop
 endfacet

 facet normal 0 0 0
  outer loop
  vertex -0.001420788 -0.0037182509 0.00350000826
  vertex -0.00329625839 -0.00257846853 0.00350000267
  vertex -0.00182658527 -0.00366554875 -0.003499988
  endloop
 endfacet

 facet normal 0 0 0
  outer loop
  vertex -0.001420788 -0.0037182509 0.00350000826
  vertex -0.00182658527 -0.00366554875 -0.003499988
  vertex 0.0365126953 -0.00655580079 0.00090064184
  endloop
 endfacet

 facet normal 0 0 0
  outer loop
  vertex 0.00404422823 -0.00141296512 -0.00618359121
  vertex 0.00392178167 0.00211879215 -0.00716546318
  vertex 0.0346023738 -0.000350615301 -0.00643780502
  endloop
 endfacet

 facet normal 0 0 0
  outer loop
  vertex 0.00404422823 -0.00141296512 -0.00618359121
  vertex 0.0346023738 -0.000350615301 -0.00643780502
  vertex 0.0333334878 -0.00476341508 -0.00441500871
  endloop
 endfacet

 facet normal 0 0 0
  outer loop
  vertex 0.00404422823 -0.00141296512 -0.00618359121
  vertex 0.0333334878 -0.00476341508 -0.00441500871
  vertex -0.00182658527 -0.00366554875 -0.003499988
  endloop
 endfacet

 facet normal 0 0 0
  outer loop
  vertex 0.00404422823 -0.00141296512 -0.00618359121
  vertex -0.00182658527 -0.00366554875 -0.003499988
  vertex -0.0041783452 -0.0013499835 -0.00350000453
  endloop
 endfacet

 facet normal 0 0 0
  outer loop
  vertex 0.00404422823 -0.00141296512 -0.00618359121
  vertex -0.0041783452 -0.0013499835 -0.00350000453
  vertex 0.00392178167 0.00211879215 -0.00716546318
  endloop
 endfacet

 facet normal 0 0 0
  outer loop
  vertex 0.0369018055 0.00227624387 0.00567121524
  vertex 0.0358339064 0.0008941532 0.00637267111
  vertex 0.040581245 0.000283317262 0.00517514115
  endloop
 endfacet

 facet normal 0 0 0
  outer loop
  vertex 0.0369018055 0.00227624387 0.00567121524
  vertex 0.040581245 0.000283317262 0.00517514115
  vertex 0.0416736268 0.00154901657 0.00318015739
  endloop
 endfacet

 facet normal 0 0 0
  outer loop
  vertex 0.0369018055 0.00227624387 0.00567121524
  vertex 0.0416736268 0.00154901657 0.00318015739
  vertex 0.0215715393 0.00910292286 -7.14314774e-06
  endloop
 endfacet

 facet normal 0 0 0
  outer loop
  vertex 0.0369018055 0.00227624387 0.00567121524
  vertex 0.0215715393 0.00910292286 -7.14314774e-06
  vertex 0.00594132673 0.0119526619 0.00425979961
  endloop
 endfacet

 facet normal 0 0 0
  outer loop
  vertex 0.0369018055 0.00227624387 0.00567121524
  vertex 0.00594132673 0.0119526619 0.00425979961
  vertex 0.00361094601 0.0110840583 0.00557335559
  endloop
 endfacet

 facet normal 0 0 0
  outer loop
  vertex 0.00354906102 0.0128690302 -0.00334570929
  vertex 0.00592998834 0.0122811869 -0.00372648262
  vertex 0.00361513393 0.0109632751 -0.00567616709
  endloop
 endfacet

 facet normal 0 0 0
  outer loop
  vertex 0.00354906102 0.0128690302 -0.00334570929
  vertex 0.00361513393 0.0109632751 -0.00567616709
  vertex -0.00457303179 0.00828282069 -0.00349999103
  endloop
 endfacet

 facet normal 0 0 0
  outer loop
  vertex 0.00354906102 0.0128690302 -0.00334570929
  vertex -0.00457303179 0.00828282069 -0.00349999103
  vertex 0.00352732744 0.0134958578 0.000613322423
  endloop
 endfacet

 facet normal 0 0 0
  outer loop
  vertex 0.0399591811 0.000599292282 -0.00544721121
  vertex 0.0392615981 0.00218293513 -0.00453481218
  vertex 0.04287453 0.00127734686 -0.00136570772
  endloop
 endfacet

 facet normal 0 0 0
  outer loop
  vertex 0.0399591811 0.000599292282 -0.00544721121
  vertex 0.04287453 0.00127734686 -0.00136570772
  vertex 0.0423457325 -0.000775054796 -0.00390175404
  endloop
 endfacet

 facet normal 0 0 0
  outer loop
  vertex 0.0399591811 0.000599292282 -0.00544721121
  vertex 0.0423457325 -0.000775054796 -0.00390175404
  vertex 0.0406536385 -0.00458952133 -0.00300937635
  endloop
 endfacet

 facet normal 0 0 0
  outer loop
  vertex 0.0399591811 0.000599292282 -0.00544721121
  vertex 0.0406536385 -0.00458952133 -0.00300937635
  vertex 0.0346023738 -0.000350615301 -0.00643780502
  endloop
 endfacet

 facet normal 0 0 0
  outer loop
  vertex 0.0399591811 0.000599292282 -0.00544721121
  vertex 0.0346023738 -0.000350615301 -0.00643780502
  vertex 0.0296292417 0.00322458567 -0.00659387186
  endloop
 endfacet

 facet normal 0 0 0
  outer loop
  vertex 0.0399591811 0.000599292282 -0.00544721121
  vertex 0.0296292417 0.00322458567 -0.00659387186
  vertex 0.0392615981 0.00218293513 -0.00453481218
  endloop
 endfacet

 facet normal 0 0 0
  outer loop
  vertex -0.00536093954 0.00781279989 0.00349999312
  vertex -0.00619277824 0.00621230807 0.00350001385
  vertex 0.00374611723 0.00718537392 0.00704486482
  endloop
 endfacet

 facet normal 0 0 0
  outer loop
  vertex -0.00536093954 0.00781279989 0.00349999312
  vertex 0.00374611723 0.00718537392 0.00704486482
  vertex 0.00361094601 0.0110840583 0.00557335559
  endloop
 endfacet

 facet normal 0 0 0
  outer loop
  vertex -0.00536093954 0.00781279989 0.00349999312
  vertex 0.00361094601 0.0110840583 0.00557335559
  vertex 0.00352732744 0.0134958578 0.000613322423
  endloop
 endfacet

 facet normal 0 0 0
  outer loop
  vertex -0.00536093954 0.00781279989 0.00349999312
  vertex 0.00352732744 0.0134958578 0.000613322423
  vertex -0.00457303179 0.00828282069 -0.00349999103
  endloop
 endfacet

 facet normal 0 0 0
  outer loop
  vertex -0.00536093954 0.00781279989 0.00349999312
  vertex -0.00457303179 0.00828282069 -0.00349999103
  vertex -0.00619277731 0.00621230807 -0.00350001245
  endloop
 endfacet

 facet normal 0 0 0
  outer loop
  vertex -0.00536093954 0.00781279989 0.00349999312
  vertex -0.00619277731 0.00621230807 -0.00350001245
  vertex -0.00619277824 0.00621230807 0.00350001385
  endloop
 endfacet

 facet normal 0 0 0
  outer loop
  vertex 0.0429049432 -0.00329318224 -0.00178672781
  vertex 0.0423457325 -0.000775054796 -0.00390175404
  vertex 0.0435673892 -0.00138396525 -8.79425806e-06
  endloop
 endfacet

 facet normal 0 0 0
  outer loop
  vertex 0.0429049432 -0.00329318224 -0.00178672781
  vertex 0.0435673892 -0.00138396525 -8.79425806e-06
  vertex 0.0421084948 -0.00475217262 0.000705649552
  endloop
 endfacet

 facet normal 0 0 0
  outer loop
  vertex 0.0429049432 -0.00329318224 -0.00178672781
  vertex 0.0421084948 -0.00475217262 0.000705649552
  vertex 0.0406536385 -0.00458952133 -0.00300937635
  endloop
 endfacet

 facet normal 0 0 0
  outer loop
  vertex 0.0429049432 -0.00329318224 -0.00178672781
  vertex 0.0406536385 -0.00458952133 -0.00300937635
  vertex 0.0423457325 -0.000775054796 -0.00390175404
  endloop
 endfacet

 facet normal 0 0 0
  outer loop
  vertex 0.0372250155 -0.00632003415 -0.0017699973
  vertex 0.0365126953 -0.00655580079 0.00090064184
  vertex -0.00182658527 -0.00366554875 -0.003499988
  endloop
 endfacet

 facet normal 0 0 0
  outer loop
  vertex 0.0372250155 -0.00632003415 -0.0017699973
  vertex -0.00182658527 -0.00366554875 -0.003499988
  vertex 0.0333334878 -0.00476341508 -0.00441500871
  endloop
 endfacet

 facet normal 0 0 0
  outer loop
  vertex 0.0372250155 -0.00632003415 -0.0017699973
  vertex 0.0333334878 -0.00476341508 -0.00441500871
  vertex 0.0406536385 -0.00458952133 -0.00300937635
  endloop
 endfacet

 facet normal 0 0 0
  outer loop
  vertex 0.0372250155 -0.00632003415 -0.0017699973
  vertex 0.0406536385 -0.00458952133 -0.00300937635
  vertex 0.0421084948 -0.00475217262 0.000705649552
  endloop
 endfacet

 facet normal 0 0 0
  outer loop
  vertex 0.0372250155 -0.00632003415 -0.0017699973
  vertex 0.0421084948 -0.00475217262 0.000705649552
  vertex 0.0393630713 -0.00557599403 0.0024353927
  endloop
 endfacet

 facet normal 0 0 0
  outer loop
  vertex 0.0372250155 -0.00632003415 -0.0017699973
  vertex 0.0393630713 -0.00557599403 0.0024353927
  vertex 0.0365126953 -0.00655580079 0.00090064184
  endloop
 endfacet

 facet normal 0 0 0
  outer loop
  vertex 0.00392166758 0.00212203129 0.00715612061
  vertex 0.0358339064 0.0008941532 0.00637267111
  vertex 0.00374611723 0.00718537392 0.00704486482
  endloop
 endfacet

 facet normal 0 0 0
  outer loop
  vertex 0.00392166758 0.00212203129 0.00715612061
  vertex 0.00374611723 0.00718537392 0.00704486482
  vertex -0.00619277824 0.00621230807 0.00350001385
  endloop
 endfacet

 facet normal 0 0 0
  outer loop
  vertex 0.00392166758 0.00212203129 0.00715612061
  vertex -0.00619277824 0.00621230807 0.00350001385
  vertex -0.00329625839 -0.00257846853 0.00350000267
  endloop
 endfacet

 facet normal 0 0 0
  outer loop
  vertex 0.00392166758 0.00212203129 0.00715612061
  vertex -0.00329625839 -0.00257846853 0.00350000267
  vertex 0.00406671315 -0.00206143525 0.00578025822
  endloop
 endfacet

 facet normal 0 0 0
  outer loop
  vertex 0.0393630713 -0.00557599403 0.0024353927
  vertex 0.0421084948 -0.00475217262 0.000705649552
  vertex 0.0409694389 -0.00306036044 0.00405249931
  endloop
 endfacet

 facet normal 0 0 0
  outer loop
  vertex 0.0393630713 -0.00557599403 0.0024353927
  vertex 0.0409694389 -0.00306036044 0.00405249931
  vertex 0.0333324336 -0.00475565996 0.00439659739
  endloop
 endfacet

 facet normal 0 0 0
  outer loop
  vertex 0.0393630713 -0.00557599403 0.0024353927
  vertex 0.0333324336 -0.00475565996 0.00439659739
  vertex 0.0365126953 -0.00655580079 0.00090064184
  endloop
 endfacet

 facet normal 0 0 0
  outer loop
  vertex 0.00373120955 0.00761538558 -0.00699747493
  vertex 0.00361513393 0.0109632751 -0.00567616709
  vertex 0.0296292417 0.00322458567 -0.00659387186
  endloop
 endfacet

 facet normal 0 0 0
  outer loop
  vertex 0.00373120955 0.00761538558 -0.00699747493
  vertex 0.0296292417 0.00322458567 -0.00659387186
  vertex 0.0346023738 -0.000350615301 -0.00643780502
  endloop
 endfacet

 facet normal 0 0 0
  outer loop
  vertex 0.00373120955 0.00761538558 -0.00699747493
  vertex 0.0346023738 -0.000350615301 -0.00643780502
  vertex 0.00392178167 0.00211879215 -0.00716546318
  endloop
 endfacet

 facet normal 0 0 0
  outer loop
  vertex 0.00373120955 0.00761538558 -0.00699747493
  vertex 0.00392178167 0.00211879215 -0.00716546318
  vertex -0.00619277731 0.00621230807 -0.00350001245
  endloop
 endfacet

 facet normal 0 0 0
  outer loop
  vertex 0.00373120955 0.00761538558 -0.00699747493
  vertex -0.00619277731 0.00621230807 -0.00350001245
  vertex -0.00457303179 0.00828282069 -0.00349999103
  endloop
 endfacet

 facet normal 0 0 0
  outer loop
  vertex 0.00373120955 0.00761538558 -0.00699747493
  vertex -0.00457303179 0.00828282069 -0.00349999103
  vertex 0.00361513393 0.0109632751 -0.00567616709
  endloop
 endfacet

endsolid AssimpScene
