solid AssimpScene
 facet normal 0 0 0
  outer loop
  vertex 0.0351396762 0.00427190214 -0.00631553959
  vertex 0.035173472 0.00696351705 -0.00383029459
  vertex 0.0351831391 0.00786549784 5.81560062e-06
  endloop
 endfacet

 facet normal 0 0 0
  outer loop
  vertex 0.0351396762 0.00427190214 -0.00631553959
  vertex 0.0351831391 0.00786549784 5.81560062e-06
  vertex 0.035162162 0.00598249445 0.00509819807
  endloop
 endfacet

 facet normal 0 0 0
  outer loop
  vertex 0.0351396762 0.00427190214 -0.00631553959
  vertex 0.035162162 0.00598249445 0.00509819807
  vertex 0.0350655653 0.000486019824 0.00717088999
  endloop
 endfacet

 facet normal 0 0 0
  outer loop
  vertex 0.0351396762 0.00427190214 -0.00631553959
  vertex 0.0350655653 0.000486019824 0.00717088999
  vertex 0.034557119 -0.00520791113 -0.00688133668
  endloop
 endfacet

 facet normal 0 0 0
  outer loop
  vertex 0.0338171534 -0.00676435558 0.00638845935
  vertex 0.034557119 -0.00520791113 -0.00688133668
  vertex 0.0350655653 0.000486019824 0.00717088999
  endloop
 endfacet

 facet normal 0 0 0
  outer loop
  vertex 0.0351396762 0.00427190214 -0.00631553959
  vertex 0.034557119 -0.00520791113 -0.00688133668
  vertex -0.00718704425 0.00312541914 -0.00837994739
  endloop
 endfacet

 facet normal 0 0 0
  outer loop
  vertex -0.0170472004 0.00154694007 0.00350000011
  vertex -0.0153880762 -0.00441102264 0.00499999989
  vertex -0.0073606302 0.0059864684 0.00792502239
  endloop
 endfacet

 facet normal 0 0 0
  outer loop
  vertex -0.0170472004 0.00154694007 0.00350000011
  vertex -0.0073606302 0.0059864684 0.00792502239
  vertex -0.00583812036 0.0122742513 0.00409049215
  endloop
 endfacet

 facet normal 0 0 0
  outer loop
  vertex 0.035162162 0.00598249445 0.00509819807
  vertex 0.0351831391 0.00786549784 5.81560062e-06
  vertex -0.00540694548 0.0132227903 0.00112241926
  endloop
 endfacet

 facet normal 0 0 0
  outer loop
  vertex 0.035162162 0.00598249445 0.00509819807
  vertex -0.00540694548 0.0132227903 0.00112241926
  vertex -0.00583812036 0.0122742513 0.00409049215
  endloop
 endfacet

 facet normal 0 0 0
  outer loop
  vertex 0.035162162 0.00598249445 0.00509819807
  vertex -0.00583812036 0.0122742513 0.00409049215
  vertex -0.0073606302 0.0059864684 0.00792502239
  endloop
 endfacet

 facet normal 0 0 0
  outer loop
  vertex 0.035162162 0.00598249445 0.00509819807
  vertex -0.0073606302 0.0059864684 0.00792502239
  vertex 0.0350655653 0.000486019824 0.00717088999
  endloop
 endfacet

 facet normal 0 0 0
  outer loop
  vertex -0.00388591969 -0.00859225728 0.00374999968
  vertex -0.00388591969 -0.00859225728 -0.00374999968
  vertex 0.0260576159 -0.00947962701 -0.00406927941
  endloop
 endfacet

 facet normal 0 0 0
  outer loop
  vertex -0.00388591969 -0.00859225728 0.00374999968
  vertex 0.0260576159 -0.00947962701 -0.00406927941
  vertex 0.0257496834 -0.00976608414 0.00321661355
  endloop
 endfacet

 facet normal 0 0 0
  outer loop
  vertex -0.00503164344 -0.00182321877 0.00821270421
  vertex -0.0153880762 -0.00441102264 0.00499999989
  vertex -0.00388591969 -0.00859225728 0.00374999968
  endloop
 endfacet

 facet normal 0 0 0
  outer loop
  vertex -0.00503164344 -0.00182321877 0.00821270421
  vertex 0.0338171534 -0.00676435558 0.00638845935
  vertex 0.0350655653 0.000486019824 0.00717088999
  endloop
 endfacet

 facet normal 0 0 0
  outer loop
  vertex -0.00503164344 -0.00182321877 0.00821270421
  vertex 0.0350655653 0.000486019824 0.00717088999
  vertex -0.0073606302 0.0059864684 0.00792502239
  endloop
 endfacet

 facet normal 0 0 0
  outer loop
  vertex -0.00503164344 -0.00182321877 0.00821270421
  vertex -0.0073606302 0.0059864684 0.00792502239
  vertex -0.0153880762 -0.00441102264 0.00499999989
  endloop
 endfacet

 facet normal 0 0 0
  outer loop
  vertex -0.00345473038 -0.00339418859 -0.00775728654
  vertex -0.00718704425 0.00312541914 -0.00837994739
  vertex 0.034557119 -0.00520791113 -0.00688133668
  endloop
 endfacet

 facet normal 0 0 0
  outer loop
  vertex -0.0069627217 0.00886807032 -0.0068974155
  vertex 0.0351396762 0.00427190214 -0.00631553959
  vertex -0.00718704425 0.00312541914 -0.00837994739
  endloop
 endfacet

 facet normal 0 0 0
  outer loop
  vertex -0.0069627217 0.00886807032 -0.0068974155
  vertex -0.00718704425 0.00312541914 -0.00837994739
  vertex -0.0170472004 0.00154694007 -0.00350000011
  endloop
 endfacet

 facet normal 0 0 0
  outer loop
  vertex -0.0069627217 0.00886807032 -0.0068974155
  vertex -0.0170472004 0.00154694007 -0.00350000011
  vertex -0.00560807157 0.0127939349 -0.0030121163
  endloop
 endfacet

 facet normal 0 0 0
  outer loop
  vertex 0.0325426236 -0.00774323754 -0.00587835489
  vertex 0.0338171534 -0.00676435558 0.00638845935
  vertex 0.0257496834 -0.00976608414 0.00321661355
  endloop
 endfacet

 facet normal 0 0 0
  outer loop
  vertex 0.0325426236 -0.00774323754 -0.00587835489
  vertex 0.0257496834 -0.00976608414 0.00321661355
  vertex 0.0260576159 -0.00947962701 -0.00406927941
  endloop
 endfacet

 facet normal 0 0 0
  outer loop
  vertex 0.0325426236 -0.00774323754 -0.00587835489
  vertex 0.0260576159 -0.00947962701 -0.00406927941
  vertex -0.00388591969 -0.00859225728 -0.00374999968
  endloop
 endfacet

 facet normal 0 0 0
  outer loop
  vertex 0.0325426236 -0.00774323754 -0.00587835489
  vertex -0.00388591969 -0.00859225728 -0.00374999968
  vertex -0.00345473038 -0.00339418859 -0.00775728654
  endloop
 endfacet

 facet normal 0 0 0
  outer loop
  vertex 0.0325426236 -0.00774323754 -0.00587835489
  vertex -0.00345473038 -0.00339418859 -0.00775728654
  vertex 0.034557119 -0.00520791113 -0.00688133668
  endloop
 endfacet

 facet normal 0 0 0
  outer loop
  vertex 0.0325426236 -0.00774323754 -0.00587835489
  vertex 0.034557119 -0.00520791113 -0.00688133668
  vertex 0.0338171534 -0.00676435558 0.00638845935
  endloop
 endfacet

 facet normal 0 0 0
  outer loop
  vertex -0.0168875437 -0.00445093587 0.00350000011
  vertex -0.0153880762 -0.00441102264 0.00499999989
  vertex -0.0170472004 0.00154694007 0.00350000011
  endloop
 endfacet

 facet normal 0 0 0
  outer loop
  vertex -0.0168875437 -0.00445093587 0.00350000011
  vertex -0.0170472004 0.00154694007 0.00350000011
  vertex -0.0170472004 0.00154694007 -0.00350000011
  endloop
 endfacet

 facet normal 0 0 0
  outer loop
  vertex -0.0168875437 -0.00445093587 0.00350000011
  vertex -0.0170472004 0.00154694007 -0.00350000011
  vertex -0.0168875437 -0.00445093587 -0.00350000011
  endloop
 endfacet

 facet normal 0 0 0
  outer loop
  vertex -0.0168875437 -0.00445093587 0.00350000011
  vertex -0.0168875437 -0.00445093587 -0.00350000011
  vertex -0.00388591969 -0.00859225728 -0.00374999968
  endloop
 endfacet

 facet normal 0 0 0
  outer loop
  vertex -0.0168875437 -0.00445093587 0.00350000011
  vertex -0.00388591969 -0.00859225728 -0.00374999968
  vertex -0.00388591969 -0.00859225728 0.00374999968
  endloop
 endfacet

 facet normal 0 0 0
  outer loop
  vertex -0.0168875437 -0.00445093587 0.00350000011
  vertex -0.00388591969 -0.00859225728 0.00374999968
  vertex -0.0153880762 -0.00441102264 0.00499999989
  endloop
 endfacet

 facet normal 0 0 0
  outer loop
  vertex 0.035173472 0.00696351705 -0.00383029459
  vertex 0.0351396762 0.00427190214 -0.00631553959
  vertex -0.0069627217 0.00886807032 -0.0068974155
  endloop
 endfacet

 facet normal 0 0 0
  outer loop
  vertex 0.035173472 0.00696351705 -0.00383029459
  vertex -0.0069627217 0.00886807032 -0.0068974155
  vertex -0.00560807157 0.0127939349 -0.0030121163
  endloop
 endfacet

 facet normal 0 0 0
  outer loop
  vertex 0.035173472 0.00696351705 -0.00383029459
  vertex -0.00560807157 0.0127939349 -0.0030121163
  vertex 0.0351831391 0.00786549784 5.81560062e-06
  endloop
 endfacet

 facet normal 0 0 0
  outer loop
  vertex -0.0153880762 -0.00441102264 -0.00499999989
  vertex -0.00718704425 0.00312541914 -0.00837994739
  vertex -0.00345473038 -0.00339418859 -0.00775728654
  endloop
 endfacet

 facet normal 0 0 0
  outer loop
  vertex -0.0153880762 -0.00441102264 -0.00499999989
  vertex -0.00345473038 -0.00339418859 -0.00775728654
  vertex -0.00388591969 -0.00859225728 -0.00374999968
  endloop
 endfacet

 facet normal 0 0 0
  outer loop
  vertex -0.0153880762 -0.00441102264 -0.00499999989
  vertex -0.00388591969 -0.00859225728 -0.00374999968
  vertex -0.0168875437 -0.00445093587 -0.00350000011
  endloop
 endfacet

 facet normal 0 0 0
  outer loop
  vertex -0.0153880762 -0.00441102264 -0.00499999989
  vertex -0.0168875437 -0.00445093587 -0.00350000011
  vertex -0.0170472004 0.00154694007 -0.00350000011
  endloop
 endfacet

 facet normal 0 0 0
  outer loop
  vertex -0.0153880762 -0.00441102264 -0.00499999989
  vertex -0.0170472004 0.00154694007 -0.00350000011
  vertex -0.00718704425 0.00312541914 -0.00837994739
  endloop
 endfacet

 facet normal 0 0 0
  outer loop
  vertex 0.0207985695 -0.00843951479 0.00557068177
  vertex 0.0338171534 -0.00676435558 0.00638845935
  vertex -0.00503164344 -0.00182321877 0.00821270421
  endloop
 endfacet

 facet normal 0 0 0
  outer loop
  vertex 0.0207985695 -0.00843951479 0.00557068177
  vertex -0.00503164344 -0.00182321877 0.00821270421
  vertex -0.00388591969 -0.00859225728 0.00374999968
  endloop
 endfacet

 facet normal 0 0 0
  outer loop
  vertex 0.0207985695 -0.00843951479 0.00557068177
  vertex -0.00388591969 -0.00859225728 0.00374999968
  vertex 0.0257496834 -0.00976608414 0.00321661355
  endloop
 endfacet

 facet normal 0 0 0
  outer loop
  vertex 0.0207985695 -0.00843951479 0.00557068177
  vertex 0.0257496834 -0.00976608414 0.00321661355
  vertex 0.0338171534 -0.00676435558 0.00638845935
  endloop
 endfacet

 facet normal 0 0 0
  outer loop
  vertex -0.00540694548 0.0132227903 0.00112241926
  vertex -0.00560807157 0.0127939349 -0.0030121163
  vertex -0.0170472004 0.00154694007 -0.00350000011
  endloop
 endfacet

 facet normal 0 0 0
  outer loop
  vertex -0.00540694548 0.0132227903 0.00112241926
  vertex -0.0170472004 0.00154694007 -0.00350000011
  vertex -0.0170472004 0.00154694007 0.00350000011
  endloop
 endfacet

 facet normal 0 0 0
  outer loop
  vertex -0.00540694548 0.0132227903 0.00112241926
  vertex -0.0170472004 0.00154694007 0.00350000011
  vertex -0.00583812036 0.0122742513 0.00409049215
  endloop
 endfacet

 facet normal 0 0 0
  outer loop
  vertex -0.00540694548 0.0132227903 0.00112241926
  vertex 0.0351831391 0.00786549784 5.81560062e-06
  vertex -0.00560807157 0.0127939349 -0.0030121163
  endloop
 endfacet

endsolid AssimpScene
