solid AssimpScene
 facet normal 0 0 0
  outer loop
  vertex 0.0565218329 -0.0103785992 0.00989498198
  vertex 0.0643508881 0.00870698597 0.0105708381
  vertex 0.00347121526 0.00775405951 0.0104969405
  endloop
 endfacet

 facet normal 0 0 0
  outer loop
  vertex 0.0565218329 -0.0103785992 0.00989498198
  vertex 0.00347121526 0.00775405951 0.0104969405
  vertex -0.00169516378 0.00546769286 0.0104205385
  endloop
 endfacet

 facet normal 0 0 0
  outer loop
  vertex 0.0565218329 -0.0103785992 0.00989498198
  vertex -0.00169516378 0.00546769286 0.0104205385
  vertex -0.00267219986 0.00176493463 0.01044067
  endloop
 endfacet

 facet normal 0 0 0
  outer loop
  vertex 0.0565218329 -0.0103785992 0.00989498198
  vertex -0.00267219986 0.00176493463 0.01044067
  vertex 0.00243662042 -0.00807202235 0.0104468577
  endloop
 endfacet

 facet normal 0 0 0
  outer loop
  vertex 0.0643508881 0.00870698597 0.0105708381
  vertex 0.0565218329 -0.0103785992 0.00989498198
  vertex 0.0665156618 -0.00334445899 0.00970918592
  endloop
 endfacet

 facet normal 0 0 0
  outer loop
  vertex 0.0643508881 0.00870698597 0.0105708381
  vertex 0.0615742244 0.0124957543 -0.0100804614
  vertex 0.0602075495 0.0136003522 0.00949660968
  endloop
 endfacet

 facet normal 0 0 0
  outer loop
  vertex -0.00275580375 0.0101006944 0.00800000038
  vertex 0.0149238817 0.0153959086 0.00770685682
  vertex 0.0164460447 0.0158363823 -0.00644860929
  endloop
 endfacet

 facet normal 0 0 0
  outer loop
  vertex -0.00275580375 0.0101006944 0.00800000038
  vertex 0.0164460447 0.0158363823 -0.00644860929
  vertex -0.00275580375 0.0101006944 -0.00800000038
  endloop
 endfacet

 facet normal 0 0 0
  outer loop
  vertex -0.00275580375 0.0101006944 -0.00800000038
  vertex 0.00325212837 0.00823179912 -0.0104718143
  vertex -0.00240935246 0.00333348964 -0.0104356753
  endloop
 endfacet

 facet normal 0 0 0
  outer loop
  vertex 0.0566982664 -0.0136822909 0.00501989806
  vertex 0.0515112132 -0.0147916805 -0.000171953157
  vertex 0.0580342673 -0.012986959 -0.00534089794
  endloop
 endfacet

 facet normal 0 0 0
  outer loop
  vertex 0.0566982664 -0.0136822909 0.00501989806
  vertex 0.0580342673 -0.012986959 -0.00534089794
  vertex 0.0679837018 -0.00626067119 -0.000118305259
  endloop
 endfacet

 facet normal 0 0 0
  outer loop
  vertex 0.0147327166 0.0136644831 -0.00979067478
  vertex 0.0615742244 0.0124957543 -0.0100804614
  vertex 0.0643087998 0.00885185041 -0.0105649875
  endloop
 endfacet

 facet normal 0 0 0
  outer loop
  vertex 0.0147327166 0.0136644831 -0.00979067478
  vertex 0.0643087998 0.00885185041 -0.0105649875
  vertex 0.00325212837 0.00823179912 -0.0104718143
  endloop
 endfacet

 facet normal 0 0 0
  outer loop
  vertex 0.0147327166 0.0136644831 -0.00979067478
  vertex 0.00325212837 0.00823179912 -0.0104718143
  vertex -0.00275580375 0.0101006944 -0.00800000038
  endloop
 endfacet

 facet normal 0 0 0
  outer loop
  vertex 0.0514478683 -0.0135023026 -0.0078285234
  vertex 0.0566390716 -0.012731079 -0.00785687659
  vertex 0.0580342673 -0.012986959 -0.00534089794
  endloop
 endfacet

 facet normal 0 0 0
  outer loop
  vertex 0.0514478683 -0.0135023026 -0.0078285234
  vertex 0.0580342673 -0.012986959 -0.00534089794
  vertex 0.0515112132 -0.0147916805 -0.000171953157
  endloop
 endfacet

 facet normal 0 0 0
  outer loop
  vertex 0.0514478683 -0.0135023026 -0.0078285234
  vertex -0.00207430823 -0.0120260883 -0.00927003939
  vertex 0.0565157682 -0.0101615293 -0.0099762911
  endloop
 endfacet

 facet normal 0 0 0
  outer loop
  vertex 0.0643087998 0.00885185041 -0.0105649875
  vertex 0.0615742244 0.0124957543 -0.0100804614
  vertex 0.0643508881 0.00870698597 0.0105708381
  endloop
 endfacet

 facet normal 0 0 0
  outer loop
  vertex 0.0643508881 0.00870698597 0.0105708381
  vertex 0.0675574467 -0.0054139304 0.00659634452
  vertex 0.0679837018 -0.00626067119 -0.000118305259
  endloop
 endfacet

 facet normal 0 0 0
  outer loop
  vertex 0.0643508881 0.00870698597 0.0105708381
  vertex 0.0679837018 -0.00626067119 -0.000118305259
  vertex 0.0675801486 -0.00545903668 -0.00644653803
  endloop
 endfacet

 facet normal 0 0 0
  outer loop
  vertex 0.0643508881 0.00870698597 0.0105708381
  vertex 0.0675801486 -0.00545903668 -0.00644653803
  vertex 0.0643087998 0.00885185041 -0.0105649875
  endloop
 endfacet

 facet normal 0 0 0
  outer loop
  vertex 0.0643087998 0.00885185041 -0.0105649875
  vertex 0.066617012 -0.00354578043 -0.00956807006
  vertex 0.0565157682 -0.0101615293 -0.0099762911
  endloop
 endfacet

 facet normal 0 0 0
  outer loop
  vertex 0.0149974637 0.0129371798 0.0101276664
  vertex 0.00347121526 0.00775405951 0.0104969405
  vertex 0.0643508881 0.00870698597 0.0105708381
  endloop
 endfacet

 facet normal 0 0 0
  outer loop
  vertex 0.0149974637 0.0129371798 0.0101276664
  vertex 0.0643508881 0.00870698597 0.0105708381
  vertex 0.0602075495 0.0136003522 0.00949660968
  endloop
 endfacet

 facet normal 0 0 0
  outer loop
  vertex 0.0514159724 -0.0129819643 0.00859215762
  vertex 0.0565218329 -0.0103785992 0.00989498198
  vertex -0.00178242521 -0.0125134792 0.00883360859
  endloop
 endfacet

 facet normal 0 0 0
  outer loop
  vertex 0.0559265986 0.0156146996 0.00547095248
  vertex 0.0149238817 0.0153959086 0.00770685682
  vertex 0.0602075495 0.0136003522 0.00949660968
  endloop
 endfacet

 facet normal 0 0 0
  outer loop
  vertex 0.0675574467 -0.0054139304 0.00659634452
  vertex 0.0579885393 -0.0121766627 0.00768777588
  vertex 0.0566982664 -0.0136822909 0.00501989806
  endloop
 endfacet

 facet normal 0 0 0
  outer loop
  vertex 0.0675574467 -0.0054139304 0.00659634452
  vertex 0.0566982664 -0.0136822909 0.00501989806
  vertex 0.0679837018 -0.00626067119 -0.000118305259
  endloop
 endfacet

 facet normal 0 0 0
  outer loop
  vertex 0.0675574467 -0.0054139304 0.00659634452
  vertex 0.0643508881 0.00870698597 0.0105708381
  vertex 0.0665156618 -0.00334445899 0.00970918592
  endloop
 endfacet

 facet normal 0 0 0
  outer loop
  vertex 0.0675801486 -0.00545903668 -0.00644653803
  vertex 0.0679837018 -0.00626067119 -0.000118305259
  vertex 0.0580342673 -0.012986959 -0.00534089794
  endloop
 endfacet

 facet normal 0 0 0
  outer loop
  vertex 0.0675801486 -0.00545903668 -0.00644653803
  vertex 0.066617012 -0.00354578043 -0.00956807006
  vertex 0.0643087998 0.00885185041 -0.0105649875
  endloop
 endfacet

 facet normal 0 0 0
  outer loop
  vertex -0.00278403959 -0.00884517562 0.0102770207
  vertex -0.00178242521 -0.0125134792 0.00883360859
  vertex 0.0565218329 -0.0103785992 0.00989498198
  endloop
 endfacet

 facet normal 0 0 0
  outer loop
  vertex -0.00278403959 -0.00884517562 0.0102770207
  vertex 0.0565218329 -0.0103785992 0.00989498198
  vertex 0.00243662042 -0.00807202235 0.0104468577
  endloop
 endfacet

 facet normal 0 0 0
  outer loop
  vertex -0.00278403959 -0.00884517562 0.0102770207
  vertex 0.00243662042 -0.00807202235 0.0104468577
  vertex -0.00267219986 0.00176493463 0.01044067
  endloop
 endfacet

 facet normal 0 0 0
  outer loop
  vertex -0.00278403959 -0.00884517562 0.0102770207
  vertex -0.00267219986 0.00176493463 0.01044067
  vertex -0.00423831213 0.00735831214 0.00800000038
  endloop
 endfacet

 facet normal 0 0 0
  outer loop
  vertex -0.00278403959 -0.00884517562 0.0102770207
  vertex -0.00207430823 -0.0120260883 -0.00927003939
  vertex -0.00178242521 -0.0125134792 0.00883360859
  endloop
 endfacet

 facet normal 0 0 0
  outer loop
  vertex 0.0584792756 0.0146378567 -0.00829838775
  vertex 0.0164460447 0.0158363823 -0.00644860929
  vertex 0.054832302 0.0158631876 -0.00389661384
  endloop
 endfacet

 facet normal 0 0 0
  outer loop
  vertex 0.0584792756 0.0146378567 -0.00829838775
  vertex 0.054832302 0.0158631876 -0.00389661384
  vertex 0.0559265986 0.0156146996 0.00547095248
  endloop
 endfacet

 facet normal 0 0 0
  outer loop
  vertex 0.0584792756 0.0146378567 -0.00829838775
  vertex 0.0559265986 0.0156146996 0.00547095248
  vertex 0.0602075495 0.0136003522 0.00949660968
  endloop
 endfacet

 facet normal 0 0 0
  outer loop
  vertex 0.0584792756 0.0146378567 -0.00829838775
  vertex 0.0602075495 0.0136003522 0.00949660968
  vertex 0.0615742244 0.0124957543 -0.0100804614
  endloop
 endfacet

 facet normal 0 0 0
  outer loop
  vertex 0.0584792756 0.0146378567 -0.00829838775
  vertex 0.0615742244 0.0124957543 -0.0100804614
  vertex 0.0147327166 0.0136644831 -0.00979067478
  endloop
 endfacet

 facet normal 0 0 0
  outer loop
  vertex -0.00418626983 0.00846969895 -0.00800000038
  vertex -0.00423831213 0.00735831214 -0.00659999996
  vertex -0.00423831213 0.00735831214 0.00800000038
  endloop
 endfacet

 facet normal 0 0 0
  outer loop
  vertex -0.00418626983 0.00846969895 -0.00800000038
  vertex -0.00423831213 0.00735831214 0.00800000038
  vertex -0.00275580375 0.0101006944 0.00800000038
  endloop
 endfacet

 facet normal 0 0 0
  outer loop
  vertex -0.00418626983 0.00846969895 -0.00800000038
  vertex -0.00275580375 0.0101006944 0.00800000038
  vertex -0.00275580375 0.0101006944 -0.00800000038
  endloop
 endfacet

 facet normal 0 0 0
  outer loop
  vertex -0.00418626983 0.00846969895 -0.00800000038
  vertex -0.00275580375 0.0101006944 -0.00800000038
  vertex -0.00240935246 0.00333348964 -0.0104356753
  endloop
 endfacet

 facet normal 0 0 0
  outer loop
  vertex -0.00281336321 -0.00783812348 -0.0103611965
  vertex -0.00207430823 -0.0120260883 -0.00927003939
  vertex -0.00278403959 -0.00884517562 0.0102770207
  endloop
 endfacet

 facet normal 0 0 0
  outer loop
  vertex -0.00281336321 -0.00783812348 -0.0103611965
  vertex -0.00278403959 -0.00884517562 0.0102770207
  vertex -0.00423831213 0.00735831214 0.00800000038
  endloop
 endfacet

 facet normal 0 0 0
  outer loop
  vertex -0.00281336321 -0.00783812348 -0.0103611965
  vertex -0.00423831213 0.00735831214 0.00800000038
  vertex -0.00423831213 0.00735831214 -0.00659999996
  endloop
 endfacet

 facet normal 0 0 0
  outer loop
  vertex -0.00281336321 -0.00783812348 -0.0103611965
  vertex -0.00423831213 0.00735831214 -0.00659999996
  vertex -0.00418626983 0.00846969895 -0.00800000038
  endloop
 endfacet

 facet normal 0 0 0
  outer loop
  vertex -0.00281336321 -0.00783812348 -0.0103611965
  vertex -0.00418626983 0.00846969895 -0.00800000038
  vertex -0.00240935246 0.00333348964 -0.0104356753
  endloop
 endfacet

 facet normal 0 0 0
  outer loop
  vertex -0.00240935246 0.00333348964 -0.0104356753
  vertex 0.00325212837 0.00823179912 -0.0104718143
  vertex 0.0643087998 0.00885185041 -0.0105649875
  endloop
 endfacet

 facet normal 0 0 0
  outer loop
  vertex -0.00240935246 0.00333348964 -0.0104356753
  vertex 0.0643087998 0.00885185041 -0.0105649875
  vertex 0.0565157682 -0.0101615293 -0.0099762911
  endloop
 endfacet

 facet normal 0 0 0
  outer loop
  vertex -0.00240935246 0.00333348964 -0.0104356753
  vertex 0.0565157682 -0.0101615293 -0.0099762911
  vertex -0.00281336321 -0.00783812348 -0.0103611965
  endloop
 endfacet

 facet normal 0 0 0
  outer loop
  vertex -0.00281336321 -0.00783812348 -0.0103611965
  vertex 0.0565157682 -0.0101615293 -0.0099762911
  vertex -0.00207430823 -0.0120260883 -0.00927003939
  endloop
 endfacet

 facet normal 0 0 0
  outer loop
  vertex 0.0579885393 -0.0121766627 0.00768777588
  vertex 0.0675574467 -0.0054139304 0.00659634452
  vertex 0.0665156618 -0.00334445899 0.00970918592
  endloop
 endfacet

 facet normal 0 0 0
  outer loop
  vertex 0.0579885393 -0.0121766627 0.00768777588
  vertex 0.0665156618 -0.00334445899 0.00970918592
  vertex 0.0565218329 -0.0103785992 0.00989498198
  endloop
 endfacet

 facet normal 0 0 0
  outer loop
  vertex 0.0579885393 -0.0121766627 0.00768777588
  vertex 0.0565218329 -0.0103785992 0.00989498198
  vertex 0.0514159724 -0.0129819643 0.00859215762
  endloop
 endfacet

 facet normal 0 0 0
  outer loop
  vertex 0.0579885393 -0.0121766627 0.00768777588
  vertex 0.0514159724 -0.0129819643 0.00859215762
  vertex 0.0566982664 -0.0136822909 0.00501989806
  endloop
 endfacet

 facet normal 0 0 0
  outer loop
  vertex -0.000623445434 -0.0136487689 -0.00658721989
  vertex -0.00207430823 -0.0120260883 -0.00927003939
  vertex 0.0514478683 -0.0135023026 -0.0078285234
  endloop
 endfacet

 facet normal 0 0 0
  outer loop
  vertex 0.0514478683 -0.0135023026 -0.0078285234
  vertex 0.0515112132 -0.0147916805 -0.000171953157
  vertex 0.000798133609 -0.0143430373 -0.000902683765
  endloop
 endfacet

 facet normal 0 0 0
  outer loop
  vertex 0.0514478683 -0.0135023026 -0.0078285234
  vertex 0.000798133609 -0.0143430373 -0.000902683765
  vertex -0.000623445434 -0.0136487689 -0.00658721989
  endloop
 endfacet

 facet normal 0 0 0
  outer loop
  vertex -0.000623445434 -0.0136487689 -0.00658721989
  vertex -0.00178242521 -0.0125134792 0.00883360859
  vertex -0.00207430823 -0.0120260883 -0.00927003939
  endloop
 endfacet

 facet normal 0 0 0
  outer loop
  vertex 0.0566390716 -0.012731079 -0.00785687659
  vertex 0.0514478683 -0.0135023026 -0.0078285234
  vertex 0.0565157682 -0.0101615293 -0.0099762911
  endloop
 endfacet

 facet normal 0 0 0
  outer loop
  vertex 0.0566390716 -0.012731079 -0.00785687659
  vertex 0.0565157682 -0.0101615293 -0.0099762911
  vertex 0.066617012 -0.00354578043 -0.00956807006
  endloop
 endfacet

 facet normal 0 0 0
  outer loop
  vertex 0.0566390716 -0.012731079 -0.00785687659
  vertex 0.066617012 -0.00354578043 -0.00956807006
  vertex 0.0675801486 -0.00545903668 -0.00644653803
  endloop
 endfacet

 facet normal 0 0 0
  outer loop
  vertex 0.0566390716 -0.012731079 -0.00785687659
  vertex 0.0675801486 -0.00545903668 -0.00644653803
  vertex 0.0580342673 -0.012986959 -0.00534089794
  endloop
 endfacet

 facet normal 0 0 0
  outer loop
  vertex 0.0198221616 0.01638465 0.00264966744
  vertex 0.0149238817 0.0153959086 0.00770685682
  vertex 0.0559265986 0.0156146996 0.00547095248
  endloop
 endfacet

 facet normal 0 0 0
  outer loop
  vertex 0.0198221616 0.01638465 0.00264966744
  vertex 0.0559265986 0.0156146996 0.00547095248
  vertex 0.054832302 0.0158631876 -0.00389661384
  endloop
 endfacet

 facet normal 0 0 0
  outer loop
  vertex 0.0198221616 0.01638465 0.00264966744
  vertex 0.054832302 0.0158631876 -0.00389661384
  vertex 0.0164460447 0.0158363823 -0.00644860929
  endloop
 endfacet

 facet normal 0 0 0
  outer loop
  vertex 0.0198221616 0.01638465 0.00264966744
  vertex 0.0164460447 0.0158363823 -0.00644860929
  vertex 0.0149238817 0.0153959086 0.00770685682
  endloop
 endfacet

 facet normal 0 0 0
  outer loop
  vertex 0.0132610798 0.0147648407 -0.00867365766
  vertex 0.0164460447 0.0158363823 -0.00644860929
  vertex 0.0584792756 0.0146378567 -0.00829838775
  endloop
 endfacet

 facet normal 0 0 0
  outer loop
  vertex 0.0132610798 0.0147648407 -0.00867365766
  vertex 0.0584792756 0.0146378567 -0.00829838775
  vertex 0.0147327166 0.0136644831 -0.00979067478
  endloop
 endfacet

 facet normal 0 0 0
  outer loop
  vertex 0.0132610798 0.0147648407 -0.00867365766
  vertex 0.0147327166 0.0136644831 -0.00979067478
  vertex -0.00275580375 0.0101006944 -0.00800000038
  endloop
 endfacet

 facet normal 0 0 0
  outer loop
  vertex 0.0132610798 0.0147648407 -0.00867365766
  vertex -0.00275580375 0.0101006944 -0.00800000038
  vertex 0.0164460447 0.0158363823 -0.00644860929
  endloop
 endfacet

 facet normal 0 0 0
  outer loop
  vertex 0.0407675356 -0.0144363763 0.00499120215
  vertex 0.0515112132 -0.0147916805 -0.000171953157
  vertex 0.0566982664 -0.0136822909 0.00501989806
  endloop
 endfacet

 facet normal 0 0 0
  outer loop
  vertex 0.0407675356 -0.0144363763 0.00499120215
  vertex 0.0566982664 -0.0136822909 0.00501989806
  vertex 0.0514159724 -0.0129819643 0.00859215762
  endloop
 endfacet

 facet normal 0 0 0
  outer loop
  vertex 0.0514159724 -0.0129819643 0.00859215762
  vertex -0.00178242521 -0.0125134792 0.00883360859
  vertex -0.000132401823 -0.0139420703 0.00529825548
  endloop
 endfacet

 facet normal 0 0 0
  outer loop
  vertex 0.0514159724 -0.0129819643 0.00859215762
  vertex -0.000132401823 -0.0139420703 0.00529825548
  vertex 0.0407675356 -0.0144363763 0.00499120215
  endloop
 endfacet

 facet normal 0 0 0
  outer loop
  vertex 0.0407675356 -0.0144363763 0.00499120215
  vertex -0.000132401823 -0.0139420703 0.00529825548
  vertex 0.000798133609 -0.0143430373 -0.000902683765
  endloop
 endfacet

 facet normal 0 0 0
  outer loop
  vertex 0.0407675356 -0.0144363763 0.00499120215
  vertex 0.000798133609 -0.0143430373 -0.000902683765
  vertex 0.0515112132 -0.0147916805 -0.000171953157
  endloop
 endfacet

 facet normal 0 0 0
  outer loop
  vertex 0.0127139036 0.0141882645 0.00932411384
  vertex -0.00275580375 0.0101006944 0.00800000038
  vertex -0.00169516378 0.00546769286 0.0104205385
  endloop
 endfacet

 facet normal 0 0 0
  outer loop
  vertex 0.0127139036 0.0141882645 0.00932411384
  vertex -0.00169516378 0.00546769286 0.0104205385
  vertex 0.00347121526 0.00775405951 0.0104969405
  endloop
 endfacet

 facet normal 0 0 0
  outer loop
  vertex 0.0127139036 0.0141882645 0.00932411384
  vertex 0.00347121526 0.00775405951 0.0104969405
  vertex 0.0149974637 0.0129371798 0.0101276664
  endloop
 endfacet

 facet normal 0 0 0
  outer loop
  vertex 0.0127139036 0.0141882645 0.00932411384
  vertex 0.0149974637 0.0129371798 0.0101276664
  vertex 0.0602075495 0.0136003522 0.00949660968
  endloop
 endfacet

 facet normal 0 0 0
  outer loop
  vertex 0.0127139036 0.0141882645 0.00932411384
  vertex 0.0602075495 0.0136003522 0.00949660968
  vertex 0.0149238817 0.0153959086 0.00770685682
  endloop
 endfacet

 facet normal 0 0 0
  outer loop
  vertex 0.0127139036 0.0141882645 0.00932411384
  vertex 0.0149238817 0.0153959086 0.00770685682
  vertex -0.00275580375 0.0101006944 0.00800000038
  endloop
 endfacet

 facet normal 0 0 0
  outer loop
  vertex -0.000132401823 -0.0139420703 0.00529825548
  vertex -0.00178242521 -0.0125134792 0.00883360859
  vertex -0.000623445434 -0.0136487689 -0.00658721989
  endloop
 endfacet

 facet normal 0 0 0
  outer loop
  vertex -0.000132401823 -0.0139420703 0.00529825548
  vertex -0.000623445434 -0.0136487689 -0.00658721989
  vertex 0.000798133609 -0.0143430373 -0.000902683765
  endloop
 endfacet

 facet normal 0 0 0
  outer loop
  vertex -0.00169516378 0.00546769286 0.0104205385
  vertex -0.00275580375 0.0101006944 0.00800000038
  vertex -0.00423831213 0.00735831214 0.00800000038
  endloop
 endfacet

 facet normal 0 0 0
  outer loop
  vertex -0.00169516378 0.00546769286 0.0104205385
  vertex -0.00423831213 0.00735831214 0.00800000038
  vertex -0.00267219986 0.00176493463 0.01044067
  endloop
 endfacet

endsolid AssimpScene
