solid AssimpScene
 facet normal 0 0 0
  outer loop
  vertex 0.0303055421 0.00152698567 0.00737988716
  vertex 0.0301839132 -0.00298683089 0.00777535746
  vertex 0.0332269259 -0.00443854788 0.00591816287
  endloop
 endfacet

 facet normal 0 0 0
  outer loop
  vertex 0.0303055421 0.00152698567 0.00737988716
  vertex 0.0332269259 -0.00443854788 0.00591816287
  vertex 0.0355421752 -0.00294517982 0.00420961017
  endloop
 endfacet

 facet normal 0 0 0
  outer loop
  vertex 0.0303055421 0.00152698567 0.00737988716
  vertex 0.0355421752 -0.00294517982 0.00420961017
  vertex 0.0339955091 0.00116519956 0.00502150273
  endloop
 endfacet

 facet normal 0 0 0
  outer loop
  vertex -0.00296975835 -0.00933639705 -0.00619999878
  vertex -0.00365359988 -0.00796691142 0.00619999925
  vertex -0.00393503765 -0.00397682376 -0.00619999878
  endloop
 endfacet

 facet normal 0 0 0
  outer loop
  vertex 0.0083837416 -0.0136282211 -0.00071651279
  vertex 0.0073977001 -0.0117495786 -0.00867106207
  vertex 0.0334596671 -0.00526504498 -0.00491430378
  endloop
 endfacet

 facet normal 0 0 0
  outer loop
  vertex 0.0083837416 -0.0136282211 -0.00071651279
  vertex 0.0338865742 -0.00567094423 0.00358369411
  vertex 0.0076588057 -0.0122443531 0.00787591003
  endloop
 endfacet

 facet normal 0 0 0
  outer loop
  vertex 0.0083837416 -0.0136282211 -0.00071651279
  vertex -0.00296975835 -0.00933639705 -0.00619999878
  vertex 0.0073977001 -0.0117495786 -0.00867106207
  endloop
 endfacet

 facet normal 0 0 0
  outer loop
  vertex 0.00502302358 -0.00704600336 -0.0105448356
  vertex -0.00296975835 -0.00933639705 -0.00619999878
  vertex -0.00393503765 -0.00397682376 -0.00619999878
  endloop
 endfacet

 facet normal 0 0 0
  outer loop
  vertex 0.00502302358 -0.00704600336 -0.0105448356
  vertex -0.00393503765 -0.00397682376 -0.00619999878
  vertex -0.00254497072 0.00112154044 -0.00619999878
  endloop
 endfacet

 facet normal 0 0 0
  outer loop
  vertex 0.00502302358 -0.00704600336 -0.0105448356
  vertex -0.00254497072 0.00112154044 -0.00619999878
  vertex 0.00659090281 0.00166951562 -0.0104025146
  endloop
 endfacet

 facet normal 0 0 0
  outer loop
  vertex 0.00502302358 -0.00704600336 -0.0105448356
  vertex 0.0073977001 -0.0117495786 -0.00867106207
  vertex -0.00296975835 -0.00933639705 -0.00619999878
  endloop
 endfacet

 facet normal 0 0 0
  outer loop
  vertex 0.0300722439 -0.00147174427 -0.00788812153
  vertex 0.00502302358 -0.00704600336 -0.0105448356
  vertex 0.00659090281 0.00166951562 -0.0104025146
  endloop
 endfacet

 facet normal 0 0 0
  outer loop
  vertex 0.0300722439 -0.00147174427 -0.00788812153
  vertex 0.00659090281 0.00166951562 -0.0104025146
  vertex 0.0234875809 0.00293260626 -0.00878393929
  endloop
 endfacet

 facet normal 0 0 0
  outer loop
  vertex 0.0234875809 0.00293260626 -0.00878393929
  vertex 0.00659090281 0.00166951562 -0.0104025146
  vertex 0.00673616072 0.00506930053 -0.00923675112
  endloop
 endfacet

 facet normal 0 0 0
  outer loop
  vertex 0.0234875809 0.00293260626 -0.00878393929
  vertex 0.00673616072 0.00506930053 -0.00923675112
  vertex 0.0115170982 0.00617558928 -0.00732084643
  endloop
 endfacet

 facet normal 0 0 0
  outer loop
  vertex 0.0234875809 0.00293260626 -0.00878393929
  vertex 0.0115170982 0.00617558928 -0.00732084643
  vertex 0.0286896471 0.00475891121 -0.00585929584
  endloop
 endfacet

 facet normal 0 0 0
  outer loop
  vertex 0.0220417324 0.00694497349 -0.00206838083
  vertex 0.0286896471 0.00475891121 -0.00585929584
  vertex 0.0115170982 0.00617558928 -0.00732084643
  endloop
 endfacet

 facet normal 0 0 0
  outer loop
  vertex 0.0356055312 -0.00536842737 -0.000779958209
  vertex 0.0338865742 -0.00567094423 0.00358369411
  vertex 0.0083837416 -0.0136282211 -0.00071651279
  endloop
 endfacet

 facet normal 0 0 0
  outer loop
  vertex 0.0356055312 -0.00536842737 -0.000779958209
  vertex 0.0083837416 -0.0136282211 -0.00071651279
  vertex 0.0334596671 -0.00526504498 -0.00491430378
  endloop
 endfacet

 facet normal 0 0 0
  outer loop
  vertex -0.00254497072 0.00112154044 -0.00619999878
  vertex 7.55267611e-05 0.00353172282 -0.00619999878
  vertex 0.00673616072 0.00506930053 -0.00923675112
  endloop
 endfacet

 facet normal 0 0 0
  outer loop
  vertex -0.00254497072 0.00112154044 -0.00619999878
  vertex 0.00673616072 0.00506930053 -0.00923675112
  vertex 0.00659090281 0.00166951562 -0.0104025146
  endloop
 endfacet

 facet normal 0 0 0
  outer loop
  vertex -0.00229201186 -0.0097232163 0.00619999925
  vertex -0.00365359988 -0.00796691142 0.00619999925
  vertex -0.00296975835 -0.00933639705 -0.00619999878
  endloop
 endfacet

 facet normal 0 0 0
  outer loop
  vertex -0.00229201186 -0.0097232163 0.00619999925
  vertex -0.00296975835 -0.00933639705 -0.00619999878
  vertex 0.0083837416 -0.0136282211 -0.00071651279
  endloop
 endfacet

 facet normal 0 0 0
  outer loop
  vertex -0.00229201186 -0.0097232163 0.00619999925
  vertex 0.0083837416 -0.0136282211 -0.00071651279
  vertex 0.0076588057 -0.0122443531 0.00787591003
  endloop
 endfacet

 facet normal 0 0 0
  outer loop
  vertex -0.00229201186 -0.0097232163 0.00619999925
  vertex 0.00523487199 -0.00765429763 0.0105105182
  vertex -0.00365359988 -0.00796691142 0.00619999925
  endloop
 endfacet

 facet normal 0 0 0
  outer loop
  vertex 0.0151648689 0.00642025983 0.00627222424
  vertex 0.00673446944 0.00654712878 0.00693076011
  vertex 0.00672665378 0.00428537326 0.00975736789
  endloop
 endfacet

 facet normal 0 0 0
  outer loop
  vertex 0.0151648689 0.00642025983 0.00627222424
  vertex 0.00672665378 0.00428537326 0.00975736789
  vertex 0.0267241988 0.00416645315 0.00740542775
  endloop
 endfacet

 facet normal 0 0 0
  outer loop
  vertex 0.0151648689 0.00642025983 0.00627222424
  vertex 0.0267241988 0.00416645315 0.00740542775
  vertex 0.0298342165 0.0054576546 0.0029144038
  endloop
 endfacet

 facet normal 0 0 0
  outer loop
  vertex 0.0151648689 0.00642025983 0.00627222424
  vertex 0.0298342165 0.0054576546 0.0029144038
  vertex 0.0220417324 0.00694497349 -0.00206838083
  endloop
 endfacet

 facet normal 0 0 0
  outer loop
  vertex 0.0151648689 0.00642025983 0.00627222424
  vertex 0.0220417324 0.00694497349 -0.00206838083
  vertex 0.00672450103 0.0074834805 0.00174458907
  endloop
 endfacet

 facet normal 0 0 0
  outer loop
  vertex 0.0223759916 0.00049753912 0.00938424934
  vertex 0.0267241988 0.00416645315 0.00740542775
  vertex 0.00672665378 0.00428537326 0.00975736789
  endloop
 endfacet

 facet normal 0 0 0
  outer loop
  vertex 0.00673446944 0.00654712878 0.00693076011
  vertex 0.0151648689 0.00642025983 0.00627222424
  vertex 0.00672450103 0.0074834805 0.00174458907
  endloop
 endfacet

 facet normal 0 0 0
  outer loop
  vertex 0.00673006708 0.00703202281 -0.00523337862
  vertex 0.0115170982 0.00617558928 -0.00732084643
  vertex 0.00673616072 0.00506930053 -0.00923675112
  endloop
 endfacet

 facet normal 0 0 0
  outer loop
  vertex 0.00673006708 0.00703202281 -0.00523337862
  vertex 0.00673616072 0.00506930053 -0.00923675112
  vertex 7.55267611e-05 0.00353172282 -0.00619999878
  endloop
 endfacet

 facet normal 0 0 0
  outer loop
  vertex 0.00673006708 0.00703202281 -0.00523337862
  vertex 7.55267611e-05 0.00353172282 -0.00619999878
  vertex 0.00672450103 0.0074834805 0.00174458907
  endloop
 endfacet

 facet normal 0 0 0
  outer loop
  vertex 0.00673006708 0.00703202281 -0.00523337862
  vertex 0.00672450103 0.0074834805 0.00174458907
  vertex 0.0220417324 0.00694497349 -0.00206838083
  endloop
 endfacet

 facet normal 0 0 0
  outer loop
  vertex 0.00673006708 0.00703202281 -0.00523337862
  vertex 0.0220417324 0.00694497349 -0.00206838083
  vertex 0.0115170982 0.00617558928 -0.00732084643
  endloop
 endfacet

 facet normal 0 0 0
  outer loop
  vertex 0.0287868753 -0.00455238577 -0.00779736927
  vertex 0.0334596671 -0.00526504498 -0.00491430378
  vertex 0.0073977001 -0.0117495786 -0.00867106207
  endloop
 endfacet

 facet normal 0 0 0
  outer loop
  vertex 0.0287868753 -0.00455238577 -0.00779736927
  vertex 0.0073977001 -0.0117495786 -0.00867106207
  vertex 0.00502302358 -0.00704600336 -0.0105448356
  endloop
 endfacet

 facet normal 0 0 0
  outer loop
  vertex 0.0287868753 -0.00455238577 -0.00779736927
  vertex 0.00502302358 -0.00704600336 -0.0105448356
  vertex 0.0300722439 -0.00147174427 -0.00788812153
  endloop
 endfacet

 facet normal 0 0 0
  outer loop
  vertex 0.0359322987 -0.00353782088 -0.00336428918
  vertex 0.0367609859 -0.00287308544 -1.6298074e-09
  vertex 0.0356055312 -0.00536842737 -0.000779958209
  endloop
 endfacet

 facet normal 0 0 0
  outer loop
  vertex 0.0359322987 -0.00353782088 -0.00336428918
  vertex 0.0356055312 -0.00536842737 -0.000779958209
  vertex 0.0334596671 -0.00526504498 -0.00491430378
  endloop
 endfacet

 facet normal 0 0 0
  outer loop
  vertex 0.0358352251 0.000859231804 0.00177616358
  vertex 0.0339955091 0.00116519956 0.00502150273
  vertex 0.0355421752 -0.00294517982 0.00420961017
  endloop
 endfacet

 facet normal 0 0 0
  outer loop
  vertex 0.0358352251 0.000859231804 0.00177616358
  vertex 0.0355421752 -0.00294517982 0.00420961017
  vertex 0.0367609859 -0.00287308544 -1.6298074e-09
  endloop
 endfacet

 facet normal 0 0 0
  outer loop
  vertex -0.00386021426 -0.00218695169 0.00619999925
  vertex -0.00254497072 0.00112154044 0.00619999925
  vertex -0.00254497072 0.00112154044 -0.00619999878
  endloop
 endfacet

 facet normal 0 0 0
  outer loop
  vertex -0.00386021426 -0.00218695169 0.00619999925
  vertex -0.00254497072 0.00112154044 -0.00619999878
  vertex -0.00393503765 -0.00397682376 -0.00619999878
  endloop
 endfacet

 facet normal 0 0 0
  outer loop
  vertex -0.00386021426 -0.00218695169 0.00619999925
  vertex -0.00393503765 -0.00397682376 -0.00619999878
  vertex -0.00365359988 -0.00796691142 0.00619999925
  endloop
 endfacet

 facet normal 0 0 0
  outer loop
  vertex 0.0285945535 -0.00565235643 0.0070906491
  vertex 0.0076588057 -0.0122443531 0.00787591003
  vertex 0.0338865742 -0.00567094423 0.00358369411
  endloop
 endfacet

 facet normal 0 0 0
  outer loop
  vertex 0.0309106037 0.00219548517 -0.00682664197
  vertex 0.0286896471 0.00475891121 -0.00585929584
  vertex 0.0345511399 0.00284869503 -0.00174698513
  endloop
 endfacet

 facet normal 0 0 0
  outer loop
  vertex 0.0309106037 0.00219548517 -0.00682664197
  vertex 0.0345511399 0.00284869503 -0.00174698513
  vertex 0.0346178077 -0.000480375398 -0.00510380184
  endloop
 endfacet

 facet normal 0 0 0
  outer loop
  vertex 0.0309106037 0.00219548517 -0.00682664197
  vertex 0.0300722439 -0.00147174427 -0.00788812153
  vertex 0.0234875809 0.00293260626 -0.00878393929
  endloop
 endfacet

 facet normal 0 0 0
  outer loop
  vertex 0.0309106037 0.00219548517 -0.00682664197
  vertex 0.0234875809 0.00293260626 -0.00878393929
  vertex 0.0286896471 0.00475891121 -0.00585929584
  endloop
 endfacet

 facet normal 0 0 0
  outer loop
  vertex 0.0332269259 -0.00443854788 0.00591816287
  vertex 0.0301839132 -0.00298683089 0.00777535746
  vertex 0.0285945535 -0.00565235643 0.0070906491
  endloop
 endfacet

 facet normal 0 0 0
  outer loop
  vertex 0.0332269259 -0.00443854788 0.00591816287
  vertex 0.0285945535 -0.00565235643 0.0070906491
  vertex 0.0338865742 -0.00567094423 0.00358369411
  endloop
 endfacet

 facet normal 0 0 0
  outer loop
  vertex 0.0310324375 0.00522126025 -0.00170331728
  vertex 0.0345511399 0.00284869503 -0.00174698513
  vertex 0.0286896471 0.00475891121 -0.00585929584
  endloop
 endfacet

 facet normal 0 0 0
  outer loop
  vertex 0.0310324375 0.00522126025 -0.00170331728
  vertex 0.0286896471 0.00475891121 -0.00585929584
  vertex 0.0220417324 0.00694497349 -0.00206838083
  endloop
 endfacet

 facet normal 0 0 0
  outer loop
  vertex 0.0310324375 0.00522126025 -0.00170331728
  vertex 0.0220417324 0.00694497349 -0.00206838083
  vertex 0.0298342165 0.0054576546 0.0029144038
  endloop
 endfacet

 facet normal 0 0 0
  outer loop
  vertex 0.0065823663 -0.0102160098 0.00993474014
  vertex 0.0076588057 -0.0122443531 0.00787591003
  vertex 0.0285945535 -0.00565235643 0.0070906491
  endloop
 endfacet

 facet normal 0 0 0
  outer loop
  vertex 0.0065823663 -0.0102160098 0.00993474014
  vertex 0.0285945535 -0.00565235643 0.0070906491
  vertex 0.0301839132 -0.00298683089 0.00777535746
  endloop
 endfacet

 facet normal 0 0 0
  outer loop
  vertex 0.0065823663 -0.0102160098 0.00993474014
  vertex 0.0301839132 -0.00298683089 0.00777535746
  vertex 0.0223759916 0.00049753912 0.00938424934
  endloop
 endfacet

 facet normal 0 0 0
  outer loop
  vertex 0.0065823663 -0.0102160098 0.00993474014
  vertex 0.0223759916 0.00049753912 0.00938424934
  vertex 0.00523487199 -0.00765429763 0.0105105182
  endloop
 endfacet

 facet normal 0 0 0
  outer loop
  vertex 0.0065823663 -0.0102160098 0.00993474014
  vertex 0.00523487199 -0.00765429763 0.0105105182
  vertex -0.00229201186 -0.0097232163 0.00619999925
  endloop
 endfacet

 facet normal 0 0 0
  outer loop
  vertex 0.0065823663 -0.0102160098 0.00993474014
  vertex -0.00229201186 -0.0097232163 0.00619999925
  vertex 0.0076588057 -0.0122443531 0.00787591003
  endloop
 endfacet

 facet normal 0 0 0
  outer loop
  vertex 0.0335216634 0.00380207831 0.00172204268
  vertex 0.0339955091 0.00116519956 0.00502150273
  vertex 0.0358352251 0.000859231804 0.00177616358
  endloop
 endfacet

 facet normal 0 0 0
  outer loop
  vertex 0.0335216634 0.00380207831 0.00172204268
  vertex 0.0358352251 0.000859231804 0.00177616358
  vertex 0.0345511399 0.00284869503 -0.00174698513
  endloop
 endfacet

 facet normal 0 0 0
  outer loop
  vertex 0.0335216634 0.00380207831 0.00172204268
  vertex 0.0345511399 0.00284869503 -0.00174698513
  vertex 0.0310324375 0.00522126025 -0.00170331728
  endloop
 endfacet

 facet normal 0 0 0
  outer loop
  vertex 0.0335216634 0.00380207831 0.00172204268
  vertex 0.0310324375 0.00522126025 -0.00170331728
  vertex 0.0298342165 0.0054576546 0.0029144038
  endloop
 endfacet

 facet normal 0 0 0
  outer loop
  vertex 0.0303055421 0.00152698567 0.00737988716
  vertex 0.0267241988 0.00416645315 0.00740542775
  vertex 0.0223759916 0.00049753912 0.00938424934
  endloop
 endfacet

 facet normal 0 0 0
  outer loop
  vertex 0.0303055421 0.00152698567 0.00737988716
  vertex 0.0223759916 0.00049753912 0.00938424934
  vertex 0.0301839132 -0.00298683089 0.00777535746
  endloop
 endfacet

 facet normal 0 0 0
  outer loop
  vertex 0.0300722439 -0.00147174427 -0.00788812153
  vertex 0.0309106037 0.00219548517 -0.00682664197
  vertex 0.0346178077 -0.000480375398 -0.00510380184
  endloop
 endfacet

 facet normal 0 0 0
  outer loop
  vertex 0.0300722439 -0.00147174427 -0.00788812153
  vertex 0.0346178077 -0.000480375398 -0.00510380184
  vertex 0.0334427953 -0.00309939496 -0.00625755778
  endloop
 endfacet

 facet normal 0 0 0
  outer loop
  vertex 0.0334427953 -0.00309939496 -0.00625755778
  vertex 0.0346178077 -0.000480375398 -0.00510380184
  vertex 0.0359322987 -0.00353782088 -0.00336428918
  endloop
 endfacet

 facet normal 0 0 0
  outer loop
  vertex 0.0334427953 -0.00309939496 -0.00625755778
  vertex 0.0359322987 -0.00353782088 -0.00336428918
  vertex 0.0334596671 -0.00526504498 -0.00491430378
  endloop
 endfacet

 facet normal 0 0 0
  outer loop
  vertex 0.0334427953 -0.00309939496 -0.00625755778
  vertex 0.0334596671 -0.00526504498 -0.00491430378
  vertex 0.0287868753 -0.00455238577 -0.00779736927
  endloop
 endfacet

 facet normal 0 0 0
  outer loop
  vertex 0.0334427953 -0.00309939496 -0.00625755778
  vertex 0.0287868753 -0.00455238577 -0.00779736927
  vertex 0.0300722439 -0.00147174427 -0.00788812153
  endloop
 endfacet

 facet normal 0 0 0
  outer loop
  vertex 0.0310823247 0.00376818399 0.00545841176
  vertex 0.0298342165 0.0054576546 0.0029144038
  vertex 0.0267241988 0.00416645315 0.00740542775
  endloop
 endfacet

 facet normal 0 0 0
  outer loop
  vertex 0.0310823247 0.00376818399 0.00545841176
  vertex 0.0267241988 0.00416645315 0.00740542775
  vertex 0.0303055421 0.00152698567 0.00737988716
  endloop
 endfacet

 facet normal 0 0 0
  outer loop
  vertex 0.0310823247 0.00376818399 0.00545841176
  vertex 0.0303055421 0.00152698567 0.00737988716
  vertex 0.0339955091 0.00116519956 0.00502150273
  endloop
 endfacet

 facet normal 0 0 0
  outer loop
  vertex 0.0310823247 0.00376818399 0.00545841176
  vertex 0.0339955091 0.00116519956 0.00502150273
  vertex 0.0335216634 0.00380207831 0.00172204268
  endloop
 endfacet

 facet normal 0 0 0
  outer loop
  vertex 0.0310823247 0.00376818399 0.00545841176
  vertex 0.0335216634 0.00380207831 0.00172204268
  vertex 0.0298342165 0.0054576546 0.0029144038
  endloop
 endfacet

 facet normal 0 0 0
  outer loop
  vertex 0.036130771 -0.000465967838 -0.0024342637
  vertex 0.0367609859 -0.00287308544 -1.6298074e-09
  vertex 0.0359322987 -0.00353782088 -0.00336428918
  endloop
 endfacet

 facet normal 0 0 0
  outer loop
  vertex 0.036130771 -0.000465967838 -0.0024342637
  vertex 0.0359322987 -0.00353782088 -0.00336428918
  vertex 0.0346178077 -0.000480375398 -0.00510380184
  endloop
 endfacet

 facet normal 0 0 0
  outer loop
  vertex 0.036130771 -0.000465967838 -0.0024342637
  vertex 0.0346178077 -0.000480375398 -0.00510380184
  vertex 0.0345511399 0.00284869503 -0.00174698513
  endloop
 endfacet

 facet normal 0 0 0
  outer loop
  vertex 0.036130771 -0.000465967838 -0.0024342637
  vertex 0.0345511399 0.00284869503 -0.00174698513
  vertex 0.0358352251 0.000859231804 0.00177616358
  endloop
 endfacet

 facet normal 0 0 0
  outer loop
  vertex 0.036130771 -0.000465967838 -0.0024342637
  vertex 0.0358352251 0.000859231804 0.00177616358
  vertex 0.0367609859 -0.00287308544 -1.6298074e-09
  endloop
 endfacet

 facet normal 0 0 0
  outer loop
  vertex 0.0357645787 -0.0048542372 0.0023766181
  vertex 0.0338865742 -0.00567094423 0.00358369411
  vertex 0.0356055312 -0.00536842737 -0.000779958209
  endloop
 endfacet

 facet normal 0 0 0
  outer loop
  vertex 0.0357645787 -0.0048542372 0.0023766181
  vertex 0.0356055312 -0.00536842737 -0.000779958209
  vertex 0.0367609859 -0.00287308544 -1.6298074e-09
  endloop
 endfacet

 facet normal 0 0 0
  outer loop
  vertex 0.0357645787 -0.0048542372 0.0023766181
  vertex 0.0367609859 -0.00287308544 -1.6298074e-09
  vertex 0.0355421752 -0.00294517982 0.00420961017
  endloop
 endfacet

 facet normal 0 0 0
  outer loop
  vertex 0.0357645787 -0.0048542372 0.0023766181
  vertex 0.0355421752 -0.00294517982 0.00420961017
  vertex 0.0332269259 -0.00443854788 0.00591816287
  endloop
 endfacet

 facet normal 0 0 0
  outer loop
  vertex 0.0357645787 -0.0048542372 0.0023766181
  vertex 0.0332269259 -0.00443854788 0.00591816287
  vertex 0.0338865742 -0.00567094423 0.00358369411
  endloop
 endfacet

 facet normal 0 0 0
  outer loop
  vertex 7.55267611e-05 0.00353172282 0.00619999925
  vertex -0.00254497072 0.00112154044 0.00619999925
  vertex 0.00672665378 0.00428537326 0.00975736789
  endloop
 endfacet

 facet normal 0 0 0
  outer loop
  vertex 7.55267611e-05 0.00353172282 0.00619999925
  vertex 0.00672665378 0.00428537326 0.00975736789
  vertex 0.00673446944 0.00654712878 0.00693076011
  endloop
 endfacet

 facet normal 0 0 0
  outer loop
  vertex 7.55267611e-05 0.00353172282 0.00619999925
  vertex 0.00673446944 0.00654712878 0.00693076011
  vertex 0.00672450103 0.0074834805 0.00174458907
  endloop
 endfacet

 facet normal 0 0 0
  outer loop
  vertex 7.55267611e-05 0.00353172282 0.00619999925
  vertex 0.00672450103 0.0074834805 0.00174458907
  vertex 7.55267611e-05 0.00353172282 -0.00619999878
  endloop
 endfacet

 facet normal 0 0 0
  outer loop
  vertex 7.55267611e-05 0.00353172282 0.00619999925
  vertex 7.55267611e-05 0.00353172282 -0.00619999878
  vertex -0.00254497072 0.00112154044 -0.00619999878
  endloop
 endfacet

 facet normal 0 0 0
  outer loop
  vertex 7.55267611e-05 0.00353172282 0.00619999925
  vertex -0.00254497072 0.00112154044 -0.00619999878
  vertex -0.00254497072 0.00112154044 0.00619999925
  endloop
 endfacet

 facet normal 0 0 0
  outer loop
  vertex 0.00672665378 0.00428537326 0.00975736789
  vertex -0.00254497072 0.00112154044 0.00619999925
  vertex -0.00386021426 -0.00218695169 0.00619999925
  endloop
 endfacet

 facet normal 0 0 0
  outer loop
  vertex 0.00672665378 0.00428537326 0.00975736789
  vertex -0.00386021426 -0.00218695169 0.00619999925
  vertex 0.00503803464 -0.00235327915 0.0105952714
  endloop
 endfacet

 facet normal 0 0 0
  outer loop
  vertex -0.00386021426 -0.00218695169 0.00619999925
  vertex -0.00365359988 -0.00796691142 0.00619999925
  vertex 0.00523487199 -0.00765429763 0.0105105182
  endloop
 endfacet

 facet normal 0 0 0
  outer loop
  vertex -0.00386021426 -0.00218695169 0.00619999925
  vertex 0.00523487199 -0.00765429763 0.0105105182
  vertex 0.00503803464 -0.00235327915 0.0105952714
  endloop
 endfacet

 facet normal 0 0 0
  outer loop
  vertex 0.00503803464 -0.00235327915 0.0105952714
  vertex 0.00523487199 -0.00765429763 0.0105105182
  vertex 0.0223759916 0.00049753912 0.00938424934
  endloop
 endfacet

 facet normal 0 0 0
  outer loop
  vertex 0.00503803464 -0.00235327915 0.0105952714
  vertex 0.0223759916 0.00049753912 0.00938424934
  vertex 0.00672665378 0.00428537326 0.00975736789
  endloop
 endfacet

endsolid AssimpScene
