solid AssimpScene
 facet normal 0 0 0
  outer loop
  vertex 0.0351139866 0.00447815377 -0.00631553959
  vertex 0.0351319835 0.00716992095 -0.00383029459
  vertex 0.0351363569 0.00807194225 5.81560062e-06
  endloop
 endfacet

 facet normal 0 0 0
  outer loop
  vertex 0.0351139866 0.00447815377 -0.00631553959
  vertex 0.0351363569 0.00807194225 5.81560062e-06
  vertex 0.0351264291 0.00618884852 0.00509819807
  endloop
 endfacet

 facet normal 0 0 0
  outer loop
  vertex 0.0351139866 0.00447815377 -0.00631553959
  vertex 0.0351264291 0.00618884852 0.00509819807
  vertex 0.0350621119 0.000691901834 0.00717088999
  endloop
 endfacet

 facet normal 0 0 0
  outer loop
  vertex 0.0351139866 0.00447815377 -0.00631553959
  vertex 0.0350621119 0.000691901834 0.00717088999
  vertex 0.0345871039 -0.00500491634 -0.00688133668
  endloop
 endfacet

 facet normal 0 0 0
  outer loop
  vertex 0.0338562876 -0.0065656784 0.00638845935
  vertex 0.0345871039 -0.00500491634 -0.00688133668
  vertex 0.0350621119 0.000691901834 0.00717088999
  endloop
 endfacet

 facet normal 0 0 0
  outer loop
  vertex 0.0351139866 0.00447815377 -0.00631553959
  vertex 0.0345871039 -0.00500491634 -0.00688133668
  vertex -0.00739014195 0.00474449294 -0.0081696175
  endloop
 endfacet

 facet normal 0 0 0
  outer loop
  vertex -0.0170000028 0.00200000009 0.00350000011
  vertex -0.0155000007 -0.00400000019 0.00499999989
  vertex -0.00739565352 0.005943147 0.00792502239
  endloop
 endfacet

 facet normal 0 0 0
  outer loop
  vertex -0.0170000028 0.00200000009 0.00350000011
  vertex -0.00557411136 0.0129994834 -0.00223040162
  vertex -0.0170000028 0.00200000009 -0.00350000011
  endloop
 endfacet

 facet normal 0 0 0
  outer loop
  vertex -0.00591008924 0.0122397607 0.00409049215
  vertex 0.0351363569 0.00807194225 5.81560062e-06
  vertex -0.00557411136 0.0129994834 -0.00223040162
  endloop
 endfacet

 facet normal 0 0 0
  outer loop
  vertex -0.00591008924 0.0122397607 0.00409049215
  vertex -0.00557411136 0.0129994834 -0.00223040162
  vertex -0.0170000028 0.00200000009 0.00350000011
  endloop
 endfacet

 facet normal 0 0 0
  outer loop
  vertex -0.00591008924 0.0122397607 0.00409049215
  vertex -0.0170000028 0.00200000009 0.00350000011
  vertex -0.00739565352 0.005943147 0.00792502239
  endloop
 endfacet

 facet normal 0 0 0
  outer loop
  vertex -0.00411317451 -0.00848581456 0.00374999968
  vertex -0.00411317451 -0.00848581456 -0.00374999968
  vertex 0.0261128303 -0.0093264645 -0.00406927941
  endloop
 endfacet

 facet normal 0 0 0
  outer loop
  vertex -0.00411317451 -0.00848581456 0.00374999968
  vertex 0.0261128303 -0.0093264645 -0.00406927941
  vertex 0.0258065835 -0.00961472467 0.00321661355
  endloop
 endfacet

 facet normal 0 0 0
  outer loop
  vertex 0.0351264291 0.00618884852 0.00509819807
  vertex 0.0351363569 0.00807194225 5.81560062e-06
  vertex -0.00591008924 0.0122397607 0.00409049215
  endloop
 endfacet

 facet normal 0 0 0
  outer loop
  vertex 0.0351264291 0.00618884852 0.00509819807
  vertex -0.00591008924 0.0122397607 0.00409049215
  vertex -0.00739565352 0.005943147 0.00792502239
  endloop
 endfacet

 facet normal 0 0 0
  outer loop
  vertex 0.0351264291 0.00618884852 0.00509819807
  vertex -0.00739565352 0.005943147 0.00792502239
  vertex 0.0350621119 0.000691901834 0.00717088999
  endloop
 endfacet

 facet normal 0 0 0
  outer loop
  vertex -0.00502085174 -0.00185273087 0.00821270421
  vertex -0.0155000007 -0.00400000019 0.00499999989
  vertex -0.00411317451 -0.00848581456 0.00374999968
  endloop
 endfacet

 facet normal 0 0 0
  outer loop
  vertex -0.00502085174 -0.00185273087 0.00821270421
  vertex 0.0338562876 -0.0065656784 0.00638845935
  vertex 0.0350621119 0.000691901834 0.00717088999
  endloop
 endfacet

 facet normal 0 0 0
  outer loop
  vertex -0.00502085174 -0.00185273087 0.00821270421
  vertex 0.0350621119 0.000691901834 0.00717088999
  vertex -0.00739565352 0.005943147 0.00792502239
  endloop
 endfacet

 facet normal 0 0 0
  outer loop
  vertex -0.00502085174 -0.00185273087 0.00821270421
  vertex -0.00739565352 0.005943147 0.00792502239
  vertex -0.0155000007 -0.00400000019 0.00499999989
  endloop
 endfacet

 facet normal 0 0 0
  outer loop
  vertex -0.00446385657 -0.00248497771 -0.00805432722
  vertex -0.00739014195 0.00474449294 -0.0081696175
  vertex 0.0345871039 -0.00500491634 -0.00688133668
  endloop
 endfacet

 facet normal 0 0 0
  outer loop
  vertex -0.00660644751 0.0103464564 -0.0060128225
  vertex 0.0351139866 0.00447815377 -0.00631553959
  vertex -0.00739014195 0.00474449294 -0.0081696175
  endloop
 endfacet

 facet normal 0 0 0
  outer loop
  vertex -0.00660644751 0.0103464564 -0.0060128225
  vertex -0.00739014195 0.00474449294 -0.0081696175
  vertex -0.0170000028 0.00200000009 -0.00350000011
  endloop
 endfacet

 facet normal 0 0 0
  outer loop
  vertex -0.00660644751 0.0103464564 -0.0060128225
  vertex -0.0170000028 0.00200000009 -0.00350000011
  vertex -0.00557411136 0.0129994834 -0.00223040162
  endloop
 endfacet

 facet normal 0 0 0
  outer loop
  vertex 0.032587532 -0.00755202677 -0.00587835489
  vertex 0.0338562876 -0.0065656784 0.00638845935
  vertex 0.0258065835 -0.00961472467 0.00321661355
  endloop
 endfacet

 facet normal 0 0 0
  outer loop
  vertex 0.032587532 -0.00755202677 -0.00587835489
  vertex 0.0258065835 -0.00961472467 0.00321661355
  vertex 0.0261128303 -0.0093264645 -0.00406927941
  endloop
 endfacet

 facet normal 0 0 0
  outer loop
  vertex 0.032587532 -0.00755202677 -0.00587835489
  vertex 0.0261128303 -0.0093264645 -0.00406927941
  vertex -0.00411317451 -0.00848581456 -0.00374999968
  endloop
 endfacet

 facet normal 0 0 0
  outer loop
  vertex 0.032587532 -0.00755202677 -0.00587835489
  vertex -0.00411317451 -0.00848581456 -0.00374999968
  vertex -0.00446385657 -0.00248497771 -0.00805432722
  endloop
 endfacet

 facet normal 0 0 0
  outer loop
  vertex 0.032587532 -0.00755202677 -0.00587835489
  vertex -0.00446385657 -0.00248497771 -0.00805432722
  vertex 0.0345871039 -0.00500491634 -0.00688133668
  endloop
 endfacet

 facet normal 0 0 0
  outer loop
  vertex 0.032587532 -0.00755202677 -0.00587835489
  vertex 0.0345871039 -0.00500491634 -0.00688133668
  vertex 0.0338562876 -0.0065656784 0.00638845935
  endloop
 endfacet

 facet normal 0 0 0
  outer loop
  vertex -0.0170000028 -0.00400000019 0.00350000011
  vertex -0.0155000007 -0.00400000019 0.00499999989
  vertex -0.0170000028 0.00200000009 0.00350000011
  endloop
 endfacet

 facet normal 0 0 0
  outer loop
  vertex -0.0170000028 -0.00400000019 0.00350000011
  vertex -0.0170000028 0.00200000009 0.00350000011
  vertex -0.0170000028 0.00200000009 -0.00350000011
  endloop
 endfacet

 facet normal 0 0 0
  outer loop
  vertex -0.0170000028 -0.00400000019 0.00350000011
  vertex -0.0170000028 0.00200000009 -0.00350000011
  vertex -0.0170000028 -0.00400000019 -0.00350000011
  endloop
 endfacet

 facet normal 0 0 0
  outer loop
  vertex -0.0170000028 -0.00400000019 0.00350000011
  vertex -0.0170000028 -0.00400000019 -0.00350000011
  vertex -0.00411317451 -0.00848581456 -0.00374999968
  endloop
 endfacet

 facet normal 0 0 0
  outer loop
  vertex -0.0170000028 -0.00400000019 0.00350000011
  vertex -0.00411317451 -0.00848581456 -0.00374999968
  vertex -0.00411317451 -0.00848581456 0.00374999968
  endloop
 endfacet

 facet normal 0 0 0
  outer loop
  vertex -0.0170000028 -0.00400000019 0.00350000011
  vertex -0.00411317451 -0.00848581456 0.00374999968
  vertex -0.0155000007 -0.00400000019 0.00499999989
  endloop
 endfacet

 facet normal 0 0 0
  outer loop
  vertex 0.0351319835 0.00716992095 -0.00383029459
  vertex 0.0351139866 0.00447815377 -0.00631553959
  vertex -0.00660644751 0.0103464564 -0.0060128225
  endloop
 endfacet

 facet normal 0 0 0
  outer loop
  vertex 0.0351319835 0.00716992095 -0.00383029459
  vertex -0.00660644751 0.0103464564 -0.0060128225
  vertex -0.00557411136 0.0129994834 -0.00223040162
  endloop
 endfacet

 facet normal 0 0 0
  outer loop
  vertex 0.0351319835 0.00716992095 -0.00383029459
  vertex -0.00557411136 0.0129994834 -0.00223040162
  vertex 0.0351363569 0.00807194225 5.81560062e-06
  endloop
 endfacet

 facet normal 0 0 0
  outer loop
  vertex -0.0155000007 -0.00400000019 -0.00499999989
  vertex -0.00739014195 0.00474449294 -0.0081696175
  vertex -0.00446385657 -0.00248497771 -0.00805432722
  endloop
 endfacet

 facet normal 0 0 0
  outer loop
  vertex -0.0155000007 -0.00400000019 -0.00499999989
  vertex -0.00446385657 -0.00248497771 -0.00805432722
  vertex -0.00411317451 -0.00848581456 -0.00374999968
  endloop
 endfacet

 facet normal 0 0 0
  outer loop
  vertex -0.0155000007 -0.00400000019 -0.00499999989
  vertex -0.00411317451 -0.00848581456 -0.00374999968
  vertex -0.0170000028 -0.00400000019 -0.00350000011
  endloop
 endfacet

 facet normal 0 0 0
  outer loop
  vertex -0.0155000007 -0.00400000019 -0.00499999989
  vertex -0.0170000028 -0.00400000019 -0.00350000011
  vertex -0.0170000028 0.00200000009 -0.00350000011
  endloop
 endfacet

 facet normal 0 0 0
  outer loop
  vertex -0.0155000007 -0.00400000019 -0.00499999989
  vertex -0.0170000028 0.00200000009 -0.00350000011
  vertex -0.00739014195 0.00474449294 -0.0081696175
  endloop
 endfacet

 facet normal 0 0 0
  outer loop
  vertex 0.0208477676 -0.00831724796 0.00557068177
  vertex 0.0338562876 -0.0065656784 0.00638845935
  vertex -0.00502085174 -0.00185273087 0.00821270421
  endloop
 endfacet

 facet normal 0 0 0
  outer loop
  vertex 0.0208477676 -0.00831724796 0.00557068177
  vertex -0.00502085174 -0.00185273087 0.00821270421
  vertex -0.00411317451 -0.00848581456 0.00374999968
  endloop
 endfacet

 facet normal 0 0 0
  outer loop
  vertex 0.0208477676 -0.00831724796 0.00557068177
  vertex -0.00411317451 -0.00848581456 0.00374999968
  vertex 0.0258065835 -0.00961472467 0.00321661355
  endloop
 endfacet

 facet normal 0 0 0
  outer loop
  vertex 0.0208477676 -0.00831724796 0.00557068177
  vertex 0.0258065835 -0.00961472467 0.00321661355
  vertex 0.0338562876 -0.0065656784 0.00638845935
  endloop
 endfacet

endsolid AssimpScene
