solid AssimpScene
 facet normal 0 0 0
  outer loop
  vertex -0.00424980093 -0.00110462971 -0.00350001338
  vertex 0.00402632775 0.0013747249 -0.00709894812
  vertex 0.00394210266 -0.00220121583 -0.00585259078
  endloop
 endfacet

 facet normal 0 0 0
  outer loop
  vertex -0.00424980093 -0.00110462971 -0.00350001338
  vertex 0.00394210266 -0.00220121583 -0.00585259078
  vertex -0.00197046064 -0.00356972055 -0.0034999887
  endloop
 endfacet

 facet normal 0 0 0
  outer loop
  vertex 0.00402632775 0.0013747249 -0.00709894812
  vertex -0.0058209002 0.00656204112 -0.00350000011
  vertex 0.00422083447 0.00963293482 -0.00635203347
  endloop
 endfacet

 facet normal 0 0 0
  outer loop
  vertex 0.00416638842 0.00732125808 0.00699512986
  vertex 0.00395880779 -0.00149195886 0.00625349395
  vertex 0.0311476886 -0.000734450296 0.00627525058
  endloop
 endfacet

 facet normal 0 0 0
  outer loop
  vertex 0.0359114408 -0.00141771557 0.00400829269
  vertex 0.0311476886 -0.000734450296 0.00627525058
  vertex 0.0354941227 -0.00502373418 0.00384891708
  endloop
 endfacet

 facet normal 0 0 0
  outer loop
  vertex 0.0359114408 -0.00141771557 0.00400829269
  vertex 0.0354941227 -0.00502373418 0.00384891708
  vertex 0.0372546054 -0.00260612369 -1.00305779e-05
  endloop
 endfacet

 facet normal 0 0 0
  outer loop
  vertex -0.00489736442 0.00811143126 0.00350000919
  vertex 0.00416638842 0.00732125808 0.00699512986
  vertex 0.00427849358 0.0120808128 0.00429084525
  endloop
 endfacet

 facet normal 0 0 0
  outer loop
  vertex 0.0297539774 -0.00790844765 -0.00279218191
  vertex 0.031035617 -0.00847425312 0.00132822874
  vertex -0.00197046064 -0.00356972055 -0.0034999887
  endloop
 endfacet

 facet normal 0 0 0
  outer loop
  vertex 0.0283751059 -0.00569983292 0.00509121316
  vertex 0.0354941227 -0.00502373418 0.00384891708
  vertex 0.0311476886 -0.000734450296 0.00627525058
  endloop
 endfacet

 facet normal 0 0 0
  outer loop
  vertex 0.0283751059 -0.00569983292 0.00509121316
  vertex 0.0311476886 -0.000734450296 0.00627525058
  vertex 0.00395880779 -0.00149195886 0.00625349395
  endloop
 endfacet

 facet normal 0 0 0
  outer loop
  vertex -0.00424980093 -0.00110462971 -0.00350001338
  vertex -0.0058209002 0.00656204112 -0.00350000011
  vertex 0.00402632775 0.0013747249 -0.00709894812
  endloop
 endfacet

 facet normal 0 0 0
  outer loop
  vertex -0.00424980093 -0.00110462971 -0.00350001338
  vertex -0.00197046064 -0.00356972055 -0.0034999887
  vertex -0.00344067323 -0.00238234829 0.00350001315
  endloop
 endfacet

 facet normal 0 0 0
  outer loop
  vertex -0.005806142 0.00564470654 0.00349998567
  vertex -0.00344067323 -0.00238234829 0.00350001315
  vertex 0.00395880779 -0.00149195886 0.00625349395
  endloop
 endfacet

 facet normal 0 0 0
  outer loop
  vertex -0.005806142 0.00564470654 0.00349998567
  vertex 0.00395880779 -0.00149195886 0.00625349395
  vertex 0.00416638842 0.00732125808 0.00699512986
  endloop
 endfacet

 facet normal 0 0 0
  outer loop
  vertex -0.005806142 0.00564470654 0.00349998567
  vertex 0.00416638842 0.00732125808 0.00699512986
  vertex -0.00489736442 0.00811143126 0.00350000919
  endloop
 endfacet

 facet normal 0 0 0
  outer loop
  vertex -0.005806142 0.00564470654 0.00349998567
  vertex -0.00489736442 0.00811143126 0.00350000919
  vertex -0.0058209016 0.00656204112 0.00152498926
  endloop
 endfacet

 facet normal 0 0 0
  outer loop
  vertex -0.005806142 0.00564470654 0.00349998567
  vertex -0.0058209016 0.00656204112 0.00152498926
  vertex -0.0058209002 0.00656204112 -0.00350000011
  endloop
 endfacet

 facet normal 0 0 0
  outer loop
  vertex -0.005806142 0.00564470654 0.00349998567
  vertex -0.0058209002 0.00656204112 -0.00350000011
  vertex -0.00424980093 -0.00110462971 -0.00350001338
  endloop
 endfacet

 facet normal 0 0 0
  outer loop
  vertex -0.005806142 0.00564470654 0.00349998567
  vertex -0.00424980093 -0.00110462971 -0.00350001338
  vertex -0.00344067323 -0.00238234829 0.00350001315
  endloop
 endfacet

 facet normal 0 0 0
  outer loop
  vertex 0.0369240865 -0.00110558106 -1.12148509e-05
  vertex 0.0342357866 -0.000397317839 -0.00481637986
  vertex 0.0182026848 0.00805438589 -0.00221827859
  endloop
 endfacet

 facet normal 0 0 0
  outer loop
  vertex 0.0369240865 -0.00110558106 -1.12148509e-05
  vertex 0.0182026848 0.00805438589 -0.00221827859
  vertex 0.0182026085 0.0080520194 0.00220580422
  endloop
 endfacet

 facet normal 0 0 0
  outer loop
  vertex 0.0369240865 -0.00110558106 -1.12148509e-05
  vertex 0.0359114408 -0.00141771557 0.00400829269
  vertex 0.0372546054 -0.00260612369 -1.00305779e-05
  endloop
 endfacet

 facet normal 0 0 0
  outer loop
  vertex 0.0369240865 -0.00110558106 -1.12148509e-05
  vertex 0.0372546054 -0.00260612369 -1.00305779e-05
  vertex 0.0364449322 -0.0024803367 -0.00362377451
  endloop
 endfacet

 facet normal 0 0 0
  outer loop
  vertex 0.0369240865 -0.00110558106 -1.12148509e-05
  vertex 0.0364449322 -0.0024803367 -0.00362377451
  vertex 0.0342357866 -0.000397317839 -0.00481637986
  endloop
 endfacet

 facet normal 0 0 0
  outer loop
  vertex -0.00166024419 -0.00362576335 0.00349999499
  vertex 0.031035617 -0.00847425312 0.00132822874
  vertex 0.0328015536 -0.00734852999 0.00325975777
  endloop
 endfacet

 facet normal 0 0 0
  outer loop
  vertex -0.00166024419 -0.00362576335 0.00349999499
  vertex 0.0328015536 -0.00734852999 0.00325975777
  vertex 0.0283751059 -0.00569983292 0.00509121316
  endloop
 endfacet

 facet normal 0 0 0
  outer loop
  vertex -0.00166024419 -0.00362576335 0.00349999499
  vertex 0.0283751059 -0.00569983292 0.00509121316
  vertex 0.00395880779 -0.00149195886 0.00625349395
  endloop
 endfacet

 facet normal 0 0 0
  outer loop
  vertex -0.00166024419 -0.00362576335 0.00349999499
  vertex 0.00395880779 -0.00149195886 0.00625349395
  vertex -0.00344067323 -0.00238234829 0.00350001315
  endloop
 endfacet

 facet normal 0 0 0
  outer loop
  vertex -0.00166024419 -0.00362576335 0.00349999499
  vertex -0.00344067323 -0.00238234829 0.00350001315
  vertex -0.00197046064 -0.00356972055 -0.0034999887
  endloop
 endfacet

 facet normal 0 0 0
  outer loop
  vertex -0.00166024419 -0.00362576335 0.00349999499
  vertex -0.00197046064 -0.00356972055 -0.0034999887
  vertex 0.031035617 -0.00847425312 0.00132822874
  endloop
 endfacet

 facet normal 0 0 0
  outer loop
  vertex 0.0269039646 0.00119707733 -0.00653313939
  vertex 0.0342357866 -0.000397317839 -0.00481637986
  vertex 0.0296843853 -0.00229568011 -0.0064352029
  endloop
 endfacet

 facet normal 0 0 0
  outer loop
  vertex 0.0269039646 0.00119707733 -0.00653313939
  vertex 0.0296843853 -0.00229568011 -0.0064352029
  vertex 0.00402632775 0.0013747249 -0.00709894812
  endloop
 endfacet

 facet normal 0 0 0
  outer loop
  vertex 0.0269039646 0.00119707733 -0.00653313939
  vertex 0.00402632775 0.0013747249 -0.00709894812
  vertex 0.00422083447 0.00963293482 -0.00635203347
  endloop
 endfacet

 facet normal 0 0 0
  outer loop
  vertex 0.0347792469 -0.00364650274 -0.00496397913
  vertex 0.0296843853 -0.00229568011 -0.0064352029
  vertex 0.0342357866 -0.000397317839 -0.00481637986
  endloop
 endfacet

 facet normal 0 0 0
  outer loop
  vertex 0.0347792469 -0.00364650274 -0.00496397913
  vertex 0.0342357866 -0.000397317839 -0.00481637986
  vertex 0.0364449322 -0.0024803367 -0.00362377451
  endloop
 endfacet

 facet normal 0 0 0
  outer loop
  vertex 0.0347792469 -0.00364650274 -0.00496397913
  vertex 0.0364449322 -0.0024803367 -0.00362377451
  vertex 0.035183385 -0.00647025881 -0.00293470663
  endloop
 endfacet

 facet normal 0 0 0
  outer loop
  vertex 0.00402632775 0.0013747249 -0.00709894812
  vertex 0.0296843853 -0.00229568011 -0.0064352029
  vertex 0.0283691492 -0.00563911814 -0.00515797827
  endloop
 endfacet

 facet normal 0 0 0
  outer loop
  vertex 0.00402632775 0.0013747249 -0.00709894812
  vertex 0.0283691492 -0.00563911814 -0.00515797827
  vertex 0.00394210266 -0.00220121583 -0.00585259078
  endloop
 endfacet

 facet normal 0 0 0
  outer loop
  vertex 0.00394210266 -0.00220121583 -0.00585259078
  vertex 0.0283691492 -0.00563911814 -0.00515797827
  vertex 0.0297539774 -0.00790844765 -0.00279218191
  endloop
 endfacet

 facet normal 0 0 0
  outer loop
  vertex 0.00394210266 -0.00220121583 -0.00585259078
  vertex 0.0297539774 -0.00790844765 -0.00279218191
  vertex -0.00197046064 -0.00356972055 -0.0034999887
  endloop
 endfacet

 facet normal 0 0 0
  outer loop
  vertex 0.0369012691 -0.00526449829 -0.00109751488
  vertex 0.0372546054 -0.00260612369 -1.00305779e-05
  vertex 0.0354941227 -0.00502373418 0.00384891708
  endloop
 endfacet

 facet normal 0 0 0
  outer loop
  vertex 0.0369012691 -0.00526449829 -0.00109751488
  vertex 0.0354941227 -0.00502373418 0.00384891708
  vertex 0.035333842 -0.00745144999 0.000724241429
  endloop
 endfacet

 facet normal 0 0 0
  outer loop
  vertex 0.0369012691 -0.00526449829 -0.00109751488
  vertex 0.035333842 -0.00745144999 0.000724241429
  vertex 0.035183385 -0.00647025881 -0.00293470663
  endloop
 endfacet

 facet normal 0 0 0
  outer loop
  vertex 0.0369012691 -0.00526449829 -0.00109751488
  vertex 0.035183385 -0.00647025881 -0.00293470663
  vertex 0.0364449322 -0.0024803367 -0.00362377451
  endloop
 endfacet

 facet normal 0 0 0
  outer loop
  vertex 0.0369012691 -0.00526449829 -0.00109751488
  vertex 0.0364449322 -0.0024803367 -0.00362377451
  vertex 0.0372546054 -0.00260612369 -1.00305779e-05
  endloop
 endfacet

 facet normal 0 0 0
  outer loop
  vertex -0.00489736162 0.00811143126 -0.00349998614
  vertex -0.0058209002 0.00656204112 -0.00350000011
  vertex -0.0058209016 0.00656204112 0.00152498926
  endloop
 endfacet

 facet normal 0 0 0
  outer loop
  vertex -0.00489736162 0.00811143126 -0.00349998614
  vertex -0.0058209016 0.00656204112 0.00152498926
  vertex -0.00489736442 0.00811143126 0.00350000919
  endloop
 endfacet

 facet normal 0 0 0
  outer loop
  vertex -0.00489736162 0.00811143126 -0.00349998614
  vertex -0.00489736442 0.00811143126 0.00350000919
  vertex 0.00430024229 0.0130041651 -0.00233765715
  endloop
 endfacet

 facet normal 0 0 0
  outer loop
  vertex -0.00489736162 0.00811143126 -0.00349998614
  vertex 0.00430024229 0.0130041651 -0.00233765715
  vertex 0.00422083447 0.00963293482 -0.00635203347
  endloop
 endfacet

 facet normal 0 0 0
  outer loop
  vertex -0.00489736162 0.00811143126 -0.00349998614
  vertex 0.00422083447 0.00963293482 -0.00635203347
  vertex -0.0058209002 0.00656204112 -0.00350000011
  endloop
 endfacet

 facet normal 0 0 0
  outer loop
  vertex 0.0328015536 -0.00734852999 0.00325975777
  vertex 0.0354941227 -0.00502373418 0.00384891708
  vertex 0.0283751059 -0.00569983292 0.00509121316
  endloop
 endfacet

 facet normal 0 0 0
  outer loop
  vertex 0.0328015536 -0.00734852999 0.00325975777
  vertex 0.031035617 -0.00847425312 0.00132822874
  vertex 0.035333842 -0.00745144999 0.000724241429
  endloop
 endfacet

 facet normal 0 0 0
  outer loop
  vertex 0.0328015536 -0.00734852999 0.00325975777
  vertex 0.035333842 -0.00745144999 0.000724241429
  vertex 0.0354941227 -0.00502373418 0.00384891708
  endloop
 endfacet

 facet normal 0 0 0
  outer loop
  vertex 0.0283691492 -0.00563911814 -0.00515797827
  vertex 0.0296843853 -0.00229568011 -0.0064352029
  vertex 0.0347792469 -0.00364650274 -0.00496397913
  endloop
 endfacet

 facet normal 0 0 0
  outer loop
  vertex 0.0283691492 -0.00563911814 -0.00515797827
  vertex 0.0347792469 -0.00364650274 -0.00496397913
  vertex 0.035183385 -0.00647025881 -0.00293470663
  endloop
 endfacet

 facet normal 0 0 0
  outer loop
  vertex 0.0283691492 -0.00563911814 -0.00515797827
  vertex 0.035183385 -0.00647025881 -0.00293470663
  vertex 0.0297539774 -0.00790844765 -0.00279218191
  endloop
 endfacet

 facet normal 0 0 0
  outer loop
  vertex 0.0335334204 -0.0080563128 -0.0017043869
  vertex 0.035183385 -0.00647025881 -0.00293470663
  vertex 0.035333842 -0.00745144999 0.000724241429
  endloop
 endfacet

 facet normal 0 0 0
  outer loop
  vertex 0.0335334204 -0.0080563128 -0.0017043869
  vertex 0.035333842 -0.00745144999 0.000724241429
  vertex 0.031035617 -0.00847425312 0.00132822874
  endloop
 endfacet

 facet normal 0 0 0
  outer loop
  vertex 0.0335334204 -0.0080563128 -0.0017043869
  vertex 0.031035617 -0.00847425312 0.00132822874
  vertex 0.0297539774 -0.00790844765 -0.00279218191
  endloop
 endfacet

 facet normal 0 0 0
  outer loop
  vertex 0.0335334204 -0.0080563128 -0.0017043869
  vertex 0.0297539774 -0.00790844765 -0.00279218191
  vertex 0.035183385 -0.00647025881 -0.00293470663
  endloop
 endfacet

 facet normal 0 0 0
  outer loop
  vertex 0.0127138179 0.00736153126 0.0061887973
  vertex 0.00427849358 0.0120808128 0.00429084525
  vertex 0.00416638842 0.00732125808 0.00699512986
  endloop
 endfacet

 facet normal 0 0 0
  outer loop
  vertex 0.0127138179 0.00736153126 0.0061887973
  vertex 0.00416638842 0.00732125808 0.00699512986
  vertex 0.0311476886 -0.000734450296 0.00627525058
  endloop
 endfacet

 facet normal 0 0 0
  outer loop
  vertex 0.0170678403 0.00684785238 -0.00530479522
  vertex 0.0182026848 0.00805438589 -0.00221827859
  vertex 0.0342357866 -0.000397317839 -0.00481637986
  endloop
 endfacet

 facet normal 0 0 0
  outer loop
  vertex 0.0170678403 0.00684785238 -0.00530479522
  vertex 0.0342357866 -0.000397317839 -0.00481637986
  vertex 0.0269039646 0.00119707733 -0.00653313939
  endloop
 endfacet

 facet normal 0 0 0
  outer loop
  vertex 0.0170678403 0.00684785238 -0.00530479522
  vertex 0.0269039646 0.00119707733 -0.00653313939
  vertex 0.00422083447 0.00963293482 -0.00635203347
  endloop
 endfacet

 facet normal 0 0 0
  outer loop
  vertex 0.0170678403 0.00684785238 -0.00530479522
  vertex 0.00422083447 0.00963293482 -0.00635203347
  vertex 0.00430024229 0.0130041651 -0.00233765715
  endloop
 endfacet

 facet normal 0 0 0
  outer loop
  vertex 0.0170678403 0.00684785238 -0.00530479522
  vertex 0.00430024229 0.0130041651 -0.00233765715
  vertex 0.0182026848 0.00805438589 -0.00221827859
  endloop
 endfacet

 facet normal 0 0 0
  outer loop
  vertex 0.00519550638 0.0129986349 0.0012978462
  vertex 0.00427849358 0.0120808128 0.00429084525
  vertex 0.0182026085 0.0080520194 0.00220580422
  endloop
 endfacet

 facet normal 0 0 0
  outer loop
  vertex 0.00519550638 0.0129986349 0.0012978462
  vertex 0.0182026085 0.0080520194 0.00220580422
  vertex 0.0182026848 0.00805438589 -0.00221827859
  endloop
 endfacet

 facet normal 0 0 0
  outer loop
  vertex 0.00519550638 0.0129986349 0.0012978462
  vertex 0.0182026848 0.00805438589 -0.00221827859
  vertex 0.00430024229 0.0130041651 -0.00233765715
  endloop
 endfacet

 facet normal 0 0 0
  outer loop
  vertex 0.00430024229 0.0130041651 -0.00233765715
  vertex -0.00489736442 0.00811143126 0.00350000919
  vertex 0.00427849358 0.0120808128 0.00429084525
  endloop
 endfacet

 facet normal 0 0 0
  outer loop
  vertex 0.00430024229 0.0130041651 -0.00233765715
  vertex 0.00427849358 0.0120808128 0.00429084525
  vertex 0.00519550638 0.0129986349 0.0012978462
  endloop
 endfacet

 facet normal 0 0 0
  outer loop
  vertex 0.0316001251 0.000719584234 0.0051876721
  vertex 0.0359114408 -0.00141771557 0.00400829269
  vertex 0.0369240865 -0.00110558106 -1.12148509e-05
  endloop
 endfacet

 facet normal 0 0 0
  outer loop
  vertex 0.0316001251 0.000719584234 0.0051876721
  vertex 0.0369240865 -0.00110558106 -1.12148509e-05
  vertex 0.0182026085 0.0080520194 0.00220580422
  endloop
 endfacet

 facet normal 0 0 0
  outer loop
  vertex 0.0182026085 0.0080520194 0.00220580422
  vertex 0.00427849358 0.0120808128 0.00429084525
  vertex 0.0127138179 0.00736153126 0.0061887973
  endloop
 endfacet

 facet normal 0 0 0
  outer loop
  vertex 0.0182026085 0.0080520194 0.00220580422
  vertex 0.0127138179 0.00736153126 0.0061887973
  vertex 0.0316001251 0.000719584234 0.0051876721
  endloop
 endfacet

 facet normal 0 0 0
  outer loop
  vertex 0.0316001251 0.000719584234 0.0051876721
  vertex 0.0127138179 0.00736153126 0.0061887973
  vertex 0.0311476886 -0.000734450296 0.00627525058
  endloop
 endfacet

 facet normal 0 0 0
  outer loop
  vertex 0.0316001251 0.000719584234 0.0051876721
  vertex 0.0311476886 -0.000734450296 0.00627525058
  vertex 0.0359114408 -0.00141771557 0.00400829269
  endloop
 endfacet

endsolid AssimpScene
