solid AssimpScene
 facet normal 0 0 0
  outer loop
  vertex 0.0333328061 -0.00475308159 0.00439659739
  vertex 0.0358338356 0.000896924699 0.00637267111
  vertex 0.00392150367 0.00212233467 0.00715612061
  endloop
 endfacet

 facet normal 0 0 0
  outer loop
  vertex 0.0333328061 -0.00475308159 0.00439659739
  vertex 0.00392150367 0.00212233467 0.00715612061
  vertex 0.00406687288 -0.0020611207 0.00578025822
  endloop
 endfacet

 facet normal 0 0 0
  outer loop
  vertex 0.0428744368 0.00128066284 -0.00136570772
  vertex 0.043567501 -0.00138059549 -8.79425806e-06
  vertex 0.0423457958 -0.000771779683 -0.00390175404
  endloop
 endfacet

 facet normal 0 0 0
  outer loop
  vertex 0.0333328061 -0.00475308159 0.00439659739
  vertex 0.0409696773 -0.00305719161 0.00405249931
  vertex 0.0358338356 0.000896924699 0.00637267111
  endloop
 endfacet

 facet normal 0 0 0
  outer loop
  vertex 0.0333338566 -0.00476083718 -0.00441500871
  vertex 0.0346024036 -0.000347939 -0.00643780502
  vertex 0.0406539962 -0.00458637672 -0.00300937635
  endloop
 endfacet

 facet normal 0 0 0
  outer loop
  vertex 0.0037455617 0.0071856631 0.00704486482
  vertex 0.0358338356 0.000896924699 0.00637267111
  vertex 0.0369016305 0.00227909791 0.00567121524
  endloop
 endfacet

 facet normal 0 0 0
  outer loop
  vertex 0.0037455617 0.0071856631 0.00704486482
  vertex 0.0369016305 0.00227909791 0.00567121524
  vertex 0.00361008896 0.0110843377 0.00557335559
  endloop
 endfacet

 facet normal 0 0 0
  outer loop
  vertex 0.00361008896 0.0110843377 0.00557335559
  vertex 0.00594040286 0.0119531211 0.00425979961
  vertex 0.00352628389 0.0134961307 0.000613322423
  endloop
 endfacet

 facet normal 0 0 0
  outer loop
  vertex -0.0041782409 -0.00135030656 -0.00350000453
  vertex -0.00182630203 -0.00366569031 -0.003499988
  vertex -0.00329605886 -0.00257872348 0.00350000267
  endloop
 endfacet

 facet normal 0 0 0
  outer loop
  vertex -0.0041782409 -0.00135030656 -0.00350000453
  vertex -0.00329605886 -0.00257872348 0.00350000267
  vertex -0.0061932588 0.00621182891 0.00350001385
  endloop
 endfacet

 facet normal 0 0 0
  outer loop
  vertex -0.0041782409 -0.00135030656 -0.00350000453
  vertex -0.0061932588 0.00621182891 0.00350001385
  vertex -0.00619325833 0.00621182891 -0.00350001245
  endloop
 endfacet

 facet normal 0 0 0
  outer loop
  vertex -0.0041782409 -0.00135030656 -0.00350000453
  vertex -0.00619325833 0.00621182891 -0.00350001245
  vertex 0.00392161822 0.00211909553 -0.00716546318
  endloop
 endfacet

 facet normal 0 0 0
  outer loop
  vertex 0.0215708353 0.00910459086 -7.14314774e-06
  vertex 0.0416735075 0.00155223976 0.00318015739
  vertex 0.0428744368 0.00128066284 -0.00136570772
  endloop
 endfacet

 facet normal 0 0 0
  outer loop
  vertex 0.0215708353 0.00910459086 -7.14314774e-06
  vertex 0.0428744368 0.00128066284 -0.00136570772
  vertex 0.0392614342 0.00218597171 -0.00453481218
  endloop
 endfacet

 facet normal 0 0 0
  outer loop
  vertex 0.0215708353 0.00910459086 -7.14314774e-06
  vertex 0.00352628389 0.0134961307 0.000613322423
  vertex 0.00594040286 0.0119531211 0.00425979961
  endloop
 endfacet

 facet normal 0 0 0
  outer loop
  vertex 0.0405812263 0.000286455994 0.00517514115
  vertex 0.0358338356 0.000896924699 0.00637267111
  vertex 0.0409696773 -0.00305719161 0.00405249931
  endloop
 endfacet

 facet normal 0 0 0
  outer loop
  vertex 0.00592903886 0.012281646 -0.00372648262
  vertex 0.00354806613 0.012869304 -0.00334570929
  vertex 0.00352628389 0.0134961307 0.000613322423
  endloop
 endfacet

 facet normal 0 0 0
  outer loop
  vertex 0.00592903886 0.012281646 -0.00372648262
  vertex 0.00352628389 0.0134961307 0.000613322423
  vertex 0.0215708353 0.00910459086 -7.14314774e-06
  endloop
 endfacet

 facet normal 0 0 0
  outer loop
  vertex 0.00592903886 0.012281646 -0.00372648262
  vertex 0.0215708353 0.00910459086 -7.14314774e-06
  vertex 0.0392614342 0.00218597171 -0.00453481218
  endloop
 endfacet

 facet normal 0 0 0
  outer loop
  vertex 0.00592903886 0.012281646 -0.00372648262
  vertex 0.0392614342 0.00218597171 -0.00453481218
  vertex 0.0296289939 0.00322687719 -0.00659387186
  endloop
 endfacet

 facet normal 0 0 0
  outer loop
  vertex 0.00592903886 0.012281646 -0.00372648262
  vertex 0.0296289939 0.00322687719 -0.00659387186
  vertex 0.00361428619 0.0109635545 -0.00567616709
  endloop
 endfacet

 facet normal 0 0 0
  outer loop
  vertex 0.0428858139 -0.00109879242 0.00304129627
  vertex 0.043567501 -0.00138059549 -8.79425806e-06
  vertex 0.0428744368 0.00128066284 -0.00136570772
  endloop
 endfacet

 facet normal 0 0 0
  outer loop
  vertex 0.0428858139 -0.00109879242 0.00304129627
  vertex 0.0428744368 0.00128066284 -0.00136570772
  vertex 0.0416735075 0.00155223976 0.00318015739
  endloop
 endfacet

 facet normal 0 0 0
  outer loop
  vertex 0.0428858139 -0.00109879242 0.00304129627
  vertex 0.0416735075 0.00155223976 0.00318015739
  vertex 0.0405812263 0.000286455994 0.00517514115
  endloop
 endfacet

 facet normal 0 0 0
  outer loop
  vertex 0.0428858139 -0.00109879242 0.00304129627
  vertex 0.0405812263 0.000286455994 0.00517514115
  vertex 0.0409696773 -0.00305719161 0.00405249931
  endloop
 endfacet

 facet normal 0 0 0
  outer loop
  vertex 0.0428858139 -0.00109879242 0.00304129627
  vertex 0.0409696773 -0.00305719161 0.00405249931
  vertex 0.0421088599 -0.00474891579 0.000705649552
  endloop
 endfacet

 facet normal 0 0 0
  outer loop
  vertex 0.0428858139 -0.00109879242 0.00304129627
  vertex 0.0421088599 -0.00474891579 0.000705649552
  vertex 0.043567501 -0.00138059549 -8.79425806e-06
  endloop
 endfacet

 facet normal 0 0 0
  outer loop
  vertex -0.00142050057 -0.00371836056 0.00350000826
  vertex 0.0365132056 -0.00655297656 0.00090064184
  vertex 0.0333328061 -0.00475308159 0.00439659739
  endloop
 endfacet

 facet normal 0 0 0
  outer loop
  vertex -0.00142050057 -0.00371836056 0.00350000826
  vertex 0.0333328061 -0.00475308159 0.00439659739
  vertex 0.00406687288 -0.0020611207 0.00578025822
  endloop
 endfacet

 facet normal 0 0 0
  outer loop
  vertex -0.00142050057 -0.00371836056 0.00350000826
  vertex 0.00406687288 -0.0020611207 0.00578025822
  vertex -0.00329605886 -0.00257872348 0.00350000267
  endloop
 endfacet

 facet normal 0 0 0
  outer loop
  vertex -0.00142050057 -0.00371836056 0.00350000826
  vertex -0.00329605886 -0.00257872348 0.00350000267
  vertex -0.00182630203 -0.00366569031 -0.003499988
  endloop
 endfacet

 facet normal 0 0 0
  outer loop
  vertex -0.00142050057 -0.00371836056 0.00350000826
  vertex -0.00182630203 -0.00366569031 -0.003499988
  vertex 0.0365132056 -0.00655297656 0.00090064184
  endloop
 endfacet

 facet normal 0 0 0
  outer loop
  vertex 0.00404433766 -0.00141265243 -0.00618359121
  vertex 0.00392161822 0.00211909553 -0.00716546318
  vertex 0.0346024036 -0.000347939 -0.00643780502
  endloop
 endfacet

 facet normal 0 0 0
  outer loop
  vertex 0.00404433766 -0.00141265243 -0.00618359121
  vertex 0.0346024036 -0.000347939 -0.00643780502
  vertex 0.0333338566 -0.00476083718 -0.00441500871
  endloop
 endfacet

 facet normal 0 0 0
  outer loop
  vertex 0.00404433766 -0.00141265243 -0.00618359121
  vertex 0.0333338566 -0.00476083718 -0.00441500871
  vertex -0.00182630203 -0.00366569031 -0.003499988
  endloop
 endfacet

 facet normal 0 0 0
  outer loop
  vertex 0.00404433766 -0.00141265243 -0.00618359121
  vertex -0.00182630203 -0.00366569031 -0.003499988
  vertex -0.0041782409 -0.00135030656 -0.00350000453
  endloop
 endfacet

 facet normal 0 0 0
  outer loop
  vertex 0.00404433766 -0.00141265243 -0.00618359121
  vertex -0.0041782409 -0.00135030656 -0.00350000453
  vertex 0.00392161822 0.00211909553 -0.00716546318
  endloop
 endfacet

 facet normal 0 0 0
  outer loop
  vertex 0.0369016305 0.00227909791 0.00567121524
  vertex 0.0358338356 0.000896924699 0.00637267111
  vertex 0.0405812263 0.000286455994 0.00517514115
  endloop
 endfacet

 facet normal 0 0 0
  outer loop
  vertex 0.0369016305 0.00227909791 0.00567121524
  vertex 0.0405812263 0.000286455994 0.00517514115
  vertex 0.0416735075 0.00155223976 0.00318015739
  endloop
 endfacet

 facet normal 0 0 0
  outer loop
  vertex 0.0369016305 0.00227909791 0.00567121524
  vertex 0.0416735075 0.00155223976 0.00318015739
  vertex 0.0215708353 0.00910459086 -7.14314774e-06
  endloop
 endfacet

 facet normal 0 0 0
  outer loop
  vertex 0.0369016305 0.00227909791 0.00567121524
  vertex 0.0215708353 0.00910459086 -7.14314774e-06
  vertex 0.00594040286 0.0119531211 0.00425979961
  endloop
 endfacet

 facet normal 0 0 0
  outer loop
  vertex 0.0369016305 0.00227909791 0.00567121524
  vertex 0.00594040286 0.0119531211 0.00425979961
  vertex 0.00361008896 0.0110843377 0.00557335559
  endloop
 endfacet

 facet normal 0 0 0
  outer loop
  vertex 0.00354806613 0.012869304 -0.00334570929
  vertex 0.00592903886 0.012281646 -0.00372648262
  vertex 0.00361428619 0.0109635545 -0.00567616709
  endloop
 endfacet

 facet normal 0 0 0
  outer loop
  vertex 0.00354806613 0.012869304 -0.00334570929
  vertex 0.00361428619 0.0109635545 -0.00567616709
  vertex -0.00457367208 0.00828246679 -0.00349999103
  endloop
 endfacet

 facet normal 0 0 0
  outer loop
  vertex 0.00354806613 0.012869304 -0.00334570929
  vertex -0.00457367208 0.00828246679 -0.00349999103
  vertex 0.00352628389 0.0134961307 0.000613322423
  endloop
 endfacet

 facet normal 0 0 0
  outer loop
  vertex 0.0399591327 0.000602382934 -0.00544721121
  vertex 0.0392614342 0.00218597171 -0.00453481218
  vertex 0.0428744368 0.00128066284 -0.00136570772
  endloop
 endfacet

 facet normal 0 0 0
  outer loop
  vertex 0.0399591327 0.000602382934 -0.00544721121
  vertex 0.0428744368 0.00128066284 -0.00136570772
  vertex 0.0423457958 -0.000771779683 -0.00390175404
  endloop
 endfacet

 facet normal 0 0 0
  outer loop
  vertex 0.0399591327 0.000602382934 -0.00544721121
  vertex 0.0423457958 -0.000771779683 -0.00390175404
  vertex 0.0406539962 -0.00458637672 -0.00300937635
  endloop
 endfacet

 facet normal 0 0 0
  outer loop
  vertex 0.0399591327 0.000602382934 -0.00544721121
  vertex 0.0406539962 -0.00458637672 -0.00300937635
  vertex 0.0346024036 -0.000347939 -0.00643780502
  endloop
 endfacet

 facet normal 0 0 0
  outer loop
  vertex 0.0399591327 0.000602382934 -0.00544721121
  vertex 0.0346024036 -0.000347939 -0.00643780502
  vertex 0.0296289939 0.00322687719 -0.00659387186
  endloop
 endfacet

 facet normal 0 0 0
  outer loop
  vertex 0.0399591327 0.000602382934 -0.00544721121
  vertex 0.0296289939 0.00322687719 -0.00659387186
  vertex 0.0392614342 0.00218597171 -0.00453481218
  endloop
 endfacet

 facet normal 0 0 0
  outer loop
  vertex -0.00536154397 0.00781238498 0.00349999312
  vertex -0.0061932588 0.00621182891 0.00350001385
  vertex 0.0037455617 0.0071856631 0.00704486482
  endloop
 endfacet

 facet normal 0 0 0
  outer loop
  vertex -0.00536154397 0.00781238498 0.00349999312
  vertex 0.0037455617 0.0071856631 0.00704486482
  vertex 0.00361008896 0.0110843377 0.00557335559
  endloop
 endfacet

 facet normal 0 0 0
  outer loop
  vertex -0.00536154397 0.00781238498 0.00349999312
  vertex 0.00361008896 0.0110843377 0.00557335559
  vertex 0.00352628389 0.0134961307 0.000613322423
  endloop
 endfacet

 facet normal 0 0 0
  outer loop
  vertex -0.00536154397 0.00781238498 0.00349999312
  vertex 0.00352628389 0.0134961307 0.000613322423
  vertex -0.00457367208 0.00828246679 -0.00349999103
  endloop
 endfacet

 facet normal 0 0 0
  outer loop
  vertex -0.00536154397 0.00781238498 0.00349999312
  vertex -0.00457367208 0.00828246679 -0.00349999103
  vertex -0.00619325833 0.00621182891 -0.00350001245
  endloop
 endfacet

 facet normal 0 0 0
  outer loop
  vertex -0.00536154397 0.00781238498 0.00349999312
  vertex -0.00619325833 0.00621182891 -0.00350001245
  vertex -0.0061932588 0.00621182891 0.00350001385
  endloop
 endfacet

 facet normal 0 0 0
  outer loop
  vertex 0.0429051965 -0.0032898637 -0.00178672781
  vertex 0.0423457958 -0.000771779683 -0.00390175404
  vertex 0.043567501 -0.00138059549 -8.79425806e-06
  endloop
 endfacet

 facet normal 0 0 0
  outer loop
  vertex 0.0429051965 -0.0032898637 -0.00178672781
  vertex 0.043567501 -0.00138059549 -8.79425806e-06
  vertex 0.0421088599 -0.00474891579 0.000705649552
  endloop
 endfacet

 facet normal 0 0 0
  outer loop
  vertex 0.0429051965 -0.0032898637 -0.00178672781
  vertex 0.0421088599 -0.00474891579 0.000705649552
  vertex 0.0406539962 -0.00458637672 -0.00300937635
  endloop
 endfacet

 facet normal 0 0 0
  outer loop
  vertex 0.0429051965 -0.0032898637 -0.00178672781
  vertex 0.0406539962 -0.00458637672 -0.00300937635
  vertex 0.0423457958 -0.000771779683 -0.00390175404
  endloop
 endfacet

 facet normal 0 0 0
  outer loop
  vertex 0.0372255035 -0.00631715497 -0.0017699973
  vertex 0.0365132056 -0.00655297656 0.00090064184
  vertex -0.00182630203 -0.00366569031 -0.003499988
  endloop
 endfacet

 facet normal 0 0 0
  outer loop
  vertex 0.0372255035 -0.00631715497 -0.0017699973
  vertex -0.00182630203 -0.00366569031 -0.003499988
  vertex 0.0333338566 -0.00476083718 -0.00441500871
  endloop
 endfacet

 facet normal 0 0 0
  outer loop
  vertex 0.0372255035 -0.00631715497 -0.0017699973
  vertex 0.0333338566 -0.00476083718 -0.00441500871
  vertex 0.0406539962 -0.00458637672 -0.00300937635
  endloop
 endfacet

 facet normal 0 0 0
  outer loop
  vertex 0.0372255035 -0.00631715497 -0.0017699973
  vertex 0.0406539962 -0.00458637672 -0.00300937635
  vertex 0.0421088599 -0.00474891579 0.000705649552
  endloop
 endfacet

 facet normal 0 0 0
  outer loop
  vertex 0.0372255035 -0.00631715497 -0.0017699973
  vertex 0.0421088599 -0.00474891579 0.000705649552
  vertex 0.0393635035 -0.00557294954 0.0024353927
  endloop
 endfacet

 facet normal 0 0 0
  outer loop
  vertex 0.0372255035 -0.00631715497 -0.0017699973
  vertex 0.0393635035 -0.00557294954 0.0024353927
  vertex 0.0365132056 -0.00655297656 0.00090064184
  endloop
 endfacet

 facet normal 0 0 0
  outer loop
  vertex 0.00392150367 0.00212233467 0.00715612061
  vertex 0.0358338356 0.000896924699 0.00637267111
  vertex 0.0037455617 0.0071856631 0.00704486482
  endloop
 endfacet

 facet normal 0 0 0
  outer loop
  vertex 0.00392150367 0.00212233467 0.00715612061
  vertex 0.0037455617 0.0071856631 0.00704486482
  vertex -0.0061932588 0.00621182891 0.00350001385
  endloop
 endfacet

 facet normal 0 0 0
  outer loop
  vertex 0.00392150367 0.00212233467 0.00715612061
  vertex -0.0061932588 0.00621182891 0.00350001385
  vertex -0.00329605886 -0.00257872348 0.00350000267
  endloop
 endfacet

 facet normal 0 0 0
  outer loop
  vertex 0.00392150367 0.00212233467 0.00715612061
  vertex -0.00329605886 -0.00257872348 0.00350000267
  vertex 0.00406687288 -0.0020611207 0.00578025822
  endloop
 endfacet

 facet normal 0 0 0
  outer loop
  vertex 0.0393635035 -0.00557294954 0.0024353927
  vertex 0.0421088599 -0.00474891579 0.000705649552
  vertex 0.0409696773 -0.00305719161 0.00405249931
  endloop
 endfacet

 facet normal 0 0 0
  outer loop
  vertex 0.0393635035 -0.00557294954 0.0024353927
  vertex 0.0409696773 -0.00305719161 0.00405249931
  vertex 0.0333328061 -0.00475308159 0.00439659739
  endloop
 endfacet

 facet normal 0 0 0
  outer loop
  vertex 0.0393635035 -0.00557294954 0.0024353927
  vertex 0.0333328061 -0.00475308159 0.00439659739
  vertex 0.0365132056 -0.00655297656 0.00090064184
  endloop
 endfacet

 facet normal 0 0 0
  outer loop
  vertex 0.00373062096 0.00761567382 -0.00699747493
  vertex 0.00361428619 0.0109635545 -0.00567616709
  vertex 0.0296289939 0.00322687719 -0.00659387186
  endloop
 endfacet

 facet normal 0 0 0
  outer loop
  vertex 0.00373062096 0.00761567382 -0.00699747493
  vertex 0.0296289939 0.00322687719 -0.00659387186
  vertex 0.0346024036 -0.000347939 -0.00643780502
  endloop
 endfacet

 facet normal 0 0 0
  outer loop
  vertex 0.00373062096 0.00761567382 -0.00699747493
  vertex 0.0346024036 -0.000347939 -0.00643780502
  vertex 0.00392161822 0.00211909553 -0.00716546318
  endloop
 endfacet

 facet normal 0 0 0
  outer loop
  vertex 0.00373062096 0.00761567382 -0.00699747493
  vertex 0.00392161822 0.00211909553 -0.00716546318
  vertex -0.00619325833 0.00621182891 -0.00350001245
  endloop
 endfacet

 facet normal 0 0 0
  outer loop
  vertex 0.00373062096 0.00761567382 -0.00699747493
  vertex -0.00619325833 0.00621182891 -0.00350001245
  vertex -0.00457367208 0.00828246679 -0.00349999103
  endloop
 endfacet

 facet normal 0 0 0
  outer loop
  vertex 0.00373062096 0.00761567382 -0.00699747493
  vertex -0.00457367208 0.00828246679 -0.00349999103
  vertex 0.00361428619 0.0109635545 -0.00567616709
  endloop
 endfacet

endsolid AssimpScene
