solid AssimpScene
 facet normal 0 0 0
  outer loop
  vertex -0.00643468928 0.00622451538 0.00349999615
  vertex -0.00317361206 -0.00272800284 0.00349999615
  vertex 0.00408165809 -0.000934263342 0.00631911727
  endloop
 endfacet

 facet normal 0 0 0
  outer loop
  vertex -0.00643468928 0.00622451538 0.00349999615
  vertex 0.00408165809 -0.000934263342 0.00631911727
  vertex 0.0033386189 0.00823335443 0.00690640183
  endloop
 endfacet

 facet normal 0 0 0
  outer loop
  vertex 0.0033386189 0.00823335443 0.00690640183
  vertex 0.00408165809 -0.000934263342 0.00631911727
  vertex 0.0431645848 0.00359652797 0.00620419951
  endloop
 endfacet

 facet normal 0 0 0
  outer loop
  vertex 0.00384512218 0.00198411266 -0.00712688593
  vertex -0.00643468928 0.00622451538 -0.0035000029
  vertex 0.00317395548 0.0102649741 -0.0062281373
  endloop
 endfacet

 facet normal 0 0 0
  outer loop
  vertex 0.00291449996 0.0134661393 -0.00198744563
  vertex 0.00317395548 0.0102649741 -0.0062281373
  vertex -0.00643468928 0.00622451538 -0.0035000029
  endloop
 endfacet

 facet normal 0 0 0
  outer loop
  vertex -0.00643468928 0.00622451538 0.00349999615
  vertex 0.00291923084 0.013407765 0.00223250361
  vertex 0.00291449996 0.0134661393 -0.00198744563
  endloop
 endfacet

 facet normal 0 0 0
  outer loop
  vertex -0.00643468928 0.00622451538 0.00349999615
  vertex 0.00291449996 0.0134661393 -0.00198744563
  vertex -0.00643468928 0.00622451538 -0.0035000029
  endloop
 endfacet

 facet normal 0 0 0
  outer loop
  vertex 0.0393198058 -0.00183552958 0.00510763889
  vertex 0.0493718758 -0.000204213706 0.0038763911
  vertex 0.0431645848 0.00359652797 0.00620419951
  endloop
 endfacet

 facet normal 0 0 0
  outer loop
  vertex 0.0393198058 -0.00183552958 0.00510763889
  vertex 0.0431645848 0.00359652797 0.00620419951
  vertex 0.00408165809 -0.000934263342 0.00631911727
  endloop
 endfacet

 facet normal 0 0 0
  outer loop
  vertex 0.0486977957 0.00297158887 0.00485865446
  vertex 0.0431645848 0.00359652797 0.00620419951
  vertex 0.0493718758 -0.000204213706 0.0038763911
  endloop
 endfacet

 facet normal 0 0 0
  outer loop
  vertex 0.0415379666 -0.00387155544 -0.00277234451
  vertex 0.0434198938 -0.00424255198 0.00135077327
  vertex -0.00165528397 -0.0037460227 -0.0035000029
  endloop
 endfacet

 facet normal 0 0 0
  outer loop
  vertex -0.00411151256 -0.00154158182 -0.0035000029
  vertex -0.00317361206 -0.00272800284 0.00349999615
  vertex -0.00643468928 0.00622451538 0.00349999615
  endloop
 endfacet

 facet normal 0 0 0
  outer loop
  vertex -0.00411151256 -0.00154158182 -0.0035000029
  vertex -0.00643468928 0.00622451538 0.00349999615
  vertex -0.00643468928 0.00622451538 -0.0035000029
  endloop
 endfacet

 facet normal 0 0 0
  outer loop
  vertex -0.00411151256 -0.00154158182 -0.0035000029
  vertex -0.00643468928 0.00622451538 -0.0035000029
  vertex 0.00384512218 0.00198411266 -0.00712688593
  endloop
 endfacet

 facet normal 0 0 0
  outer loop
  vertex -0.00411151256 -0.00154158182 -0.0035000029
  vertex 0.00384512218 0.00198411266 -0.00712688593
  vertex 0.00412955228 -0.00152518332 -0.00601436524
  endloop
 endfacet

 facet normal 0 0 0
  outer loop
  vertex -0.00411151256 -0.00154158182 -0.0035000029
  vertex 0.00412955228 -0.00152518332 -0.00601436524
  vertex -0.00165528397 -0.0037460227 -0.0035000029
  endloop
 endfacet

 facet normal 0 0 0
  outer loop
  vertex -0.00411151256 -0.00154158182 -0.0035000029
  vertex -0.00165528397 -0.0037460227 -0.0035000029
  vertex -0.00317361206 -0.00272800284 0.00349999615
  endloop
 endfacet

 facet normal 0 0 0
  outer loop
  vertex 0.0510227159 0.00364234764 -0.00179539958
  vertex 0.0500389226 0.00409231847 0.00219307514
  vertex 0.0510187559 0.00165887456 0.00290243002
  endloop
 endfacet

 facet normal 0 0 0
  outer loop
  vertex 0.0510227159 0.00364234764 -0.00179539958
  vertex 0.0510187559 0.00165887456 0.00290243002
  vertex 0.0517537855 0.00152690709 -9.58479177e-06
  endloop
 endfacet

 facet normal 0 0 0
  outer loop
  vertex 0.0510227159 0.00364234764 -0.00179539958
  vertex 0.0517537855 0.00152690709 -9.58479177e-06
  vertex 0.050397478 0.00191597221 -0.00377171068
  endloop
 endfacet

 facet normal 0 0 0
  outer loop
  vertex 0.0510227159 0.00364234764 -0.00179539958
  vertex 0.050397478 0.00191597221 -0.00377171068
  vertex 0.0473701246 0.00420004595 -0.00470914273
  endloop
 endfacet

 facet normal 0 0 0
  outer loop
  vertex 0.0510227159 0.00364234764 -0.00179539958
  vertex 0.0473701246 0.00420004595 -0.00470914273
  vertex 0.024861386 0.0100787282 -0.00218887953
  endloop
 endfacet

 facet normal 0 0 0
  outer loop
  vertex -0.00120895437 -0.00378098199 0.00349999615
  vertex 0.0434198938 -0.00424255198 0.00135077327
  vertex 0.0393198058 -0.00183552958 0.00510763889
  endloop
 endfacet

 facet normal 0 0 0
  outer loop
  vertex -0.00120895437 -0.00378098199 0.00349999615
  vertex 0.0393198058 -0.00183552958 0.00510763889
  vertex 0.00408165809 -0.000934263342 0.00631911727
  endloop
 endfacet

 facet normal 0 0 0
  outer loop
  vertex -0.00120895437 -0.00378098199 0.00349999615
  vertex 0.00408165809 -0.000934263342 0.00631911727
  vertex -0.00317361206 -0.00272800284 0.00349999615
  endloop
 endfacet

 facet normal 0 0 0
  outer loop
  vertex -0.00120895437 -0.00378098199 0.00349999615
  vertex -0.00317361206 -0.00272800284 0.00349999615
  vertex -0.00165528397 -0.0037460227 -0.0035000029
  endloop
 endfacet

 facet normal 0 0 0
  outer loop
  vertex -0.00120895437 -0.00378098199 0.00349999615
  vertex -0.00165528397 -0.0037460227 -0.0035000029
  vertex 0.0434198938 -0.00424255198 0.00135077327
  endloop
 endfacet

 facet normal 0 0 0
  outer loop
  vertex 0.0248615481 0.0100762146 0.00217614742
  vertex 0.0500389226 0.00409231847 0.00219307514
  vertex 0.0510227159 0.00364234764 -0.00179539958
  endloop
 endfacet

 facet normal 0 0 0
  outer loop
  vertex 0.0248615481 0.0100762146 0.00217614742
  vertex 0.0510227159 0.00364234764 -0.00179539958
  vertex 0.024861386 0.0100787282 -0.00218887953
  endloop
 endfacet

 facet normal 0 0 0
  outer loop
  vertex 0.024861386 0.0100787282 -0.00218887953
  vertex 0.00291449996 0.0134661393 -0.00198744563
  vertex 0.00291923084 0.013407765 0.00223250361
  endloop
 endfacet

 facet normal 0 0 0
  outer loop
  vertex 0.024861386 0.0100787282 -0.00218887953
  vertex 0.00291923084 0.013407765 0.00223250361
  vertex 0.0248615481 0.0100762146 0.00217614742
  endloop
 endfacet

 facet normal 0 0 0
  outer loop
  vertex 0.00384512218 0.00198411266 -0.00712688593
  vertex 0.0411066078 0.00178236992 -0.00642432598
  vertex 0.0393156745 -0.00182059279 -0.00514382217
  endloop
 endfacet

 facet normal 0 0 0
  outer loop
  vertex 0.00384512218 0.00198411266 -0.00712688593
  vertex 0.0393156745 -0.00182059279 -0.00514382217
  vertex 0.00412955228 -0.00152518332 -0.00601436524
  endloop
 endfacet

 facet normal 0 0 0
  outer loop
  vertex 0.00412955228 -0.00152518332 -0.00601436524
  vertex 0.0393156745 -0.00182059279 -0.00514382217
  vertex 0.0415379666 -0.00387155544 -0.00277234451
  endloop
 endfacet

 facet normal 0 0 0
  outer loop
  vertex 0.00412955228 -0.00152518332 -0.00601436524
  vertex 0.0415379666 -0.00387155544 -0.00277234451
  vertex -0.00165528397 -0.0037460227 -0.0035000029
  endloop
 endfacet

 facet normal 0 0 0
  outer loop
  vertex 0.0349481441 0.00483537838 -0.00664969115
  vertex 0.0473701246 0.00420004595 -0.00470914273
  vertex 0.0411066078 0.00178236992 -0.00642432598
  endloop
 endfacet

 facet normal 0 0 0
  outer loop
  vertex 0.0349481441 0.00483537838 -0.00664969115
  vertex 0.0411066078 0.00178236992 -0.00642432598
  vertex 0.00384512218 0.00198411266 -0.00712688593
  endloop
 endfacet

 facet normal 0 0 0
  outer loop
  vertex 0.0349481441 0.00483537838 -0.00664969115
  vertex 0.00384512218 0.00198411266 -0.00712688593
  vertex 0.00317395548 0.0102649741 -0.0062281373
  endloop
 endfacet

 facet normal 0 0 0
  outer loop
  vertex 0.0510187559 0.00165887456 0.00290243002
  vertex 0.0500389226 0.00409231847 0.00219307514
  vertex 0.0486977957 0.00297158887 0.00485865446
  endloop
 endfacet

 facet normal 0 0 0
  outer loop
  vertex 0.0510187559 0.00165887456 0.00290243002
  vertex 0.0486977957 0.00297158887 0.00485865446
  vertex 0.0493718758 -0.000204213706 0.0038763911
  endloop
 endfacet

 facet normal 0 0 0
  outer loop
  vertex 0.0510187559 0.00165887456 0.00290243002
  vertex 0.0493718758 -0.000204213706 0.0038763911
  vertex 0.0506963916 -0.00165631447 0.000658070901
  endloop
 endfacet

 facet normal 0 0 0
  outer loop
  vertex 0.0510187559 0.00165887456 0.00290243002
  vertex 0.0506963916 -0.00165631447 0.000658070901
  vertex 0.0517537855 0.00152690709 -9.58479177e-06
  endloop
 endfacet

 facet normal 0 0 0
  outer loop
  vertex 0.00291923084 0.013407765 0.00223250361
  vertex 0.00425833231 0.0127452798 0.00373826595
  vertex 0.0248615481 0.0100762146 0.00217614742
  endloop
 endfacet

 facet normal 0 0 0
  outer loop
  vertex 0.00308411615 0.0113734109 0.00546274753
  vertex 0.00425833231 0.0127452798 0.00373826595
  vertex 0.00291923084 0.013407765 0.00223250361
  endloop
 endfacet

 facet normal 0 0 0
  outer loop
  vertex 0.00308411615 0.0113734109 0.00546274753
  vertex 0.00291923084 0.013407765 0.00223250361
  vertex -0.00643468928 0.00622451538 0.00349999615
  endloop
 endfacet

 facet normal 0 0 0
  outer loop
  vertex 0.00308411615 0.0113734109 0.00546274753
  vertex -0.00643468928 0.00622451538 0.00349999615
  vertex 0.0033386189 0.00823335443 0.00690640183
  endloop
 endfacet

 facet normal 0 0 0
  outer loop
  vertex 0.00308411615 0.0113734109 0.00546274753
  vertex 0.0033386189 0.00823335443 0.00690640183
  vertex 0.0431645848 0.00359652797 0.00620419951
  endloop
 endfacet

 facet normal 0 0 0
  outer loop
  vertex 0.0478377789 -0.00341685279 -0.000835330458
  vertex 0.0434198938 -0.00424255198 0.00135077327
  vertex 0.0415379666 -0.00387155544 -0.00277234451
  endloop
 endfacet

 facet normal 0 0 0
  outer loop
  vertex 0.0478377789 -0.00341685279 -0.000835330458
  vertex 0.0415379666 -0.00387155544 -0.00277234451
  vertex 0.0483361557 -0.00207837927 -0.00304981251
  endloop
 endfacet

 facet normal 0 0 0
  outer loop
  vertex 0.0510158762 -0.000669447123 -0.00181944459
  vertex 0.050397478 0.00191597221 -0.00377171068
  vertex 0.0517537855 0.00152690709 -9.58479177e-06
  endloop
 endfacet

 facet normal 0 0 0
  outer loop
  vertex 0.0510158762 -0.000669447123 -0.00181944459
  vertex 0.0517537855 0.00152690709 -9.58479177e-06
  vertex 0.0506963916 -0.00165631447 0.000658070901
  endloop
 endfacet

 facet normal 0 0 0
  outer loop
  vertex 0.0510158762 -0.000669447123 -0.00181944459
  vertex 0.0506963916 -0.00165631447 0.000658070901
  vertex 0.0478377789 -0.00341685279 -0.000835330458
  endloop
 endfacet

 facet normal 0 0 0
  outer loop
  vertex 0.0510158762 -0.000669447123 -0.00181944459
  vertex 0.0478377789 -0.00341685279 -0.000835330458
  vertex 0.0483361557 -0.00207837927 -0.00304981251
  endloop
 endfacet

 facet normal 0 0 0
  outer loop
  vertex 0.0510158762 -0.000669447123 -0.00181944459
  vertex 0.0483361557 -0.00207837927 -0.00304981251
  vertex 0.050397478 0.00191597221 -0.00377171068
  endloop
 endfacet

 facet normal 0 0 0
  outer loop
  vertex 0.0476800688 -0.00288292975 0.00238419883
  vertex 0.0434198938 -0.00424255198 0.00135077327
  vertex 0.0478377789 -0.00341685279 -0.000835330458
  endloop
 endfacet

 facet normal 0 0 0
  outer loop
  vertex 0.0476800688 -0.00288292975 0.00238419883
  vertex 0.0478377789 -0.00341685279 -0.000835330458
  vertex 0.0506963916 -0.00165631447 0.000658070901
  endloop
 endfacet

 facet normal 0 0 0
  outer loop
  vertex 0.0476800688 -0.00288292975 0.00238419883
  vertex 0.0506963916 -0.00165631447 0.000658070901
  vertex 0.0493718758 -0.000204213706 0.0038763911
  endloop
 endfacet

 facet normal 0 0 0
  outer loop
  vertex 0.0476800688 -0.00288292975 0.00238419883
  vertex 0.0493718758 -0.000204213706 0.0038763911
  vertex 0.0393198058 -0.00183552958 0.00510763889
  endloop
 endfacet

 facet normal 0 0 0
  outer loop
  vertex 0.0476800688 -0.00288292975 0.00238419883
  vertex 0.0393198058 -0.00183552958 0.00510763889
  vertex 0.0434198938 -0.00424255198 0.00135077327
  endloop
 endfacet

 facet normal 0 0 0
  outer loop
  vertex 0.0469021387 0.000867191353 -0.00532590179
  vertex 0.0411066078 0.00178236992 -0.00642432598
  vertex 0.0473701246 0.00420004595 -0.00470914273
  endloop
 endfacet

 facet normal 0 0 0
  outer loop
  vertex 0.0469021387 0.000867191353 -0.00532590179
  vertex 0.0473701246 0.00420004595 -0.00470914273
  vertex 0.050397478 0.00191597221 -0.00377171068
  endloop
 endfacet

 facet normal 0 0 0
  outer loop
  vertex 0.0469021387 0.000867191353 -0.00532590179
  vertex 0.050397478 0.00191597221 -0.00377171068
  vertex 0.0483361557 -0.00207837927 -0.00304981251
  endloop
 endfacet

 facet normal 0 0 0
  outer loop
  vertex 0.0393156745 -0.00182059279 -0.00514382217
  vertex 0.0411066078 0.00178236992 -0.00642432598
  vertex 0.0469021387 0.000867191353 -0.00532590179
  endloop
 endfacet

 facet normal 0 0 0
  outer loop
  vertex 0.0393156745 -0.00182059279 -0.00514382217
  vertex 0.0469021387 0.000867191353 -0.00532590179
  vertex 0.0483361557 -0.00207837927 -0.00304981251
  endloop
 endfacet

 facet normal 0 0 0
  outer loop
  vertex 0.0393156745 -0.00182059279 -0.00514382217
  vertex 0.0483361557 -0.00207837927 -0.00304981251
  vertex 0.0415379666 -0.00387155544 -0.00277234451
  endloop
 endfacet

 facet normal 0 0 0
  outer loop
  vertex 0.0448950641 0.00477630645 0.00491581531
  vertex 0.0500389226 0.00409231847 0.00219307514
  vertex 0.0248615481 0.0100762146 0.00217614742
  endloop
 endfacet

 facet normal 0 0 0
  outer loop
  vertex 0.0448950641 0.00477630645 0.00491581531
  vertex 0.0248615481 0.0100762146 0.00217614742
  vertex 0.00425833231 0.0127452798 0.00373826595
  endloop
 endfacet

 facet normal 0 0 0
  outer loop
  vertex 0.0448950641 0.00477630645 0.00491581531
  vertex 0.00425833231 0.0127452798 0.00373826595
  vertex 0.00308411615 0.0113734109 0.00546274753
  endloop
 endfacet

 facet normal 0 0 0
  outer loop
  vertex 0.0448950641 0.00477630645 0.00491581531
  vertex 0.00308411615 0.0113734109 0.00546274753
  vertex 0.0431645848 0.00359652797 0.00620419951
  endloop
 endfacet

 facet normal 0 0 0
  outer loop
  vertex 0.0448950641 0.00477630645 0.00491581531
  vertex 0.0431645848 0.00359652797 0.00620419951
  vertex 0.0486977957 0.00297158887 0.00485865446
  endloop
 endfacet

 facet normal 0 0 0
  outer loop
  vertex 0.0448950641 0.00477630645 0.00491581531
  vertex 0.0486977957 0.00297158887 0.00485865446
  vertex 0.0500389226 0.00409231847 0.00219307514
  endloop
 endfacet

 facet normal 0 0 0
  outer loop
  vertex 0.0218327157 0.0090398062 -0.00530188112
  vertex 0.024861386 0.0100787282 -0.00218887953
  vertex 0.0473701246 0.00420004595 -0.00470914273
  endloop
 endfacet

 facet normal 0 0 0
  outer loop
  vertex 0.0218327157 0.0090398062 -0.00530188112
  vertex 0.0473701246 0.00420004595 -0.00470914273
  vertex 0.0349481441 0.00483537838 -0.00664969115
  endloop
 endfacet

 facet normal 0 0 0
  outer loop
  vertex 0.0218327157 0.0090398062 -0.00530188112
  vertex 0.0349481441 0.00483537838 -0.00664969115
  vertex 0.00317395548 0.0102649741 -0.0062281373
  endloop
 endfacet

 facet normal 0 0 0
  outer loop
  vertex 0.0218327157 0.0090398062 -0.00530188112
  vertex 0.00317395548 0.0102649741 -0.0062281373
  vertex 0.00291449996 0.0134661393 -0.00198744563
  endloop
 endfacet

 facet normal 0 0 0
  outer loop
  vertex 0.0218327157 0.0090398062 -0.00530188112
  vertex 0.00291449996 0.0134661393 -0.00198744563
  vertex 0.024861386 0.0100787282 -0.00218887953
  endloop
 endfacet

endsolid AssimpScene
