solid AssimpScene
 facet normal 0 0 0
  outer loop
  vertex 0.0332737043 -0.00515053468 0.00439659739
  vertex 0.0358419903 0.000469222257 0.00637267111
  vertex 0.00394655205 0.00207538437 0.00715612061
  endloop
 endfacet

 facet normal 0 0 0
  outer loop
  vertex 0.0332737043 -0.00515053468 0.00439659739
  vertex 0.00394655205 0.00207538437 0.00715612061
  vertex 0.00404198561 -0.0021095078 0.00578025822
  endloop
 endfacet

 facet normal 0 0 0
  outer loop
  vertex 0.0428866632 0.000768911152 -0.00136570772
  vertex 0.0435479172 -0.00190042867 -8.79425716e-06
  vertex 0.0423335657 -0.00127707643 -0.00390175404
  endloop
 endfacet

 facet normal 0 0 0
  outer loop
  vertex 0.0332737043 -0.00515053468 0.00439659739
  vertex 0.0409302749 -0.0035459029 0.00405249931
  vertex 0.0358419903 0.000469222257 0.00637267111
  endloop
 endfacet

 facet normal 0 0 0
  outer loop
  vertex 0.0332746655 -0.00515830191 -0.00441500871
  vertex 0.0345957875 -0.000760856841 -0.00643780502
  vertex 0.0405963622 -0.00507121207 -0.00300937635
  endloop
 endfacet

 facet normal 0 0 0
  outer loop
  vertex 0.00383104803 0.00714045204 0.00704486482
  vertex 0.0358419903 0.000469222257 0.00637267111
  vertex 0.0369261988 0.00183855405 0.00567121524
  endloop
 endfacet

 facet normal 0 0 0
  outer loop
  vertex 0.00383104803 0.00714045204 0.00704486482
  vertex 0.0369261988 0.00183855405 0.00567121524
  vertex 0.00374211185 0.011040464 0.00557335559
  endloop
 endfacet

 facet normal 0 0 0
  outer loop
  vertex 0.00374211185 0.011040464 0.00557335559
  vertex 0.00608262699 0.0118813775 0.00425979961
  vertex 0.00368709466 0.0134530878 0.000613322423
  endloop
 endfacet

 facet normal 0 0 0
  outer loop
  vertex -0.00419405801 -0.0013003475 -0.00350000453
  vertex -0.00186991796 -0.00364363403 -0.003499988
  vertex -0.00332659809 -0.0025392049 0.00350000267
  endloop
 endfacet

 facet normal 0 0 0
  outer loop
  vertex -0.00419405801 -0.0013003475 -0.00350000453
  vertex -0.00332659809 -0.0025392049 0.00350000267
  vertex -0.00611868594 0.00628529675 0.00350001385
  endloop
 endfacet

 facet normal 0 0 0
  outer loop
  vertex -0.00419405801 -0.0013003475 -0.00350000453
  vertex -0.00611868594 0.00628529675 0.00350001385
  vertex -0.00611868547 0.00628529675 -0.00350001245
  endloop
 endfacet

 facet normal 0 0 0
  outer loop
  vertex -0.00419405801 -0.0013003475 -0.00350000453
  vertex -0.00611868547 0.00628529675 -0.00350001245
  vertex 0.00394662749 0.00207214407 -0.00716546318
  endloop
 endfacet

 facet normal 0 0 0
  outer loop
  vertex 0.0216779523 0.00884651765 -7.14314592e-06
  vertex 0.0416890606 0.00105480046 0.00318015739
  vertex 0.0428866632 0.000768911152 -0.00136570772
  endloop
 endfacet

 facet normal 0 0 0
  outer loop
  vertex 0.0216779523 0.00884651765 -7.14314592e-06
  vertex 0.0428866632 0.000768911152 -0.00136570772
  vertex 0.039284721 0.00171727268 -0.00453481218
  endloop
 endfacet

 facet normal 0 0 0
  outer loop
  vertex 0.0216779523 0.00884651765 -7.14314592e-06
  vertex 0.00368709466 0.0134530878 0.000613322423
  vertex 0.00608262699 0.0118813775 0.00425979961
  endloop
 endfacet

 facet normal 0 0 0
  outer loop
  vertex 0.0405817516 -0.000197857938 0.00517514115
  vertex 0.0358419903 0.000469222257 0.00637267111
  vertex 0.0409302749 -0.0035459029 0.00405249931
  endloop
 endfacet

 facet normal 0 0 0
  outer loop
  vertex 0.00607518479 0.0122100143 -0.00372648262
  vertex 0.00370139466 0.012826046 -0.00334570929
  vertex 0.00368709466 0.0134530878 0.000613322423
  endloop
 endfacet

 facet normal 0 0 0
  outer loop
  vertex 0.00607518479 0.0122100143 -0.00372648262
  vertex 0.00368709466 0.0134530878 0.000613322423
  vertex 0.0216779523 0.00884651765 -7.14314592e-06
  endloop
 endfacet

 facet normal 0 0 0
  outer loop
  vertex 0.00607518479 0.0122100143 -0.00372648262
  vertex 0.0216779523 0.00884651765 -7.14314592e-06
  vertex 0.039284721 0.00171727268 -0.00453481218
  endloop
 endfacet

 facet normal 0 0 0
  outer loop
  vertex 0.00607518479 0.0122100143 -0.00372648262
  vertex 0.039284721 0.00171727268 -0.00453481218
  vertex 0.0296653938 0.00287305703 -0.00659387186
  endloop
 endfacet

 facet normal 0 0 0
  outer loop
  vertex 0.00607518479 0.0122100143 -0.00372648262
  vertex 0.0296653938 0.00287305703 -0.00659387186
  vertex 0.00374486716 0.0109196408 -0.00567616709
  endloop
 endfacet

 facet normal 0 0 0
  outer loop
  vertex 0.0428696461 -0.00161051052 0.00304129627
  vertex 0.0435479172 -0.00190042867 -8.79425716e-06
  vertex 0.0428866632 0.000768911152 -0.00136570772
  endloop
 endfacet

 facet normal 0 0 0
  outer loop
  vertex 0.0428696461 -0.00161051052 0.00304129627
  vertex 0.0428866632 0.000768911152 -0.00136570772
  vertex 0.0416890606 0.00105480046 0.00318015739
  endloop
 endfacet

 facet normal 0 0 0
  outer loop
  vertex 0.0428696461 -0.00161051052 0.00304129627
  vertex 0.0416890606 0.00105480046 0.00318015739
  vertex 0.0405817516 -0.000197857938 0.00517514115
  endloop
 endfacet

 facet normal 0 0 0
  outer loop
  vertex 0.0428696461 -0.00161051052 0.00304129627
  vertex 0.0405817516 -0.000197857938 0.00517514115
  vertex 0.0409302749 -0.0035459029 0.00405249931
  endloop
 endfacet

 facet normal 0 0 0
  outer loop
  vertex 0.0428696461 -0.00161051052 0.00304129627
  vertex 0.0409302749 -0.0035459029 0.00405249931
  vertex 0.0420491882 -0.00525110168 0.000705649552
  endloop
 endfacet

 facet normal 0 0 0
  outer loop
  vertex 0.0428696461 -0.00161051052 0.00304129627
  vertex 0.0420491882 -0.00525110168 0.000705649552
  vertex 0.0435479172 -0.00190042867 -8.79425716e-06
  endloop
 endfacet

 facet normal 0 0 0
  outer loop
  vertex -0.0014647739 -0.0037011432 0.00350000826
  vertex 0.0364324003 -0.00698825577 0.000900641899
  vertex 0.0332737043 -0.00515053468 0.00439659739
  endloop
 endfacet

 facet normal 0 0 0
  outer loop
  vertex -0.0014647739 -0.0037011432 0.00350000826
  vertex 0.0332737043 -0.00515053468 0.00439659739
  vertex 0.00404198561 -0.0021095078 0.00578025822
  endloop
 endfacet

 facet normal 0 0 0
  outer loop
  vertex -0.0014647739 -0.0037011432 0.00350000826
  vertex 0.00404198561 -0.0021095078 0.00578025822
  vertex -0.00332659809 -0.0025392049 0.00350000267
  endloop
 endfacet

 facet normal 0 0 0
  outer loop
  vertex -0.0014647739 -0.0037011432 0.00350000826
  vertex -0.00332659809 -0.0025392049 0.00350000267
  vertex -0.00186991796 -0.00364363403 -0.003499988
  endloop
 endfacet

 facet normal 0 0 0
  outer loop
  vertex -0.0014647739 -0.0037011432 0.00350000826
  vertex -0.00186991796 -0.00364363403 -0.003499988
  vertex 0.0364324003 -0.00698825577 0.000900641899
  endloop
 endfacet

 facet normal 0 0 0
  outer loop
  vertex 0.00402719108 -0.00146081636 -0.00618359121
  vertex 0.00394662749 0.00207214407 -0.00716546318
  vertex 0.0345957875 -0.000760856841 -0.00643780502
  endloop
 endfacet

 facet normal 0 0 0
  outer loop
  vertex 0.00402719108 -0.00146081636 -0.00618359121
  vertex 0.0345957875 -0.000760856841 -0.00643780502
  vertex 0.0332746655 -0.00515830191 -0.00441500871
  endloop
 endfacet

 facet normal 0 0 0
  outer loop
  vertex 0.00402719108 -0.00146081636 -0.00618359121
  vertex 0.0332746655 -0.00515830191 -0.00441500871
  vertex -0.00186991796 -0.00364363403 -0.003499988
  endloop
 endfacet

 facet normal 0 0 0
  outer loop
  vertex 0.00402719108 -0.00146081636 -0.00618359121
  vertex -0.00186991796 -0.00364363403 -0.003499988
  vertex -0.00419405801 -0.0013003475 -0.00350000453
  endloop
 endfacet

 facet normal 0 0 0
  outer loop
  vertex 0.00402719108 -0.00146081636 -0.00618359121
  vertex -0.00419405801 -0.0013003475 -0.00350000453
  vertex 0.00394662749 0.00207214407 -0.00716546318
  endloop
 endfacet

 facet normal 0 0 0
  outer loop
  vertex 0.0369261988 0.00183855405 0.00567121524
  vertex 0.0358419903 0.000469222257 0.00637267111
  vertex 0.0405817516 -0.000197857938 0.00517514115
  endloop
 endfacet

 facet normal 0 0 0
  outer loop
  vertex 0.0369261988 0.00183855405 0.00567121524
  vertex 0.0405817516 -0.000197857938 0.00517514115
  vertex 0.0416890606 0.00105480046 0.00318015739
  endloop
 endfacet

 facet normal 0 0 0
  outer loop
  vertex 0.0369261988 0.00183855405 0.00567121524
  vertex 0.0416890606 0.00105480046 0.00318015739
  vertex 0.0216779523 0.00884651765 -7.14314592e-06
  endloop
 endfacet

 facet normal 0 0 0
  outer loop
  vertex 0.0369261988 0.00183855405 0.00567121524
  vertex 0.0216779523 0.00884651765 -7.14314592e-06
  vertex 0.00608262699 0.0118813775 0.00425979961
  endloop
 endfacet

 facet normal 0 0 0
  outer loop
  vertex 0.0369261988 0.00183855405 0.00567121524
  vertex 0.00608262699 0.0118813775 0.00425979961
  vertex 0.00374211185 0.011040464 0.00557335559
  endloop
 endfacet

 facet normal 0 0 0
  outer loop
  vertex 0.00370139466 0.012826046 -0.00334570929
  vertex 0.00607518479 0.0122100143 -0.00372648262
  vertex 0.00374486716 0.0109196408 -0.00567616709
  endloop
 endfacet

 facet normal 0 0 0
  outer loop
  vertex 0.00370139466 0.012826046 -0.00334570929
  vertex 0.00374486716 0.0109196408 -0.00567616709
  vertex -0.00447450392 0.00833645929 -0.00349999103
  endloop
 endfacet

 facet normal 0 0 0
  outer loop
  vertex 0.00370139466 0.012826046 -0.00334570929
  vertex -0.00447450392 0.00833645929 -0.00349999103
  vertex 0.00368709466 0.0134530878 0.000613322423
  endloop
 endfacet

 facet normal 0 0 0
  outer loop
  vertex 0.0399634764 0.000125470455 -0.00544721121
  vertex 0.039284721 0.00171727268 -0.00453481218
  vertex 0.0428866632 0.000768911152 -0.00136570772
  endloop
 endfacet

 facet normal 0 0 0
  outer loop
  vertex 0.0399634764 0.000125470455 -0.00544721121
  vertex 0.0428866632 0.000768911152 -0.00136570772
  vertex 0.0423335657 -0.00127707643 -0.00390175404
  endloop
 endfacet

 facet normal 0 0 0
  outer loop
  vertex 0.0399634764 0.000125470455 -0.00544721121
  vertex 0.0423335657 -0.00127707643 -0.00390175404
  vertex 0.0405963622 -0.00507121207 -0.00300937635
  endloop
 endfacet

 facet normal 0 0 0
  outer loop
  vertex 0.0399634764 0.000125470455 -0.00544721121
  vertex 0.0405963622 -0.00507121207 -0.00300937635
  vertex 0.0345957875 -0.000760856841 -0.00643780502
  endloop
 endfacet

 facet normal 0 0 0
  outer loop
  vertex 0.0399634764 0.000125470455 -0.00544721121
  vertex 0.0345957875 -0.000760856841 -0.00643780502
  vertex 0.0296653938 0.00287305703 -0.00659387186
  endloop
 endfacet

 facet normal 0 0 0
  outer loop
  vertex 0.0399634764 0.000125470455 -0.00544721121
  vertex 0.0296653938 0.00287305703 -0.00659387186
  vertex 0.039284721 0.00171727268 -0.00453481218
  endloop
 endfacet

 facet normal 0 0 0
  outer loop
  vertex -0.00526792929 0.00787581317 0.00349999312
  vertex -0.00611868594 0.00628529675 0.00350001385
  vertex 0.00383104803 0.00714045204 0.00704486482
  endloop
 endfacet

 facet normal 0 0 0
  outer loop
  vertex -0.00526792929 0.00787581317 0.00349999312
  vertex 0.00383104803 0.00714045204 0.00704486482
  vertex 0.00374211185 0.011040464 0.00557335559
  endloop
 endfacet

 facet normal 0 0 0
  outer loop
  vertex -0.00526792929 0.00787581317 0.00349999312
  vertex 0.00374211185 0.011040464 0.00557335559
  vertex 0.00368709466 0.0134530878 0.000613322423
  endloop
 endfacet

 facet normal 0 0 0
  outer loop
  vertex -0.00526792929 0.00787581317 0.00349999312
  vertex 0.00368709466 0.0134530878 0.000613322423
  vertex -0.00447450392 0.00833645929 -0.00349999103
  endloop
 endfacet

 facet normal 0 0 0
  outer loop
  vertex -0.00526792929 0.00787581317 0.00349999312
  vertex -0.00447450392 0.00833645929 -0.00349999103
  vertex -0.00611868547 0.00628529675 -0.00350001245
  endloop
 endfacet

 facet normal 0 0 0
  outer loop
  vertex -0.00526792929 0.00787581317 0.00349999312
  vertex -0.00611868547 0.00628529675 -0.00350001245
  vertex -0.00611868594 0.00628529675 0.00350001385
  endloop
 endfacet

 facet normal 0 0 0
  outer loop
  vertex 0.042862881 -0.00380165689 -0.00178672781
  vertex 0.0423335657 -0.00127707643 -0.00390175404
  vertex 0.0435479172 -0.00190042867 -8.79425716e-06
  endloop
 endfacet

 facet normal 0 0 0
  outer loop
  vertex 0.042862881 -0.00380165689 -0.00178672781
  vertex 0.0435479172 -0.00190042867 -8.79425716e-06
  vertex 0.0420491882 -0.00525110168 0.000705649552
  endloop
 endfacet

 facet normal 0 0 0
  outer loop
  vertex 0.042862881 -0.00380165689 -0.00178672781
  vertex 0.0420491882 -0.00525110168 0.000705649552
  vertex 0.0405963622 -0.00507121207 -0.00300937635
  endloop
 endfacet

 facet normal 0 0 0
  outer loop
  vertex 0.042862881 -0.00380165689 -0.00178672781
  vertex 0.0405963622 -0.00507121207 -0.00300937635
  vertex 0.0423335657 -0.00127707643 -0.00390175404
  endloop
 endfacet

 facet normal 0 0 0
  outer loop
  vertex 0.0371474661 -0.00676095113 -0.0017699973
  vertex 0.0364324003 -0.00698825577 0.000900641899
  vertex -0.00186991796 -0.00364363403 -0.003499988
  endloop
 endfacet

 facet normal 0 0 0
  outer loop
  vertex 0.0371474661 -0.00676095113 -0.0017699973
  vertex -0.00186991796 -0.00364363403 -0.003499988
  vertex 0.0332746655 -0.00515830191 -0.00441500871
  endloop
 endfacet

 facet normal 0 0 0
  outer loop
  vertex 0.0371474661 -0.00676095113 -0.0017699973
  vertex 0.0332746655 -0.00515830191 -0.00441500871
  vertex 0.0405963622 -0.00507121207 -0.00300937635
  endloop
 endfacet

 facet normal 0 0 0
  outer loop
  vertex 0.0371474661 -0.00676095113 -0.0017699973
  vertex 0.0405963622 -0.00507121207 -0.00300937635
  vertex 0.0420491882 -0.00525110168 0.000705649552
  endloop
 endfacet

 facet normal 0 0 0
  outer loop
  vertex 0.0371474661 -0.00676095113 -0.0017699973
  vertex 0.0420491882 -0.00525110168 0.000705649552
  vertex 0.0392941944 -0.00604231423 0.0024353927
  endloop
 endfacet

 facet normal 0 0 0
  outer loop
  vertex 0.0371474661 -0.00676095113 -0.0017699973
  vertex 0.0392941944 -0.00604231423 0.0024353927
  vertex 0.0364324003 -0.00698825577 0.000900641899
  endloop
 endfacet

 facet normal 0 0 0
  outer loop
  vertex 0.00394655205 0.00207538437 0.00715612061
  vertex 0.0358419903 0.000469222257 0.00637267111
  vertex 0.00383104803 0.00714045204 0.00704486482
  endloop
 endfacet

 facet normal 0 0 0
  outer loop
  vertex 0.00394655205 0.00207538437 0.00715612061
  vertex 0.00383104803 0.00714045204 0.00704486482
  vertex -0.00611868594 0.00628529675 0.00350001385
  endloop
 endfacet

 facet normal 0 0 0
  outer loop
  vertex 0.00394655205 0.00207538437 0.00715612061
  vertex -0.00611868594 0.00628529675 0.00350001385
  vertex -0.00332659809 -0.0025392049 0.00350000267
  endloop
 endfacet

 facet normal 0 0 0
  outer loop
  vertex 0.00394655205 0.00207538437 0.00715612061
  vertex -0.00332659809 -0.0025392049 0.00350000267
  vertex 0.00404198561 -0.0021095078 0.00578025822
  endloop
 endfacet

 facet normal 0 0 0
  outer loop
  vertex 0.0392941944 -0.00604231423 0.0024353927
  vertex 0.0420491882 -0.00525110168 0.000705649552
  vertex 0.0409302749 -0.0035459029 0.00405249931
  endloop
 endfacet

 facet normal 0 0 0
  outer loop
  vertex 0.0392941944 -0.00604231423 0.0024353927
  vertex 0.0409302749 -0.0035459029 0.00405249931
  vertex 0.0332737043 -0.00515053468 0.00439659739
  endloop
 endfacet

 facet normal 0 0 0
  outer loop
  vertex 0.0392941944 -0.00604231423 0.0024353927
  vertex 0.0332737043 -0.00515053468 0.00439659739
  vertex 0.0364324003 -0.00698825577 0.000900641899
  endloop
 endfacet

 facet normal 0 0 0
  outer loop
  vertex 0.00382124004 0.00757060992 -0.00699747493
  vertex 0.00374486716 0.0109196408 -0.00567616709
  vertex 0.0296653938 0.00287305703 -0.00659387186
  endloop
 endfacet

 facet normal 0 0 0
  outer loop
  vertex 0.00382124004 0.00757060992 -0.00699747493
  vertex 0.0296653938 0.00287305703 -0.00659387186
  vertex 0.0345957875 -0.000760856841 -0.00643780502
  endloop
 endfacet

 facet normal 0 0 0
  outer loop
  vertex 0.00382124004 0.00757060992 -0.00699747493
  vertex 0.0345957875 -0.000760856841 -0.00643780502
  vertex 0.00394662749 0.00207214407 -0.00716546318
  endloop
 endfacet

 facet normal 0 0 0
  outer loop
  vertex 0.00382124004 0.00757060992 -0.00699747493
  vertex 0.00394662749 0.00207214407 -0.00716546318
  vertex -0.00611868547 0.00628529675 -0.00350001245
  endloop
 endfacet

 facet normal 0 0 0
  outer loop
  vertex 0.00382124004 0.00757060992 -0.00699747493
  vertex -0.00611868547 0.00628529675 -0.00350001245
  vertex -0.00447450392 0.00833645929 -0.00349999103
  endloop
 endfacet

 facet normal 0 0 0
  outer loop
  vertex 0.00382124004 0.00757060992 -0.00699747493
  vertex -0.00447450392 0.00833645929 -0.00349999103
  vertex 0.00374486716 0.0109196408 -0.00567616709
  endloop
 endfacet

endsolid AssimpScene
