solid AssimpScene
 facet normal 0 0 0
  outer loop
  vertex 0.0178300217 -0.014646044 -0.00219379016
  vertex 0.0228738505 2.04773727e-07 -0.00199972
  vertex 0.0178249553 0.014644336 -0.00219765166
  endloop
 endfacet

 facet normal 0 0 0
  outer loop
  vertex 0.0178300217 -0.014646044 -0.00219379016
  vertex 0.0178249553 0.014644336 -0.00219765166
  vertex 0.00446057739 0.0224265661 -0.00199841242
  endloop
 endfacet

 facet normal 0 0 0
  outer loop
  vertex 0.0178300217 -0.014646044 -0.00219379016
  vertex 0.00446057739 0.0224265661 -0.00199841242
  vertex -0.0148693258 0.0176306162 -0.00219795108
  endloop
 endfacet

 facet normal 0 0 0
  outer loop
  vertex 0.0178300217 -0.014646044 -0.00219379016
  vertex -0.0148693258 0.0176306162 -0.00219795108
  vertex -0.022866454 2.04811926e-07 -0.00200027856
  endloop
 endfacet

 facet normal 0 0 0
  outer loop
  vertex 0.0178300217 -0.014646044 -0.00219379016
  vertex -0.022866454 2.04811926e-07 -0.00200027856
  vertex -0.0204814598 -0.0106161255 -0.00219602417
  endloop
 endfacet

 facet normal 0 0 0
  outer loop
  vertex 0.0178300217 -0.014646044 -0.00219379016
  vertex -0.0204814598 -0.0106161255 -0.00219602417
  vertex -0.0146417851 -0.0178312082 -0.00219086511
  endloop
 endfacet

 facet normal 0 0 0
  outer loop
  vertex 0.0178300217 -0.014646044 -0.00219379016
  vertex -0.0146417851 -0.0178312082 -0.00219086511
  vertex -0.0045006508 -0.0226213764 -0.00220091129
  endloop
 endfacet

 facet normal 0 0 0
  outer loop
  vertex 0.0178300217 -0.014646044 -0.00219379016
  vertex -0.0045006508 -0.0226213764 -0.00220091129
  vertex 0.00446126284 -0.0224299766 -0.00200147834
  endloop
 endfacet

 facet normal 0 0 0
  outer loop
  vertex -0.0304542594 -0.0159143023 -0.0180321205
  vertex -0.022866454 2.04811926e-07 -0.00200027856
  vertex -0.0332758911 -0.00432960549 -0.0195157379
  endloop
 endfacet

 facet normal 0 0 0
  outer loop
  vertex -0.000152898006 -0.0181063898 -0.0885246098
  vertex 0.0308417603 -0.019656077 -0.084079951
  vertex -0.0281561613 -0.0197877157 -0.0846109539
  endloop
 endfacet

 facet normal 0 0 0
  outer loop
  vertex -0.0044916207 0.0226230882 -0.00219831755
  vertex -0.0148693258 0.0176306162 -0.00219795108
  vertex 0.00446057739 0.0224265661 -0.00199841242
  endloop
 endfacet

 facet normal 0 0 0
  outer loop
  vertex 0.022127036 -0.0220436268 -0.0190162603
  vertex 0.00446126284 -0.0224299766 -0.00200147834
  vertex 0.0214485228 -0.0233493391 -0.0309099834
  endloop
 endfacet

 facet normal 0 0 0
  outer loop
  vertex -0.032659173 0.0159230083 -0.0393153653
  vertex -0.0342067853 0.0132753868 -0.0681153238
  vertex -0.0366042852 0.00951559935 -0.0712101236
  endloop
 endfacet

 facet normal 0 0 0
  outer loop
  vertex -0.032659173 0.0159230083 -0.0393153653
  vertex -0.0366042852 0.00951559935 -0.0712101236
  vertex -0.0364537537 0.0101754302 -0.0517187864
  endloop
 endfacet

 facet normal 0 0 0
  outer loop
  vertex -0.0284494236 0.016786864 -0.0242025219
  vertex -0.0241641179 0.0192689206 -0.0242089015
  vertex -0.0249872562 0.0201977342 -0.0364916734
  endloop
 endfacet

 facet normal 0 0 0
  outer loop
  vertex -0.0284494236 0.016786864 -0.0242025219
  vertex -0.0249872562 0.0201977342 -0.0364916734
  vertex -0.032659173 0.0159230083 -0.0393153653
  endloop
 endfacet

 facet normal 0 0 0
  outer loop
  vertex -0.0284494236 0.016786864 -0.0242025219
  vertex -0.0317131169 0.0114242295 -0.0208352804
  vertex -0.0148693258 0.0176306162 -0.00219795108
  endloop
 endfacet

 facet normal 0 0 0
  outer loop
  vertex -0.0213016495 0.00884272624 -0.0021979895
  vertex -0.022866454 2.04811926e-07 -0.00200027856
  vertex -0.0148693258 0.0176306162 -0.00219795108
  endloop
 endfacet

 facet normal 0 0 0
  outer loop
  vertex -0.0213016495 0.00884272624 -0.0021979895
  vertex -0.0148693258 0.0176306162 -0.00219795108
  vertex -0.0317131169 0.0114242295 -0.0208352804
  endloop
 endfacet

 facet normal 0 0 0
  outer loop
  vertex 0.0112713613 0.0104902312 -0.0983190164
  vertex -0.00111851341 0.00530116213 -0.101515055
  vertex -0.0110227112 0.010931097 -0.0985203385
  endloop
 endfacet

 facet normal 0 0 0
  outer loop
  vertex 0.0112713613 0.0104902312 -0.0983190164
  vertex -0.0110227112 0.010931097 -0.0985203385
  vertex 0.00987372734 0.0123941731 -0.093967326
  endloop
 endfacet

 facet normal 0 0 0
  outer loop
  vertex -0.0204814598 -0.0106161255 -0.00219602417
  vertex -0.022866454 2.04811926e-07 -0.00200027856
  vertex -0.0304542594 -0.0159143023 -0.0180321205
  endloop
 endfacet

 facet normal 0 0 0
  outer loop
  vertex -0.0204814598 -0.0106161255 -0.00219602417
  vertex -0.0304542594 -0.0159143023 -0.0180321205
  vertex -0.0284891352 -0.0194234755 -0.0193180684
  endloop
 endfacet

 facet normal 0 0 0
  outer loop
  vertex -0.0204814598 -0.0106161255 -0.00219602417
  vertex -0.0284891352 -0.0194234755 -0.0193180684
  vertex -0.0146417851 -0.0178312082 -0.00219086511
  endloop
 endfacet

 facet normal 0 0 0
  outer loop
  vertex -0.00984129775 0.0220648851 -0.0415562131
  vertex -0.0192614775 0.0209120959 -0.0469103828
  vertex -0.0249872562 0.0201977342 -0.0364916734
  endloop
 endfacet

 facet normal 0 0 0
  outer loop
  vertex -0.00984129775 0.0220648851 -0.0415562131
  vertex -0.0249872562 0.0201977342 -0.0364916734
  vertex -0.0044916207 0.0226230882 -0.00219831755
  endloop
 endfacet

 facet normal 0 0 0
  outer loop
  vertex 0.0102558825 0.0199518446 -0.0621439591
  vertex -0.0203725528 0.0177393965 -0.0701462626
  vertex -0.0192614775 0.0209120959 -0.0469103828
  endloop
 endfacet

 facet normal 0 0 0
  outer loop
  vertex 0.0102558825 0.0199518446 -0.0621439591
  vertex -0.0192614775 0.0209120959 -0.0469103828
  vertex -0.00984129775 0.0220648851 -0.0415562131
  endloop
 endfacet

 facet normal 0 0 0
  outer loop
  vertex -0.0284891352 -0.0194234755 -0.0193180684
  vertex -0.0045006508 -0.0226213764 -0.00220091129
  vertex -0.0146417851 -0.0178312082 -0.00219086511
  endloop
 endfacet

 facet normal 0 0 0
  outer loop
  vertex 0.0347463191 -0.0122042801 -0.0308809392
  vertex 0.0368983783 -0.00487734796 -0.0386233069
  vertex 0.0338779986 -0.00579939643 -0.0212116484
  endloop
 endfacet

 facet normal 0 0 0
  outer loop
  vertex 0.0316585973 -0.0186207332 -0.0363094769
  vertex 0.0352035016 -0.0181258321 -0.0834321305
  vertex 0.0374689512 -0.012143922 -0.0709344968
  endloop
 endfacet

 facet normal 0 0 0
  outer loop
  vertex 0.0316585973 -0.0186207332 -0.0363094769
  vertex 0.0374689512 -0.012143922 -0.0709344968
  vertex 0.0347463191 -0.0122042801 -0.0308809392
  endloop
 endfacet

 facet normal 0 0 0
  outer loop
  vertex 0.0141223958 0.0221198164 -0.0369293578
  vertex 0.0230521988 0.02056388 -0.0478758961
  vertex 0.0102558825 0.0199518446 -0.0621439591
  endloop
 endfacet

 facet normal 0 0 0
  outer loop
  vertex 0.0141223958 0.0221198164 -0.0369293578
  vertex 0.0102558825 0.0199518446 -0.0621439591
  vertex -0.00984129775 0.0220648851 -0.0415562131
  endloop
 endfacet

 facet normal 0 0 0
  outer loop
  vertex -0.00984129775 0.0220648851 -0.0415562131
  vertex -0.0044916207 0.0226230882 -0.00219831755
  vertex 0.00446057739 0.0224265661 -0.00199841242
  endloop
 endfacet

 facet normal 0 0 0
  outer loop
  vertex -0.00984129775 0.0220648851 -0.0415562131
  vertex 0.00446057739 0.0224265661 -0.00199841242
  vertex 0.0141223958 0.0221198164 -0.0369293578
  endloop
 endfacet

 facet normal 0 0 0
  outer loop
  vertex 0.00446057739 0.0224265661 -0.00199841242
  vertex 0.0280635357 0.0196409728 -0.0370794944
  vertex 0.0230521988 0.02056388 -0.0478758961
  endloop
 endfacet

 facet normal 0 0 0
  outer loop
  vertex 0.00446057739 0.0224265661 -0.00199841242
  vertex 0.0230521988 0.02056388 -0.0478758961
  vertex 0.0141223958 0.0221198164 -0.0369293578
  endloop
 endfacet

 facet normal 0 0 0
  outer loop
  vertex 0.0368983783 -0.00487734796 -0.0386233069
  vertex 0.0382525288 -0.00474200957 -0.0795895904
  vertex 0.0380524397 -0.000418075506 -0.0832551494
  endloop
 endfacet

 facet normal 0 0 0
  outer loop
  vertex 0.0368983783 -0.00487734796 -0.0386233069
  vertex 0.0380524397 -0.000418075506 -0.0832551494
  vertex 0.0372651778 0.00657922728 -0.0538782291
  endloop
 endfacet

 facet normal 0 0 0
  outer loop
  vertex -0.0353055634 0.00935428217 -0.0319243483
  vertex -0.0326557085 0.0136781922 -0.0279220846
  vertex -0.032659173 0.0159230083 -0.0393153653
  endloop
 endfacet

 facet normal 0 0 0
  outer loop
  vertex -0.0353055634 0.00935428217 -0.0319243483
  vertex -0.032659173 0.0159230083 -0.0393153653
  vertex -0.0364537537 0.0101754302 -0.0517187864
  endloop
 endfacet

 facet normal 0 0 0
  outer loop
  vertex -0.0353055634 0.00935428217 -0.0319243483
  vertex -0.0364537537 0.0101754302 -0.0517187864
  vertex -0.0368396156 -0.000440315984 -0.0385100394
  endloop
 endfacet

 facet normal 0 0 0
  outer loop
  vertex -0.0384743325 -0.00398034044 -0.0736524463
  vertex -0.0364876799 -0.0125892274 -0.0423541367
  vertex -0.0368396156 -0.000440315984 -0.0385100394
  endloop
 endfacet

 facet normal 0 0 0
  outer loop
  vertex -0.0384743325 -0.00398034044 -0.0736524463
  vertex -0.0368396156 -0.000440315984 -0.0385100394
  vertex -0.0364537537 0.0101754302 -0.0517187864
  endloop
 endfacet

 facet normal 0 0 0
  outer loop
  vertex 0.0319531299 0.0160907786 -0.0616242997
  vertex 0.0280635357 0.0196409728 -0.0370794944
  vertex 0.0341418721 0.0150105618 -0.0422760434
  endloop
 endfacet

 facet normal 0 0 0
  outer loop
  vertex 0.0287405215 -0.0179401189 -0.0868148282
  vertex 0.0308417603 -0.019656077 -0.084079951
  vertex -0.000152898006 -0.0181063898 -0.0885246098
  endloop
 endfacet

 facet normal 0 0 0
  outer loop
  vertex -0.000152898006 -0.0181063898 -0.0885246098
  vertex -0.00111851341 0.00530116213 -0.101515055
  vertex 0.0179132316 0.00501909154 -0.100113131
  endloop
 endfacet

 facet normal 0 0 0
  outer loop
  vertex -0.000152898006 -0.0181063898 -0.0885246098
  vertex 0.0179132316 0.00501909154 -0.100113131
  vertex 0.0287405215 -0.0179401189 -0.0868148282
  endloop
 endfacet

 facet normal 0 0 0
  outer loop
  vertex 0.0325031318 0.00223323889 -0.0178874061
  vertex 0.0228738505 2.04773727e-07 -0.00199972
  vertex 0.0338779986 -0.00579939643 -0.0212116484
  endloop
 endfacet

 facet normal 0 0 0
  outer loop
  vertex -0.0045006508 -0.0226213764 -0.00220091129
  vertex -0.0284891352 -0.0194234755 -0.0193180684
  vertex -0.0328381509 -0.0196369383 -0.0443323888
  endloop
 endfacet

 facet normal 0 0 0
  outer loop
  vertex -0.0045006508 -0.0226213764 -0.00220091129
  vertex -0.0328381509 -0.0196369383 -0.0443323888
  vertex -0.0238318294 -0.0215477198 -0.0442922898
  endloop
 endfacet

 facet normal 0 0 0
  outer loop
  vertex 0.0108718639 0.0203489028 -0.0021979427
  vertex 0.0178249553 0.014644336 -0.00219765166
  vertex 0.0289933011 0.016889004 -0.0242539365
  endloop
 endfacet

 facet normal 0 0 0
  outer loop
  vertex 0.0108718639 0.0203489028 -0.0021979427
  vertex 0.00446057739 0.0224265661 -0.00199841242
  vertex 0.0178249553 0.014644336 -0.00219765166
  endloop
 endfacet

 facet normal 0 0 0
  outer loop
  vertex 0.0323996022 0.00426965673 -0.092652522
  vertex 0.0355459861 -0.0150279095 -0.0856354982
  vertex 0.026101809 0.00526867062 -0.0978173316
  endloop
 endfacet

 facet normal 0 0 0
  outer loop
  vertex -0.0348805897 -0.0120687168 -0.027484091
  vertex -0.0368396156 -0.000440315984 -0.0385100394
  vertex -0.0364876799 -0.0125892274 -0.0423541367
  endloop
 endfacet

 facet normal 0 0 0
  outer loop
  vertex 0.0108765727 -0.0203570817 -0.00219015265
  vertex 0.00446126284 -0.0224299766 -0.00200147834
  vertex 0.022127036 -0.0220436268 -0.0190162603
  endloop
 endfacet

 facet normal 0 0 0
  outer loop
  vertex 0.0108765727 -0.0203570817 -0.00219015265
  vertex 0.0178300217 -0.014646044 -0.00219379016
  vertex 0.00446126284 -0.0224299766 -0.00200147834
  endloop
 endfacet

 facet normal 0 0 0
  outer loop
  vertex -0.0319331698 -0.0175927244 -0.086246945
  vertex -0.0281561613 -0.0197877157 -0.0846109539
  vertex -0.0355465524 -0.0179681871 -0.0837344378
  endloop
 endfacet

 facet normal 0 0 0
  outer loop
  vertex -0.0319331698 -0.0175927244 -0.086246945
  vertex -0.000152898006 -0.0181063898 -0.0885246098
  vertex -0.0281561613 -0.0197877157 -0.0846109539
  endloop
 endfacet

 facet normal 0 0 0
  outer loop
  vertex 0.0374689512 -0.012143922 -0.0709344968
  vertex 0.0368983783 -0.00487734796 -0.0386233069
  vertex 0.0347463191 -0.0122042801 -0.0308809392
  endloop
 endfacet

 facet normal 0 0 0
  outer loop
  vertex 0.0374689512 -0.012143922 -0.0709344968
  vertex 0.0375736132 -0.0116477571 -0.0827761441
  vertex 0.0382525288 -0.00474200957 -0.0795895904
  endloop
 endfacet

 facet normal 0 0 0
  outer loop
  vertex 0.0374689512 -0.012143922 -0.0709344968
  vertex 0.0382525288 -0.00474200957 -0.0795895904
  vertex 0.0368983783 -0.00487734796 -0.0386233069
  endloop
 endfacet

 facet normal 0 0 0
  outer loop
  vertex -0.0339696854 0.008561383 -0.0893987045
  vertex -0.0295429453 0.0101041626 -0.0937756374
  vertex -0.0345000997 0.00379668036 -0.0914735049
  endloop
 endfacet

 facet normal 0 0 0
  outer loop
  vertex -0.0339696854 0.008561383 -0.0893987045
  vertex -0.0345000997 0.00379668036 -0.0914735049
  vertex -0.0372261479 0.00457763812 -0.0851644576
  endloop
 endfacet

 facet normal 0 0 0
  outer loop
  vertex -0.0214817058 0.0109021692 -0.0970466137
  vertex -0.0240678564 0.00502159307 -0.0986697674
  vertex -0.0295429453 0.0101041626 -0.0937756374
  endloop
 endfacet

 facet normal 0 0 0
  outer loop
  vertex 0.0179132316 0.00501909154 -0.100113131
  vertex -0.00111851341 0.00530116213 -0.101515055
  vertex 0.0112713613 0.0104902312 -0.0983190164
  endloop
 endfacet

 facet normal 0 0 0
  outer loop
  vertex 0.0112713613 0.0104902312 -0.0983190164
  vertex 0.0271676425 0.00937689934 -0.0951284692
  vertex 0.026101809 0.00526867062 -0.0978173316
  endloop
 endfacet

 facet normal 0 0 0
  outer loop
  vertex 0.0112713613 0.0104902312 -0.0983190164
  vertex 0.026101809 0.00526867062 -0.0978173316
  vertex 0.0179132316 0.00501909154 -0.100113131
  endloop
 endfacet

 facet normal 0 0 0
  outer loop
  vertex -0.0377744585 -0.0132374745 -0.0833113641
  vertex -0.0364876799 -0.0125892274 -0.0423541367
  vertex -0.0384743325 -0.00398034044 -0.0736524463
  endloop
 endfacet

 facet normal 0 0 0
  outer loop
  vertex 0.0360064246 0.00523198303 -0.0324360617
  vertex 0.0368983783 -0.00487734796 -0.0386233069
  vertex 0.0372651778 0.00657922728 -0.0538782291
  endloop
 endfacet

 facet normal 0 0 0
  outer loop
  vertex 0.0360064246 0.00523198303 -0.0324360617
  vertex 0.0372651778 0.00657922728 -0.0538782291
  vertex 0.0341418721 0.0150105618 -0.0422760434
  endloop
 endfacet

 facet normal 0 0 0
  outer loop
  vertex 0.0360064246 0.00523198303 -0.0324360617
  vertex 0.0331051573 0.0107187405 -0.0242570341
  vertex 0.0325031318 0.00223323889 -0.0178874061
  endloop
 endfacet

 facet normal 0 0 0
  outer loop
  vertex 0.0360064246 0.00523198303 -0.0324360617
  vertex 0.0325031318 0.00223323889 -0.0178874061
  vertex 0.0338779986 -0.00579939643 -0.0212116484
  endloop
 endfacet

 facet normal 0 0 0
  outer loop
  vertex 0.0360064246 0.00523198303 -0.0324360617
  vertex 0.0338779986 -0.00579939643 -0.0212116484
  vertex 0.0368983783 -0.00487734796 -0.0386233069
  endloop
 endfacet

 facet normal 0 0 0
  outer loop
  vertex 0.0220709816 0.00671161944 -0.00219763536
  vertex 0.0228738505 2.04773727e-07 -0.00199972
  vertex 0.0325031318 0.00223323889 -0.0178874061
  endloop
 endfacet

 facet normal 0 0 0
  outer loop
  vertex 0.0220709816 0.00671161944 -0.00219763536
  vertex 0.0178249553 0.014644336 -0.00219765166
  vertex 0.0228738505 2.04773727e-07 -0.00199972
  endloop
 endfacet

 facet normal 0 0 0
  outer loop
  vertex 0.0322434381 0.0084788911 -0.0913421884
  vertex 0.036258053 0.00582069531 -0.0866095349
  vertex 0.0323996022 0.00426965673 -0.092652522
  endloop
 endfacet

 facet normal 0 0 0
  outer loop
  vertex 0.0322434381 0.0084788911 -0.0913421884
  vertex 0.0323996022 0.00426965673 -0.092652522
  vertex 0.026101809 0.00526867062 -0.0978173316
  endloop
 endfacet

 facet normal 0 0 0
  outer loop
  vertex 0.0322434381 0.0084788911 -0.0913421884
  vertex 0.026101809 0.00526867062 -0.0978173316
  vertex 0.0271676425 0.00937689934 -0.0951284692
  endloop
 endfacet

 facet normal 0 0 0
  outer loop
  vertex 0.0322434381 0.0084788911 -0.0913421884
  vertex 0.0344894342 0.0104082776 -0.0795539916
  vertex 0.036258053 0.00582069531 -0.0866095349
  endloop
 endfacet

 facet normal 0 0 0
  outer loop
  vertex -0.0344814435 0.00660278182 -0.0241902955
  vertex -0.0353055634 0.00935428217 -0.0319243483
  vertex -0.0368396156 -0.000440315984 -0.0385100394
  endloop
 endfacet

 facet normal 0 0 0
  outer loop
  vertex -0.0344814435 0.00660278182 -0.0241902955
  vertex -0.0368396156 -0.000440315984 -0.0385100394
  vertex -0.0348805897 -0.0120687168 -0.027484091
  endloop
 endfacet

 facet normal 0 0 0
  outer loop
  vertex -0.0344814435 0.00660278182 -0.0241902955
  vertex -0.0348805897 -0.0120687168 -0.027484091
  vertex -0.0332758911 -0.00432960549 -0.0195157379
  endloop
 endfacet

 facet normal 0 0 0
  outer loop
  vertex 0.0213110223 -0.00884153135 -0.00219674082
  vertex 0.0228738505 2.04773727e-07 -0.00199972
  vertex 0.0178300217 -0.014646044 -0.00219379016
  endloop
 endfacet

 facet normal 0 0 0
  outer loop
  vertex 0.0213110223 -0.00884153135 -0.00219674082
  vertex 0.0178300217 -0.014646044 -0.00219379016
  vertex 0.0275971889 -0.0165267512 -0.0163289886
  endloop
 endfacet

 facet normal 0 0 0
  outer loop
  vertex 0.0213110223 -0.00884153135 -0.00219674082
  vertex 0.0306701399 -0.0142429788 -0.0189748928
  vertex 0.0338779986 -0.00579939643 -0.0212116484
  endloop
 endfacet

 facet normal 0 0 0
  outer loop
  vertex 0.0213110223 -0.00884153135 -0.00219674082
  vertex 0.0338779986 -0.00579939643 -0.0212116484
  vertex 0.0228738505 2.04773727e-07 -0.00199972
  endloop
 endfacet

 facet normal 0 0 0
  outer loop
  vertex -0.0203725528 0.0177393965 -0.0701462626
  vertex 0.0102558825 0.0199518446 -0.0621439591
  vertex 0.0102656065 0.0165511407 -0.0799589455
  endloop
 endfacet

 facet normal 0 0 0
  outer loop
  vertex -0.0203725528 0.0177393965 -0.0701462626
  vertex 0.0102656065 0.0165511407 -0.0799589455
  vertex -0.011254482 0.0156269353 -0.0839810073
  endloop
 endfacet

 facet normal 0 0 0
  outer loop
  vertex -0.0110227112 0.010931097 -0.0985203385
  vertex -0.0214817058 0.0109021692 -0.0970466137
  vertex -0.011254482 0.0156269353 -0.0839810073
  endloop
 endfacet

 facet normal 0 0 0
  outer loop
  vertex -0.0110227112 0.010931097 -0.0985203385
  vertex -0.011254482 0.0156269353 -0.0839810073
  vertex 0.0102656065 0.0165511407 -0.0799589455
  endloop
 endfacet

 facet normal 0 0 0
  outer loop
  vertex -0.0110227112 0.010931097 -0.0985203385
  vertex 0.0102656065 0.0165511407 -0.0799589455
  vertex 0.00987372734 0.0123941731 -0.093967326
  endloop
 endfacet

 facet normal 0 0 0
  outer loop
  vertex -0.0328381509 -0.0196369383 -0.0443323888
  vertex -0.0355465524 -0.0179681871 -0.0837344378
  vertex -0.0281561613 -0.0197877157 -0.0846109539
  endloop
 endfacet

 facet normal 0 0 0
  outer loop
  vertex -0.0328381509 -0.0196369383 -0.0443323888
  vertex -0.0281561613 -0.0197877157 -0.0846109539
  vertex -0.0238318294 -0.0215477198 -0.0442922898
  endloop
 endfacet

 facet normal 0 0 0
  outer loop
  vertex -0.0328381509 -0.0196369383 -0.0443323888
  vertex -0.0284891352 -0.0194234755 -0.0193180684
  vertex -0.0323723741 -0.018500926 -0.0268932693
  endloop
 endfacet

 facet normal 0 0 0
  outer loop
  vertex 0.0271676425 0.00937689934 -0.0951284692
  vertex 0.0112713613 0.0104902312 -0.0983190164
  vertex 0.00987372734 0.0123941731 -0.093967326
  endloop
 endfacet

 facet normal 0 0 0
  outer loop
  vertex 0.0271676425 0.00937689934 -0.0951284692
  vertex 0.00987372734 0.0123941731 -0.093967326
  vertex 0.0239291545 0.0142614022 -0.0839669928
  endloop
 endfacet

 facet normal 0 0 0
  outer loop
  vertex 0.0230521988 0.02056388 -0.0478758961
  vertex 0.0272526946 0.0166666247 -0.0704259723
  vertex 0.0102656065 0.0165511407 -0.0799589455
  endloop
 endfacet

 facet normal 0 0 0
  outer loop
  vertex 0.0230521988 0.02056388 -0.0478758961
  vertex 0.0102656065 0.0165511407 -0.0799589455
  vertex 0.0102558825 0.0199518446 -0.0621439591
  endloop
 endfacet

 facet normal 0 0 0
  outer loop
  vertex 0.0280635357 0.0196409728 -0.0370794944
  vertex 0.0319531299 0.0160907786 -0.0616242997
  vertex 0.0272526946 0.0166666247 -0.0704259723
  endloop
 endfacet

 facet normal 0 0 0
  outer loop
  vertex 0.0280635357 0.0196409728 -0.0370794944
  vertex 0.0272526946 0.0166666247 -0.0704259723
  vertex 0.0230521988 0.02056388 -0.0478758961
  endloop
 endfacet

 facet normal 0 0 0
  outer loop
  vertex -0.0155558707 0.00544912275 -0.100696877
  vertex -0.0240678564 0.00502159307 -0.0986697674
  vertex -0.0214817058 0.0109021692 -0.0970466137
  endloop
 endfacet

 facet normal 0 0 0
  outer loop
  vertex -0.0155558707 0.00544912275 -0.100696877
  vertex -0.0214817058 0.0109021692 -0.0970466137
  vertex -0.0110227112 0.010931097 -0.0985203385
  endloop
 endfacet

 facet normal 0 0 0
  outer loop
  vertex -0.0155558707 0.00544912275 -0.100696877
  vertex -0.0110227112 0.010931097 -0.0985203385
  vertex -0.00111851341 0.00530116213 -0.101515055
  endloop
 endfacet

 facet normal 0 0 0
  outer loop
  vertex -0.0155558707 0.00544912275 -0.100696877
  vertex -0.00111851341 0.00530116213 -0.101515055
  vertex -0.000152898006 -0.0181063898 -0.0885246098
  endloop
 endfacet

 facet normal 0 0 0
  outer loop
  vertex -0.0155558707 0.00544912275 -0.100696877
  vertex -0.000152898006 -0.0181063898 -0.0885246098
  vertex -0.0319331698 -0.0175927244 -0.086246945
  endloop
 endfacet

 facet normal 0 0 0
  outer loop
  vertex -0.0155558707 0.00544912275 -0.100696877
  vertex -0.0319331698 -0.0175927244 -0.086246945
  vertex -0.0240678564 0.00502159307 -0.0986697674
  endloop
 endfacet

 facet normal 0 0 0
  outer loop
  vertex 0.0375736132 -0.0116477571 -0.0827761441
  vertex 0.0374689512 -0.012143922 -0.0709344968
  vertex 0.0352035016 -0.0181258321 -0.0834321305
  endloop
 endfacet

 facet normal 0 0 0
  outer loop
  vertex 0.0375736132 -0.0116477571 -0.0827761441
  vertex 0.0352035016 -0.0181258321 -0.0834321305
  vertex 0.0355459861 -0.0150279095 -0.0856354982
  endloop
 endfacet

 facet normal 0 0 0
  outer loop
  vertex 0.0306701399 -0.0142429788 -0.0189748928
  vertex 0.0316585973 -0.0186207332 -0.0363094769
  vertex 0.0347463191 -0.0122042801 -0.0308809392
  endloop
 endfacet

 facet normal 0 0 0
  outer loop
  vertex 0.0306701399 -0.0142429788 -0.0189748928
  vertex 0.0347463191 -0.0122042801 -0.0308809392
  vertex 0.0338779986 -0.00579939643 -0.0212116484
  endloop
 endfacet

 facet normal 0 0 0
  outer loop
  vertex 0.0306701399 -0.0142429788 -0.0189748928
  vertex 0.0213110223 -0.00884153135 -0.00219674082
  vertex 0.0275971889 -0.0165267512 -0.0163289886
  endloop
 endfacet

 facet normal 0 0 0
  outer loop
  vertex -0.0321046375 0.00608381024 -0.0178879332
  vertex -0.0317131169 0.0114242295 -0.0208352804
  vertex -0.0344814435 0.00660278182 -0.0241902955
  endloop
 endfacet

 facet normal 0 0 0
  outer loop
  vertex -0.0321046375 0.00608381024 -0.0178879332
  vertex -0.0344814435 0.00660278182 -0.0241902955
  vertex -0.0332758911 -0.00432960549 -0.0195157379
  endloop
 endfacet

 facet normal 0 0 0
  outer loop
  vertex -0.0321046375 0.00608381024 -0.0178879332
  vertex -0.0332758911 -0.00432960549 -0.0195157379
  vertex -0.022866454 2.04811926e-07 -0.00200027856
  endloop
 endfacet

 facet normal 0 0 0
  outer loop
  vertex -0.0321046375 0.00608381024 -0.0178879332
  vertex -0.022866454 2.04811926e-07 -0.00200027856
  vertex -0.0213016495 0.00884272624 -0.0021979895
  endloop
 endfacet

 facet normal 0 0 0
  outer loop
  vertex -0.0321046375 0.00608381024 -0.0178879332
  vertex -0.0213016495 0.00884272624 -0.0021979895
  vertex -0.0317131169 0.0114242295 -0.0208352804
  endloop
 endfacet

 facet normal 0 0 0
  outer loop
  vertex -0.0307259634 0.0139109353 -0.077896148
  vertex -0.0295429453 0.0101041626 -0.0937756374
  vertex -0.0339696854 0.008561383 -0.0893987045
  endloop
 endfacet

 facet normal 0 0 0
  outer loop
  vertex -0.0307259634 0.0139109353 -0.077896148
  vertex -0.0339696854 0.008561383 -0.0893987045
  vertex -0.0342067853 0.0132753868 -0.0681153238
  endloop
 endfacet

 facet normal 0 0 0
  outer loop
  vertex 0.0266650338 -0.0193702281 -0.0189916976
  vertex 0.0275971889 -0.0165267512 -0.0163289886
  vertex 0.0178300217 -0.014646044 -0.00219379016
  endloop
 endfacet

 facet normal 0 0 0
  outer loop
  vertex 0.0266650338 -0.0193702281 -0.0189916976
  vertex 0.0178300217 -0.014646044 -0.00219379016
  vertex 0.0108765727 -0.0203570817 -0.00219015265
  endloop
 endfacet

 facet normal 0 0 0
  outer loop
  vertex 0.0266650338 -0.0193702281 -0.0189916976
  vertex 0.0108765727 -0.0203570817 -0.00219015265
  vertex 0.022127036 -0.0220436268 -0.0190162603
  endloop
 endfacet

 facet normal 0 0 0
  outer loop
  vertex 0.0266650338 -0.0193702281 -0.0189916976
  vertex 0.0316585973 -0.0186207332 -0.0363094769
  vertex 0.0306701399 -0.0142429788 -0.0189748928
  endloop
 endfacet

 facet normal 0 0 0
  outer loop
  vertex 0.0266650338 -0.0193702281 -0.0189916976
  vertex 0.0306701399 -0.0142429788 -0.0189748928
  vertex 0.0275971889 -0.0165267512 -0.0163289886
  endloop
 endfacet

 facet normal 0 0 0
  outer loop
  vertex 0.0270997286 -0.0215361044 -0.0308972634
  vertex 0.0316585973 -0.0186207332 -0.0363094769
  vertex 0.0266650338 -0.0193702281 -0.0189916976
  endloop
 endfacet

 facet normal 0 0 0
  outer loop
  vertex 0.0270997286 -0.0215361044 -0.0308972634
  vertex 0.0266650338 -0.0193702281 -0.0189916976
  vertex 0.022127036 -0.0220436268 -0.0190162603
  endloop
 endfacet

 facet normal 0 0 0
  outer loop
  vertex 0.0270997286 -0.0215361044 -0.0308972634
  vertex 0.022127036 -0.0220436268 -0.0190162603
  vertex 0.0214485228 -0.0233493391 -0.0309099834
  endloop
 endfacet

 facet normal 0 0 0
  outer loop
  vertex 0.0214485228 -0.0233493391 -0.0309099834
  vertex 0.0308417603 -0.019656077 -0.084079951
  vertex 0.0352035016 -0.0181258321 -0.0834321305
  endloop
 endfacet

 facet normal 0 0 0
  outer loop
  vertex 0.0214485228 -0.0233493391 -0.0309099834
  vertex 0.0352035016 -0.0181258321 -0.0834321305
  vertex 0.0270997286 -0.0215361044 -0.0308972634
  endloop
 endfacet

 facet normal 0 0 0
  outer loop
  vertex 0.0270997286 -0.0215361044 -0.0308972634
  vertex 0.0352035016 -0.0181258321 -0.0834321305
  vertex 0.0316585973 -0.0186207332 -0.0363094769
  endloop
 endfacet

 facet normal 0 0 0
  outer loop
  vertex 0.0361154005 0.0109092891 -0.0607682802
  vertex 0.0341418721 0.0150105618 -0.0422760434
  vertex 0.0372651778 0.00657922728 -0.0538782291
  endloop
 endfacet

 facet normal 0 0 0
  outer loop
  vertex 0.0361154005 0.0109092891 -0.0607682802
  vertex 0.036258053 0.00582069531 -0.0866095349
  vertex 0.0344894342 0.0104082776 -0.0795539916
  endloop
 endfacet

 facet normal 0 0 0
  outer loop
  vertex 0.0361154005 0.0109092891 -0.0607682802
  vertex 0.0344894342 0.0104082776 -0.0795539916
  vertex 0.0319531299 0.0160907786 -0.0616242997
  endloop
 endfacet

 facet normal 0 0 0
  outer loop
  vertex 0.0361154005 0.0109092891 -0.0607682802
  vertex 0.0319531299 0.0160907786 -0.0616242997
  vertex 0.0341418721 0.0150105618 -0.0422760434
  endloop
 endfacet

 facet normal 0 0 0
  outer loop
  vertex 0.0328146555 0.0153997177 -0.0324065238
  vertex 0.0341418721 0.0150105618 -0.0422760434
  vertex 0.0280635357 0.0196409728 -0.0370794944
  endloop
 endfacet

 facet normal 0 0 0
  outer loop
  vertex 0.0328146555 0.0153997177 -0.0324065238
  vertex 0.0280635357 0.0196409728 -0.0370794944
  vertex 0.0260335021 0.0196378045 -0.0281025916
  endloop
 endfacet

 facet normal 0 0 0
  outer loop
  vertex 0.0328146555 0.0153997177 -0.0324065238
  vertex 0.0260335021 0.0196378045 -0.0281025916
  vertex 0.0289933011 0.016889004 -0.0242539365
  endloop
 endfacet

 facet normal 0 0 0
  outer loop
  vertex 0.0328146555 0.0153997177 -0.0324065238
  vertex 0.0331051573 0.0107187405 -0.0242570341
  vertex 0.0360064246 0.00523198303 -0.0324360617
  endloop
 endfacet

 facet normal 0 0 0
  outer loop
  vertex 0.0328146555 0.0153997177 -0.0324065238
  vertex 0.0360064246 0.00523198303 -0.0324360617
  vertex 0.0341418721 0.0150105618 -0.0422760434
  endloop
 endfacet

 facet normal 0 0 0
  outer loop
  vertex -0.0291847661 0.00495460117 -0.0961068496
  vertex -0.0345000997 0.00379668036 -0.0914735049
  vertex -0.0295429453 0.0101041626 -0.0937756374
  endloop
 endfacet

 facet normal 0 0 0
  outer loop
  vertex -0.0291847661 0.00495460117 -0.0961068496
  vertex -0.0295429453 0.0101041626 -0.0937756374
  vertex -0.0240678564 0.00502159307 -0.0986697674
  endloop
 endfacet

 facet normal 0 0 0
  outer loop
  vertex -0.0357961208 -0.0155151272 -0.0857556313
  vertex -0.037018016 -0.011267026 -0.0857572258
  vertex -0.0345000997 0.00379668036 -0.0914735049
  endloop
 endfacet

 facet normal 0 0 0
  outer loop
  vertex -0.0357961208 -0.0155151272 -0.0857556313
  vertex -0.0345000997 0.00379668036 -0.0914735049
  vertex -0.0291847661 0.00495460117 -0.0961068496
  endloop
 endfacet

 facet normal 0 0 0
  outer loop
  vertex -0.0357961208 -0.0155151272 -0.0857556313
  vertex -0.0291847661 0.00495460117 -0.0961068496
  vertex -0.0240678564 0.00502159307 -0.0986697674
  endloop
 endfacet

 facet normal 0 0 0
  outer loop
  vertex -0.0357961208 -0.0155151272 -0.0857556313
  vertex -0.0240678564 0.00502159307 -0.0986697674
  vertex -0.0319331698 -0.0175927244 -0.086246945
  endloop
 endfacet

 facet normal 0 0 0
  outer loop
  vertex -0.0357961208 -0.0155151272 -0.0857556313
  vertex -0.0319331698 -0.0175927244 -0.086246945
  vertex -0.0355465524 -0.0179681871 -0.0837344378
  endloop
 endfacet

 facet normal 0 0 0
  outer loop
  vertex -0.0357961208 -0.0155151272 -0.0857556313
  vertex -0.0355465524 -0.0179681871 -0.0837344378
  vertex -0.0377744585 -0.0132374745 -0.0833113641
  endloop
 endfacet

 facet normal 0 0 0
  outer loop
  vertex -0.0357961208 -0.0155151272 -0.0857556313
  vertex -0.0377744585 -0.0132374745 -0.0833113641
  vertex -0.037018016 -0.011267026 -0.0857572258
  endloop
 endfacet

 facet normal 0 0 0
  outer loop
  vertex 0.0330768116 -0.0174330324 -0.0861583203
  vertex 0.0352035016 -0.0181258321 -0.0834321305
  vertex 0.0308417603 -0.019656077 -0.084079951
  endloop
 endfacet

 facet normal 0 0 0
  outer loop
  vertex 0.0330768116 -0.0174330324 -0.0861583203
  vertex 0.0308417603 -0.019656077 -0.084079951
  vertex 0.0287405215 -0.0179401189 -0.0868148282
  endloop
 endfacet

 facet normal 0 0 0
  outer loop
  vertex 0.0330768116 -0.0174330324 -0.0861583203
  vertex 0.0287405215 -0.0179401189 -0.0868148282
  vertex 0.0179132316 0.00501909154 -0.100113131
  endloop
 endfacet

 facet normal 0 0 0
  outer loop
  vertex 0.0330768116 -0.0174330324 -0.0861583203
  vertex 0.0179132316 0.00501909154 -0.100113131
  vertex 0.026101809 0.00526867062 -0.0978173316
  endloop
 endfacet

 facet normal 0 0 0
  outer loop
  vertex 0.0330768116 -0.0174330324 -0.0861583203
  vertex 0.026101809 0.00526867062 -0.0978173316
  vertex 0.0355459861 -0.0150279095 -0.0856354982
  endloop
 endfacet

 facet normal 0 0 0
  outer loop
  vertex 0.0330768116 -0.0174330324 -0.0861583203
  vertex 0.0355459861 -0.0150279095 -0.0856354982
  vertex 0.0352035016 -0.0181258321 -0.0834321305
  endloop
 endfacet

 facet normal 0 0 0
  outer loop
  vertex -0.024831567 0.0145910755 -0.0830228254
  vertex -0.0214817058 0.0109021692 -0.0970466137
  vertex -0.0295429453 0.0101041626 -0.0937756374
  endloop
 endfacet

 facet normal 0 0 0
  outer loop
  vertex -0.024831567 0.0145910755 -0.0830228254
  vertex -0.0295429453 0.0101041626 -0.0937756374
  vertex -0.0307259634 0.0139109353 -0.077896148
  endloop
 endfacet

 facet normal 0 0 0
  outer loop
  vertex -0.024831567 0.0145910755 -0.0830228254
  vertex -0.0307259634 0.0139109353 -0.077896148
  vertex -0.0273305848 0.0177860465 -0.0608765371
  endloop
 endfacet

 facet normal 0 0 0
  outer loop
  vertex -0.024831567 0.0145910755 -0.0830228254
  vertex -0.0273305848 0.0177860465 -0.0608765371
  vertex -0.0203725528 0.0177393965 -0.0701462626
  endloop
 endfacet

 facet normal 0 0 0
  outer loop
  vertex -0.024831567 0.0145910755 -0.0830228254
  vertex -0.0203725528 0.0177393965 -0.0701462626
  vertex -0.011254482 0.0156269353 -0.0839810073
  endloop
 endfacet

 facet normal 0 0 0
  outer loop
  vertex -0.024831567 0.0145910755 -0.0830228254
  vertex -0.011254482 0.0156269353 -0.0839810073
  vertex -0.0214817058 0.0109021692 -0.0970466137
  endloop
 endfacet

 facet normal 0 0 0
  outer loop
  vertex -0.0350294225 -0.0170069113 -0.0420778319
  vertex -0.0364876799 -0.0125892274 -0.0423541367
  vertex -0.0377744585 -0.0132374745 -0.0833113641
  endloop
 endfacet

 facet normal 0 0 0
  outer loop
  vertex -0.0350294225 -0.0170069113 -0.0420778319
  vertex -0.0377744585 -0.0132374745 -0.0833113641
  vertex -0.0355465524 -0.0179681871 -0.0837344378
  endloop
 endfacet

 facet normal 0 0 0
  outer loop
  vertex -0.0355465524 -0.0179681871 -0.0837344378
  vertex -0.0328381509 -0.0196369383 -0.0443323888
  vertex -0.0323723741 -0.018500926 -0.0268932693
  endloop
 endfacet

 facet normal 0 0 0
  outer loop
  vertex -0.0355465524 -0.0179681871 -0.0837344378
  vertex -0.0323723741 -0.018500926 -0.0268932693
  vertex -0.0350294225 -0.0170069113 -0.0420778319
  endloop
 endfacet

 facet normal 0 0 0
  outer loop
  vertex -0.0350294225 -0.0170069113 -0.0420778319
  vertex -0.0348805897 -0.0120687168 -0.027484091
  vertex -0.0364876799 -0.0125892274 -0.0423541367
  endloop
 endfacet

 facet normal 0 0 0
  outer loop
  vertex -0.0290348865 0.0184644274 -0.0465229861
  vertex -0.0273305848 0.0177860465 -0.0608765371
  vertex -0.0307259634 0.0139109353 -0.077896148
  endloop
 endfacet

 facet normal 0 0 0
  outer loop
  vertex -0.0290348865 0.0184644274 -0.0465229861
  vertex -0.0307259634 0.0139109353 -0.077896148
  vertex -0.0342067853 0.0132753868 -0.0681153238
  endloop
 endfacet

 facet normal 0 0 0
  outer loop
  vertex -0.0290348865 0.0184644274 -0.0465229861
  vertex -0.0342067853 0.0132753868 -0.0681153238
  vertex -0.032659173 0.0159230083 -0.0393153653
  endloop
 endfacet

 facet normal 0 0 0
  outer loop
  vertex -0.0290348865 0.0184644274 -0.0465229861
  vertex -0.032659173 0.0159230083 -0.0393153653
  vertex -0.0249872562 0.0201977342 -0.0364916734
  endloop
 endfacet

 facet normal 0 0 0
  outer loop
  vertex -0.038413398 -0.00370963337 -0.0830415785
  vertex -0.0372261479 0.00457763812 -0.0851644576
  vertex -0.0345000997 0.00379668036 -0.0914735049
  endloop
 endfacet

 facet normal 0 0 0
  outer loop
  vertex -0.038413398 -0.00370963337 -0.0830415785
  vertex -0.0345000997 0.00379668036 -0.0914735049
  vertex -0.037018016 -0.011267026 -0.0857572258
  endloop
 endfacet

 facet normal 0 0 0
  outer loop
  vertex -0.038413398 -0.00370963337 -0.0830415785
  vertex -0.037018016 -0.011267026 -0.0857572258
  vertex -0.0377744585 -0.0132374745 -0.0833113641
  endloop
 endfacet

 facet normal 0 0 0
  outer loop
  vertex -0.038413398 -0.00370963337 -0.0830415785
  vertex -0.0377744585 -0.0132374745 -0.0833113641
  vertex -0.0384743325 -0.00398034044 -0.0736524463
  endloop
 endfacet

 facet normal 0 0 0
  outer loop
  vertex 0.0380524397 -0.000418075506 -0.0832551494
  vertex 0.0382525288 -0.00474200957 -0.0795895904
  vertex 0.0375736132 -0.0116477571 -0.0827761441
  endloop
 endfacet

 facet normal 0 0 0
  outer loop
  vertex 0.0323996022 0.00426965673 -0.092652522
  vertex 0.036258053 0.00582069531 -0.0866095349
  vertex 0.0380524397 -0.000418075506 -0.0832551494
  endloop
 endfacet

 facet normal 0 0 0
  outer loop
  vertex 0.0323996022 0.00426965673 -0.092652522
  vertex 0.0380524397 -0.000418075506 -0.0832551494
  vertex 0.0375736132 -0.0116477571 -0.0827761441
  endloop
 endfacet

 facet normal 0 0 0
  outer loop
  vertex 0.0323996022 0.00426965673 -0.092652522
  vertex 0.0375736132 -0.0116477571 -0.0827761441
  vertex 0.0355459861 -0.0150279095 -0.0856354982
  endloop
 endfacet

 facet normal 0 0 0
  outer loop
  vertex 0.036258053 0.00582069531 -0.0866095349
  vertex 0.0361154005 0.0109092891 -0.0607682802
  vertex 0.0372651778 0.00657922728 -0.0538782291
  endloop
 endfacet

 facet normal 0 0 0
  outer loop
  vertex 0.036258053 0.00582069531 -0.0866095349
  vertex 0.0372651778 0.00657922728 -0.0538782291
  vertex 0.0380524397 -0.000418075506 -0.0832551494
  endloop
 endfacet

 facet normal 0 0 0
  outer loop
  vertex -0.0366042852 0.00951559935 -0.0712101236
  vertex -0.0372261479 0.00457763812 -0.0851644576
  vertex -0.038413398 -0.00370963337 -0.0830415785
  endloop
 endfacet

 facet normal 0 0 0
  outer loop
  vertex -0.0366042852 0.00951559935 -0.0712101236
  vertex -0.038413398 -0.00370963337 -0.0830415785
  vertex -0.0384743325 -0.00398034044 -0.0736524463
  endloop
 endfacet

 facet normal 0 0 0
  outer loop
  vertex -0.0366042852 0.00951559935 -0.0712101236
  vertex -0.0384743325 -0.00398034044 -0.0736524463
  vertex -0.0364537537 0.0101754302 -0.0517187864
  endloop
 endfacet

 facet normal 0 0 0
  outer loop
  vertex -0.0366042852 0.00951559935 -0.0712101236
  vertex -0.0342067853 0.0132753868 -0.0681153238
  vertex -0.0339696854 0.008561383 -0.0893987045
  endloop
 endfacet

 facet normal 0 0 0
  outer loop
  vertex -0.0366042852 0.00951559935 -0.0712101236
  vertex -0.0339696854 0.008561383 -0.0893987045
  vertex -0.0372261479 0.00457763812 -0.0851644576
  endloop
 endfacet

 facet normal 0 0 0
  outer loop
  vertex 0.0102656065 0.0165511407 -0.0799589455
  vertex 0.0272526946 0.0166666247 -0.0704259723
  vertex 0.0239291545 0.0142614022 -0.0839669928
  endloop
 endfacet

 facet normal 0 0 0
  outer loop
  vertex 0.0102656065 0.0165511407 -0.0799589455
  vertex 0.0239291545 0.0142614022 -0.0839669928
  vertex 0.00987372734 0.0123941731 -0.093967326
  endloop
 endfacet

 facet normal 0 0 0
  outer loop
  vertex -0.0326557085 0.0136781922 -0.0279220846
  vertex -0.0317131169 0.0114242295 -0.0208352804
  vertex -0.0284494236 0.016786864 -0.0242025219
  endloop
 endfacet

 facet normal 0 0 0
  outer loop
  vertex -0.0326557085 0.0136781922 -0.0279220846
  vertex -0.0284494236 0.016786864 -0.0242025219
  vertex -0.032659173 0.0159230083 -0.0393153653
  endloop
 endfacet

 facet normal 0 0 0
  outer loop
  vertex -0.0353055634 0.00935428217 -0.0319243483
  vertex -0.0344814435 0.00660278182 -0.0241902955
  vertex -0.0317131169 0.0114242295 -0.0208352804
  endloop
 endfacet

 facet normal 0 0 0
  outer loop
  vertex -0.0353055634 0.00935428217 -0.0319243483
  vertex -0.0317131169 0.0114242295 -0.0208352804
  vertex -0.0326557085 0.0136781922 -0.0279220846
  endloop
 endfacet

 facet normal 0 0 0
  outer loop
  vertex 0.0301163234 0.0138242515 -0.0787660182
  vertex 0.0344894342 0.0104082776 -0.0795539916
  vertex 0.0322434381 0.0084788911 -0.0913421884
  endloop
 endfacet

 facet normal 0 0 0
  outer loop
  vertex 0.0301163234 0.0138242515 -0.0787660182
  vertex 0.0322434381 0.0084788911 -0.0913421884
  vertex 0.0271676425 0.00937689934 -0.0951284692
  endloop
 endfacet

 facet normal 0 0 0
  outer loop
  vertex 0.0301163234 0.0138242515 -0.0787660182
  vertex 0.0271676425 0.00937689934 -0.0951284692
  vertex 0.0239291545 0.0142614022 -0.0839669928
  endloop
 endfacet

 facet normal 0 0 0
  outer loop
  vertex 0.0301163234 0.0138242515 -0.0787660182
  vertex 0.0239291545 0.0142614022 -0.0839669928
  vertex 0.0272526946 0.0166666247 -0.0704259723
  endloop
 endfacet

 facet normal 0 0 0
  outer loop
  vertex 0.0301163234 0.0138242515 -0.0787660182
  vertex 0.0272526946 0.0166666247 -0.0704259723
  vertex 0.0319531299 0.0160907786 -0.0616242997
  endloop
 endfacet

 facet normal 0 0 0
  outer loop
  vertex 0.0301163234 0.0138242515 -0.0787660182
  vertex 0.0319531299 0.0160907786 -0.0616242997
  vertex 0.0344894342 0.0104082776 -0.0795539916
  endloop
 endfacet

 facet normal 0 0 0
  outer loop
  vertex 0.0260335021 0.0196378045 -0.0281025916
  vertex 0.0280635357 0.0196409728 -0.0370794944
  vertex 0.00446057739 0.0224265661 -0.00199841242
  endloop
 endfacet

 facet normal 0 0 0
  outer loop
  vertex 0.0260335021 0.0196378045 -0.0281025916
  vertex 0.00446057739 0.0224265661 -0.00199841242
  vertex 0.0108718639 0.0203489028 -0.0021979427
  endloop
 endfacet

 facet normal 0 0 0
  outer loop
  vertex 0.0260335021 0.0196378045 -0.0281025916
  vertex 0.0108718639 0.0203489028 -0.0021979427
  vertex 0.0289933011 0.016889004 -0.0242539365
  endloop
 endfacet

 facet normal 0 0 0
  outer loop
  vertex 0.0137319844 -0.023677947 -0.0356833041
  vertex 0.0214485228 -0.0233493391 -0.0309099834
  vertex 0.00446126284 -0.0224299766 -0.00200147834
  endloop
 endfacet

 facet normal 0 0 0
  outer loop
  vertex 0.0137319844 -0.023677947 -0.0356833041
  vertex 0.00446126284 -0.0224299766 -0.00200147834
  vertex -0.0045006508 -0.0226213764 -0.00220091129
  endloop
 endfacet

 facet normal 0 0 0
  outer loop
  vertex 0.0137319844 -0.023677947 -0.0356833041
  vertex -0.0045006508 -0.0226213764 -0.00220091129
  vertex -0.0238318294 -0.0215477198 -0.0442922898
  endloop
 endfacet

 facet normal 0 0 0
  outer loop
  vertex 0.0137319844 -0.023677947 -0.0356833041
  vertex -0.0238318294 -0.0215477198 -0.0442922898
  vertex -0.0281561613 -0.0197877157 -0.0846109539
  endloop
 endfacet

 facet normal 0 0 0
  outer loop
  vertex 0.0137319844 -0.023677947 -0.0356833041
  vertex -0.0281561613 -0.0197877157 -0.0846109539
  vertex 0.0308417603 -0.019656077 -0.084079951
  endloop
 endfacet

 facet normal 0 0 0
  outer loop
  vertex 0.0137319844 -0.023677947 -0.0356833041
  vertex 0.0308417603 -0.019656077 -0.084079951
  vertex 0.0214485228 -0.0233493391 -0.0309099834
  endloop
 endfacet

 facet normal 0 0 0
  outer loop
  vertex 0.0306976531 0.0128479125 -0.0208429284
  vertex 0.0331051573 0.0107187405 -0.0242570341
  vertex 0.0328146555 0.0153997177 -0.0324065238
  endloop
 endfacet

 facet normal 0 0 0
  outer loop
  vertex 0.0306976531 0.0128479125 -0.0208429284
  vertex 0.0328146555 0.0153997177 -0.0324065238
  vertex 0.0289933011 0.016889004 -0.0242539365
  endloop
 endfacet

 facet normal 0 0 0
  outer loop
  vertex 0.0306976531 0.0128479125 -0.0208429284
  vertex 0.0289933011 0.016889004 -0.0242539365
  vertex 0.0178249553 0.014644336 -0.00219765166
  endloop
 endfacet

 facet normal 0 0 0
  outer loop
  vertex 0.0306976531 0.0128479125 -0.0208429284
  vertex 0.0178249553 0.014644336 -0.00219765166
  vertex 0.0220709816 0.00671161944 -0.00219763536
  endloop
 endfacet

 facet normal 0 0 0
  outer loop
  vertex 0.0220709816 0.00671161944 -0.00219763536
  vertex 0.0325031318 0.00223323889 -0.0178874061
  vertex 0.0331051573 0.0107187405 -0.0242570341
  endloop
 endfacet

 facet normal 0 0 0
  outer loop
  vertex 0.0220709816 0.00671161944 -0.00219763536
  vertex 0.0331051573 0.0107187405 -0.0242570341
  vertex 0.0306976531 0.0128479125 -0.0208429284
  endloop
 endfacet

 facet normal 0 0 0
  outer loop
  vertex -0.0327476934 -0.016354721 -0.0231419224
  vertex -0.0304542594 -0.0159143023 -0.0180321205
  vertex -0.0332758911 -0.00432960549 -0.0195157379
  endloop
 endfacet

 facet normal 0 0 0
  outer loop
  vertex -0.0327476934 -0.016354721 -0.0231419224
  vertex -0.0332758911 -0.00432960549 -0.0195157379
  vertex -0.0348805897 -0.0120687168 -0.027484091
  endloop
 endfacet

 facet normal 0 0 0
  outer loop
  vertex -0.0348805897 -0.0120687168 -0.027484091
  vertex -0.0350294225 -0.0170069113 -0.0420778319
  vertex -0.0323723741 -0.018500926 -0.0268932693
  endloop
 endfacet

 facet normal 0 0 0
  outer loop
  vertex -0.0348805897 -0.0120687168 -0.027484091
  vertex -0.0323723741 -0.018500926 -0.0268932693
  vertex -0.0327476934 -0.016354721 -0.0231419224
  endloop
 endfacet

 facet normal 0 0 0
  outer loop
  vertex -0.0327476934 -0.016354721 -0.0231419224
  vertex -0.0323723741 -0.018500926 -0.0268932693
  vertex -0.0284891352 -0.0194234755 -0.0193180684
  endloop
 endfacet

 facet normal 0 0 0
  outer loop
  vertex -0.0327476934 -0.016354721 -0.0231419224
  vertex -0.0284891352 -0.0194234755 -0.0193180684
  vertex -0.0304542594 -0.0159143023 -0.0180321205
  endloop
 endfacet

 facet normal 0 0 0
  outer loop
  vertex -0.0241641179 0.0192689206 -0.0242089015
  vertex -0.0284494236 0.016786864 -0.0242025219
  vertex -0.0148693258 0.0176306162 -0.00219795108
  endloop
 endfacet

 facet normal 0 0 0
  outer loop
  vertex -0.0241641179 0.0192689206 -0.0242089015
  vertex -0.0148693258 0.0176306162 -0.00219795108
  vertex -0.0044916207 0.0226230882 -0.00219831755
  endloop
 endfacet

 facet normal 0 0 0
  outer loop
  vertex -0.0241641179 0.0192689206 -0.0242089015
  vertex -0.0044916207 0.0226230882 -0.00219831755
  vertex -0.0249872562 0.0201977342 -0.0364916734
  endloop
 endfacet

 facet normal 0 0 0
  outer loop
  vertex -0.0192614775 0.0209120959 -0.0469103828
  vertex -0.0203725528 0.0177393965 -0.0701462626
  vertex -0.0273305848 0.0177860465 -0.0608765371
  endloop
 endfacet

 facet normal 0 0 0
  outer loop
  vertex -0.0273305848 0.0177860465 -0.0608765371
  vertex -0.0290348865 0.0184644274 -0.0465229861
  vertex -0.0249872562 0.0201977342 -0.0364916734
  endloop
 endfacet

 facet normal 0 0 0
  outer loop
  vertex -0.0273305848 0.0177860465 -0.0608765371
  vertex -0.0249872562 0.0201977342 -0.0364916734
  vertex -0.0192614775 0.0209120959 -0.0469103828
  endloop
 endfacet

endsolid AssimpScene
