solid AssimpScene
 facet normal 0 0 0
  outer loop
  vertex -0.00566194532 0.0066996743 0.00349999499
  vertex -0.00566917984 0.00578224938 -0.00350000942
  vertex -0.00427505653 -0.00100245094 -0.00350001338
  endloop
 endfacet

 facet normal 0 0 0
  outer loop
  vertex -0.00566194532 0.0066996743 0.00349999499
  vertex -0.00427505653 -0.00100245094 -0.00350001338
  vertex -0.00427137781 -0.00101071142 0.00350000104
  endloop
 endfacet

 facet normal 0 0 0
  outer loop
  vertex 0.0361222625 -0.00743613858 0.000638317957
  vertex 0.0371814407 -0.00349831278 -1.0030577e-05
  vertex 0.0356953628 -0.00421250518 0.00433284696
  endloop
 endfacet

 facet normal 0 0 0
  outer loop
  vertex -0.00470153568 0.00822648313 -0.00349998614
  vertex -0.00566917984 0.00578224938 -0.00350000942
  vertex -0.00566194532 0.0066996743 0.00349999499
  endloop
 endfacet

 facet normal 0 0 0
  outer loop
  vertex -0.00470153568 0.00822648313 -0.00349998614
  vertex 0.00462362589 0.0131692607 -0.000429775449
  vertex 0.00543199945 0.0113615179 -0.00480719283
  endloop
 endfacet

 facet normal 0 0 0
  outer loop
  vertex 0.0320726968 -0.00906410627 -0.00178459496
  vertex 0.0271645691 -0.00698316004 -0.00456119189
  vertex 0.0349316448 -0.00673656864 -0.00356090581
  endloop
 endfacet

 facet normal 0 0 0
  outer loop
  vertex 0.0320726968 -0.00906410627 -0.00178459496
  vertex 0.0349316448 -0.00673656864 -0.00356090581
  vertex 0.0361222625 -0.00743613858 0.000638317957
  endloop
 endfacet

 facet normal 0 0 0
  outer loop
  vertex 0.0320726968 -0.00906410627 -0.00178459496
  vertex 0.0361222625 -0.00743613858 0.000638317957
  vertex 0.0327042155 -0.00900600106 0.00167291786
  endloop
 endfacet

 facet normal 0 0 0
  outer loop
  vertex 0.0320726968 -0.00906410627 -0.00178459496
  vertex 0.0327042155 -0.00900600106 0.00167291786
  vertex -0.00203375542 -0.00352693815 0.00350001059
  endloop
 endfacet

 facet normal 0 0 0
  outer loop
  vertex 0.0320726968 -0.00906410627 -0.00178459496
  vertex -0.00203375542 -0.00352693815 0.00350001059
  vertex -0.00238511059 -0.00339486636 -0.003500005
  endloop
 endfacet

 facet normal 0 0 0
  outer loop
  vertex 0.0320726968 -0.00906410627 -0.00178459496
  vertex -0.00238511059 -0.00339486636 -0.003500005
  vertex 0.0271645691 -0.00698316004 -0.00456119189
  endloop
 endfacet

 facet normal 0 0 0
  outer loop
  vertex -0.00427137781 -0.00101071142 0.00350000104
  vertex 0.00410198933 0.00220030826 0.00719572231
  vertex -0.00566194532 0.0066996743 0.00349999499
  endloop
 endfacet

 facet normal 0 0 0
  outer loop
  vertex -0.00427137781 -0.00101071142 0.00350000104
  vertex -0.00238511059 -0.00339486636 -0.003500005
  vertex -0.00203375542 -0.00352693815 0.00350001059
  endloop
 endfacet

 facet normal 0 0 0
  outer loop
  vertex 0.0282893945 -0.00724949315 0.00440655276
  vertex -0.00203375542 -0.00352693815 0.00350001059
  vertex 0.0327042155 -0.00900600106 0.00167291786
  endloop
 endfacet

 facet normal 0 0 0
  outer loop
  vertex 0.00411708001 0.00251758518 -0.00722932816
  vertex -0.00566917984 0.00578224938 -0.00350000942
  vertex -0.00470153568 0.00822648313 -0.00349998614
  endloop
 endfacet

 facet normal 0 0 0
  outer loop
  vertex 0.00411708001 0.00251758518 -0.00722932816
  vertex -0.00470153568 0.00822648313 -0.00349998614
  vertex 0.00441605784 0.00880453456 -0.00664341543
  endloop
 endfacet

 facet normal 0 0 0
  outer loop
  vertex 0.00441605784 0.00880453456 -0.00664341543
  vertex -0.00470153568 0.00822648313 -0.00349998614
  vertex 0.00543199945 0.0113615179 -0.00480719283
  endloop
 endfacet

 facet normal 0 0 0
  outer loop
  vertex 0.00441605784 0.00880453456 -0.00664341543
  vertex 0.00543199945 0.0113615179 -0.00480719283
  vertex 0.0322367996 -0.00118496479 -0.00593776396
  endloop
 endfacet

 facet normal 0 0 0
  outer loop
  vertex 0.0362815075 -0.00193566992 0.0028658642
  vertex 0.0356953628 -0.00421250518 0.00433284696
  vertex 0.0371814407 -0.00349831278 -1.0030577e-05
  endloop
 endfacet

 facet normal 0 0 0
  outer loop
  vertex 0.0362815075 -0.00193566992 0.0028658642
  vertex 0.0184089802 0.00793659035 -5.01264776e-06
  vertex 0.0327198692 -0.000413995702 0.00492564589
  endloop
 endfacet

 facet normal 0 0 0
  outer loop
  vertex 0.0039166729 -0.00169656135 -0.00620629778
  vertex 0.0271645691 -0.00698316004 -0.00456119189
  vertex -0.00238511059 -0.00339486636 -0.003500005
  endloop
 endfacet

 facet normal 0 0 0
  outer loop
  vertex 0.00392191019 -0.00158641709 0.00625349395
  vertex -0.00203375542 -0.00352693815 0.00350001059
  vertex 0.0282893945 -0.00724949315 0.00440655276
  endloop
 endfacet

 facet normal 0 0 0
  outer loop
  vertex 0.00392191019 -0.00158641709 0.00625349395
  vertex 0.0282893945 -0.00724949315 0.00440655276
  vertex 0.0296206996 -0.00300351973 0.00641041994
  endloop
 endfacet

 facet normal 0 0 0
  outer loop
  vertex 0.00392191019 -0.00158641709 0.00625349395
  vertex 0.0296206996 -0.00300351973 0.00641041994
  vertex 0.00410198933 0.00220030826 0.00719572231
  endloop
 endfacet

 facet normal 0 0 0
  outer loop
  vertex 0.00392191019 -0.00158641709 0.00625349395
  vertex 0.00410198933 0.00220030826 0.00719572231
  vertex -0.00427137781 -0.00101071142 0.00350000104
  endloop
 endfacet

 facet normal 0 0 0
  outer loop
  vertex 0.00392191019 -0.00158641709 0.00625349395
  vertex -0.00427137781 -0.00101071142 0.00350000104
  vertex -0.00203375542 -0.00352693815 0.00350001059
  endloop
 endfacet

 facet normal 0 0 0
  outer loop
  vertex 0.0133048957 0.00509213004 0.00689305412
  vertex 0.00410198933 0.00220030826 0.00719572231
  vertex 0.0296206996 -0.00300351973 0.00641041994
  endloop
 endfacet

 facet normal 0 0 0
  outer loop
  vertex 0.0133048957 0.00509213004 0.00689305412
  vertex 0.0334074646 -0.00189172523 0.00569627481
  vertex 0.0327198692 -0.000413995702 0.00492564589
  endloop
 endfacet

 facet normal 0 0 0
  outer loop
  vertex 0.0133048957 0.00509213004 0.00689305412
  vertex 0.0327198692 -0.000413995702 0.00492564589
  vertex 0.00452531362 0.0111019425 0.00527146412
  endloop
 endfacet

 facet normal 0 0 0
  outer loop
  vertex 0.0274548233 -0.00255396753 -0.00665843347
  vertex 0.0271645691 -0.00698316004 -0.00456119189
  vertex 0.0039166729 -0.00169656135 -0.00620629778
  endloop
 endfacet

 facet normal 0 0 0
  outer loop
  vertex 0.0274548233 -0.00255396753 -0.00665843347
  vertex 0.0039166729 -0.00169656135 -0.00620629778
  vertex 0.00411708001 0.00251758518 -0.00722932816
  endloop
 endfacet

 facet normal 0 0 0
  outer loop
  vertex 0.0274548233 -0.00255396753 -0.00665843347
  vertex 0.00411708001 0.00251758518 -0.00722932816
  vertex 0.00441605784 0.00880453456 -0.00664341543
  endloop
 endfacet

 facet normal 0 0 0
  outer loop
  vertex 0.0274548233 -0.00255396753 -0.00665843347
  vertex 0.00441605784 0.00880453456 -0.00664341543
  vertex 0.0322367996 -0.00118496479 -0.00593776396
  endloop
 endfacet

 facet normal 0 0 0
  outer loop
  vertex -0.00427505653 -0.00100245094 -0.00350001338
  vertex -0.00238511059 -0.00339486636 -0.003500005
  vertex -0.00427137781 -0.00101071142 0.00350000104
  endloop
 endfacet

 facet normal 0 0 0
  outer loop
  vertex -0.00427505653 -0.00100245094 -0.00350001338
  vertex -0.00566917984 0.00578224938 -0.00350000942
  vertex 0.00411708001 0.00251758518 -0.00722932816
  endloop
 endfacet

 facet normal 0 0 0
  outer loop
  vertex 0.00411708001 0.00251758518 -0.00722932816
  vertex 0.0039166729 -0.00169656135 -0.00620629778
  vertex -0.00238511059 -0.00339486636 -0.003500005
  endloop
 endfacet

 facet normal 0 0 0
  outer loop
  vertex 0.00411708001 0.00251758518 -0.00722932816
  vertex -0.00238511059 -0.00339486636 -0.003500005
  vertex -0.00427505653 -0.00100245094 -0.00350001338
  endloop
 endfacet

 facet normal 0 0 0
  outer loop
  vertex -0.00470153894 0.00822648406 0.00350000919
  vertex 0.00462362589 0.0131692607 -0.000429775449
  vertex -0.00470153568 0.00822648313 -0.00349998614
  endloop
 endfacet

 facet normal 0 0 0
  outer loop
  vertex -0.00470153894 0.00822648406 0.00350000919
  vertex -0.00470153568 0.00822648313 -0.00349998614
  vertex -0.00566194532 0.0066996743 0.00349999499
  endloop
 endfacet

 facet normal 0 0 0
  outer loop
  vertex 0.00438170927 0.0080822045 0.00683367765
  vertex 0.00410198933 0.00220030826 0.00719572231
  vertex 0.0133048957 0.00509213004 0.00689305412
  endloop
 endfacet

 facet normal 0 0 0
  outer loop
  vertex 0.00438170927 0.0080822045 0.00683367765
  vertex 0.0133048957 0.00509213004 0.00689305412
  vertex 0.00452531362 0.0111019425 0.00527146412
  endloop
 endfacet

 facet normal 0 0 0
  outer loop
  vertex 0.00438170927 0.0080822045 0.00683367765
  vertex 0.00452531362 0.0111019425 0.00527146412
  vertex -0.00470153894 0.00822648406 0.00350000919
  endloop
 endfacet

 facet normal 0 0 0
  outer loop
  vertex 0.00438170927 0.0080822045 0.00683367765
  vertex -0.00470153894 0.00822648406 0.00350000919
  vertex -0.00566194532 0.0066996743 0.00349999499
  endloop
 endfacet

 facet normal 0 0 0
  outer loop
  vertex 0.00438170927 0.0080822045 0.00683367765
  vertex -0.00566194532 0.0066996743 0.00349999499
  vertex 0.00410198933 0.00220030826 0.00719572231
  endloop
 endfacet

 facet normal 0 0 0
  outer loop
  vertex 0.0331043042 -0.00697482983 0.00419583078
  vertex 0.0356953628 -0.00421250518 0.00433284696
  vertex 0.0334074646 -0.00189172523 0.00569627481
  endloop
 endfacet

 facet normal 0 0 0
  outer loop
  vertex 0.0331043042 -0.00697482983 0.00419583078
  vertex 0.0334074646 -0.00189172523 0.00569627481
  vertex 0.0296206996 -0.00300351973 0.00641041994
  endloop
 endfacet

 facet normal 0 0 0
  outer loop
  vertex 0.0331043042 -0.00697482983 0.00419583078
  vertex 0.0296206996 -0.00300351973 0.00641041994
  vertex 0.0282893945 -0.00724949315 0.00440655276
  endloop
 endfacet

 facet normal 0 0 0
  outer loop
  vertex 0.0331043042 -0.00697482983 0.00419583078
  vertex 0.0282893945 -0.00724949315 0.00440655276
  vertex 0.0327042155 -0.00900600106 0.00167291786
  endloop
 endfacet

 facet normal 0 0 0
  outer loop
  vertex 0.0331043042 -0.00697482983 0.00419583078
  vertex 0.0327042155 -0.00900600106 0.00167291786
  vertex 0.0361222625 -0.00743613858 0.000638317957
  endloop
 endfacet

 facet normal 0 0 0
  outer loop
  vertex 0.0331043042 -0.00697482983 0.00419583078
  vertex 0.0361222625 -0.00743613858 0.000638317957
  vertex 0.0356953628 -0.00421250518 0.00433284696
  endloop
 endfacet

 facet normal 0 0 0
  outer loop
  vertex 0.0354098715 -0.00123673957 -0.00267782481
  vertex 0.0184089802 0.00793659035 -5.01264776e-06
  vertex 0.0362815075 -0.00193566992 0.0028658642
  endloop
 endfacet

 facet normal 0 0 0
  outer loop
  vertex 0.0354098715 -0.00123673957 -0.00267782481
  vertex 0.0362815075 -0.00193566992 0.0028658642
  vertex 0.0371814407 -0.00349831278 -1.0030577e-05
  endloop
 endfacet

 facet normal 0 0 0
  outer loop
  vertex 0.0354098715 -0.00123673957 -0.00267782481
  vertex 0.0371814407 -0.00349831278 -1.0030577e-05
  vertex 0.0359969921 -0.00278527825 -0.00410038885
  endloop
 endfacet

 facet normal 0 0 0
  outer loop
  vertex 0.0354098715 -0.00123673957 -0.00267782481
  vertex 0.0359969921 -0.00278527825 -0.00410038885
  vertex 0.0322367996 -0.00118496479 -0.00593776396
  endloop
 endfacet

 facet normal 0 0 0
  outer loop
  vertex 0.0365993343 -0.00583407236 -0.00214099674
  vertex 0.0371814407 -0.00349831278 -1.0030577e-05
  vertex 0.0361222625 -0.00743613858 0.000638317957
  endloop
 endfacet

 facet normal 0 0 0
  outer loop
  vertex 0.0365993343 -0.00583407236 -0.00214099674
  vertex 0.0361222625 -0.00743613858 0.000638317957
  vertex 0.0349316448 -0.00673656864 -0.00356090581
  endloop
 endfacet

 facet normal 0 0 0
  outer loop
  vertex 0.0365993343 -0.00583407236 -0.00214099674
  vertex 0.0349316448 -0.00673656864 -0.00356090581
  vertex 0.0359969921 -0.00278527825 -0.00410038885
  endloop
 endfacet

 facet normal 0 0 0
  outer loop
  vertex 0.0365993343 -0.00583407236 -0.00214099674
  vertex 0.0359969921 -0.00278527825 -0.00410038885
  vertex 0.0371814407 -0.00349831278 -1.0030577e-05
  endloop
 endfacet

 facet normal 0 0 0
  outer loop
  vertex 0.0065708356 0.012242659 0.0025491009
  vertex 0.0184089802 0.00793659035 -5.01264776e-06
  vertex 0.00462362589 0.0131692607 -0.000429775449
  endloop
 endfacet

 facet normal 0 0 0
  outer loop
  vertex 0.0065708356 0.012242659 0.0025491009
  vertex 0.00460148603 0.0127036897 0.0029355234
  vertex 0.00452531362 0.0111019425 0.00527146412
  endloop
 endfacet

 facet normal 0 0 0
  outer loop
  vertex 0.0065708356 0.012242659 0.0025491009
  vertex 0.00452531362 0.0111019425 0.00527146412
  vertex 0.0327198692 -0.000413995702 0.00492564589
  endloop
 endfacet

 facet normal 0 0 0
  outer loop
  vertex 0.0065708356 0.012242659 0.0025491009
  vertex 0.0327198692 -0.000413995702 0.00492564589
  vertex 0.0184089802 0.00793659035 -5.01264776e-06
  endloop
 endfacet

 facet normal 0 0 0
  outer loop
  vertex 0.0334074646 -0.00189172523 0.00569627481
  vertex 0.0356953628 -0.00421250518 0.00433284696
  vertex 0.0362815075 -0.00193566992 0.0028658642
  endloop
 endfacet

 facet normal 0 0 0
  outer loop
  vertex 0.0334074646 -0.00189172523 0.00569627481
  vertex 0.0362815075 -0.00193566992 0.0028658642
  vertex 0.0327198692 -0.000413995702 0.00492564589
  endloop
 endfacet

 facet normal 0 0 0
  outer loop
  vertex 0.0334074646 -0.00189172523 0.00569627481
  vertex 0.0133048957 0.00509213004 0.00689305412
  vertex 0.0296206996 -0.00300351973 0.00641041994
  endloop
 endfacet

 facet normal 0 0 0
  outer loop
  vertex 0.0335003063 -0.00460082479 -0.00537146488
  vertex 0.0349316448 -0.00673656864 -0.00356090581
  vertex 0.0271645691 -0.00698316004 -0.00456119189
  endloop
 endfacet

 facet normal 0 0 0
  outer loop
  vertex 0.0335003063 -0.00460082479 -0.00537146488
  vertex 0.0271645691 -0.00698316004 -0.00456119189
  vertex 0.0274548233 -0.00255396753 -0.00665843347
  endloop
 endfacet

 facet normal 0 0 0
  outer loop
  vertex 0.0335003063 -0.00460082479 -0.00537146488
  vertex 0.0274548233 -0.00255396753 -0.00665843347
  vertex 0.0322367996 -0.00118496479 -0.00593776396
  endloop
 endfacet

 facet normal 0 0 0
  outer loop
  vertex 0.0335003063 -0.00460082479 -0.00537146488
  vertex 0.0322367996 -0.00118496479 -0.00593776396
  vertex 0.0359969921 -0.00278527825 -0.00410038885
  endloop
 endfacet

 facet normal 0 0 0
  outer loop
  vertex 0.0335003063 -0.00460082479 -0.00537146488
  vertex 0.0359969921 -0.00278527825 -0.00410038885
  vertex 0.0349316448 -0.00673656864 -0.00356090581
  endloop
 endfacet

 facet normal 0 0 0
  outer loop
  vertex 0.00543199945 0.0113615179 -0.00480719283
  vertex 0.00462362589 0.0131692607 -0.000429775449
  vertex 0.0184089802 0.00793659035 -5.01264776e-06
  endloop
 endfacet

 facet normal 0 0 0
  outer loop
  vertex 0.00543199945 0.0113615179 -0.00480719283
  vertex 0.0184089802 0.00793659035 -5.01264776e-06
  vertex 0.0193738304 0.00627001794 -0.00429233257
  endloop
 endfacet

 facet normal 0 0 0
  outer loop
  vertex 0.0193738304 0.00627001794 -0.00429233257
  vertex 0.0184089802 0.00793659035 -5.01264776e-06
  vertex 0.0354098715 -0.00123673957 -0.00267782481
  endloop
 endfacet

 facet normal 0 0 0
  outer loop
  vertex 0.0193738304 0.00627001794 -0.00429233257
  vertex 0.0354098715 -0.00123673957 -0.00267782481
  vertex 0.0322367996 -0.00118496479 -0.00593776396
  endloop
 endfacet

 facet normal 0 0 0
  outer loop
  vertex 0.0193738304 0.00627001794 -0.00429233257
  vertex 0.0322367996 -0.00118496479 -0.00593776396
  vertex 0.00543199945 0.0113615179 -0.00480719283
  endloop
 endfacet

 facet normal 0 0 0
  outer loop
  vertex 0.00460148603 0.0127036897 0.0029355234
  vertex 0.0065708356 0.012242659 0.0025491009
  vertex 0.00462362589 0.0131692607 -0.000429775449
  endloop
 endfacet

 facet normal 0 0 0
  outer loop
  vertex 0.00460148603 0.0127036897 0.0029355234
  vertex 0.00462362589 0.0131692607 -0.000429775449
  vertex -0.00470153894 0.00822648406 0.00350000919
  endloop
 endfacet

 facet normal 0 0 0
  outer loop
  vertex 0.00460148603 0.0127036897 0.0029355234
  vertex -0.00470153894 0.00822648406 0.00350000919
  vertex 0.00452531362 0.0111019425 0.00527146412
  endloop
 endfacet

endsolid AssimpScene
