solid AssimpScene
 facet normal 0 0 0
  outer loop
  vertex 0.0303349551 0.000740375544 0.00737988716
  vertex 0.0300962832 -0.00376876723 0.00777535746
  vertex 0.0331006162 -0.00529892836 0.00591816241
  endloop
 endfacet

 facet normal 0 0 0
  outer loop
  vertex 0.0303349551 0.000740375544 0.00737988716
  vertex 0.0331006162 -0.00529892836 0.00591816241
  vertex 0.0354538187 -0.00386611815 0.0042096097
  endloop
 endfacet

 facet normal 0 0 0
  outer loop
  vertex 0.0303349551 0.000740375544 0.00737988716
  vertex 0.0354538187 -0.00386611815 0.0042096097
  vertex 0.0340142958 0.000282997033 0.00502150273
  endloop
 endfacet

 facet normal 0 0 0
  outer loop
  vertex -0.00321093621 -0.00925622322 -0.00619999925
  vertex -0.00308984588 -0.00800951943 0.00800000038
  vertex -0.00403686846 -0.00387341436 -0.00619999925
  endloop
 endfacet

 facet normal 0 0 0
  outer loop
  vertex 0.00802741852 -0.0138411019 -0.00071651279
  vertex 0.00709043816 -0.0119375139 -0.00867106207
  vertex 0.0333118364 -0.00613118475 -0.00491430471
  endloop
 endfacet

 facet normal 0 0 0
  outer loop
  vertex 0.00802741852 -0.0138411019 -0.00071651279
  vertex 0.0337280743 -0.00654802052 0.00358369411
  vertex 0.00733862212 -0.0124388933 0.00787591003
  endloop
 endfacet

 facet normal 0 0 0
  outer loop
  vertex 0.00802741852 -0.0138411019 -0.00071651279
  vertex -0.00321093621 -0.00925622322 -0.00619999925
  vertex 0.00709043816 -0.0119375139 -0.00867106207
  endloop
 endfacet

 facet normal 0 0 0
  outer loop
  vertex -0.00308984588 -0.00800951943 -0.00800000038
  vertex 0.00663199089 0.00149799243 -0.0104025146
  vertex 0.00482187327 -0.00710372487 -0.0105478335
  endloop
 endfacet

 facet normal 0 0 0
  outer loop
  vertex -0.00308984588 -0.00800951943 -0.00800000038
  vertex 0.00482187327 -0.00710372487 -0.0105478335
  vertex 0.00709043816 -0.0119375139 -0.00867106207
  endloop
 endfacet

 facet normal 0 0 0
  outer loop
  vertex -0.00308984588 -0.00800951943 -0.00800000038
  vertex 0.00709043816 -0.0119375139 -0.00867106207
  vertex -0.00321093621 -0.00925622322 -0.00619999925
  endloop
 endfacet

 facet normal 0 0 0
  outer loop
  vertex -0.00308984588 -0.00800951943 -0.00800000038
  vertex -0.00321093621 -0.00925622322 -0.00619999925
  vertex -0.00403686846 -0.00387341436 -0.00619999925
  endloop
 endfacet

 facet normal 0 0 0
  outer loop
  vertex 0.0300239492 -0.00225129374 -0.00788812153
  vertex 0.00482187327 -0.00710372487 -0.0105478335
  vertex 0.00663199089 0.00149799243 -0.0104025146
  endloop
 endfacet

 facet normal 0 0 0
  outer loop
  vertex 0.0300239492 -0.00225129374 -0.00788812153
  vertex 0.00663199089 0.00149799243 -0.0104025146
  vertex 0.0235557482 0.00232237414 -0.00878393929
  endloop
 endfacet

 facet normal 0 0 0
  outer loop
  vertex 0.0235557482 0.00232237414 -0.00878393929
  vertex 0.00663199089 0.00149799243 -0.0104025146
  vertex 0.00686538639 0.0048928652 -0.00923675112
  endloop
 endfacet

 facet normal 0 0 0
  outer loop
  vertex 0.0235557482 0.00232237414 -0.00878393929
  vertex 0.00686538639 0.0048928652 -0.00923675112
  vertex 0.0116734123 0.00587476883 -0.00732084643
  endloop
 endfacet

 facet normal 0 0 0
  outer loop
  vertex 0.0235557482 0.00232237414 -0.00878393929
  vertex 0.0116734123 0.00587476883 -0.00732084643
  vertex 0.0288034361 0.00401312811 -0.00585929584
  endloop
 endfacet

 facet normal 0 0 0
  outer loop
  vertex 0.022214463 0.00637089508 -0.00206838083
  vertex 0.0288034361 0.00401312811 -0.00585929584
  vertex 0.0116734123 0.00587476883 -0.00732084643
  endloop
 endfacet

 facet normal 0 0 0
  outer loop
  vertex 0.0354542993 -0.00629019365 -0.000779958209
  vertex 0.0337280743 -0.00654802052 0.00358369411
  vertex 0.00802741852 -0.0138411019 -0.00071651279
  endloop
 endfacet

 facet normal 0 0 0
  outer loop
  vertex 0.0354542993 -0.00629019365 -0.000779958209
  vertex 0.00802741852 -0.0138411019 -0.00071651279
  vertex 0.0333118364 -0.00613118475 -0.00491430471
  endloop
 endfacet

 facet normal 0 0 0
  outer loop
  vertex -0.00339973811 -0.000370550639 -0.00619999925
  vertex -0.00251502264 0.00118717714 0.00619999925
  vertex 0.000167110818 0.00352857565 -0.00619999925
  endloop
 endfacet

 facet normal 0 0 0
  outer loop
  vertex -0.00339973811 -0.000370550639 -0.00619999925
  vertex 0.000167110818 0.00352857565 -0.00619999925
  vertex 0.00686538639 0.0048928652 -0.00923675112
  endloop
 endfacet

 facet normal 0 0 0
  outer loop
  vertex -0.00339973811 -0.000370550639 -0.00619999925
  vertex 0.00686538639 0.0048928652 -0.00923675112
  vertex 0.00663199089 0.00149799243 -0.0104025146
  endloop
 endfacet

 facet normal 0 0 0
  outer loop
  vertex -0.00339973811 -0.000370550639 -0.00619999925
  vertex 0.00663199089 0.00149799243 -0.0104025146
  vertex -0.00308984588 -0.00800951943 -0.00800000038
  endloop
 endfacet

 facet normal 0 0 0
  outer loop
  vertex -0.00339973811 -0.000370550639 -0.00619999925
  vertex -0.00308984588 -0.00800951943 -0.00800000038
  vertex -0.00403686846 -0.00387341436 -0.00619999925
  endloop
 endfacet

 facet normal 0 0 0
  outer loop
  vertex -0.00391564285 -0.00208608573 0.00619999925
  vertex -0.00308984588 -0.00800951943 0.00800000038
  vertex -0.00251502264 0.00118717714 0.00619999925
  endloop
 endfacet

 facet normal 0 0 0
  outer loop
  vertex -0.00391564285 -0.00208608573 0.00619999925
  vertex -0.00251502264 0.00118717714 0.00619999925
  vertex -0.00339973811 -0.000370550639 -0.00619999925
  endloop
 endfacet

 facet normal 0 0 0
  outer loop
  vertex -0.00391564285 -0.00208608573 0.00619999925
  vertex -0.00339973811 -0.000370550639 -0.00619999925
  vertex -0.00403686846 -0.00387341436 -0.00619999925
  endloop
 endfacet

 facet normal 0 0 0
  outer loop
  vertex -0.00391564285 -0.00208608573 0.00619999925
  vertex -0.00403686846 -0.00387341436 -0.00619999925
  vertex -0.00308984588 -0.00800951943 0.00800000038
  endloop
 endfacet

 facet normal 0 0 0
  outer loop
  vertex -0.0025434515 -0.00966049172 0.00619999925
  vertex -0.00321093621 -0.00925622322 -0.00619999925
  vertex 0.00802741852 -0.0138411019 -0.00071651279
  endloop
 endfacet

 facet normal 0 0 0
  outer loop
  vertex -0.0025434515 -0.00966049172 0.00619999925
  vertex 0.00802741852 -0.0138411019 -0.00071651279
  vertex 0.00733862212 -0.0124388933 0.00787591003
  endloop
 endfacet

 facet normal 0 0 0
  outer loop
  vertex -0.0025434515 -0.00966049172 0.00619999925
  vertex -0.00308984588 -0.00800951943 0.00800000038
  vertex -0.00321093621 -0.00925622322 -0.00619999925
  endloop
 endfacet

 facet normal 0 0 0
  outer loop
  vertex 0.0153263006 0.00602473738 0.00627222424
  vertex 0.00690202927 0.00637024036 0.00693075918
  vertex 0.00683554914 0.00410944829 0.00975736789
  endloop
 endfacet

 facet normal 0 0 0
  outer loop
  vertex 0.0153263006 0.00602473738 0.00627222424
  vertex 0.00683554914 0.00410944829 0.00975736789
  vertex 0.0268232822 0.00347185112 0.00740542775
  endloop
 endfacet

 facet normal 0 0 0
  outer loop
  vertex 0.0153263006 0.00602473738 0.00627222424
  vertex 0.0268232822 0.00347185112 0.00740542775
  vertex 0.0299657434 0.00468194764 0.0029144038
  endloop
 endfacet

 facet normal 0 0 0
  outer loop
  vertex 0.0153263006 0.00602473738 0.00627222424
  vertex 0.0299657434 0.00468194764 0.0029144038
  vertex 0.022214463 0.00637089508 -0.00206838083
  endloop
 endfacet

 facet normal 0 0 0
  outer loop
  vertex 0.0153263006 0.00602473738 0.00627222424
  vertex 0.022214463 0.00637089508 -0.00206838083
  vertex 0.00691635301 0.00730653573 0.00174458907
  endloop
 endfacet

 facet normal 0 0 0
  outer loop
  vertex 0.0223813709 -8.30398058e-05 0.00938424934
  vertex 0.0268232822 0.00347185112 0.00740542775
  vertex 0.00683554914 0.00410944829 0.00975736789
  endloop
 endfacet

 facet normal 0 0 0
  outer loop
  vertex 0.0223813709 -8.30398058e-05 0.00938424934
  vertex 0.00520430692 -0.00816726498 0.0104786893
  vertex 0.0300962832 -0.00376876723 0.00777535746
  endloop
 endfacet

 facet normal 0 0 0
  outer loop
  vertex 0.00690202927 0.00637024036 0.00693075918
  vertex 0.0153263006 0.00602473738 0.00627222424
  vertex 0.00691635301 0.00730653573 0.00174458907
  endloop
 endfacet

 facet normal 0 0 0
  outer loop
  vertex 0.00691020675 0.00685508503 -0.00523337955
  vertex 0.0116734123 0.00587476883 -0.00732084643
  vertex 0.00686538639 0.0048928652 -0.00923675112
  endloop
 endfacet

 facet normal 0 0 0
  outer loop
  vertex 0.00691020675 0.00685508503 -0.00523337955
  vertex 0.00686538639 0.0048928652 -0.00923675112
  vertex 0.000167110818 0.00352857565 -0.00619999925
  endloop
 endfacet

 facet normal 0 0 0
  outer loop
  vertex 0.00691020675 0.00685508503 -0.00523337955
  vertex 0.000167110818 0.00352857565 -0.00619999925
  vertex 0.00691635301 0.00730653573 0.00174458907
  endloop
 endfacet

 facet normal 0 0 0
  outer loop
  vertex 0.00691020675 0.00685508503 -0.00523337955
  vertex 0.00691635301 0.00730653573 0.00174458907
  vertex 0.022214463 0.00637089508 -0.00206838083
  endloop
 endfacet

 facet normal 0 0 0
  outer loop
  vertex 0.00691020675 0.00685508503 -0.00523337955
  vertex 0.022214463 0.00637089508 -0.00206838083
  vertex 0.0116734123 0.00587476883 -0.00732084643
  endloop
 endfacet

 facet normal 0 0 0
  outer loop
  vertex 0.0286591053 -0.00529755792 -0.00779736973
  vertex 0.0333118364 -0.00613118475 -0.00491430471
  vertex 0.00709043816 -0.0119375139 -0.00867106207
  endloop
 endfacet

 facet normal 0 0 0
  outer loop
  vertex 0.0286591053 -0.00529755792 -0.00779736973
  vertex 0.00709043816 -0.0119375139 -0.00867106207
  vertex 0.00482187327 -0.00710372487 -0.0105478335
  endloop
 endfacet

 facet normal 0 0 0
  outer loop
  vertex 0.0286591053 -0.00529755792 -0.00779736973
  vertex 0.00482187327 -0.00710372487 -0.0105478335
  vertex 0.0300239492 -0.00225129374 -0.00788812153
  endloop
 endfacet

 facet normal 0 0 0
  outer loop
  vertex 0.0358284414 -0.00446867943 -0.00336428918
  vertex 0.0366740935 -0.00382566289 -1.6302566e-09
  vertex 0.0354542993 -0.00629019365 -0.000779958209
  endloop
 endfacet

 facet normal 0 0 0
  outer loop
  vertex 0.0358284414 -0.00446867943 -0.00336428918
  vertex 0.0354542993 -0.00629019365 -0.000779958209
  vertex 0.0333118364 -0.00613118475 -0.00491430471
  endloop
 endfacet

 facet normal 0 0 0
  outer loop
  vertex 0.0358454548 -7.05881976e-05 0.00177616358
  vertex 0.0340142958 0.000282997033 0.00502150273
  vertex 0.0354538187 -0.00386611815 0.0042096097
  endloop
 endfacet

 facet normal 0 0 0
  outer loop
  vertex 0.0358454548 -7.05881976e-05 0.00177616358
  vertex 0.0354538187 -0.00386611815 0.0042096097
  vertex 0.0366740935 -0.00382566289 -1.6302566e-09
  endloop
 endfacet

 facet normal 0 0 0
  outer loop
  vertex 0.0284383148 -0.00639216928 0.00709064864
  vertex 0.00733862212 -0.0124388933 0.00787591003
  vertex 0.0337280743 -0.00654802052 0.00358369411
  endloop
 endfacet

 facet normal 0 0 0
  outer loop
  vertex 0.0309571549 0.00139295531 -0.00682664197
  vertex 0.0288034361 0.00401312811 -0.00585929584
  vertex 0.0346134081 0.00195151358 -0.00174698513
  endloop
 endfacet

 facet normal 0 0 0
  outer loop
  vertex 0.0309571549 0.00139295531 -0.00682664197
  vertex 0.0346134081 0.00195151358 -0.00174698513
  vertex 0.0345937014 -0.00137816614 -0.00510380277
  endloop
 endfacet

 facet normal 0 0 0
  outer loop
  vertex 0.0309571549 0.00139295531 -0.00682664197
  vertex 0.0300239492 -0.00225129374 -0.00788812153
  vertex 0.0235557482 0.00232237414 -0.00878393929
  endloop
 endfacet

 facet normal 0 0 0
  outer loop
  vertex 0.0309571549 0.00139295531 -0.00682664197
  vertex 0.0235557482 0.00232237414 -0.00878393929
  vertex 0.0288034361 0.00401312811 -0.00585929584
  endloop
 endfacet

 facet normal 0 0 0
  outer loop
  vertex 0.0331006162 -0.00529892836 0.00591816241
  vertex 0.0300962832 -0.00376876723 0.00777535746
  vertex 0.0284383148 -0.00639216928 0.00709064864
  endloop
 endfacet

 facet normal 0 0 0
  outer loop
  vertex 0.0331006162 -0.00529892836 0.00591816241
  vertex 0.0284383148 -0.00639216928 0.00709064864
  vertex 0.0337280743 -0.00654802052 0.00358369411
  endloop
 endfacet

 facet normal 0 0 0
  outer loop
  vertex 0.0311574321 0.00441455143 -0.00170331728
  vertex 0.0346134081 0.00195151358 -0.00174698513
  vertex 0.0288034361 0.00401312811 -0.00585929584
  endloop
 endfacet

 facet normal 0 0 0
  outer loop
  vertex 0.0311574321 0.00441455143 -0.00170331728
  vertex 0.0288034361 0.00401312811 -0.00585929584
  vertex 0.022214463 0.00637089508 -0.00206838083
  endloop
 endfacet

 facet normal 0 0 0
  outer loop
  vertex 0.0311574321 0.00441455143 -0.00170331728
  vertex 0.022214463 0.00637089508 -0.00206838083
  vertex 0.0299657434 0.00468194764 0.0029144038
  endloop
 endfacet

 facet normal 0 0 0
  outer loop
  vertex 0.0336090066 0.0029312796 0.00172204268
  vertex 0.0340142958 0.000282997033 0.00502150273
  vertex 0.0358454548 -7.05881976e-05 0.00177616358
  endloop
 endfacet

 facet normal 0 0 0
  outer loop
  vertex 0.0336090066 0.0029312796 0.00172204268
  vertex 0.0358454548 -7.05881976e-05 0.00177616358
  vertex 0.0346134081 0.00195151358 -0.00174698513
  endloop
 endfacet

 facet normal 0 0 0
  outer loop
  vertex 0.0336090066 0.0029312796 0.00172204268
  vertex 0.0346134081 0.00195151358 -0.00174698513
  vertex 0.0311574321 0.00441455143 -0.00170331728
  endloop
 endfacet

 facet normal 0 0 0
  outer loop
  vertex 0.0336090066 0.0029312796 0.00172204268
  vertex 0.0311574321 0.00441455143 -0.00170331728
  vertex 0.0299657434 0.00468194764 0.0029144038
  endloop
 endfacet

 facet normal 0 0 0
  outer loop
  vertex 0.0303349551 0.000740375544 0.00737988716
  vertex 0.0268232822 0.00347185112 0.00740542775
  vertex 0.0223813709 -8.30398058e-05 0.00938424934
  endloop
 endfacet

 facet normal 0 0 0
  outer loop
  vertex 0.0303349551 0.000740375544 0.00737988716
  vertex 0.0223813709 -8.30398058e-05 0.00938424934
  vertex 0.0300962832 -0.00376876723 0.00777535746
  endloop
 endfacet

 facet normal 0 0 0
  outer loop
  vertex 0.0300239492 -0.00225129374 -0.00788812153
  vertex 0.0309571549 0.00139295531 -0.00682664197
  vertex 0.0345937014 -0.00137816614 -0.00510380277
  endloop
 endfacet

 facet normal 0 0 0
  outer loop
  vertex 0.0300239492 -0.00225129374 -0.00788812153
  vertex 0.0345937014 -0.00137816614 -0.00510380277
  vertex 0.0333511494 -0.00396582531 -0.00625755824
  endloop
 endfacet

 facet normal 0 0 0
  outer loop
  vertex 0.0333511494 -0.00396582531 -0.00625755824
  vertex 0.0345937014 -0.00137816614 -0.00510380277
  vertex 0.0358284414 -0.00446867943 -0.00336428918
  endloop
 endfacet

 facet normal 0 0 0
  outer loop
  vertex 0.0333511494 -0.00396582531 -0.00625755824
  vertex 0.0358284414 -0.00446867943 -0.00336428918
  vertex 0.0333118364 -0.00613118475 -0.00491430471
  endloop
 endfacet

 facet normal 0 0 0
  outer loop
  vertex 0.0333511494 -0.00396582531 -0.00625755824
  vertex 0.0333118364 -0.00613118475 -0.00491430471
  vertex 0.0286591053 -0.00529755792 -0.00779736973
  endloop
 endfacet

 facet normal 0 0 0
  outer loop
  vertex 0.0333511494 -0.00396582531 -0.00625755824
  vertex 0.0286591053 -0.00529755792 -0.00779736973
  vertex 0.0300239492 -0.00225129374 -0.00788812153
  endloop
 endfacet

 facet normal 0 0 0
  outer loop
  vertex 0.0311696101 0.00296067051 0.00545841176
  vertex 0.0299657434 0.00468194764 0.0029144038
  vertex 0.0268232822 0.00347185112 0.00740542775
  endloop
 endfacet

 facet normal 0 0 0
  outer loop
  vertex 0.0311696101 0.00296067051 0.00545841176
  vertex 0.0268232822 0.00347185112 0.00740542775
  vertex 0.0303349551 0.000740375544 0.00737988716
  endloop
 endfacet

 facet normal 0 0 0
  outer loop
  vertex 0.0311696101 0.00296067051 0.00545841176
  vertex 0.0303349551 0.000740375544 0.00737988716
  vertex 0.0340142958 0.000282997033 0.00502150273
  endloop
 endfacet

 facet normal 0 0 0
  outer loop
  vertex 0.0311696101 0.00296067051 0.00545841176
  vertex 0.0340142958 0.000282997033 0.00502150273
  vertex 0.0336090066 0.0029312796 0.00172204268
  endloop
 endfacet

 facet normal 0 0 0
  outer loop
  vertex 0.0311696101 0.00296067051 0.00545841176
  vertex 0.0336090066 0.0029312796 0.00172204268
  vertex 0.0299657434 0.00468194764 0.0029144038
  endloop
 endfacet

 facet normal 0 0 0
  outer loop
  vertex 0.0361065269 -0.00140300824 -0.0024342637
  vertex 0.0366740935 -0.00382566289 -1.6302566e-09
  vertex 0.0358284414 -0.00446867943 -0.00336428918
  endloop
 endfacet

 facet normal 0 0 0
  outer loop
  vertex 0.0361065269 -0.00140300824 -0.0024342637
  vertex 0.0358284414 -0.00446867943 -0.00336428918
  vertex 0.0345937014 -0.00137816614 -0.00510380277
  endloop
 endfacet

 facet normal 0 0 0
  outer loop
  vertex 0.0361065269 -0.00140300824 -0.0024342637
  vertex 0.0345937014 -0.00137816614 -0.00510380277
  vertex 0.0346134081 0.00195151358 -0.00174698513
  endloop
 endfacet

 facet normal 0 0 0
  outer loop
  vertex 0.0361065269 -0.00140300824 -0.0024342637
  vertex 0.0346134081 0.00195151358 -0.00174698513
  vertex 0.0358454548 -7.05881976e-05 0.00177616358
  endloop
 endfacet

 facet normal 0 0 0
  outer loop
  vertex 0.0361065269 -0.00140300824 -0.0024342637
  vertex 0.0358454548 -7.05881976e-05 0.00177616358
  vertex 0.0366740935 -0.00382566289 -1.6302566e-09
  endloop
 endfacet

 facet normal 0 0 0
  outer loop
  vertex 0.0356266312 -0.00578030199 0.0023766181
  vertex 0.0337280743 -0.00654802052 0.00358369411
  vertex 0.0354542993 -0.00629019365 -0.000779958209
  endloop
 endfacet

 facet normal 0 0 0
  outer loop
  vertex 0.0356266312 -0.00578030199 0.0023766181
  vertex 0.0354542993 -0.00629019365 -0.000779958209
  vertex 0.0366740935 -0.00382566289 -1.6302566e-09
  endloop
 endfacet

 facet normal 0 0 0
  outer loop
  vertex 0.0356266312 -0.00578030199 0.0023766181
  vertex 0.0366740935 -0.00382566289 -1.6302566e-09
  vertex 0.0354538187 -0.00386611815 0.0042096097
  endloop
 endfacet

 facet normal 0 0 0
  outer loop
  vertex 0.0356266312 -0.00578030199 0.0023766181
  vertex 0.0354538187 -0.00386611815 0.0042096097
  vertex 0.0331006162 -0.00529892836 0.00591816241
  endloop
 endfacet

 facet normal 0 0 0
  outer loop
  vertex 0.0356266312 -0.00578030199 0.0023766181
  vertex 0.0331006162 -0.00529892836 0.00591816241
  vertex 0.0337280743 -0.00654802052 0.00358369411
  endloop
 endfacet

 facet normal 0 0 0
  outer loop
  vertex 0.000167110818 0.00352857565 0.00619999925
  vertex -0.00251502264 0.00118717714 0.00619999925
  vertex 0.00683554914 0.00410944829 0.00975736789
  endloop
 endfacet

 facet normal 0 0 0
  outer loop
  vertex 0.000167110818 0.00352857565 0.00619999925
  vertex 0.00683554914 0.00410944829 0.00975736789
  vertex 0.00690202927 0.00637024036 0.00693075918
  endloop
 endfacet

 facet normal 0 0 0
  outer loop
  vertex 0.000167110818 0.00352857565 0.00619999925
  vertex 0.00690202927 0.00637024036 0.00693075918
  vertex 0.00691635301 0.00730653573 0.00174458907
  endloop
 endfacet

 facet normal 0 0 0
  outer loop
  vertex 0.000167110818 0.00352857565 0.00619999925
  vertex 0.00691635301 0.00730653573 0.00174458907
  vertex 0.000167110818 0.00352857565 -0.00619999925
  endloop
 endfacet

 facet normal 0 0 0
  outer loop
  vertex 0.000167110818 0.00352857565 0.00619999925
  vertex 0.000167110818 0.00352857565 -0.00619999925
  vertex -0.00251502264 0.00118717714 0.00619999925
  endloop
 endfacet

 facet normal 0 0 0
  outer loop
  vertex 0.00669283234 -0.0111385984 0.00947584026
  vertex 0.00733862212 -0.0124388933 0.00787591003
  vertex 0.0284383148 -0.00639216928 0.00709064864
  endloop
 endfacet

 facet normal 0 0 0
  outer loop
  vertex 0.00669283234 -0.0111385984 0.00947584026
  vertex 0.0284383148 -0.00639216928 0.00709064864
  vertex 0.0300962832 -0.00376876723 0.00777535746
  endloop
 endfacet

 facet normal 0 0 0
  outer loop
  vertex 0.00669283234 -0.0111385984 0.00947584026
  vertex 0.0300962832 -0.00376876723 0.00777535746
  vertex 0.00520430692 -0.00816726498 0.0104786893
  endloop
 endfacet

 facet normal 0 0 0
  outer loop
  vertex 0.00669283234 -0.0111385984 0.00947584026
  vertex 0.00520430692 -0.00816726498 0.0104786893
  vertex -0.00308984588 -0.00800951943 0.00800000038
  endloop
 endfacet

 facet normal 0 0 0
  outer loop
  vertex 0.00669283234 -0.0111385984 0.00947584026
  vertex -0.00308984588 -0.00800951943 0.00800000038
  vertex -0.0025434515 -0.00966049172 0.00619999925
  endloop
 endfacet

 facet normal 0 0 0
  outer loop
  vertex 0.00669283234 -0.0111385984 0.00947584026
  vertex -0.0025434515 -0.00966049172 0.00619999925
  vertex 0.00733862212 -0.0124388933 0.00787591003
  endloop
 endfacet

 facet normal 0 0 0
  outer loop
  vertex 0.00500201061 -0.00240517221 0.0105939498
  vertex -0.00308984588 -0.00800951943 0.00800000038
  vertex 0.00520430692 -0.00816726498 0.0104786893
  endloop
 endfacet

 facet normal 0 0 0
  outer loop
  vertex 0.00500201061 -0.00240517221 0.0105939498
  vertex 0.00520430692 -0.00816726498 0.0104786893
  vertex 0.0223813709 -8.30398058e-05 0.00938424934
  endloop
 endfacet

 facet normal 0 0 0
  outer loop
  vertex 0.00500201061 -0.00240517221 0.0105939498
  vertex 0.0223813709 -8.30398058e-05 0.00938424934
  vertex 0.00683554914 0.00410944829 0.00975736789
  endloop
 endfacet

 facet normal 0 0 0
  outer loop
  vertex 0.00500201061 -0.00240517221 0.0105939498
  vertex 0.00683554914 0.00410944829 0.00975736789
  vertex -0.00251502264 0.00118717714 0.00619999925
  endloop
 endfacet

 facet normal 0 0 0
  outer loop
  vertex 0.00500201061 -0.00240517221 0.0105939498
  vertex -0.00251502264 0.00118717714 0.00619999925
  vertex -0.00308984588 -0.00800951943 0.00800000038
  endloop
 endfacet

endsolid AssimpScene
