solid AssimpScene
 facet normal 0 0 0
  outer loop
  vertex -0.00607402576 0.00638605841 -0.00349956355
  vertex -0.00656065997 0.00606042054 0.00350041455
  vertex 0.0244370028 0.00649924949 0.0109857097
  endloop
 endfacet

 facet normal 0 0 0
  outer loop
  vertex -0.00607402576 0.00638605841 -0.00349956355
  vertex 0.0244370028 0.00649924949 0.0109857097
  vertex 0.0262727067 0.00649928581 0.010450271
  endloop
 endfacet

 facet normal 0 0 0
  outer loop
  vertex -0.00607402576 0.00638605841 -0.00349956355
  vertex 0.0262727067 0.00649928581 0.010450271
  vertex 0.0271087717 0.00649946649 0.00780295441
  endloop
 endfacet

 facet normal 0 0 0
  outer loop
  vertex -0.00607402576 0.00638605841 -0.00349956355
  vertex 0.0271087717 0.00649946649 0.00780295441
  vertex 0.0223730952 0.00650058081 -0.00849704631
  endloop
 endfacet

 facet normal 0 0 0
  outer loop
  vertex -0.00607402576 0.00638605841 -0.00349956355
  vertex 0.0223730952 0.00650058081 -0.00849704631
  vertex 0.0207635537 0.00650069537 -0.0101710577
  endloop
 endfacet

 facet normal 0 0 0
  outer loop
  vertex -0.00674373563 0.000147485101 0.00560001051
  vertex 0.0244370028 0.00649924949 0.0109857097
  vertex -0.00218752748 0.00599177415 0.00560040958
  endloop
 endfacet

 facet normal 0 0 0
  outer loop
  vertex -0.00656065997 0.00606042054 0.00350041455
  vertex -0.00218752748 0.00599177415 0.00560040958
  vertex 0.0244370028 0.00649924949 0.0109857097
  endloop
 endfacet

 facet normal 0 0 0
  outer loop
  vertex -0.00656065997 0.00606042054 0.00350041455
  vertex -0.00607402576 0.00638605841 -0.00349956355
  vertex -0.00699999882 0.00225010235 -0.00149984623
  endloop
 endfacet

 facet normal 0 0 0
  outer loop
  vertex -0.00656065997 0.00606042054 0.00350041455
  vertex -0.00699999882 0.00225010235 -0.00149984623
  vertex -0.00674373563 0.000147485101 0.00560001051
  endloop
 endfacet

 facet normal 0 0 0
  outer loop
  vertex -0.00656065997 0.00606042054 0.00350041455
  vertex -0.00674373563 0.000147485101 0.00560001051
  vertex -0.00218752748 0.00599177415 0.00560040958
  endloop
 endfacet

 facet normal 0 0 0
  outer loop
  vertex -0.00674373563 0.00014825062 -0.00559998956
  vertex -0.00699999882 0.00225010235 -0.00149984623
  vertex -0.00607402576 0.00638605841 -0.00349956355
  endloop
 endfacet

 facet normal 0 0 0
  outer loop
  vertex -0.00674373563 0.00014825062 -0.00559998956
  vertex -0.00607402576 0.00638605841 -0.00349956355
  vertex 0.0207635537 0.00650069537 -0.0101710577
  endloop
 endfacet

 facet normal 0 0 0
  outer loop
  vertex -0.00674373563 0.00014825062 -0.00559998956
  vertex 0.0207635537 0.00650069537 -0.0101710577
  vertex 0.0199723616 -0.00649929559 -0.0103004444
  endloop
 endfacet

 facet normal 0 0 0
  outer loop
  vertex -0.00674373563 0.00014825062 -0.00559998956
  vertex 0.0199723616 -0.00649929559 -0.0103004444
  vertex -0.00311123906 -0.00502497656 -0.00560034346
  endloop
 endfacet

 facet normal 0 0 0
  outer loop
  vertex -0.00674373563 0.00014825062 -0.00559998956
  vertex -0.00674373563 0.000147485101 0.00560001051
  vertex -0.00699999882 0.00225010235 -0.00149984623
  endloop
 endfacet

 facet normal 0 0 0
  outer loop
  vertex 0.0223730952 -0.00649941945 -0.00849793479
  vertex 0.0199723616 -0.00649929559 -0.0103004444
  vertex 0.0207635537 0.00650069537 -0.0101710577
  endloop
 endfacet

 facet normal 0 0 0
  outer loop
  vertex -0.00443718536 -0.00393756712 0.00559973065
  vertex -0.00674373563 0.000147485101 0.00560001051
  vertex -0.00674373563 0.00014825062 -0.00559998956
  endloop
 endfacet

 facet normal 0 0 0
  outer loop
  vertex -0.00443718536 -0.00393756712 0.00559973065
  vertex -0.00674373563 0.00014825062 -0.00559998956
  vertex -0.00311123906 -0.00502497656 -0.00560034346
  endloop
 endfacet

 facet normal 0 0 0
  outer loop
  vertex -0.00443718536 -0.00393756712 0.00559973065
  vertex -0.00311123906 -0.00502497656 -0.00560034346
  vertex 4.29602842e-05 -0.00633225404 0.00559956767
  endloop
 endfacet

 facet normal 0 0 0
  outer loop
  vertex 0.0271087717 -0.00650053332 0.00780206593
  vertex 0.0271087717 0.00649946649 0.00780295441
  vertex 0.0271930173 -0.00150059967 0.00877356436
  endloop
 endfacet

 facet normal 0 0 0
  outer loop
  vertex 0.0271087717 -0.00650053332 0.00780206593
  vertex 0.0271930173 -0.00150059967 0.00877356436
  vertex 0.0262727067 -0.00650071446 0.0104493834
  endloop
 endfacet

 facet normal 0 0 0
  outer loop
  vertex 0.00175000005 -0.00649961736 -0.00560044451
  vertex 4.29602842e-05 -0.00633225404 0.00559956767
  vertex -0.00311123906 -0.00502497656 -0.00560034346
  endloop
 endfacet

 facet normal 0 0 0
  outer loop
  vertex 0.00175000005 -0.00649961736 -0.00560044451
  vertex -0.00311123906 -0.00502497656 -0.00560034346
  vertex 0.0199723616 -0.00649929559 -0.0103004444
  endloop
 endfacet

 facet normal 0 0 0
  outer loop
  vertex 0.0262727067 0.00649928581 0.010450271
  vertex 0.0271930173 -0.00150059967 0.00877356436
  vertex 0.0271087717 0.00649946649 0.00780295441
  endloop
 endfacet

 facet normal 0 0 0
  outer loop
  vertex 0.0262727067 0.00649928581 0.010450271
  vertex 0.0262727067 -0.00650071446 0.0104493834
  vertex 0.0271930173 -0.00150059967 0.00877356436
  endloop
 endfacet

 facet normal 0 0 0
  outer loop
  vertex 0.0223730952 0.00650058081 -0.00849704631
  vertex 0.0271087717 0.00649946649 0.00780295441
  vertex 0.0271087717 -0.00650053332 0.00780206593
  endloop
 endfacet

 facet normal 0 0 0
  outer loop
  vertex 0.0223730952 0.00650058081 -0.00849704631
  vertex 0.0271087717 -0.00650053332 0.00780206593
  vertex 0.0223730952 -0.00649941945 -0.00849793479
  endloop
 endfacet

 facet normal 0 0 0
  outer loop
  vertex 0.0223730952 0.00650058081 -0.00849704631
  vertex 0.0223730952 -0.00649941945 -0.00849793479
  vertex 0.0207635537 0.00650069537 -0.0101710577
  endloop
 endfacet

 facet normal 0 0 0
  outer loop
  vertex 0.0244370028 -0.00650075078 0.0109848212
  vertex -0.00674373563 0.000147485101 0.00560001051
  vertex -0.00443718536 -0.00393756712 0.00559973065
  endloop
 endfacet

 facet normal 0 0 0
  outer loop
  vertex 0.0244370028 -0.00650075078 0.0109848212
  vertex -0.00443718536 -0.00393756712 0.00559973065
  vertex 4.29602842e-05 -0.00633225404 0.00559956767
  endloop
 endfacet

 facet normal 0 0 0
  outer loop
  vertex 0.0244370028 -0.00650075078 0.0109848212
  vertex 4.29602842e-05 -0.00633225404 0.00559956767
  vertex 0.00175000005 -0.00649961736 -0.00560044451
  endloop
 endfacet

 facet normal 0 0 0
  outer loop
  vertex 0.0244370028 -0.00650075078 0.0109848212
  vertex 0.00175000005 -0.00649961736 -0.00560044451
  vertex 0.0199723616 -0.00649929559 -0.0103004444
  endloop
 endfacet

 facet normal 0 0 0
  outer loop
  vertex 0.0244370028 -0.00650075078 0.0109848212
  vertex 0.0199723616 -0.00649929559 -0.0103004444
  vertex 0.0223730952 -0.00649941945 -0.00849793479
  endloop
 endfacet

 facet normal 0 0 0
  outer loop
  vertex 0.0244370028 -0.00650075078 0.0109848212
  vertex 0.0223730952 -0.00649941945 -0.00849793479
  vertex 0.0271087717 -0.00650053332 0.00780206593
  endloop
 endfacet

 facet normal 0 0 0
  outer loop
  vertex 0.0244370028 -0.00650075078 0.0109848212
  vertex 0.0271087717 -0.00650053332 0.00780206593
  vertex 0.0262727067 -0.00650071446 0.0104493834
  endloop
 endfacet

 facet normal 0 0 0
  outer loop
  vertex 0.0244370028 -0.00650075078 0.0109848212
  vertex 0.0262727067 -0.00650071446 0.0104493834
  vertex 0.0262727067 0.00649928581 0.010450271
  endloop
 endfacet

 facet normal 0 0 0
  outer loop
  vertex 0.0244370028 -0.00650075078 0.0109848212
  vertex 0.0262727067 0.00649928581 0.010450271
  vertex 0.0244370028 0.00649924949 0.0109857097
  endloop
 endfacet

 facet normal 0 0 0
  outer loop
  vertex 0.0244370028 -0.00650075078 0.0109848212
  vertex 0.0244370028 0.00649924949 0.0109857097
  vertex -0.00674373563 0.000147485101 0.00560001051
  endloop
 endfacet

endsolid AssimpScene
