solid AssimpScene
 facet normal 0 0 0
  outer loop
  vertex -0.00643425249 0.00622496661 0.00349999615
  vertex -0.00317380344 -0.00272778026 0.00349999615
  vertex 0.00408159196 -0.000934549491 0.00631911727
  endloop
 endfacet

 facet normal 0 0 0
  outer loop
  vertex -0.00643425249 0.00622496661 0.00349999615
  vertex 0.00408159196 -0.000934549491 0.00631911727
  vertex 0.00333919586 0.00823312066 0.00690640183
  endloop
 endfacet

 facet normal 0 0 0
  outer loop
  vertex 0.00333919586 0.00823312066 0.00690640183
  vertex 0.00408159196 -0.000934549491 0.00631911727
  vertex 0.0431648344 0.00359350233 0.00620419951
  endloop
 endfacet

 facet normal 0 0 0
  outer loop
  vertex 0.00384526118 0.00198384305 -0.00712688593
  vertex -0.00643425249 0.00622496661 -0.0035000029
  vertex 0.00317467493 0.0102647515 -0.0062281373
  endloop
 endfacet

 facet normal 0 0 0
  outer loop
  vertex 0.00291544362 0.0134659335 -0.00198744563
  vertex 0.00317467493 0.0102647515 -0.0062281373
  vertex -0.00643425249 0.00622496661 -0.0035000029
  endloop
 endfacet

 facet normal 0 0 0
  outer loop
  vertex -0.00643425249 0.00622496661 0.00349999615
  vertex 0.00292017078 0.013407561 0.00223250361
  vertex 0.00291544362 0.0134659335 -0.00198744563
  endloop
 endfacet

 facet normal 0 0 0
  outer loop
  vertex -0.00643425249 0.00622496661 0.00349999615
  vertex 0.00291544362 0.0134659335 -0.00198744563
  vertex -0.00643425249 0.00622496661 -0.0035000029
  endloop
 endfacet

 facet normal 0 0 0
  outer loop
  vertex 0.0393196754 -0.00183828594 0.00510763889
  vertex 0.0493718572 -0.000207674748 0.0038763911
  vertex 0.0431648344 0.00359350233 0.00620419951
  endloop
 endfacet

 facet normal 0 0 0
  outer loop
  vertex 0.0393196754 -0.00183828594 0.00510763889
  vertex 0.0431648344 0.00359350233 0.00620419951
  vertex 0.00408159196 -0.000934549491 0.00631911727
  endloop
 endfacet

 facet normal 0 0 0
  outer loop
  vertex 0.0486980043 0.0029681751 0.00485865446
  vertex 0.0431648344 0.00359350233 0.00620419951
  vertex 0.0493718572 -0.000207674748 0.0038763911
  endloop
 endfacet

 facet normal 0 0 0
  outer loop
  vertex 0.0415376946 -0.00387446722 -0.00277234451
  vertex 0.0434195921 -0.00424559554 0.00135077327
  vertex -0.0016555466 -0.00374590699 -0.0035000029
  endloop
 endfacet

 facet normal 0 0 0
  outer loop
  vertex -0.0041116206 -0.00154129369 -0.0035000029
  vertex -0.00317380344 -0.00272778026 0.00349999615
  vertex -0.00643425249 0.00622496661 0.00349999615
  endloop
 endfacet

 facet normal 0 0 0
  outer loop
  vertex -0.0041116206 -0.00154129369 -0.0035000029
  vertex -0.00643425249 0.00622496661 0.00349999615
  vertex -0.00643425249 0.00622496661 -0.0035000029
  endloop
 endfacet

 facet normal 0 0 0
  outer loop
  vertex -0.0041116206 -0.00154129369 -0.0035000029
  vertex -0.00643425249 0.00622496661 -0.0035000029
  vertex 0.00384526118 0.00198384305 -0.00712688593
  endloop
 endfacet

 facet normal 0 0 0
  outer loop
  vertex -0.0041116206 -0.00154129369 -0.0035000029
  vertex 0.00384526118 0.00198384305 -0.00712688593
  vertex 0.00412944518 -0.00152547262 -0.00601436524
  endloop
 endfacet

 facet normal 0 0 0
  outer loop
  vertex -0.0041116206 -0.00154129369 -0.0035000029
  vertex 0.00412944518 -0.00152547262 -0.00601436524
  vertex -0.0016555466 -0.00374590699 -0.0035000029
  endloop
 endfacet

 facet normal 0 0 0
  outer loop
  vertex -0.0041116206 -0.00154129369 -0.0035000029
  vertex -0.0016555466 -0.00374590699 -0.0035000029
  vertex -0.00317380344 -0.00272778026 0.00349999615
  endloop
 endfacet

 facet normal 0 0 0
  outer loop
  vertex 0.0510229655 0.0036387709 -0.00179539958
  vertex 0.0500392094 0.00408881065 0.00219307514
  vertex 0.0510188714 0.00165529805 0.00290243002
  endloop
 endfacet

 facet normal 0 0 0
  outer loop
  vertex 0.0510229655 0.0036387709 -0.00179539958
  vertex 0.0510188714 0.00165529805 0.00290243002
  vertex 0.0517538935 0.00152327912 -9.58479177e-06
  endloop
 endfacet

 facet normal 0 0 0
  outer loop
  vertex 0.0510229655 0.0036387709 -0.00179539958
  vertex 0.0517538935 0.00152327912 -9.58479177e-06
  vertex 0.0503976084 0.00191243924 -0.00377171068
  endloop
 endfacet

 facet normal 0 0 0
  outer loop
  vertex 0.0510229655 0.0036387709 -0.00179539958
  vertex 0.0503976084 0.00191243924 -0.00377171068
  vertex 0.0473704152 0.00419672485 -0.00470914273
  endloop
 endfacet

 facet normal 0 0 0
  outer loop
  vertex 0.0510229655 0.0036387709 -0.00179539958
  vertex 0.0473704152 0.00419672485 -0.00470914273
  vertex 0.0248620901 0.0100769838 -0.00218887953
  endloop
 endfacet

 facet normal 0 0 0
  outer loop
  vertex -0.00120921934 -0.00378089724 0.00349999615
  vertex 0.0434195921 -0.00424559554 0.00135077327
  vertex 0.0393196754 -0.00183828594 0.00510763889
  endloop
 endfacet

 facet normal 0 0 0
  outer loop
  vertex -0.00120921934 -0.00378089724 0.00349999615
  vertex 0.0393196754 -0.00183828594 0.00510763889
  vertex 0.00408159196 -0.000934549491 0.00631911727
  endloop
 endfacet

 facet normal 0 0 0
  outer loop
  vertex -0.00120921934 -0.00378089724 0.00349999615
  vertex 0.00408159196 -0.000934549491 0.00631911727
  vertex -0.00317380344 -0.00272778026 0.00349999615
  endloop
 endfacet

 facet normal 0 0 0
  outer loop
  vertex -0.00120921934 -0.00378089724 0.00349999615
  vertex -0.00317380344 -0.00272778026 0.00349999615
  vertex -0.0016555466 -0.00374590699 -0.0035000029
  endloop
 endfacet

 facet normal 0 0 0
  outer loop
  vertex -0.00120921934 -0.00378089724 0.00349999615
  vertex -0.0016555466 -0.00374590699 -0.0035000029
  vertex 0.0434195921 -0.00424559554 0.00135077327
  endloop
 endfacet

 facet normal 0 0 0
  outer loop
  vertex 0.0248622522 0.0100744721 0.00217614742
  vertex 0.0500392094 0.00408881065 0.00219307514
  vertex 0.0510229655 0.0036387709 -0.00179539958
  endloop
 endfacet

 facet normal 0 0 0
  outer loop
  vertex 0.0248622522 0.0100744721 0.00217614742
  vertex 0.0510229655 0.0036387709 -0.00179539958
  vertex 0.0248620901 0.0100769838 -0.00218887953
  endloop
 endfacet

 facet normal 0 0 0
  outer loop
  vertex 0.0248620901 0.0100769838 -0.00218887953
  vertex 0.00291544362 0.0134659335 -0.00198744563
  vertex 0.00292017078 0.013407561 0.00223250361
  endloop
 endfacet

 facet normal 0 0 0
  outer loop
  vertex 0.0248620901 0.0100769838 -0.00218887953
  vertex 0.00292017078 0.013407561 0.00223250361
  vertex 0.0248622522 0.0100744721 0.00217614742
  endloop
 endfacet

 facet normal 0 0 0
  outer loop
  vertex 0.00384526118 0.00198384305 -0.00712688593
  vertex 0.0411067307 0.00177948829 -0.00642432598
  vertex 0.0393155478 -0.00182334881 -0.00514382217
  endloop
 endfacet

 facet normal 0 0 0
  outer loop
  vertex 0.00384526118 0.00198384305 -0.00712688593
  vertex 0.0393155478 -0.00182334881 -0.00514382217
  vertex 0.00412944518 -0.00152547262 -0.00601436524
  endloop
 endfacet

 facet normal 0 0 0
  outer loop
  vertex 0.00412944518 -0.00152547262 -0.00601436524
  vertex 0.0393155478 -0.00182334881 -0.00514382217
  vertex 0.0415376946 -0.00387446722 -0.00277234451
  endloop
 endfacet

 facet normal 0 0 0
  outer loop
  vertex 0.00412944518 -0.00152547262 -0.00601436524
  vertex 0.0415376946 -0.00387446722 -0.00277234451
  vertex -0.0016555466 -0.00374590699 -0.0035000029
  endloop
 endfacet

 facet normal 0 0 0
  outer loop
  vertex 0.0349484831 0.00483292807 -0.00664969115
  vertex 0.0473704152 0.00419672485 -0.00470914273
  vertex 0.0411067307 0.00177948829 -0.00642432598
  endloop
 endfacet

 facet normal 0 0 0
  outer loop
  vertex 0.0349484831 0.00483292807 -0.00664969115
  vertex 0.0411067307 0.00177948829 -0.00642432598
  vertex 0.00384526118 0.00198384305 -0.00712688593
  endloop
 endfacet

 facet normal 0 0 0
  outer loop
  vertex 0.0349484831 0.00483292807 -0.00664969115
  vertex 0.00384526118 0.00198384305 -0.00712688593
  vertex 0.00317467493 0.0102647515 -0.0062281373
  endloop
 endfacet

 facet normal 0 0 0
  outer loop
  vertex 0.0510188714 0.00165529805 0.00290243002
  vertex 0.0500392094 0.00408881065 0.00219307514
  vertex 0.0486980043 0.0029681751 0.00485865446
  endloop
 endfacet

 facet normal 0 0 0
  outer loop
  vertex 0.0510188714 0.00165529805 0.00290243002
  vertex 0.0486980043 0.0029681751 0.00485865446
  vertex 0.0493718572 -0.000207674748 0.0038763911
  endloop
 endfacet

 facet normal 0 0 0
  outer loop
  vertex 0.0510188714 0.00165529805 0.00290243002
  vertex 0.0493718572 -0.000207674748 0.0038763911
  vertex 0.0506962761 -0.0016598684 0.000658070901
  endloop
 endfacet

 facet normal 0 0 0
  outer loop
  vertex 0.0510188714 0.00165529805 0.00290243002
  vertex 0.0506962761 -0.0016598684 0.000658070901
  vertex 0.0517538935 0.00152327912 -9.58479177e-06
  endloop
 endfacet

 facet normal 0 0 0
  outer loop
  vertex 0.00292017078 0.013407561 0.00223250361
  vertex 0.00425922591 0.0127449809 0.00373826595
  vertex 0.0248622522 0.0100744721 0.00217614742
  endloop
 endfacet

 facet normal 0 0 0
  outer loop
  vertex 0.00308491336 0.0113731949 0.00546274753
  vertex 0.00425922591 0.0127449809 0.00373826595
  vertex 0.00292017078 0.013407561 0.00223250361
  endloop
 endfacet

 facet normal 0 0 0
  outer loop
  vertex 0.00308491336 0.0113731949 0.00546274753
  vertex 0.00292017078 0.013407561 0.00223250361
  vertex -0.00643425249 0.00622496661 0.00349999615
  endloop
 endfacet

 facet normal 0 0 0
  outer loop
  vertex 0.00308491336 0.0113731949 0.00546274753
  vertex -0.00643425249 0.00622496661 0.00349999615
  vertex 0.00333919586 0.00823312066 0.00690640183
  endloop
 endfacet

 facet normal 0 0 0
  outer loop
  vertex 0.00308491336 0.0113731949 0.00546274753
  vertex 0.00333919586 0.00823312066 0.00690640183
  vertex 0.0431648344 0.00359350233 0.00620419951
  endloop
 endfacet

 facet normal 0 0 0
  outer loop
  vertex 0.0478375368 -0.00342020625 -0.000835330458
  vertex 0.0434195921 -0.00424559554 0.00135077327
  vertex 0.0415376946 -0.00387446722 -0.00277234451
  endloop
 endfacet

 facet normal 0 0 0
  outer loop
  vertex 0.0478375368 -0.00342020625 -0.000835330458
  vertex 0.0415376946 -0.00387446722 -0.00277234451
  vertex 0.0483360104 -0.00208176766 -0.00304981251
  endloop
 endfacet

 facet normal 0 0 0
  outer loop
  vertex 0.0510158278 -0.000673023344 -0.00181944459
  vertex 0.0503976084 0.00191243924 -0.00377171068
  vertex 0.0517538935 0.00152327912 -9.58479177e-06
  endloop
 endfacet

 facet normal 0 0 0
  outer loop
  vertex 0.0510158278 -0.000673023344 -0.00181944459
  vertex 0.0517538935 0.00152327912 -9.58479177e-06
  vertex 0.0506962761 -0.0016598684 0.000658070901
  endloop
 endfacet

 facet normal 0 0 0
  outer loop
  vertex 0.0510158278 -0.000673023344 -0.00181944459
  vertex 0.0506962761 -0.0016598684 0.000658070901
  vertex 0.0478375368 -0.00342020625 -0.000835330458
  endloop
 endfacet

 facet normal 0 0 0
  outer loop
  vertex 0.0510158278 -0.000673023344 -0.00181944459
  vertex 0.0478375368 -0.00342020625 -0.000835330458
  vertex 0.0483360104 -0.00208176766 -0.00304981251
  endloop
 endfacet

 facet normal 0 0 0
  outer loop
  vertex 0.0510158278 -0.000673023344 -0.00181944459
  vertex 0.0483360104 -0.00208176766 -0.00304981251
  vertex 0.0503976084 0.00191243924 -0.00377171068
  endloop
 endfacet

 facet normal 0 0 0
  outer loop
  vertex 0.0476798676 -0.0028862725 0.00238419883
  vertex 0.0434195921 -0.00424559554 0.00135077327
  vertex 0.0478375368 -0.00342020625 -0.000835330458
  endloop
 endfacet

 facet normal 0 0 0
  outer loop
  vertex 0.0476798676 -0.0028862725 0.00238419883
  vertex 0.0478375368 -0.00342020625 -0.000835330458
  vertex 0.0506962761 -0.0016598684 0.000658070901
  endloop
 endfacet

 facet normal 0 0 0
  outer loop
  vertex 0.0476798676 -0.0028862725 0.00238419883
  vertex 0.0506962761 -0.0016598684 0.000658070901
  vertex 0.0493718572 -0.000207674748 0.0038763911
  endloop
 endfacet

 facet normal 0 0 0
  outer loop
  vertex 0.0476798676 -0.0028862725 0.00238419883
  vertex 0.0493718572 -0.000207674748 0.0038763911
  vertex 0.0393196754 -0.00183828594 0.00510763889
  endloop
 endfacet

 facet normal 0 0 0
  outer loop
  vertex 0.0476798676 -0.0028862725 0.00238419883
  vertex 0.0393196754 -0.00183828594 0.00510763889
  vertex 0.0434195921 -0.00424559554 0.00135077327
  endloop
 endfacet

 facet normal 0 0 0
  outer loop
  vertex 0.0469021946 0.000863903435 -0.00532590179
  vertex 0.0411067307 0.00177948829 -0.00642432598
  vertex 0.0473704152 0.00419672485 -0.00470914273
  endloop
 endfacet

 facet normal 0 0 0
  outer loop
  vertex 0.0469021946 0.000863903435 -0.00532590179
  vertex 0.0473704152 0.00419672485 -0.00470914273
  vertex 0.0503976084 0.00191243924 -0.00377171068
  endloop
 endfacet

 facet normal 0 0 0
  outer loop
  vertex 0.0469021946 0.000863903435 -0.00532590179
  vertex 0.0503976084 0.00191243924 -0.00377171068
  vertex 0.0483360104 -0.00208176766 -0.00304981251
  endloop
 endfacet

 facet normal 0 0 0
  outer loop
  vertex 0.0393155478 -0.00182334881 -0.00514382217
  vertex 0.0411067307 0.00177948829 -0.00642432598
  vertex 0.0469021946 0.000863903435 -0.00532590179
  endloop
 endfacet

 facet normal 0 0 0
  outer loop
  vertex 0.0393155478 -0.00182334881 -0.00514382217
  vertex 0.0469021946 0.000863903435 -0.00532590179
  vertex 0.0483360104 -0.00208176766 -0.00304981251
  endloop
 endfacet

 facet normal 0 0 0
  outer loop
  vertex 0.0393155478 -0.00182334881 -0.00514382217
  vertex 0.0483360104 -0.00208176766 -0.00304981251
  vertex 0.0415376946 -0.00387446722 -0.00277234451
  endloop
 endfacet

 facet normal 0 0 0
  outer loop
  vertex 0.0448953994 0.00477315905 0.00491581531
  vertex 0.0500392094 0.00408881065 0.00219307514
  vertex 0.0248622522 0.0100744721 0.00217614742
  endloop
 endfacet

 facet normal 0 0 0
  outer loop
  vertex 0.0448953994 0.00477315905 0.00491581531
  vertex 0.0248622522 0.0100744721 0.00217614742
  vertex 0.00425922591 0.0127449809 0.00373826595
  endloop
 endfacet

 facet normal 0 0 0
  outer loop
  vertex 0.0448953994 0.00477315905 0.00491581531
  vertex 0.00425922591 0.0127449809 0.00373826595
  vertex 0.00308491336 0.0113731949 0.00546274753
  endloop
 endfacet

 facet normal 0 0 0
  outer loop
  vertex 0.0448953994 0.00477315905 0.00491581531
  vertex 0.00308491336 0.0113731949 0.00546274753
  vertex 0.0431648344 0.00359350233 0.00620419951
  endloop
 endfacet

 facet normal 0 0 0
  outer loop
  vertex 0.0448953994 0.00477315905 0.00491581531
  vertex 0.0431648344 0.00359350233 0.00620419951
  vertex 0.0486980043 0.0029681751 0.00485865446
  endloop
 endfacet

 facet normal 0 0 0
  outer loop
  vertex 0.0448953994 0.00477315905 0.00491581531
  vertex 0.0486980043 0.0029681751 0.00485865446
  vertex 0.0500392094 0.00408881065 0.00219307514
  endloop
 endfacet

 facet normal 0 0 0
  outer loop
  vertex 0.0218333472 0.00903827604 -0.00530188112
  vertex 0.0248620901 0.0100769838 -0.00218887953
  vertex 0.0473704152 0.00419672485 -0.00470914273
  endloop
 endfacet

 facet normal 0 0 0
  outer loop
  vertex 0.0218333472 0.00903827604 -0.00530188112
  vertex 0.0473704152 0.00419672485 -0.00470914273
  vertex 0.0349484831 0.00483292807 -0.00664969115
  endloop
 endfacet

 facet normal 0 0 0
  outer loop
  vertex 0.0218333472 0.00903827604 -0.00530188112
  vertex 0.0349484831 0.00483292807 -0.00664969115
  vertex 0.00317467493 0.0102647515 -0.0062281373
  endloop
 endfacet

 facet normal 0 0 0
  outer loop
  vertex 0.0218333472 0.00903827604 -0.00530188112
  vertex 0.00317467493 0.0102647515 -0.0062281373
  vertex 0.00291544362 0.0134659335 -0.00198744563
  endloop
 endfacet

 facet normal 0 0 0
  outer loop
  vertex 0.0218333472 0.00903827604 -0.00530188112
  vertex 0.00291544362 0.0134659335 -0.00198744563
  vertex 0.0248620901 0.0100769838 -0.00218887953
  endloop
 endfacet

endsolid AssimpScene
