solid AssimpScene
 facet normal 0 0 0
  outer loop
  vertex 0.0349448435 0.00761748757 -0.004495095
  vertex 0.0349168442 0.00896762032 -0.000394384871
  vertex 0.0349324346 0.00822485331 0.00356866838
  endloop
 endfacet

 facet normal 0 0 0
  outer loop
  vertex 0.0349448435 0.00761748757 -0.004495095
  vertex 0.0349324346 0.00822485331 0.00356866838
  vertex 0.0350112878 0.00381790823 0.00685835304
  endloop
 endfacet

 facet normal 0 0 0
  outer loop
  vertex 0.0349448435 0.00761748757 -0.004495095
  vertex 0.0350112878 0.00381790823 0.00685835304
  vertex 0.0350330286 0.000477562862 -0.00723850308
  endloop
 endfacet

 facet normal 0 0 0
  outer loop
  vertex 0.0349448435 0.00761748757 -0.004495095
  vertex 0.0350330286 0.000477562862 -0.00723850308
  vertex 0.0349953473 0.00487882597 -0.0065342593
  endloop
 endfacet

 facet normal 0 0 0
  outer loop
  vertex -0.0170000009 0.00200000009 0.00350000011
  vertex -0.0154999988 -0.00400000019 0.00499999989
  vertex -0.00731628109 0.00306869694 0.00836965814
  endloop
 endfacet

 facet normal 0 0 0
  outer loop
  vertex 0.0258247163 -0.00920304563 0.00151570549
  vertex -0.00339974184 -0.00856016763 0.00374999968
  vertex -0.00339974184 -0.00856016763 -0.00374999968
  endloop
 endfacet

 facet normal 0 0 0
  outer loop
  vertex 0.0258247163 -0.00920304563 0.00151570549
  vertex 0.0316600092 -0.00707181916 -0.00568280648
  vertex 0.0340142213 -0.0056911502 0.00638845935
  endloop
 endfacet

 facet normal 0 0 0
  outer loop
  vertex 0.0350112878 0.00381790823 0.00685835304
  vertex -0.00731628109 0.00306869694 0.00836965814
  vertex -0.00354930037 -0.00334646669 0.00782412663
  endloop
 endfacet

 facet normal 0 0 0
  outer loop
  vertex 0.0350112878 0.00381790823 0.00685835304
  vertex -0.00354930037 -0.00334646669 0.00782412663
  vertex 0.0340142213 -0.0056911502 0.00638845935
  endloop
 endfacet

 facet normal 0 0 0
  outer loop
  vertex -0.00354930037 -0.00334646669 0.00782412663
  vertex -0.00731628109 0.00306869694 0.00836965814
  vertex -0.0154999988 -0.00400000019 0.00499999989
  endloop
 endfacet

 facet normal 0 0 0
  outer loop
  vertex -0.00354930037 -0.00334646669 0.00782412663
  vertex -0.0154999988 -0.00400000019 0.00499999989
  vertex -0.00339974184 -0.00856016763 0.00374999968
  endloop
 endfacet

 facet normal 0 0 0
  outer loop
  vertex -0.00590720773 0.0128515428 -0.00223040162
  vertex 0.0349448435 0.00761748757 -0.004495095
  vertex -0.00687084254 0.0101727983 -0.0060128225
  endloop
 endfacet

 facet normal 0 0 0
  outer loop
  vertex -0.00590720773 0.0128515428 -0.00223040162
  vertex -0.00687084254 0.0101727983 -0.0060128225
  vertex -0.0170000009 0.00200000009 -0.00350000011
  endloop
 endfacet

 facet normal 0 0 0
  outer loop
  vertex -0.0170000009 0.00200000009 -0.00350000011
  vertex -0.0170000009 0.00200000009 0.00350000011
  vertex -0.00607715501 0.0124483509 0.0034122509
  endloop
 endfacet

 facet normal 0 0 0
  outer loop
  vertex -0.0170000009 0.00200000009 -0.00350000011
  vertex -0.00607715501 0.0124483509 0.0034122509
  vertex -0.00590720773 0.0128515428 -0.00223040162
  endloop
 endfacet

 facet normal 0 0 0
  outer loop
  vertex 0.0344678424 -0.00486134132 -0.00667655049
  vertex 0.0340142213 -0.0056911502 0.00638845935
  vertex 0.0316600092 -0.00707181916 -0.00568280648
  endloop
 endfacet

 facet normal 0 0 0
  outer loop
  vertex 0.0344678424 -0.00486134132 -0.00667655049
  vertex -0.00581645034 -0.000827866723 -0.00838863477
  vertex 0.0350330286 0.000477562862 -0.00723850308
  endloop
 endfacet

 facet normal 0 0 0
  outer loop
  vertex 0.0344678424 -0.00486134132 -0.00667655049
  vertex 0.0350330286 0.000477562862 -0.00723850308
  vertex 0.0350112878 0.00381790823 0.00685835304
  endloop
 endfacet

 facet normal 0 0 0
  outer loop
  vertex 0.0344678424 -0.00486134132 -0.00667655049
  vertex 0.0350112878 0.00381790823 0.00685835304
  vertex 0.0340142213 -0.0056911502 0.00638845935
  endloop
 endfacet

 facet normal 0 0 0
  outer loop
  vertex -0.00720627652 0.00880989153 0.00682333531
  vertex -0.00607715501 0.0124483509 0.0034122509
  vertex -0.0170000009 0.00200000009 0.00350000011
  endloop
 endfacet

 facet normal 0 0 0
  outer loop
  vertex -0.00720627652 0.00880989153 0.00682333531
  vertex -0.0170000009 0.00200000009 0.00350000011
  vertex -0.00731628109 0.00306869694 0.00836965814
  endloop
 endfacet

 facet normal 0 0 0
  outer loop
  vertex -0.00720627652 0.00880989153 0.00682333531
  vertex -0.00731628109 0.00306869694 0.00836965814
  vertex 0.0350112878 0.00381790823 0.00685835304
  endloop
 endfacet

 facet normal 0 0 0
  outer loop
  vertex -0.00720627652 0.00880989153 0.00682333531
  vertex 0.0350112878 0.00381790823 0.00685835304
  vertex 0.0349324346 0.00822485331 0.00356866838
  endloop
 endfacet

 facet normal 0 0 0
  outer loop
  vertex -0.00720627652 0.00880989153 0.00682333531
  vertex 0.0349324346 0.00822485331 0.00356866838
  vertex -0.00607715501 0.0124483509 0.0034122509
  endloop
 endfacet

 facet normal 0 0 0
  outer loop
  vertex -0.00753441779 0.00497410633 -0.0080913417
  vertex 0.0350330286 0.000477562862 -0.00723850308
  vertex -0.00581645034 -0.000827866723 -0.00838863477
  endloop
 endfacet

 facet normal 0 0 0
  outer loop
  vertex -0.00753441779 0.00497410633 -0.0080913417
  vertex -0.0170000009 0.00200000009 -0.00350000011
  vertex -0.00687084254 0.0101727983 -0.0060128225
  endloop
 endfacet

 facet normal 0 0 0
  outer loop
  vertex -0.0170000009 -0.00400000019 0.00350000011
  vertex -0.0154999988 -0.00400000019 0.00499999989
  vertex -0.0170000009 0.00200000009 0.00350000011
  endloop
 endfacet

 facet normal 0 0 0
  outer loop
  vertex -0.0170000009 -0.00400000019 0.00350000011
  vertex -0.0170000009 0.00200000009 0.00350000011
  vertex -0.0170000009 0.00200000009 -0.00350000011
  endloop
 endfacet

 facet normal 0 0 0
  outer loop
  vertex -0.0170000009 -0.00400000019 0.00350000011
  vertex -0.0170000009 0.00200000009 -0.00350000011
  vertex -0.0170000009 -0.00400000019 -0.00350000011
  endloop
 endfacet

 facet normal 0 0 0
  outer loop
  vertex -0.0170000009 -0.00400000019 0.00350000011
  vertex -0.0170000009 -0.00400000019 -0.00350000011
  vertex -0.00339974184 -0.00856016763 -0.00374999968
  endloop
 endfacet

 facet normal 0 0 0
  outer loop
  vertex -0.0170000009 -0.00400000019 0.00350000011
  vertex -0.00339974184 -0.00856016763 -0.00374999968
  vertex -0.00339974184 -0.00856016763 0.00374999968
  endloop
 endfacet

 facet normal 0 0 0
  outer loop
  vertex -0.0170000009 -0.00400000019 0.00350000011
  vertex -0.00339974184 -0.00856016763 0.00374999968
  vertex -0.0154999988 -0.00400000019 0.00499999989
  endloop
 endfacet

 facet normal 0 0 0
  outer loop
  vertex 0.0233556051 -0.00831945147 0.00491541857
  vertex -0.00339974184 -0.00856016763 0.00374999968
  vertex 0.0258247163 -0.00920304563 0.00151570549
  endloop
 endfacet

 facet normal 0 0 0
  outer loop
  vertex 0.0233556051 -0.00831945147 0.00491541857
  vertex 0.0258247163 -0.00920304563 0.00151570549
  vertex 0.0340142213 -0.0056911502 0.00638845935
  endloop
 endfacet

 facet normal 0 0 0
  outer loop
  vertex 0.0233556051 -0.00831945147 0.00491541857
  vertex 0.0340142213 -0.0056911502 0.00638845935
  vertex -0.00354930037 -0.00334646669 0.00782412663
  endloop
 endfacet

 facet normal 0 0 0
  outer loop
  vertex 0.0233556051 -0.00831945147 0.00491541857
  vertex -0.00354930037 -0.00334646669 0.00782412663
  vertex -0.00339974184 -0.00856016763 0.00374999968
  endloop
 endfacet

 facet normal 0 0 0
  outer loop
  vertex 0.0349168442 0.00896762032 -0.000394384871
  vertex 0.0349448435 0.00761748757 -0.004495095
  vertex -0.00590720773 0.0128515428 -0.00223040162
  endloop
 endfacet

 facet normal 0 0 0
  outer loop
  vertex 0.0349168442 0.00896762032 -0.000394384871
  vertex -0.00590720773 0.0128515428 -0.00223040162
  vertex -0.00607715501 0.0124483509 0.0034122509
  endloop
 endfacet

 facet normal 0 0 0
  outer loop
  vertex 0.0349168442 0.00896762032 -0.000394384871
  vertex -0.00607715501 0.0124483509 0.0034122509
  vertex 0.0349324346 0.00822485331 0.00356866838
  endloop
 endfacet

 facet normal 0 0 0
  outer loop
  vertex 0.0253331605 -0.00892404467 -0.00339701166
  vertex 0.0316600092 -0.00707181916 -0.00568280648
  vertex 0.0258247163 -0.00920304563 0.00151570549
  endloop
 endfacet

 facet normal 0 0 0
  outer loop
  vertex 0.0253331605 -0.00892404467 -0.00339701166
  vertex 0.0258247163 -0.00920304563 0.00151570549
  vertex -0.00339974184 -0.00856016763 -0.00374999968
  endloop
 endfacet

 facet normal 0 0 0
  outer loop
  vertex 0.0253331605 -0.00892404467 -0.00339701166
  vertex -0.00339974184 -0.00856016763 -0.00374999968
  vertex 0.0316600092 -0.00707181916 -0.00568280648
  endloop
 endfacet

 facet normal 0 0 0
  outer loop
  vertex 0.0349953473 0.00487882597 -0.0065342593
  vertex 0.0350330286 0.000477562862 -0.00723850308
  vertex -0.00753441779 0.00497410633 -0.0080913417
  endloop
 endfacet

 facet normal 0 0 0
  outer loop
  vertex 0.0349953473 0.00487882597 -0.0065342593
  vertex -0.00753441779 0.00497410633 -0.0080913417
  vertex -0.00687084254 0.0101727983 -0.0060128225
  endloop
 endfacet

 facet normal 0 0 0
  outer loop
  vertex 0.0349953473 0.00487882597 -0.0065342593
  vertex -0.00687084254 0.0101727983 -0.0060128225
  vertex 0.0349448435 0.00761748757 -0.004495095
  endloop
 endfacet

 facet normal 0 0 0
  outer loop
  vertex -0.0154999988 -0.00400000019 -0.00499999989
  vertex -0.0170000009 -0.00400000019 -0.00350000011
  vertex -0.0170000009 0.00200000009 -0.00350000011
  endloop
 endfacet

 facet normal 0 0 0
  outer loop
  vertex -0.0154999988 -0.00400000019 -0.00499999989
  vertex -0.0170000009 0.00200000009 -0.00350000011
  vertex -0.00753441779 0.00497410633 -0.0080913417
  endloop
 endfacet

 facet normal 0 0 0
  outer loop
  vertex -0.0154999988 -0.00400000019 -0.00499999989
  vertex -0.00753441779 0.00497410633 -0.0080913417
  vertex -0.00581645034 -0.000827866723 -0.00838863477
  endloop
 endfacet

 facet normal 0 0 0
  outer loop
  vertex -0.0154999988 -0.00400000019 -0.00499999989
  vertex -0.00339974184 -0.00856016763 -0.00374999968
  vertex -0.0170000009 -0.00400000019 -0.00350000011
  endloop
 endfacet

 facet normal 0 0 0
  outer loop
  vertex -0.000603784982 -0.00497198524 -0.00708929729
  vertex -0.00339974184 -0.00856016763 -0.00374999968
  vertex -0.0154999988 -0.00400000019 -0.00499999989
  endloop
 endfacet

 facet normal 0 0 0
  outer loop
  vertex -0.000603784982 -0.00497198524 -0.00708929729
  vertex -0.0154999988 -0.00400000019 -0.00499999989
  vertex -0.00581645034 -0.000827866723 -0.00838863477
  endloop
 endfacet

 facet normal 0 0 0
  outer loop
  vertex -0.000603784982 -0.00497198524 -0.00708929729
  vertex -0.00581645034 -0.000827866723 -0.00838863477
  vertex 0.0344678424 -0.00486134132 -0.00667655049
  endloop
 endfacet

 facet normal 0 0 0
  outer loop
  vertex -0.000603784982 -0.00497198524 -0.00708929729
  vertex 0.0344678424 -0.00486134132 -0.00667655049
  vertex 0.0316600092 -0.00707181916 -0.00568280648
  endloop
 endfacet

 facet normal 0 0 0
  outer loop
  vertex -0.000603784982 -0.00497198524 -0.00708929729
  vertex 0.0316600092 -0.00707181916 -0.00568280648
  vertex -0.00339974184 -0.00856016763 -0.00374999968
  endloop
 endfacet

endsolid AssimpScene
