solid AssimpScene
 facet normal 0 0 0
  outer loop
  vertex 0.0351136401 0.00448086951 -0.00631553959
  vertex 0.0351314247 0.00717263902 -0.00383029459
  vertex 0.0351357274 0.00807465985 5.81560062e-06
  endloop
 endfacet

 facet normal 0 0 0
  outer loop
  vertex 0.0351136401 0.00448086951 -0.00631553959
  vertex 0.0351357274 0.00807465985 5.81560062e-06
  vertex 0.0351259522 0.00619156566 0.00509819807
  endloop
 endfacet

 facet normal 0 0 0
  outer loop
  vertex 0.0351136401 0.00448086951 -0.00631553959
  vertex 0.0351259522 0.00619156566 0.00509819807
  vertex 0.0350620598 0.000694613729 0.00717088999
  endloop
 endfacet

 facet normal 0 0 0
  outer loop
  vertex 0.0351136401 0.00448086951 -0.00631553959
  vertex 0.0350620598 0.000694613729 0.00717088999
  vertex 0.0345874913 -0.00500224112 -0.00688133668
  endloop
 endfacet

 facet normal 0 0 0
  outer loop
  vertex 0.0338567942 -0.00656305999 0.00638845935
  vertex 0.0345874913 -0.00500224112 -0.00688133668
  vertex 0.0350620598 0.000694613729 0.00717088999
  endloop
 endfacet

 facet normal 0 0 0
  outer loop
  vertex 0.0351136401 0.00448086951 -0.00631553959
  vertex 0.0345874913 -0.00500224112 -0.00688133668
  vertex -0.00739050889 0.00474392204 -0.0081696175
  endloop
 endfacet

 facet normal 0 0 0
  outer loop
  vertex -0.0170001555 0.0019986853 0.00350000011
  vertex -0.0154996896 -0.0040011988 0.00499999989
  vertex -0.00739611266 0.0059425747 0.00792502239
  endloop
 endfacet

 facet normal 0 0 0
  outer loop
  vertex -0.0170001555 0.0019986853 0.00350000011
  vertex -0.00557511626 0.0129990513 -0.00223040162
  vertex -0.0170001555 0.0019986853 -0.00350000011
  endloop
 endfacet

 facet normal 0 0 0
  outer loop
  vertex -0.00591103593 0.0122393044 0.00409049215
  vertex 0.0351357274 0.00807465985 5.81560062e-06
  vertex -0.00557511626 0.0129990513 -0.00223040162
  endloop
 endfacet

 facet normal 0 0 0
  outer loop
  vertex -0.00591103593 0.0122393044 0.00409049215
  vertex -0.00557511626 0.0129990513 -0.00223040162
  vertex -0.0170001555 0.0019986853 0.00350000011
  endloop
 endfacet

 facet normal 0 0 0
  outer loop
  vertex -0.00591103593 0.0122393044 0.00409049215
  vertex -0.0170001555 0.0019986853 0.00350000011
  vertex -0.00739611266 0.0059425747 0.00792502239
  endloop
 endfacet

 facet normal 0 0 0
  outer loop
  vertex -0.00411251839 -0.00848613307 0.00374999968
  vertex -0.00411251839 -0.00848613307 -0.00374999968
  vertex 0.0261135492 -0.00932444446 -0.00406927941
  endloop
 endfacet

 facet normal 0 0 0
  outer loop
  vertex -0.00411251839 -0.00848613307 0.00374999968
  vertex 0.0261135492 -0.00932444446 -0.00406927941
  vertex 0.0258073248 -0.00961272884 0.00321661355
  endloop
 endfacet

 facet normal 0 0 0
  outer loop
  vertex 0.0351259522 0.00619156566 0.00509819807
  vertex 0.0351357274 0.00807465985 5.81560062e-06
  vertex -0.00591103593 0.0122393044 0.00409049215
  endloop
 endfacet

 facet normal 0 0 0
  outer loop
  vertex 0.0351259522 0.00619156566 0.00509819807
  vertex -0.00591103593 0.0122393044 0.00409049215
  vertex -0.00739611266 0.0059425747 0.00792502239
  endloop
 endfacet

 facet normal 0 0 0
  outer loop
  vertex 0.0351259522 0.00619156566 0.00509819807
  vertex -0.00739611266 0.0059425747 0.00792502239
  vertex 0.0350620598 0.000694613729 0.00717088999
  endloop
 endfacet

 facet normal 0 0 0
  outer loop
  vertex -0.00502070785 -0.00185311947 0.00821270421
  vertex -0.0154996896 -0.0040011988 0.00499999989
  vertex -0.00411251839 -0.00848613307 0.00374999968
  endloop
 endfacet

 facet normal 0 0 0
  outer loop
  vertex -0.00502070785 -0.00185311947 0.00821270421
  vertex 0.0338567942 -0.00656305999 0.00638845935
  vertex 0.0350620598 0.000694613729 0.00717088999
  endloop
 endfacet

 facet normal 0 0 0
  outer loop
  vertex -0.00502070785 -0.00185311947 0.00821270421
  vertex 0.0350620598 0.000694613729 0.00717088999
  vertex -0.00739611266 0.0059425747 0.00792502239
  endloop
 endfacet

 facet normal 0 0 0
  outer loop
  vertex -0.00502070785 -0.00185311947 0.00821270421
  vertex -0.00739611266 0.0059425747 0.00792502239
  vertex -0.0154996896 -0.0040011988 0.00499999989
  endloop
 endfacet

 facet normal 0 0 0
  outer loop
  vertex -0.00446366379 -0.002485323 -0.00805432722
  vertex -0.00739050889 0.00474392204 -0.0081696175
  vertex 0.0345874913 -0.00500224112 -0.00688133668
  endloop
 endfacet

 facet normal 0 0 0
  outer loop
  vertex -0.00660724705 0.0103459461 -0.0060128225
  vertex 0.0351136401 0.00448086951 -0.00631553959
  vertex -0.00739050889 0.00474392204 -0.0081696175
  endloop
 endfacet

 facet normal 0 0 0
  outer loop
  vertex -0.00660724705 0.0103459461 -0.0060128225
  vertex -0.00739050889 0.00474392204 -0.0081696175
  vertex -0.0170001555 0.0019986853 -0.00350000011
  endloop
 endfacet

 facet normal 0 0 0
  outer loop
  vertex -0.00660724705 0.0103459461 -0.0060128225
  vertex -0.0170001555 0.0019986853 -0.00350000011
  vertex -0.00557511626 0.0129990513 -0.00223040162
  endloop
 endfacet

 facet normal 0 0 0
  outer loop
  vertex 0.0325881131 -0.00754950661 -0.00587835489
  vertex 0.0338567942 -0.00656305999 0.00638845935
  vertex 0.0258073248 -0.00961272884 0.00321661355
  endloop
 endfacet

 facet normal 0 0 0
  outer loop
  vertex 0.0325881131 -0.00754950661 -0.00587835489
  vertex 0.0258073248 -0.00961272884 0.00321661355
  vertex 0.0261135492 -0.00932444446 -0.00406927941
  endloop
 endfacet

 facet normal 0 0 0
  outer loop
  vertex 0.0325881131 -0.00754950661 -0.00587835489
  vertex 0.0261135492 -0.00932444446 -0.00406927941
  vertex -0.00411251839 -0.00848613307 -0.00374999968
  endloop
 endfacet

 facet normal 0 0 0
  outer loop
  vertex 0.0325881131 -0.00754950661 -0.00587835489
  vertex -0.00411251839 -0.00848613307 -0.00374999968
  vertex -0.00446366379 -0.002485323 -0.00805432722
  endloop
 endfacet

 facet normal 0 0 0
  outer loop
  vertex 0.0325881131 -0.00754950661 -0.00587835489
  vertex -0.00446366379 -0.002485323 -0.00805432722
  vertex 0.0345874913 -0.00500224112 -0.00688133668
  endloop
 endfacet

 facet normal 0 0 0
  outer loop
  vertex 0.0325881131 -0.00754950661 -0.00587835489
  vertex 0.0345874913 -0.00500224112 -0.00688133668
  vertex 0.0338567942 -0.00656305999 0.00638845935
  endloop
 endfacet

 facet normal 0 0 0
  outer loop
  vertex -0.0169996917 -0.00400131568 0.00350000011
  vertex -0.0154996896 -0.0040011988 0.00499999989
  vertex -0.0170001555 0.0019986853 0.00350000011
  endloop
 endfacet

 facet normal 0 0 0
  outer loop
  vertex -0.0169996917 -0.00400131568 0.00350000011
  vertex -0.0170001555 0.0019986853 0.00350000011
  vertex -0.0170001555 0.0019986853 -0.00350000011
  endloop
 endfacet

 facet normal 0 0 0
  outer loop
  vertex -0.0169996917 -0.00400131568 0.00350000011
  vertex -0.0170001555 0.0019986853 -0.00350000011
  vertex -0.0169996917 -0.00400131568 -0.00350000011
  endloop
 endfacet

 facet normal 0 0 0
  outer loop
  vertex -0.0169996917 -0.00400131568 0.00350000011
  vertex -0.0169996917 -0.00400131568 -0.00350000011
  vertex -0.00411251839 -0.00848613307 -0.00374999968
  endloop
 endfacet

 facet normal 0 0 0
  outer loop
  vertex -0.0169996917 -0.00400131568 0.00350000011
  vertex -0.00411251839 -0.00848613307 -0.00374999968
  vertex -0.00411251839 -0.00848613307 0.00374999968
  endloop
 endfacet

 facet normal 0 0 0
  outer loop
  vertex -0.0169996917 -0.00400131568 0.00350000011
  vertex -0.00411251839 -0.00848613307 0.00374999968
  vertex -0.0154996896 -0.0040011988 0.00499999989
  endloop
 endfacet

 facet normal 0 0 0
  outer loop
  vertex 0.0351314247 0.00717263902 -0.00383029459
  vertex 0.0351136401 0.00448086951 -0.00631553959
  vertex -0.00660724705 0.0103459461 -0.0060128225
  endloop
 endfacet

 facet normal 0 0 0
  outer loop
  vertex 0.0351314247 0.00717263902 -0.00383029459
  vertex -0.00660724705 0.0103459461 -0.0060128225
  vertex -0.00557511626 0.0129990513 -0.00223040162
  endloop
 endfacet

 facet normal 0 0 0
  outer loop
  vertex 0.0351314247 0.00717263902 -0.00383029459
  vertex -0.00557511626 0.0129990513 -0.00223040162
  vertex 0.0351357274 0.00807465985 5.81560062e-06
  endloop
 endfacet

 facet normal 0 0 0
  outer loop
  vertex -0.0154996896 -0.0040011988 -0.00499999989
  vertex -0.00739050889 0.00474392204 -0.0081696175
  vertex -0.00446366379 -0.002485323 -0.00805432722
  endloop
 endfacet

 facet normal 0 0 0
  outer loop
  vertex -0.0154996896 -0.0040011988 -0.00499999989
  vertex -0.00446366379 -0.002485323 -0.00805432722
  vertex -0.00411251839 -0.00848613307 -0.00374999968
  endloop
 endfacet

 facet normal 0 0 0
  outer loop
  vertex -0.0154996896 -0.0040011988 -0.00499999989
  vertex -0.00411251839 -0.00848613307 -0.00374999968
  vertex -0.0169996917 -0.00400131568 -0.00350000011
  endloop
 endfacet

 facet normal 0 0 0
  outer loop
  vertex -0.0154996896 -0.0040011988 -0.00499999989
  vertex -0.0169996917 -0.00400131568 -0.00350000011
  vertex -0.0170001555 0.0019986853 -0.00350000011
  endloop
 endfacet

 facet normal 0 0 0
  outer loop
  vertex -0.0154996896 -0.0040011988 -0.00499999989
  vertex -0.0170001555 0.0019986853 -0.00350000011
  vertex -0.00739050889 0.00474392204 -0.0081696175
  endloop
 endfacet

 facet normal 0 0 0
  outer loop
  vertex 0.0208484083 -0.00831563678 0.00557068177
  vertex 0.0338567942 -0.00656305999 0.00638845935
  vertex -0.00502070785 -0.00185311947 0.00821270421
  endloop
 endfacet

 facet normal 0 0 0
  outer loop
  vertex 0.0208484083 -0.00831563678 0.00557068177
  vertex -0.00502070785 -0.00185311947 0.00821270421
  vertex -0.00411251839 -0.00848613307 0.00374999968
  endloop
 endfacet

 facet normal 0 0 0
  outer loop
  vertex 0.0208484083 -0.00831563678 0.00557068177
  vertex -0.00411251839 -0.00848613307 0.00374999968
  vertex 0.0258073248 -0.00961272884 0.00321661355
  endloop
 endfacet

 facet normal 0 0 0
  outer loop
  vertex 0.0208484083 -0.00831563678 0.00557068177
  vertex 0.0258073248 -0.00961272884 0.00321661355
  vertex 0.0338567942 -0.00656305999 0.00638845935
  endloop
 endfacet

endsolid AssimpScene
